<svg width="600" height="141" viewBox="0 0 600 141" fill="none" xmlns="http://www.w3.org/2000/svg">
<g id="banner_vod" clip-path="url(#clip0_73_799)">
<path id="Vector" d="M584 0.5H16C7.16344 0.5 0 7.66344 0 16.5V124.5C0 133.337 7.16344 140.5 16 140.5H584C592.837 140.5 600 133.337 600 124.5V16.5C600 7.66344 592.837 0.5 584 0.5Z" fill="url(#paint0_linear_73_799)"/>
<path id="Vector_2" d="M562 21.5H469C459.611 21.5 452 29.1112 452 38.5V101.5C452 110.889 459.611 118.5 469 118.5H562C571.389 118.5 579 110.889 579 101.5V38.5C579 29.1112 571.389 21.5 562 21.5Z" fill="white"/>
<path id="Vector_3" d="M562 22H469C459.887 22 452.5 29.3873 452.5 38.5V101.5C452.5 110.613 459.887 118 469 118H562C571.113 118 578.5 110.613 578.5 101.5V38.5C578.5 29.3873 571.113 22 562 22Z" stroke="black" stroke-opacity="0.2"/>
<path id="Vector_4" d="M484.512 60.8975H488.88V75.9286H496.691V79.5001H484.512V60.8975ZM522.462 68.7343H519.918V75.1321C519.918 75.5775 520.034 75.8815 520.265 76.0442C520.496 76.207 520.852 76.2883 521.332 76.2883C521.691 76.2883 522.128 76.2712 522.642 76.2369V79.5515C522.257 79.6029 521.91 79.6414 521.601 79.6671C521.302 79.6928 520.929 79.7057 520.484 79.7057C518.908 79.7057 517.696 79.3716 516.848 78.7036C516.009 78.027 515.593 76.9992 515.602 75.6203V68.7343H513.726V65.5482H515.602V62.2079H519.918V65.5482H522.462V68.7343ZM532.483 68.7343H529.939V75.1321C529.939 75.5775 530.055 75.8815 530.286 76.0442C530.517 76.207 530.873 76.2883 531.352 76.2883C531.712 76.2883 532.149 76.2712 532.663 76.2369V79.5515C532.277 79.6029 531.93 79.6414 531.622 79.6671C531.322 79.6928 530.95 79.7057 530.504 79.7057C528.928 79.7057 527.717 79.3716 526.869 78.7036C526.029 78.027 525.614 76.9992 525.622 75.6203V68.7343H523.747V65.5482H525.622V62.2079H529.939V65.5482H532.483V68.7343Z" fill="#014B9B"/>
<path id="Vector_5" d="M505.427 79.7569C503.997 79.7569 502.75 79.4572 501.688 78.8576C500.635 78.2581 499.826 77.4188 499.26 76.3396C498.695 75.2519 498.412 73.9929 498.412 72.5626C498.412 71.1323 498.695 69.8775 499.26 68.7984C499.826 67.7107 500.635 66.867 501.688 66.2675C502.75 65.668 503.997 65.3682 505.427 65.3682C506.857 65.3682 508.099 65.668 509.153 66.2675C510.215 66.867 511.028 67.7107 511.593 68.7984C512.159 69.8775 512.441 71.1323 512.441 72.5626C512.441 73.9929 512.159 75.2519 511.593 76.3396C511.028 77.4188 510.215 78.2581 509.153 78.8576C508.099 79.4572 506.857 79.7569 505.427 79.7569ZM505.453 76.4938C505.992 76.4938 506.455 76.3311 506.84 76.0056C507.225 75.6716 507.517 75.2048 507.714 74.6053C507.919 74.0057 508.022 73.3163 508.022 72.5369C508.022 71.7575 507.919 71.068 507.714 70.4685C507.517 69.869 507.225 69.4065 506.84 69.081C506.455 68.747 505.992 68.58 505.453 68.58C504.622 68.58 503.975 68.9397 503.513 69.6591C503.059 70.3786 502.832 71.3378 502.832 72.5369C502.832 73.7359 503.059 74.6952 503.513 75.4146C503.975 76.1341 504.622 76.4938 505.453 76.4938Z" fill="#12A5BB"/>
<path id="Vector_6" d="M541.039 79.7569C539.609 79.7569 538.362 79.4572 537.3 78.8576C536.247 78.2581 535.438 77.4188 534.872 76.3396C534.307 75.2519 534.024 73.9929 534.024 72.5626C534.024 71.1323 534.307 69.8775 534.872 68.7984C535.438 67.7107 536.247 66.867 537.3 66.2675C538.362 65.668 539.609 65.3682 541.039 65.3682C542.469 65.3682 543.711 65.668 544.765 66.2675C545.827 66.867 546.64 67.7107 547.206 68.7984C547.771 69.8775 548.053 71.1323 548.053 72.5626C548.053 73.9929 547.771 75.2519 547.206 76.3396C546.64 77.4188 545.827 78.2581 544.765 78.8576C543.711 79.4572 542.469 79.7569 541.039 79.7569ZM541.065 76.4938C541.604 76.4938 542.067 76.3311 542.452 76.0056C542.838 75.6716 543.129 75.2048 543.326 74.6053C543.531 74.0057 543.634 73.3163 543.634 72.5369C543.634 71.7575 543.531 71.068 543.326 70.4685C543.129 69.869 542.838 69.4065 542.452 69.081C542.067 68.747 541.604 68.58 541.065 68.58C540.234 68.58 539.587 68.9397 539.125 69.6591C538.671 70.3786 538.444 71.3378 538.444 72.5369C538.444 73.7359 538.671 74.6952 539.125 75.4146C539.587 76.1341 540.234 76.4938 541.065 76.4938Z" fill="#8FBD1A"/>
<g id="Group" filter="url(#filter0_d_73_799)">
<path id="Vector_7" d="M456.5 123.5C471.136 123.5 483 111.636 483 97C483 82.3645 471.136 70.5 456.5 70.5C441.864 70.5 430 82.3645 430 97C430 111.636 441.864 123.5 456.5 123.5Z" fill="black" fill-opacity="0.16"/>
<path id="Vector_8" d="M456.5 122.5C470.583 122.5 482 111.083 482 97C482 82.9167 470.583 71.5 456.5 71.5C442.417 71.5 431 82.9167 431 97C431 111.083 442.417 122.5 456.5 122.5Z" stroke="white" stroke-width="2"/>
</g>
<path id="Vector_9" d="M467 97L451.25 106.093V87.9067L467 97Z" fill="white"/>
<path id="Vector_10" d="M49.9039 38.8267H52.9101V41.8072H49.9039V46.8946H46.1525V33.3795H49.9039V38.8267ZM42.0672 47.28C43.6945 47.2886 45.1076 47.4856 46.3067 47.871C47.5143 48.2564 48.4436 48.8131 49.0945 49.5411C49.754 50.2606 50.0837 51.117 50.0837 52.1105C50.0837 53.1297 49.754 54.0033 49.0945 54.7313C48.4436 55.4679 47.5143 56.0246 46.3067 56.4015C45.1076 56.7869 43.6945 56.9753 42.0672 56.9667C40.4142 56.9753 38.9753 56.7869 37.7505 56.4015C36.5258 56.0246 35.5794 55.4679 34.9113 54.7313C34.2519 54.0033 33.9221 53.1297 33.9221 52.1105C33.9221 51.117 34.2519 50.2606 34.9113 49.5411C35.5794 48.8131 36.5258 48.2564 37.7505 47.871C38.9753 47.4856 40.4142 47.2886 42.0672 47.28ZM42.0672 50.2092C40.5855 50.2092 39.4635 50.3676 38.7012 50.6845C37.939 51.0014 37.5621 51.4768 37.5707 52.1105C37.5621 52.7615 37.939 53.2497 38.7012 53.5751C39.4721 53.9006 40.594 54.0547 42.0672 54.0376C43.4975 54.0547 44.5895 53.9006 45.3432 53.5751C46.1054 53.2497 46.4866 52.7615 46.4866 52.1105C46.4866 51.4768 46.1054 51.0014 45.3432 50.6845C44.5895 50.3676 43.4975 50.2092 42.0672 50.2092ZM42.4526 37.8503H35.4895V42.8606C37.6478 42.8521 39.3821 42.8007 40.6925 42.7065C42.0029 42.6037 43.2662 42.4238 44.4824 42.1669L44.8164 45.1217C43.4975 45.4129 42.08 45.6014 40.5641 45.687C39.0481 45.7727 36.7999 45.824 33.8193 45.8412H31.8152V34.8955H42.4526V37.8503ZM67.2731 38.4926H62.6996C62.7167 39.2892 62.9137 40.0514 63.2905 40.7794C63.6674 41.5074 64.2583 42.1626 65.0634 42.745C65.8685 43.3189 66.8877 43.7599 68.121 44.0683L66.4509 46.946C65.1491 46.612 64.0314 46.111 63.0978 45.4429C62.1728 44.7749 61.4363 43.9783 60.8881 43.0534C60.3571 44.0726 59.6248 44.9504 58.6913 45.687C57.7663 46.415 56.6357 46.9631 55.2997 47.3314L53.5524 44.4537C54.7943 44.1368 55.8178 43.6743 56.6229 43.0662C57.4365 42.4495 58.0318 41.7515 58.4086 40.9721C58.7941 40.1842 58.991 39.3577 58.9996 38.4926H54.4517V35.6149H58.9996V33.3024H62.7253V35.6149H67.2731V38.4926ZM73.7737 47.1516H70.0995V42.4238H66.6822V39.4433H70.0995V33.3795H73.7737V47.1516ZM73.7737 56.7098H57.792V48.1023H73.7737V56.7098ZM61.5176 53.755H70.1766V51.0571H61.5176V53.755ZM96.5131 50.7744H92.8388V42.4752H88.8819V47.1516H77.4994V34.9469H81.225V38.3642H85.2333V34.9469H88.8819V39.5204H92.8388V33.4052H96.5131V50.7744ZM97.0013 56.5813H80.6855V49.0272H84.4368V53.6265H97.0013V56.5813ZM85.2333 44.2738V41.1648H81.225V44.2738H85.2333ZM119.869 39.135H100.162V36.2059H108.153V33.5851H111.852V36.2059H119.869V39.135ZM120.845 54.68H99.288V51.7251H108.153V49.1943C106.842 49.0658 105.712 48.8046 104.761 48.4106C103.819 48.008 103.095 47.4856 102.59 46.8432C102.084 46.2009 101.832 45.4558 101.832 44.6079C101.832 43.6486 102.162 42.8221 102.821 42.1284C103.48 41.4346 104.423 40.9036 105.647 40.5353C106.881 40.167 108.332 39.9829 110.002 39.9829C111.647 39.9829 113.082 40.167 114.306 40.5353C115.531 40.9036 116.473 41.4346 117.133 42.1284C117.792 42.8221 118.122 43.6486 118.122 44.6079C118.122 45.4472 117.869 46.188 117.364 46.8304C116.859 47.4727 116.135 47.9952 115.193 48.3977C114.259 48.8003 113.146 49.0658 111.852 49.1943V51.7251H120.845V54.68ZM110.002 42.8606C108.529 42.8606 107.437 43.002 106.726 43.2846C106.016 43.5587 105.66 43.9998 105.66 44.6079C105.66 45.2245 106.011 45.6699 106.714 45.9439C107.425 46.218 108.521 46.3551 110.002 46.3551C111.45 46.3551 112.529 46.218 113.24 45.9439C113.959 45.6699 114.319 45.2245 114.319 44.6079C114.319 43.9998 113.959 43.5587 113.24 43.2846C112.521 43.002 111.441 42.8606 110.002 42.8606ZM140.733 42.244H143.893V45.2759H140.733V56.8897H137.033V33.3795H140.733V42.244ZM134.361 35.7434C134.361 39.5804 133.538 42.942 131.894 45.8283C130.258 48.7146 127.534 51.0913 123.723 52.9585L121.642 50.1321C124.374 48.7617 126.468 47.1601 127.924 45.3273C129.389 43.4944 130.279 41.3104 130.596 38.7753H123.055V35.7434H134.361ZM169.741 36.0774C169.741 37.2936 169.716 38.3642 169.664 39.2892C169.613 40.2056 169.489 41.1991 169.292 42.2697H172.208V45.1988H163.215V47.8453C164.577 47.9652 165.746 48.2222 166.722 48.6161C167.707 49.0016 168.461 49.5112 168.983 50.1449C169.506 50.7702 169.767 51.5024 169.767 52.3418C169.767 53.3267 169.429 54.1661 168.752 54.8598C168.084 55.5536 167.125 56.0803 165.874 56.44C164.624 56.7997 163.138 56.9753 161.416 56.9667C159.678 56.9753 158.175 56.7997 156.907 56.44C155.648 56.0803 154.68 55.5536 154.004 54.8598C153.336 54.1661 153.006 53.3267 153.015 52.3418C153.006 51.511 153.259 50.7787 153.772 50.1449C154.295 49.5112 155.049 49.0016 156.034 48.6161C157.019 48.2222 158.196 47.9652 159.567 47.8453V45.1988H150.651V42.2697H165.553C165.733 41.3276 165.857 40.4497 165.926 39.636C165.994 38.8138 166.033 37.9616 166.041 37.0795H153.246V34.176H169.741V36.0774ZM161.416 50.6974C159.823 50.6974 158.642 50.8301 157.871 51.0956C157.1 51.3526 156.714 51.768 156.714 52.3418C156.714 52.9413 157.1 53.3781 157.871 53.6522C158.65 53.9263 159.832 54.0547 161.416 54.0376C162.967 54.0547 164.123 53.9263 164.885 53.6522C165.656 53.3781 166.041 52.9413 166.041 52.3418C166.041 51.7765 165.656 51.3611 164.885 51.0956C164.123 50.8301 162.967 50.6974 161.416 50.6974ZM192.481 36.3343C192.481 37.5762 192.451 38.6725 192.391 39.6232C192.331 40.5739 192.185 41.6273 191.954 42.7836H194.947V45.7384H173.39V42.7836H188.215C188.43 41.7986 188.575 40.8736 188.652 40.0086C188.729 39.1436 188.772 38.2528 188.781 37.3364H175.985V34.4073H192.481V36.3343ZM192.327 56.7098H175.908V48.0252H192.327V56.7098ZM179.531 53.755H188.652V50.9029H179.531V53.755ZM214.912 38.2614H217.995V41.2162H214.912V46.0467H211.212V33.3795H214.912V38.2614ZM214.912 53.0869H202.758V54.1404H215.528V56.8383H199.11V50.5946H211.212V49.5411H199.084V46.9203H214.912V53.0869ZM210.081 37.7989H196.104V35.0239H201.242V33.251H204.942V35.0239H210.081V37.7989ZM203.092 38.2357C204.274 38.2357 205.306 38.3942 206.189 38.711C207.071 39.0194 207.752 39.4647 208.231 40.0471C208.711 40.6295 208.951 41.3104 208.951 42.0898C208.951 42.8863 208.711 43.5715 208.231 44.1454C207.752 44.7192 207.071 45.1603 206.189 45.4686C205.315 45.7769 204.283 45.9354 203.092 45.9439C201.91 45.9354 200.874 45.7769 199.983 45.4686C199.093 45.1603 198.403 44.7192 197.915 44.1454C197.435 43.5715 197.2 42.8863 197.208 42.0898C197.2 41.3104 197.44 40.6295 197.928 40.0471C198.416 39.4647 199.106 39.0194 199.996 38.711C200.887 38.3942 201.919 38.2357 203.092 38.2357ZM203.092 40.8051C202.356 40.8051 201.791 40.9122 201.397 41.1263C201.003 41.3404 200.806 41.6616 200.806 42.0898C200.806 42.5095 200.998 42.8178 201.384 43.0148C201.769 43.2032 202.339 43.306 203.092 43.3231C203.855 43.306 204.433 43.2032 204.827 43.0148C205.229 42.8178 205.431 42.5095 205.431 42.0898C205.431 41.6616 205.225 41.3404 204.814 41.1263C204.411 40.9122 203.838 40.8051 203.092 40.8051ZM240.709 39.8287H242.045V33.3795H245.539V50.8001H242.045V42.7322H240.709V50.1321H237.343V33.8163H240.709V39.8287ZM230.071 38.3642H228.478V44.1967C229.121 44.1282 229.677 44.0511 230.148 43.9655L230.405 46.8946C229.66 47.0402 228.984 47.1344 228.375 47.1773C227.767 47.2115 227.031 47.2287 226.166 47.2287H225.112V35.435H230.071V38.3642ZM236.238 38.3642H234.414V44.2096C235.047 44.1582 235.69 44.0597 236.341 43.9141L236.649 46.9203C235.87 47.0574 235.159 47.143 234.516 47.1773C233.874 47.2115 233.095 47.2287 232.178 47.2287H231.048V35.435H236.238V38.3642ZM246.027 56.5813H228.709V48.8988H232.409V53.6265H246.027V56.5813ZM251.731 48.462C251.731 47.4599 251.813 46.6505 251.976 46.0339C252.147 45.4087 252.391 44.9119 252.708 44.5436C253.025 44.1753 253.453 43.8199 253.993 43.4773C254.652 43.0576 255.149 42.6551 255.483 42.2697C255.825 41.8843 255.997 41.4303 255.997 40.9079C255.997 40.3512 255.804 39.9058 255.419 39.5718C255.033 39.2292 254.558 39.0579 253.993 39.0579C253.624 39.0579 253.282 39.1436 252.965 39.3149C252.648 39.4776 252.391 39.7174 252.194 40.0343C251.997 40.3426 251.894 40.7023 251.886 41.1134H247.8C247.817 39.8973 248.1 38.8823 248.648 38.0687C249.205 37.2465 249.95 36.6384 250.884 36.2444C251.817 35.8419 252.862 35.6406 254.018 35.6406C255.269 35.6406 256.378 35.8376 257.346 36.2316C258.322 36.6255 259.08 37.2037 259.62 37.9659C260.168 38.7282 260.442 39.6403 260.442 40.7023C260.442 41.7215 260.193 42.5909 259.697 43.3103C259.2 44.0297 258.489 44.6678 257.564 45.2245C257.076 45.5157 256.682 45.8069 256.382 46.0981C256.091 46.3807 255.872 46.7105 255.727 47.0873C255.581 47.4642 255.508 47.9224 255.508 48.462V48.8217H251.731V48.462ZM253.684 54.757C253.265 54.757 252.875 54.6543 252.515 54.4487C252.155 54.2432 251.873 53.9605 251.667 53.6008C251.462 53.2411 251.363 52.8471 251.372 52.4189C251.363 52.0078 251.462 51.6266 251.667 51.2755C251.873 50.9243 252.155 50.646 252.515 50.4404C252.875 50.2349 253.265 50.1321 253.684 50.1321C254.087 50.1321 254.464 50.2349 254.815 50.4404C255.174 50.646 255.461 50.9243 255.675 51.2755C255.898 51.6266 256.014 52.0078 256.022 52.4189C256.014 52.8471 255.902 53.2411 255.688 53.6008C255.474 53.952 255.187 54.2346 254.828 54.4487C254.468 54.6543 254.087 54.757 253.684 54.757Z" fill="#8D3513" fill-opacity="0.62"/>
<path id="Vector_11" d="M204 77.5H46C37.1634 77.5 30 84.6634 30 93.5V98.5C30 107.337 37.1634 114.5 46 114.5H204C212.837 114.5 220 107.337 220 98.5V93.5C220 84.6634 212.837 77.5 204 77.5Z" fill="white"/>
<path id="Vector_12" d="M43.0068 89.7734L46.2938 97.7891H46.4346L49.7216 89.7734H53.4306V102.5H50.5126V94.5898H50.4072L47.3134 102.43H45.415L42.3213 94.5547H42.2158V102.5H39.2979V89.7734H43.0068ZM55.3643 89.7734H60.62C61.5517 89.7734 62.3398 89.9082 62.9844 90.1777C63.6348 90.4414 64.124 90.8164 64.4521 91.3027C64.7803 91.7891 64.9442 92.3574 64.9442 93.0078C64.9442 93.4824 64.8447 93.9102 64.6455 94.291C64.4463 94.6719 64.168 94.9883 63.8105 95.2402C63.4531 95.4863 63.04 95.6562 62.5713 95.75V95.873C63.0869 95.8965 63.5614 96.0371 63.995 96.2949C64.4345 96.5527 64.7832 96.9102 65.041 97.3672C65.3047 97.8242 65.4365 98.3516 65.4365 98.9492C65.4365 99.6406 65.2607 100.256 64.9092 100.795C64.5635 101.328 64.0595 101.747 63.3974 102.052C62.7353 102.351 61.9442 102.5 61.0243 102.5H55.3643V89.7734ZM60.3213 100.074C60.9893 100.074 61.4872 99.9482 61.8153 99.6963C62.1435 99.4443 62.3075 99.084 62.3075 98.6152C62.3075 98.1113 62.1348 97.7129 61.7891 97.4199C61.4434 97.127 60.9717 96.9805 60.374 96.9805H58.3525V100.074H60.3213ZM60.1278 95.0293C60.6493 95.0293 61.0713 94.9004 61.3936 94.6426C61.7217 94.3789 61.8857 94.0215 61.8857 93.5703C61.8857 93.1367 61.7304 92.7939 61.4198 92.542C61.1151 92.29 60.6963 92.1641 60.1631 92.1641H58.3525V95.0293H60.1278ZM75.3682 94.3613C75.2803 93.7051 75.0107 93.1865 74.5596 92.8057C74.1143 92.4248 73.5399 92.2344 72.8368 92.2344C72.2099 92.2344 71.6709 92.3896 71.2197 92.7002C70.7686 93.0049 70.4198 93.4502 70.1737 94.0361C69.9335 94.6162 69.8134 95.3164 69.8134 96.1367C69.8134 96.9805 69.9335 97.6953 70.1737 98.2812C70.4198 98.8613 70.7686 99.3008 71.2197 99.5996C71.6709 99.8926 72.204 100.039 72.8192 100.039C73.5048 100.039 74.0731 99.8633 74.5243 99.5117C74.9755 99.1602 75.2568 98.6738 75.3682 98.0527L78.3916 98.0703C78.3037 98.8555 78.0282 99.5996 77.5653 100.303C77.1024 101.006 76.4609 101.577 75.6406 102.017C74.8203 102.456 73.8623 102.676 72.7666 102.676C71.6064 102.676 70.5723 102.418 69.6641 101.902C68.7559 101.387 68.0438 100.637 67.5282 99.6523C67.0126 98.668 66.7548 97.4961 66.7548 96.1367C66.7548 94.7715 67.0156 93.5967 67.5371 92.6123C68.0586 91.6279 68.7734 90.8809 69.6816 90.3711C70.5957 89.8555 71.624 89.5977 72.7666 89.5977C73.792 89.5977 74.709 89.7852 75.5176 90.1602C76.3262 90.5352 76.9795 91.0801 77.4775 91.7949C77.9814 92.5098 78.2861 93.3652 78.3916 94.3613H75.3682ZM98.3252 99.7402H92.208V104.205H89.6768V99.7402H83.6122V97.6836H98.3252V99.7402ZM97.0067 91.8477H92.2871C92.4043 92.2988 92.6708 92.7412 93.0868 93.1748C93.5028 93.6025 94.0889 93.9805 94.8447 94.3086C95.6006 94.6367 96.5145 94.8594 97.5868 94.9766L96.6728 96.9453C95.3427 96.8047 94.1943 96.4941 93.2275 96.0137C92.2607 95.5273 91.5048 94.9238 90.9599 94.2031C90.4149 94.9297 89.6562 95.5332 88.6836 96.0137C87.7168 96.4883 86.5595 96.7988 85.2118 96.9453L84.2978 94.9766C85.3817 94.8594 86.3018 94.6367 87.0576 94.3086C87.8193 93.9805 88.4082 93.6025 88.8242 93.1748C89.2402 92.7471 89.5038 92.3047 89.6151 91.8477H84.9131V89.8613H89.6768V88.0859H92.208V89.8613H97.0067V91.8477ZM108.38 91.5488H105.251C105.263 92.0938 105.397 92.6152 105.655 93.1133C105.913 93.6113 106.317 94.0596 106.868 94.458C107.419 94.8506 108.116 95.1523 108.96 95.3633L107.817 97.332C106.927 97.1035 106.162 96.7607 105.523 96.3037C104.891 95.8467 104.387 95.3018 104.012 94.6689C103.648 95.3662 103.147 95.9668 102.509 96.4707C101.876 96.9688 101.103 97.3438 100.188 97.5957L98.9932 95.627C99.8428 95.4102 100.543 95.0938 101.094 94.6777C101.65 94.2559 102.058 93.7783 102.315 93.2451C102.579 92.7061 102.714 92.1406 102.72 91.5488H99.6083V89.5801H102.72V87.998H105.269V89.5801H108.38V91.5488ZM112.827 97.4727H110.313V94.2383H107.976V92.1992H110.313V88.0508H112.827V97.4727ZM112.827 104.012H101.894V98.123H112.827V104.012ZM104.442 101.99H110.366V100.145H104.442V101.99ZM122.249 97.8594C123.368 97.8535 124.341 97.9766 125.167 98.2285C125.993 98.4746 126.626 98.835 127.065 99.3096C127.511 99.7842 127.733 100.35 127.733 101.006C127.733 101.674 127.511 102.248 127.065 102.729C126.626 103.215 125.993 103.584 125.167 103.836C124.341 104.094 123.368 104.223 122.249 104.223C121.112 104.223 120.125 104.094 119.287 103.836C118.449 103.584 117.805 103.215 117.354 102.729C116.902 102.248 116.677 101.674 116.677 101.006C116.677 100.35 116.902 99.7842 117.354 99.3096C117.805 98.835 118.449 98.4746 119.287 98.2285C120.125 97.9766 121.112 97.8535 122.249 97.8594ZM122.249 99.793C121.224 99.8047 120.459 99.9072 119.955 100.101C119.451 100.288 119.202 100.59 119.208 101.006C119.19 101.838 120.204 102.254 122.249 102.254C123.245 102.254 123.992 102.151 124.49 101.946C124.988 101.741 125.237 101.428 125.237 101.006C125.237 100.59 124.991 100.288 124.499 100.101C124.013 99.9072 123.263 99.8047 122.249 99.793ZM127.575 91.707H129.667V93.7988H127.575V97.5078H125.044V88.0508H127.575V91.707ZM117.644 90.9863H120.509V89.0703H123.04V96.6816H115.147V89.0703H117.644V90.9863ZM120.509 94.7129V92.9199H117.644V94.7129H120.509ZM138.878 95.6445H144.995V97.666H130.282V95.6445H136.347V93.7812H138.878V95.6445ZM138.896 88.7891C138.896 89.4219 139.077 90.0166 139.44 90.5732C139.81 91.124 140.393 91.5986 141.189 91.9971C141.986 92.3955 143.003 92.668 144.239 92.8145L143.272 94.7832C141.907 94.5898 140.744 94.2324 139.783 93.7109C138.828 93.1895 138.093 92.5361 137.577 91.751C137.056 92.5303 136.314 93.1836 135.354 93.7109C134.398 94.2324 133.247 94.5898 131.899 94.7832L131.003 92.8145C132.21 92.668 133.209 92.3896 134 91.9795C134.797 91.5693 135.38 91.0859 135.749 90.5293C136.124 89.9727 136.312 89.3926 136.312 88.7891V88.332H138.896V88.7891ZM137.612 98.4043C138.784 98.4043 139.792 98.5186 140.636 98.7471C141.479 98.9756 142.124 99.3066 142.569 99.7402C143.015 100.174 143.237 100.695 143.237 101.305C143.237 101.92 143.015 102.444 142.569 102.878C142.124 103.312 141.479 103.64 140.636 103.862C139.798 104.085 138.79 104.193 137.612 104.188C136.429 104.193 135.412 104.085 134.562 103.862C133.713 103.64 133.062 103.312 132.611 102.878C132.16 102.444 131.935 101.92 131.935 101.305C131.935 100.695 132.16 100.174 132.611 99.7402C133.062 99.3066 133.713 98.9756 134.562 98.7471C135.418 98.5186 136.435 98.4043 137.612 98.4043ZM137.612 100.32C136.528 100.32 135.74 100.399 135.248 100.558C134.756 100.71 134.513 100.959 134.519 101.305C134.513 101.662 134.756 101.923 135.248 102.087C135.746 102.245 136.534 102.324 137.612 102.324C138.661 102.324 139.438 102.245 139.941 102.087C140.451 101.923 140.706 101.662 140.706 101.305C140.706 100.959 140.454 100.71 139.95 100.558C139.446 100.399 138.667 100.32 137.612 100.32ZM162.661 93.9219H164.946V95.9785H162.661V104.223H160.13V88.0508H162.661V93.9219ZM158.056 91.5664H153.011V98.2637C154.13 98.252 155.176 98.208 156.148 98.1318C157.121 98.0557 158.103 97.9355 159.093 97.7715L159.356 99.8809C158.214 100.074 157.08 100.203 155.955 100.268C154.83 100.326 153.468 100.356 151.868 100.356H150.479V89.5273H158.056V91.5664ZM171.872 91.4785C171.866 92.5156 172.001 93.5029 172.276 94.4404C172.552 95.3721 172.988 96.2041 173.586 96.9365C174.184 97.6689 174.942 98.2227 175.862 98.5977L174.368 100.637C173.489 100.244 172.739 99.6904 172.118 98.9756C171.497 98.2607 170.999 97.417 170.624 96.4443C170.255 97.5225 169.742 98.4541 169.086 99.2393C168.436 100.024 167.636 100.631 166.687 101.059L165.175 98.9492C166.118 98.5625 166.897 97.9883 167.513 97.2266C168.128 96.4648 168.579 95.5947 168.866 94.6162C169.153 93.6318 169.3 92.5859 169.306 91.4785V89.2461H171.872V91.4785ZM178.974 104.223H176.425V88.0508H178.974V104.223ZM195.726 102.377H180.978V100.32H187.077V97.4902H182.489V89.0527H185.021V91.4258H191.612V89.0527H194.144V97.4902H189.573V100.32H195.726V102.377ZM191.612 95.4863V93.4121H185.021V95.4863H191.612ZM210.157 104.188H207.591V88.0508H210.157V104.188ZM205.306 89.7207C205.306 91.4902 205.083 93.084 204.638 94.502C204.192 95.9141 203.422 97.2119 202.326 98.3955C201.236 99.5732 199.745 100.607 197.853 101.498L196.534 99.4941C197.894 98.8496 199.007 98.1465 199.874 97.3848C200.741 96.623 201.4 95.7793 201.852 94.8535C202.309 93.9277 202.599 92.873 202.722 91.6895H197.448V89.7207H205.306Z" fill="#8D3513" fill-opacity="0.62"/>
</g>
<defs>
<filter id="filter0_d_73_799" x="421.1" y="64" width="70.8" height="75.4" filterUnits="userSpaceOnUse" color-interpolation-filters="sRGB">
<feFlood flood-opacity="0" result="BackgroundImageFix"/>
<feColorMatrix in="SourceAlpha" type="matrix" values="0 0 0 0 0 0 0 0 0 0 0 0 0 0 0 0 0 0 127 0" result="hardAlpha"/>
<feOffset dy="7"/>
<feGaussianBlur stdDeviation="4.45"/>
<feComposite in2="hardAlpha" operator="out"/>
<feColorMatrix type="matrix" values="0 0 0 0 0 0 0 0 0 0 0 0 0 0 0 0 0 0 0.25 0"/>
<feBlend mode="normal" in2="BackgroundImageFix" result="effect1_dropShadow_73_799"/>
<feBlend mode="normal" in="SourceGraphic" in2="effect1_dropShadow_73_799" result="shape"/>
</filter>
<linearGradient id="paint0_linear_73_799" x1="-12.5" y1="-7.50001" x2="589.5" y2="152" gradientUnits="userSpaceOnUse">
<stop stop-color="#FFEDC7"/>
<stop offset="1" stop-color="#FFD6D5"/>
</linearGradient>
<clipPath id="clip0_73_799">
<rect width="600" height="140" fill="white" transform="translate(0 0.5)"/>
</clipPath>
</defs>
</svg>
