<svg width="416" height="299" viewBox="0 0 416 299" fill="none" xmlns="http://www.w3.org/2000/svg">
<rect x="63" y="79" width="290" height="141" rx="16" fill="url(#paint0_linear_36_1570)"/>
<rect x="63.5" y="79.5" width="289" height="140" rx="15.5" stroke="white" stroke-opacity="0.96"/>
<rect x="63.5" y="79.5" width="289" height="140" rx="15.5" stroke="#434EC6" stroke-opacity="0.39"/>
<rect x="94" y="144" width="12" height="12" rx="6" fill="#FDE985"/>
<rect x="136" y="144" width="12" height="12" rx="6" fill="white"/>
<rect x="178" y="144" width="12" height="12" rx="6" fill="#9AB5FF"/>
<rect x="220" y="144" width="12" height="12" rx="6" fill="#8EEB86"/>
<rect x="262" y="144" width="12" height="12" rx="6" fill="#FD838F"/>
<rect x="304" y="144" width="12" height="12" rx="6" fill="white"/>
<rect x="250" y="102" width="83" height="16" rx="5" fill="white" fill-opacity="0.2"/>
<rect x="82" y="190" width="251" height="16" rx="5" fill="white" fill-opacity="0.2"/>
<defs>
<linearGradient id="paint0_linear_36_1570" x1="69.174" y1="84.4682" x2="346.621" y2="231.73" gradientUnits="userSpaceOnUse">
<stop stop-color="#DAEBFF"/>
<stop offset="1" stop-color="#B3C1E3"/>
</linearGradient>
</defs>
</svg>
