<svg width="416" height="300" viewBox="0 0 416 300" fill="none" xmlns="http://www.w3.org/2000/svg">
<g id="img_confetti" clip-path="url(#clip0_73_680)">
<g id="Clip path group">
<mask id="mask0_73_680" style="mask-type:luminance" maskUnits="userSpaceOnUse" x="0" y="0" width="416" height="300">
<g id="clip0_36_1634">
<path id="Vector" d="M416 0.5H0V299.5H416V0.5Z" fill="white"/>
</g>
</mask>
<g mask="url(#mask0_73_680)">
<g id="Group">
<g id="Group_2" filter="url(#filter0_f_73_680)">
<path id="Vector_2" d="M268.906 101.849L281.954 124.449H255.857L268.906 101.849Z" fill="#3B36CC"/>
</g>
<g id="Group_3" filter="url(#filter1_f_73_680)">
<path id="Vector_3" d="M222.246 204.889L235.294 227.49H209.197L222.246 204.889Z" fill="#F94B45"/>
</g>
<path id="Vector_4" d="M206.693 71.7144L219.741 94.3151H193.644L206.693 71.7144Z" fill="#F945BA"/>
<g id="Group_4" opacity="0.92" filter="url(#filter2_f_73_680)">
<path id="Vector_5" d="M49.6841 30.6985L66.2166 25.0059L62.8802 42.1697L49.6841 30.6985Z" fill="#F945BA"/>
</g>
<path id="Vector_6" opacity="0.96" d="M113.457 35.8018L119.433 66.543L89.8223 56.3473L113.457 35.8018Z" fill="#3B36CC"/>
<path id="Vector_7" opacity="0.75" d="M262.217 48.7027L245.094 40.3513L260.888 29.6982L262.217 48.7027Z" fill="#F7C512"/>
<g id="Group_5" opacity="0.84" filter="url(#filter3_f_73_680)">
<path id="Vector_8" d="M300.849 37.8341L289.904 21.6075L309.43 20.2422L300.849 37.8341Z" fill="#F945BA"/>
</g>
<path id="Vector_9" opacity="0.71" d="M365.012 61.1671L349.784 45.398L371.054 40.0947L365.012 61.1671Z" fill="#F7C512"/>
<path id="Vector_10" opacity="0.8" d="M37.2042 73.7579L18.9739 57.3433L42.3046 49.7627L37.2042 73.7579Z" fill="#3B36CC"/>
<path id="Vector_11" opacity="0.71" d="M94.9672 59.597L91.4946 43.2598L107.38 48.421L94.9672 59.597Z" fill="#3B36CC"/>
<g id="Group_6" opacity="0.89" filter="url(#filter4_f_73_680)">
<path id="Vector_12" d="M234.031 67.6128L263.741 69.1699L247.538 94.121L234.031 67.6128Z" fill="#F7C512"/>
</g>
<g id="Group_7" opacity="0.78" filter="url(#filter5_f_73_680)">
<path id="Vector_13" d="M348.625 82.0225L368.123 98.9725L343.695 107.384L348.625 82.0225Z" fill="#F7C512"/>
</g>
<g id="Group_8" opacity="0.76" filter="url(#filter6_f_73_680)">
<path id="Vector_14" d="M395.656 83.6109L385.663 60.0688L411.047 63.1857L395.656 83.6109Z" fill="#F945BA"/>
</g>
<path id="Vector_15" opacity="0.88" d="M101.622 170.762L104.612 195.11L82.0308 185.525L101.622 170.762Z" fill="#F94B45"/>
<g id="Group_9" opacity="0.72" filter="url(#filter7_f_73_680)">
<path id="Vector_16" d="M118.686 159.535L104.092 171.781L100.784 153.019L118.686 159.535Z" fill="#3B36CC"/>
</g>
<path id="Vector_17" opacity="0.79" d="M217.114 169.158L243.604 181.511L219.661 198.275L217.114 169.158Z" fill="#F945BA"/>
<path id="Vector_18" opacity="0.96" d="M349.118 139.052L343.255 156.078L331.442 142.487L349.118 139.052Z" fill="#F945BA"/>
<path id="Vector_19" opacity="0.82" d="M388.489 154.825L388.985 126.384L413.368 141.035L388.489 154.825Z" fill="#3B36CC"/>
<g id="Group_10" opacity="0.76" filter="url(#filter8_f_73_680)">
<path id="Vector_20" d="M28.7321 233.116L11.2481 244.041L10.5286 223.437L28.7321 233.116Z" fill="#3B36CC"/>
</g>
<path id="Vector_21" opacity="0.91" d="M112.025 178.76L129.766 166.794L131.259 188.141L112.025 178.76Z" fill="#F945BA"/>
<path id="Vector_22" opacity="0.98" d="M199.984 208.709L198.346 239.983L172.081 222.927L199.984 208.709Z" fill="#F7C512"/>
<path id="Vector_23" opacity="0.9" d="M332.075 229.282L335.3 208.919L351.322 221.894L332.075 229.282Z" fill="#F7C512"/>
<path id="Vector_24" opacity="0.91" d="M242.822 260.85L243.469 242.332L259.182 252.151L242.822 260.85Z" fill="#F945BA"/>
<g id="Group_11" opacity="0.83" filter="url(#filter9_f_73_680)">
<path id="Vector_25" d="M334.671 260.697L316.775 249.944L335.036 239.823L334.671 260.697Z" fill="#F945BA"/>
</g>
<g id="Group_12" filter="url(#filter10_ii_73_680)">
<path id="Vector_26" d="M260.455 220.911C260.455 205.104 247.641 192.289 231.833 192.289C216.026 192.289 203.211 205.104 203.211 220.911C203.211 236.719 216.026 249.533 231.833 249.533C247.641 249.533 260.455 236.719 260.455 220.911Z" fill="#63B9DF"/>
<path id="Vector_27" d="M229.241 230.289H225.058V216.495H224.961L220.974 218.941V215.321L225.352 212.582H229.241V230.289ZM241.225 230.289H237.043V216.495H236.945L232.958 218.941V215.321L237.336 212.582H241.225V230.289Z" fill="black"/>
</g>
<g id="Group_13" filter="url(#filter11_ii_73_680)">
<path id="Vector_28" d="M241.244 173.122C241.244 157.315 228.43 144.5 212.622 144.5C196.815 144.5 184 157.315 184 173.122C184 188.93 196.815 201.744 212.622 201.744C228.43 201.744 241.244 188.93 241.244 173.122Z" fill="#F57F8B"/>
<path id="Vector_29" d="M198.192 179.492L204.649 173.818C205.22 173.296 205.664 172.856 205.982 172.497C206.308 172.138 206.561 171.775 206.74 171.409C206.92 171.034 207.013 170.63 207.021 170.198C207.013 169.717 206.895 169.297 206.667 168.938C206.447 168.571 206.141 168.29 205.75 168.095C205.367 167.899 204.926 167.801 204.429 167.801C203.663 167.801 203.051 168.029 202.595 168.486C202.138 168.942 201.91 169.57 201.91 170.369H197.948C197.948 169.195 198.217 168.168 198.755 167.287C199.301 166.407 200.063 165.73 201.042 165.257C202.028 164.785 203.165 164.548 204.453 164.548C205.766 164.548 206.92 164.772 207.914 165.221C208.917 165.661 209.691 166.285 210.238 167.092C210.784 167.899 211.057 168.828 211.057 169.88C211.057 170.581 210.914 171.258 210.629 171.91C210.352 172.562 209.863 173.288 209.161 174.087C208.469 174.877 207.486 175.831 206.214 176.948L203.989 179.003V179.125H211.277V182.5H198.192V179.492ZM220.449 182.745C219.177 182.745 218.031 182.516 217.012 182.06C216.001 181.595 215.202 180.951 214.616 180.128C214.037 179.304 213.739 178.375 213.723 177.339H217.783C217.799 177.772 217.925 178.155 218.162 178.489C218.406 178.815 218.728 179.068 219.128 179.247C219.527 179.427 219.968 179.516 220.449 179.516C220.995 179.516 221.484 179.394 221.916 179.149C222.356 178.905 222.695 178.566 222.931 178.134C223.176 177.694 223.294 177.193 223.286 176.63C223.294 176.06 223.176 175.554 222.931 175.114C222.686 174.674 222.344 174.331 221.904 174.087C221.464 173.842 220.962 173.72 220.4 173.72C219.772 173.72 219.242 173.842 218.81 174.087C218.386 174.323 218.052 174.682 217.807 175.163H214.065L214.946 164.793H226.269V168.168H218.37L217.954 172.399H218.076C218.386 171.902 218.867 171.502 219.519 171.201C220.171 170.891 220.905 170.736 221.72 170.736C222.788 170.736 223.746 170.985 224.594 171.482C225.442 171.971 226.106 172.656 226.587 173.536C227.077 174.409 227.321 175.399 227.321 176.508C227.321 177.714 227.032 178.791 226.453 179.736C225.882 180.682 225.075 181.42 224.032 181.95C222.996 182.48 221.802 182.745 220.449 182.745Z" fill="black"/>
</g>
<g id="Group_14" filter="url(#filter12_ii_73_680)">
<path id="Vector_30" d="M312.333 236.2C312.333 220.393 299.519 207.578 283.711 207.578C267.903 207.578 255.089 220.393 255.089 236.2C255.089 252.008 267.903 264.823 283.711 264.823C299.519 264.823 312.333 252.008 312.333 236.2Z" fill="#B4D852"/>
<path id="Vector_31" d="M270.529 239.341L277.866 227.87H283.124V239.317H285.276V242.594H283.124V245.578H279.138V242.594H270.529V239.341ZM279.211 239.317V232.297H279.064L274.686 239.17V239.317H279.211ZM295.353 245.578H291.171V231.784H291.073L287.086 234.229V230.61L291.464 227.87H295.353V245.578Z" fill="black"/>
</g>
<g id="Group_15" filter="url(#filter13_ii_73_680)">
<path id="Vector_32" d="M390.244 153.122C390.244 137.315 377.43 124.5 361.622 124.5C345.815 124.5 333 137.315 333 153.122C333 168.93 345.815 181.744 361.622 181.744C377.43 181.744 390.244 168.93 390.244 153.122Z" fill="#B1B1B1"/>
<path id="Vector_33" d="M355.557 162.745C354.228 162.745 353.038 162.516 351.986 162.06C350.942 161.603 350.123 160.963 349.528 160.14C348.933 159.316 348.627 158.383 348.611 157.339H352.818C352.826 157.723 352.948 158.069 353.184 158.379C353.429 158.681 353.759 158.917 354.175 159.088C354.599 159.259 355.068 159.345 355.581 159.345C356.095 159.345 356.555 159.251 356.963 159.064C357.371 158.876 357.689 158.619 357.917 158.293C358.145 157.959 358.255 157.584 358.247 157.168C358.255 156.744 358.133 156.365 357.88 156.031C357.636 155.697 357.281 155.436 356.816 155.248C356.36 155.061 355.826 154.967 355.214 154.967H353.502V151.983H355.214C355.744 151.983 356.217 151.894 356.633 151.714C357.049 151.535 357.371 151.286 357.599 150.968C357.835 150.642 357.954 150.271 357.954 149.855C357.954 149.456 357.852 149.101 357.648 148.792C357.452 148.482 357.175 148.241 356.816 148.07C356.458 147.891 356.046 147.801 355.581 147.801C355.1 147.801 354.66 147.891 354.261 148.07C353.869 148.241 353.555 148.486 353.319 148.804C353.091 149.114 352.972 149.472 352.964 149.88H348.953C348.97 148.853 349.263 147.936 349.834 147.128C350.413 146.313 351.203 145.681 352.206 145.233C353.217 144.776 354.35 144.548 355.606 144.548C356.845 144.548 357.95 144.768 358.92 145.209C359.89 145.649 360.64 146.256 361.17 147.031C361.708 147.797 361.973 148.657 361.965 149.611C361.973 150.255 361.83 150.838 361.537 151.36C361.243 151.881 360.831 152.309 360.302 152.644C359.772 152.97 359.168 153.182 358.492 153.28V153.402C359.829 153.557 360.856 153.997 361.573 154.723C362.291 155.448 362.641 156.369 362.625 157.486C362.633 158.489 362.336 159.39 361.732 160.189C361.129 160.988 360.289 161.615 359.213 162.072C358.137 162.52 356.918 162.745 355.557 162.745ZM373.117 162.5H368.935V148.706H368.837L364.851 151.152V147.532L369.228 144.793H373.117V162.5Z" fill="black"/>
</g>
<path id="Vector_34" d="M337 79.5H79C70.1634 79.5 63 86.6634 63 95.5V204.5C63 213.337 70.1634 220.5 79 220.5H337C345.837 220.5 353 213.337 353 204.5V95.5C353 86.6634 345.837 79.5 337 79.5Z" fill="url(#paint0_linear_73_680)"/>
<path id="Vector_35" d="M337 80H79C70.4396 80 63.5 86.9396 63.5 95.5V204.5C63.5 213.06 70.4396 220 79 220H337C345.56 220 352.5 213.06 352.5 204.5V95.5C352.5 86.9396 345.56 80 337 80Z" stroke="white" stroke-opacity="0.96"/>
<path id="Vector_36" d="M337 80H79C70.4396 80 63.5 86.9396 63.5 95.5V204.5C63.5 213.06 70.4396 220 79 220H337C345.56 220 352.5 213.06 352.5 204.5V95.5C352.5 86.9396 345.56 80 337 80Z" stroke="#434EC6" stroke-opacity="0.39"/>
<path id="Vector_37" d="M106 150.5C106 147.186 103.314 144.5 100 144.5C96.6863 144.5 94 147.186 94 150.5C94 153.814 96.6863 156.5 100 156.5C103.314 156.5 106 153.814 106 150.5Z" fill="#FDE985"/>
<path id="Vector_38" d="M148 150.5C148 147.186 145.314 144.5 142 144.5C138.686 144.5 136 147.186 136 150.5C136 153.814 138.686 156.5 142 156.5C145.314 156.5 148 153.814 148 150.5Z" fill="white"/>
<path id="Vector_39" d="M190 150.5C190 147.186 187.314 144.5 184 144.5C180.686 144.5 178 147.186 178 150.5C178 153.814 180.686 156.5 184 156.5C187.314 156.5 190 153.814 190 150.5Z" fill="#9AB5FF"/>
<path id="Vector_40" d="M232 150.5C232 147.186 229.314 144.5 226 144.5C222.686 144.5 220 147.186 220 150.5C220 153.814 222.686 156.5 226 156.5C229.314 156.5 232 153.814 232 150.5Z" fill="#8EEB86"/>
<path id="Vector_41" d="M274 150.5C274 147.186 271.314 144.5 268 144.5C264.686 144.5 262 147.186 262 150.5C262 153.814 264.686 156.5 268 156.5C271.314 156.5 274 153.814 274 150.5Z" fill="#FD838F"/>
<path id="Vector_42" d="M316 150.5C316 147.186 313.314 144.5 310 144.5C306.686 144.5 304 147.186 304 150.5C304 153.814 306.686 156.5 310 156.5C313.314 156.5 316 153.814 316 150.5Z" fill="white"/>
<path id="Vector_43" d="M328 102.5H255C252.239 102.5 250 104.739 250 107.5V113.5C250 116.261 252.239 118.5 255 118.5H328C330.761 118.5 333 116.261 333 113.5V107.5C333 104.739 330.761 102.5 328 102.5Z" fill="white" fill-opacity="0.2"/>
<path id="Vector_44" d="M328 190.5H87C84.2386 190.5 82 192.739 82 195.5V201.5C82 204.261 84.2386 206.5 87 206.5H328C330.761 206.5 333 204.261 333 201.5V195.5C333 192.739 330.761 190.5 328 190.5Z" fill="white" fill-opacity="0.2"/>
<path id="Vector_45" d="M293.5 165.5C308.412 165.5 320.5 153.412 320.5 138.5C320.5 123.588 308.412 111.5 293.5 111.5C278.588 111.5 266.5 123.588 266.5 138.5C266.5 153.412 278.588 165.5 293.5 165.5Z" fill="black" fill-opacity="0.08"/>
<path id="Vector_46" d="M271.328 122.85L290.374 146.552L323.795 102.914" stroke="white" stroke-width="10" stroke-linecap="round"/>
<g id="Group_16" filter="url(#filter14_ii_73_680)">
<path id="Vector_47" d="M82.2444 150.122C82.2444 134.315 69.4298 121.5 53.6222 121.5C37.8146 121.5 25 134.315 25 150.122C25 165.93 37.8146 178.744 53.6222 178.744C69.4298 178.744 82.2444 165.93 82.2444 150.122Z" fill="#F7C510"/>
<path id="Vector_48" d="M55.8584 159.811H51.6762V146.017H51.5784L47.5918 148.463V144.843L51.9697 142.104H55.8584V159.811Z" fill="black"/>
</g>
<g id="Group_17" filter="url(#filter15_ii_73_680)">
<path id="Vector_49" d="M294.928 176.846C304.457 164.234 301.958 146.284 289.346 136.755C276.734 127.225 258.785 129.724 249.255 142.336C239.726 154.949 242.225 172.898 254.837 182.428C267.449 191.957 285.398 189.458 294.928 176.846Z" fill="#F7C510"/>
<path id="Vector_50" d="M266.833 168.069C265.818 167.302 265.042 166.429 264.504 165.451C263.978 164.471 263.729 163.475 263.757 162.464C263.791 161.458 264.114 160.537 264.725 159.702L267.964 162.149C267.717 162.504 267.587 162.886 267.574 163.295C267.573 163.702 267.677 164.098 267.888 164.482C268.098 164.866 268.395 165.203 268.779 165.493C269.215 165.822 269.679 166.019 270.171 166.085C270.67 166.155 271.144 166.089 271.593 165.887C272.053 165.683 272.45 165.354 272.783 164.901C273.133 164.45 273.344 163.976 273.414 163.477C273.484 162.978 273.417 162.499 273.213 162.038C273.01 161.578 272.683 161.178 272.235 160.839C271.734 160.46 271.237 160.238 270.745 160.173C270.264 160.106 269.781 160.191 269.296 160.427L266.311 158.171L273.265 150.428L282.299 157.255L280.265 159.948L273.962 155.185L271.079 158.311L271.177 158.384C271.724 158.174 272.349 158.145 273.051 158.298C273.758 158.444 274.437 158.763 275.087 159.254C275.939 159.898 276.554 160.674 276.93 161.582C277.312 162.483 277.429 163.43 277.282 164.423C277.146 165.413 276.744 166.351 276.076 167.236C275.349 168.198 274.469 168.883 273.437 169.288C272.412 169.699 271.323 169.801 270.171 169.594C269.025 169.393 267.913 168.884 266.833 168.069Z" fill="black"/>
</g>
<g id="Group_18" filter="url(#filter16_ii_73_680)">
<path id="Vector_51" d="M123.417 200.868C114.772 187.635 97.0349 183.915 83.8012 192.561C70.5674 201.207 66.8481 218.943 75.4938 232.177C84.1395 245.411 101.876 249.13 115.11 240.485C128.344 231.839 132.063 214.102 123.417 200.868Z" fill="#63B9DF"/>
<path id="Vector_52" d="M101.309 226.513L97.8075 228.801L90.2631 217.253L90.1812 217.306L88.1814 221.534L86.2017 218.504L88.3686 213.816L91.6241 211.689L101.309 226.513ZM103.468 208.13L103.401 208.027L96.3161 212.656L94.4702 209.83L105.179 202.834L107.038 205.68L108.782 221.631L105.179 223.985L103.468 208.13Z" fill="black"/>
</g>
<g id="Group_19" filter="url(#filter17_ii_73_680)">
<path id="Vector_53" d="M373.244 83.1222C373.244 67.3146 360.43 54.5 344.622 54.5C328.815 54.5 316 67.3146 316 83.1222C316 98.9298 328.815 111.744 344.622 111.744C360.43 111.744 373.244 98.9298 373.244 83.1222Z" fill="#F57F8B"/>
<path id="Vector_54" d="M332.186 89.4918L338.642 83.8177C339.213 83.2959 339.657 82.8557 339.975 82.497C340.301 82.1383 340.554 81.7755 340.733 81.4086C340.913 81.0336 341.007 80.6301 341.015 80.198C341.007 79.717 340.888 79.2971 340.66 78.9384C340.44 78.5716 340.134 78.2903 339.743 78.0947C339.36 77.899 338.92 77.8012 338.422 77.8012C337.656 77.8012 337.044 78.0294 336.588 78.486C336.131 78.9425 335.903 79.5703 335.903 80.3692H331.941C331.941 79.1952 332.21 78.168 332.748 77.2876C333.294 76.4071 334.057 75.7304 335.035 75.2576C336.021 74.7847 337.159 74.5483 338.447 74.5483C339.759 74.5483 340.913 74.7725 341.907 75.2209C342.91 75.6611 343.685 76.2848 344.231 77.0919C344.777 77.899 345.05 78.8284 345.05 79.88C345.05 80.5812 344.908 81.2578 344.622 81.91C344.345 82.5622 343.856 83.2878 343.155 84.0867C342.462 84.8775 341.479 85.8314 340.208 86.9483L337.982 89.0027V89.125H345.27V92.5001H332.186V89.4918ZM355.763 92.5001H351.58V78.7061H351.483L347.496 81.1518V77.5321L351.874 74.7929H355.763V92.5001Z" fill="black"/>
</g>
<g id="Group_20" filter="url(#filter18_ii_73_680)">
<path id="Vector_55" d="M160.842 172.939C154.787 158.337 138.041 151.408 123.439 157.463C108.837 163.518 101.909 180.264 107.963 194.866C114.018 209.468 130.764 216.397 145.366 210.342C159.968 204.287 166.897 187.541 160.842 172.939Z" fill="#B4D852"/>
<path id="Vector_56" d="M121.7 192.57L124.084 179.164L128.942 177.15L133.326 187.723L135.314 186.899L136.569 189.926L134.581 190.751L135.724 193.507L132.042 195.034L130.899 192.278L122.946 195.575L121.7 192.57ZM129.711 189.222L127.023 182.738L126.887 182.794L125.476 190.82L125.532 190.955L129.711 189.222ZM138.616 189.051L142.407 181.336C142.734 180.636 142.976 180.059 143.132 179.606C143.296 179.15 143.391 178.718 143.416 178.31C143.438 177.895 143.37 177.486 143.212 177.084C143.02 176.643 142.75 176.3 142.402 176.056C142.058 175.802 141.668 175.659 141.231 175.628C140.802 175.594 140.358 175.673 139.899 175.863C139.191 176.157 138.714 176.602 138.467 177.198C138.22 177.795 138.25 178.462 138.556 179.2L134.896 180.718C134.446 179.633 134.301 178.582 134.461 177.562C134.628 176.54 135.073 175.623 135.796 174.811C136.526 173.996 137.486 173.342 138.676 172.849C139.888 172.346 141.04 172.111 142.13 172.145C143.225 172.167 144.179 172.447 144.993 172.983C145.807 173.519 146.415 174.273 146.818 175.245C147.086 175.892 147.214 176.572 147.2 177.284C147.194 177.992 147.02 178.85 146.678 179.857C146.341 180.852 145.799 182.11 145.052 183.629L143.783 186.379L143.83 186.492L150.562 183.7L151.855 186.818L139.768 191.83L138.616 189.051Z" fill="black"/>
</g>
<g id="Group_21" filter="url(#filter19_ii_73_680)">
<path id="Vector_57" d="M103.626 22.8657C87.1157 11.0656 64.1659 14.8837 52.3659 31.3937C40.5658 47.9036 44.384 70.8534 60.8939 82.6535C77.4039 94.4535 100.354 90.6354 112.154 74.1255C123.954 57.6155 120.136 34.6657 103.626 22.8657Z" fill="#B1B1B1"/>
<path id="Vector_58" d="M85.8395 67.6487C84.8476 69.0366 83.7207 70.1093 82.4588 70.8669C81.203 71.616 79.923 71.994 78.6188 72.0009C77.3145 72.0079 76.1114 71.6303 75.0093 70.8684L78.1495 66.4748C78.5558 66.7523 79.009 66.8833 79.509 66.8676C80.0066 66.8373 80.5 66.6689 80.9892 66.3625C81.4844 66.0475 81.9238 65.6218 82.3072 65.0854C82.6906 64.549 82.9365 63.9979 83.0449 63.4322C83.1534 62.8665 83.1225 62.3427 82.9523 61.8609C82.7736 61.373 82.4641 60.9781 82.0238 60.6762C81.5871 60.3513 81.0999 60.196 80.5621 60.2104C80.0304 60.2164 79.4932 60.392 78.9505 60.7374C78.4139 61.0742 77.9173 61.562 77.4609 62.2006L76.1829 63.9887L73.0665 61.7613L74.3445 59.9732C74.7401 59.4198 74.9994 58.859 75.1225 58.2908C75.2455 57.7227 75.2262 57.2008 75.0645 56.725C74.9004 56.2346 74.6012 55.8343 74.167 55.5239C73.7498 55.2257 73.3033 55.0674 72.8276 55.049C72.358 55.0221 71.8999 55.1321 71.4533 55.379C70.9982 55.6197 70.5972 55.9828 70.2503 56.4681C69.8913 56.9705 69.6563 57.4972 69.5454 58.0483C69.4321 58.5848 69.4533 59.0952 69.6089 59.5795C69.762 60.0491 70.0484 60.4404 70.4681 60.7532L67.474 64.9424C66.4133 64.1586 65.6744 63.1674 65.2575 61.9689C64.8381 60.7558 64.7685 59.4582 65.0487 58.0762C65.3265 56.6796 65.934 55.3257 66.8712 54.0144C67.7962 52.7202 68.8508 51.7307 70.0347 51.0461C71.2187 50.3615 72.413 50.0315 73.6174 50.0562C74.8195 50.0663 75.9155 50.4316 76.9057 51.1521C77.5844 51.6244 78.0867 52.2085 78.4126 52.9045C78.7384 53.6005 78.8781 54.35 78.8317 55.153C78.7767 55.9499 78.5477 56.7382 78.1448 57.5179L78.2725 57.6092C79.4324 56.3284 80.6589 55.5842 81.9523 55.3765C83.2456 55.1689 84.4695 55.4904 85.6238 56.3412C86.6772 57.0812 87.396 58.0644 87.7801 59.2909C88.1642 60.5174 88.193 61.863 87.8665 63.3278C87.5315 64.7864 86.8559 66.2267 85.8395 67.6487ZM89.5076 55.3349L88.4012 44.3556C88.2823 43.3701 88.1542 42.5775 88.0169 41.9776C87.8856 41.3693 87.6954 40.8345 87.4461 40.3733C87.1883 39.906 86.8368 39.5069 86.3916 39.1758C85.8832 38.8253 85.3564 38.6353 84.8114 38.606C84.2639 38.562 83.7419 38.6714 83.2455 38.934C82.7551 39.1882 82.3243 39.5749 81.9531 40.0943C81.381 40.8947 81.163 41.7037 81.299 42.5213C81.4351 43.3389 81.9203 44.046 82.7547 44.6423L79.7971 48.7805C78.571 47.9042 77.699 46.8564 77.181 45.6372C76.6692 44.4094 76.5315 43.1082 76.7679 41.7335C77.0104 40.3502 77.6124 38.9859 78.574 37.6406C79.5537 36.2697 80.649 35.2323 81.8598 34.5282C83.0681 33.8095 84.2976 33.4661 85.5483 33.4981C86.799 33.5301 87.9736 33.9387 89.072 34.7237C89.8042 35.2471 90.4044 35.9012 90.8726 36.6861C91.3469 37.4624 91.7396 38.5149 92.0506 39.8436C92.3593 41.1576 92.6222 42.8957 92.8393 45.0577L93.3237 48.9158L93.4514 49.0071L98.892 41.3949L102.417 43.9144L92.6496 57.5805L89.5076 55.3349Z" fill="black"/>
</g>
<path id="Vector_59" opacity="0.78" d="M230.032 64.8315L254.047 81.0301L228.011 93.7288L230.032 64.8315Z" fill="#F945BA"/>
<path id="Vector_60" d="M123.286 193.487L95.1401 206.612L97.8468 175.674L123.286 193.487Z" fill="#F945BA"/>
</g>
</g>
</g>
</g>
<defs>
<filter id="filter0_f_73_680" x="243.026" y="89.0177" width="51.76" height="48.2629" filterUnits="userSpaceOnUse" color-interpolation-filters="sRGB">
<feFlood flood-opacity="0" result="BackgroundImageFix"/>
<feBlend mode="normal" in="SourceGraphic" in2="BackgroundImageFix" result="shape"/>
<feGaussianBlur stdDeviation="6.41571" result="effect1_foregroundBlur_73_680"/>
</filter>
<filter id="filter1_f_73_680" x="196.365" y="192.058" width="51.76" height="48.2639" filterUnits="userSpaceOnUse" color-interpolation-filters="sRGB">
<feFlood flood-opacity="0" result="BackgroundImageFix"/>
<feBlend mode="normal" in="SourceGraphic" in2="BackgroundImageFix" result="shape"/>
<feGaussianBlur stdDeviation="6.41571" result="effect1_foregroundBlur_73_680"/>
</filter>
<filter id="filter2_f_73_680" x="36.8527" y="12.1744" width="42.1956" height="42.8264" filterUnits="userSpaceOnUse" color-interpolation-filters="sRGB">
<feFlood flood-opacity="0" result="BackgroundImageFix"/>
<feBlend mode="normal" in="SourceGraphic" in2="BackgroundImageFix" result="shape"/>
<feGaussianBlur stdDeviation="6.41571" result="effect1_foregroundBlur_73_680"/>
</filter>
<filter id="filter3_f_73_680" x="277.072" y="7.41077" width="45.1887" height="43.2546" filterUnits="userSpaceOnUse" color-interpolation-filters="sRGB">
<feFlood flood-opacity="0" result="BackgroundImageFix"/>
<feBlend mode="normal" in="SourceGraphic" in2="BackgroundImageFix" result="shape"/>
<feGaussianBlur stdDeviation="6.41571" result="effect1_foregroundBlur_73_680"/>
</filter>
<filter id="filter4_f_73_680" x="221.199" y="54.7814" width="55.3728" height="52.1711" filterUnits="userSpaceOnUse" color-interpolation-filters="sRGB">
<feFlood flood-opacity="0" result="BackgroundImageFix"/>
<feBlend mode="normal" in="SourceGraphic" in2="BackgroundImageFix" result="shape"/>
<feGaussianBlur stdDeviation="6.41571" result="effect1_foregroundBlur_73_680"/>
</filter>
<filter id="filter5_f_73_680" x="330.863" y="69.191" width="50.0911" height="51.0242" filterUnits="userSpaceOnUse" color-interpolation-filters="sRGB">
<feFlood flood-opacity="0" result="BackgroundImageFix"/>
<feBlend mode="normal" in="SourceGraphic" in2="BackgroundImageFix" result="shape"/>
<feGaussianBlur stdDeviation="6.41571" result="effect1_foregroundBlur_73_680"/>
</filter>
<filter id="filter6_f_73_680" x="372.832" y="47.2374" width="51.0466" height="49.2048" filterUnits="userSpaceOnUse" color-interpolation-filters="sRGB">
<feFlood flood-opacity="0" result="BackgroundImageFix"/>
<feBlend mode="normal" in="SourceGraphic" in2="BackgroundImageFix" result="shape"/>
<feGaussianBlur stdDeviation="6.41571" result="effect1_foregroundBlur_73_680"/>
</filter>
<filter id="filter7_f_73_680" x="87.9528" y="140.188" width="43.5647" height="44.425" filterUnits="userSpaceOnUse" color-interpolation-filters="sRGB">
<feFlood flood-opacity="0" result="BackgroundImageFix"/>
<feBlend mode="normal" in="SourceGraphic" in2="BackgroundImageFix" result="shape"/>
<feGaussianBlur stdDeviation="6.41571" result="effect1_foregroundBlur_73_680"/>
</filter>
<filter id="filter8_f_73_680" x="-2.30286" y="210.606" width="43.8665" height="46.2668" filterUnits="userSpaceOnUse" color-interpolation-filters="sRGB">
<feFlood flood-opacity="0" result="BackgroundImageFix"/>
<feBlend mode="normal" in="SourceGraphic" in2="BackgroundImageFix" result="shape"/>
<feGaussianBlur stdDeviation="6.41571" result="effect1_foregroundBlur_73_680"/>
</filter>
<filter id="filter9_f_73_680" x="303.943" y="226.992" width="43.9241" height="46.5369" filterUnits="userSpaceOnUse" color-interpolation-filters="sRGB">
<feFlood flood-opacity="0" result="BackgroundImageFix"/>
<feBlend mode="normal" in="SourceGraphic" in2="BackgroundImageFix" result="shape"/>
<feGaussianBlur stdDeviation="6.41571" result="effect1_foregroundBlur_73_680"/>
</filter>
<filter id="filter10_ii_73_680" x="203.211" y="183.345" width="66.1891" height="76.5646" filterUnits="userSpaceOnUse" color-interpolation-filters="sRGB">
<feFlood flood-opacity="0" result="BackgroundImageFix"/>
<feBlend mode="normal" in="SourceGraphic" in2="BackgroundImageFix" result="shape"/>
<feColorMatrix in="SourceAlpha" type="matrix" values="0 0 0 0 0 0 0 0 0 0 0 0 0 0 0 0 0 0 127 0" result="hardAlpha"/>
<feOffset dy="-10.7333"/>
<feGaussianBlur stdDeviation="4.47222"/>
<feComposite in2="hardAlpha" operator="arithmetic" k2="-1" k3="1"/>
<feColorMatrix type="matrix" values="0 0 0 0 0.155968 0 0 0 0 0.0258199 0 0 0 0 0.0258199 0 0 0 0.42 0"/>
<feBlend mode="normal" in2="shape" result="effect1_innerShadow_73_680"/>
<feColorMatrix in="SourceAlpha" type="matrix" values="0 0 0 0 0 0 0 0 0 0 0 0 0 0 0 0 0 0 127 0" result="hardAlpha"/>
<feOffset dx="8.94444" dy="19.6778"/>
<feGaussianBlur stdDeviation="5.18778"/>
<feComposite in2="hardAlpha" operator="arithmetic" k2="-1" k3="1"/>
<feColorMatrix type="matrix" values="0 0 0 0 1 0 0 0 0 1 0 0 0 0 1 0 0 0 0.49 0"/>
<feBlend mode="normal" in2="effect1_innerShadow_73_680" result="effect2_innerShadow_73_680"/>
</filter>
<filter id="filter11_ii_73_680" x="184" y="135.556" width="66.1891" height="76.5646" filterUnits="userSpaceOnUse" color-interpolation-filters="sRGB">
<feFlood flood-opacity="0" result="BackgroundImageFix"/>
<feBlend mode="normal" in="SourceGraphic" in2="BackgroundImageFix" result="shape"/>
<feColorMatrix in="SourceAlpha" type="matrix" values="0 0 0 0 0 0 0 0 0 0 0 0 0 0 0 0 0 0 127 0" result="hardAlpha"/>
<feOffset dy="-10.7333"/>
<feGaussianBlur stdDeviation="4.47222"/>
<feComposite in2="hardAlpha" operator="arithmetic" k2="-1" k3="1"/>
<feColorMatrix type="matrix" values="0 0 0 0 0.155968 0 0 0 0 0.0258199 0 0 0 0 0.0258199 0 0 0 0.42 0"/>
<feBlend mode="normal" in2="shape" result="effect1_innerShadow_73_680"/>
<feColorMatrix in="SourceAlpha" type="matrix" values="0 0 0 0 0 0 0 0 0 0 0 0 0 0 0 0 0 0 127 0" result="hardAlpha"/>
<feOffset dx="8.94444" dy="19.6778"/>
<feGaussianBlur stdDeviation="5.18778"/>
<feComposite in2="hardAlpha" operator="arithmetic" k2="-1" k3="1"/>
<feColorMatrix type="matrix" values="0 0 0 0 1 0 0 0 0 1 0 0 0 0 1 0 0 0 0.49 0"/>
<feBlend mode="normal" in2="effect1_innerShadow_73_680" result="effect2_innerShadow_73_680"/>
</filter>
<filter id="filter12_ii_73_680" x="255.089" y="198.634" width="66.1891" height="76.5641" filterUnits="userSpaceOnUse" color-interpolation-filters="sRGB">
<feFlood flood-opacity="0" result="BackgroundImageFix"/>
<feBlend mode="normal" in="SourceGraphic" in2="BackgroundImageFix" result="shape"/>
<feColorMatrix in="SourceAlpha" type="matrix" values="0 0 0 0 0 0 0 0 0 0 0 0 0 0 0 0 0 0 127 0" result="hardAlpha"/>
<feOffset dy="-10.7333"/>
<feGaussianBlur stdDeviation="4.47222"/>
<feComposite in2="hardAlpha" operator="arithmetic" k2="-1" k3="1"/>
<feColorMatrix type="matrix" values="0 0 0 0 0.155968 0 0 0 0 0.0258199 0 0 0 0 0.0258199 0 0 0 0.42 0"/>
<feBlend mode="normal" in2="shape" result="effect1_innerShadow_73_680"/>
<feColorMatrix in="SourceAlpha" type="matrix" values="0 0 0 0 0 0 0 0 0 0 0 0 0 0 0 0 0 0 127 0" result="hardAlpha"/>
<feOffset dx="8.94444" dy="19.6778"/>
<feGaussianBlur stdDeviation="5.18778"/>
<feComposite in2="hardAlpha" operator="arithmetic" k2="-1" k3="1"/>
<feColorMatrix type="matrix" values="0 0 0 0 1 0 0 0 0 1 0 0 0 0 1 0 0 0 0.49 0"/>
<feBlend mode="normal" in2="effect1_innerShadow_73_680" result="effect2_innerShadow_73_680"/>
</filter>
<filter id="filter13_ii_73_680" x="333" y="115.556" width="66.1886" height="76.5646" filterUnits="userSpaceOnUse" color-interpolation-filters="sRGB">
<feFlood flood-opacity="0" result="BackgroundImageFix"/>
<feBlend mode="normal" in="SourceGraphic" in2="BackgroundImageFix" result="shape"/>
<feColorMatrix in="SourceAlpha" type="matrix" values="0 0 0 0 0 0 0 0 0 0 0 0 0 0 0 0 0 0 127 0" result="hardAlpha"/>
<feOffset dy="-10.7333"/>
<feGaussianBlur stdDeviation="4.47222"/>
<feComposite in2="hardAlpha" operator="arithmetic" k2="-1" k3="1"/>
<feColorMatrix type="matrix" values="0 0 0 0 0.155968 0 0 0 0 0.0258199 0 0 0 0 0.0258199 0 0 0 0.42 0"/>
<feBlend mode="normal" in2="shape" result="effect1_innerShadow_73_680"/>
<feColorMatrix in="SourceAlpha" type="matrix" values="0 0 0 0 0 0 0 0 0 0 0 0 0 0 0 0 0 0 127 0" result="hardAlpha"/>
<feOffset dx="8.94444" dy="19.6778"/>
<feGaussianBlur stdDeviation="5.18778"/>
<feComposite in2="hardAlpha" operator="arithmetic" k2="-1" k3="1"/>
<feColorMatrix type="matrix" values="0 0 0 0 1 0 0 0 0 1 0 0 0 0 1 0 0 0 0.49 0"/>
<feBlend mode="normal" in2="effect1_innerShadow_73_680" result="effect2_innerShadow_73_680"/>
</filter>
<filter id="filter14_ii_73_680" x="25" y="112.556" width="66.1891" height="76.5646" filterUnits="userSpaceOnUse" color-interpolation-filters="sRGB">
<feFlood flood-opacity="0" result="BackgroundImageFix"/>
<feBlend mode="normal" in="SourceGraphic" in2="BackgroundImageFix" result="shape"/>
<feColorMatrix in="SourceAlpha" type="matrix" values="0 0 0 0 0 0 0 0 0 0 0 0 0 0 0 0 0 0 127 0" result="hardAlpha"/>
<feOffset dy="-10.7333"/>
<feGaussianBlur stdDeviation="4.47222"/>
<feComposite in2="hardAlpha" operator="arithmetic" k2="-1" k3="1"/>
<feColorMatrix type="matrix" values="0 0 0 0 0.155968 0 0 0 0 0.0258199 0 0 0 0 0.0258199 0 0 0 0.42 0"/>
<feBlend mode="normal" in2="shape" result="effect1_innerShadow_73_680"/>
<feColorMatrix in="SourceAlpha" type="matrix" values="0 0 0 0 0 0 0 0 0 0 0 0 0 0 0 0 0 0 127 0" result="hardAlpha"/>
<feOffset dx="8.94444" dy="19.6778"/>
<feGaussianBlur stdDeviation="5.18778"/>
<feComposite in2="hardAlpha" operator="arithmetic" k2="-1" k3="1"/>
<feColorMatrix type="matrix" values="0 0 0 0 1 0 0 0 0 1 0 0 0 0 1 0 0 0 0.49 0"/>
<feBlend mode="normal" in2="effect1_innerShadow_73_680" result="effect2_innerShadow_73_680"/>
</filter>
<filter id="filter15_ii_73_680" x="243.468" y="122.023" width="66.192" height="76.5676" filterUnits="userSpaceOnUse" color-interpolation-filters="sRGB">
<feFlood flood-opacity="0" result="BackgroundImageFix"/>
<feBlend mode="normal" in="SourceGraphic" in2="BackgroundImageFix" result="shape"/>
<feColorMatrix in="SourceAlpha" type="matrix" values="0 0 0 0 0 0 0 0 0 0 0 0 0 0 0 0 0 0 127 0" result="hardAlpha"/>
<feOffset dy="-10.7333"/>
<feGaussianBlur stdDeviation="4.47222"/>
<feComposite in2="hardAlpha" operator="arithmetic" k2="-1" k3="1"/>
<feColorMatrix type="matrix" values="0 0 0 0 0.155968 0 0 0 0 0.0258199 0 0 0 0 0.0258199 0 0 0 0.42 0"/>
<feBlend mode="normal" in2="shape" result="effect1_innerShadow_73_680"/>
<feColorMatrix in="SourceAlpha" type="matrix" values="0 0 0 0 0 0 0 0 0 0 0 0 0 0 0 0 0 0 127 0" result="hardAlpha"/>
<feOffset dx="8.94444" dy="19.6778"/>
<feGaussianBlur stdDeviation="5.18778"/>
<feComposite in2="hardAlpha" operator="arithmetic" k2="-1" k3="1"/>
<feColorMatrix type="matrix" values="0 0 0 0 1 0 0 0 0 1 0 0 0 0 1 0 0 0 0.49 0"/>
<feBlend mode="normal" in2="effect1_innerShadow_73_680" result="effect2_innerShadow_73_680"/>
</filter>
<filter id="filter16_ii_73_680" x="70.8301" y="178.953" width="66.1954" height="76.571" filterUnits="userSpaceOnUse" color-interpolation-filters="sRGB">
<feFlood flood-opacity="0" result="BackgroundImageFix"/>
<feBlend mode="normal" in="SourceGraphic" in2="BackgroundImageFix" result="shape"/>
<feColorMatrix in="SourceAlpha" type="matrix" values="0 0 0 0 0 0 0 0 0 0 0 0 0 0 0 0 0 0 127 0" result="hardAlpha"/>
<feOffset dy="-10.7333"/>
<feGaussianBlur stdDeviation="4.47222"/>
<feComposite in2="hardAlpha" operator="arithmetic" k2="-1" k3="1"/>
<feColorMatrix type="matrix" values="0 0 0 0 0.155968 0 0 0 0 0.0258199 0 0 0 0 0.0258199 0 0 0 0.42 0"/>
<feBlend mode="normal" in2="shape" result="effect1_innerShadow_73_680"/>
<feColorMatrix in="SourceAlpha" type="matrix" values="0 0 0 0 0 0 0 0 0 0 0 0 0 0 0 0 0 0 127 0" result="hardAlpha"/>
<feOffset dx="8.94444" dy="19.6778"/>
<feGaussianBlur stdDeviation="5.18778"/>
<feComposite in2="hardAlpha" operator="arithmetic" k2="-1" k3="1"/>
<feColorMatrix type="matrix" values="0 0 0 0 1 0 0 0 0 1 0 0 0 0 1 0 0 0 0.49 0"/>
<feBlend mode="normal" in2="effect1_innerShadow_73_680" result="effect2_innerShadow_73_680"/>
</filter>
<filter id="filter17_ii_73_680" x="316" y="45.5556" width="66.1886" height="76.5646" filterUnits="userSpaceOnUse" color-interpolation-filters="sRGB">
<feFlood flood-opacity="0" result="BackgroundImageFix"/>
<feBlend mode="normal" in="SourceGraphic" in2="BackgroundImageFix" result="shape"/>
<feColorMatrix in="SourceAlpha" type="matrix" values="0 0 0 0 0 0 0 0 0 0 0 0 0 0 0 0 0 0 127 0" result="hardAlpha"/>
<feOffset dy="-10.7333"/>
<feGaussianBlur stdDeviation="4.47222"/>
<feComposite in2="hardAlpha" operator="arithmetic" k2="-1" k3="1"/>
<feColorMatrix type="matrix" values="0 0 0 0 0.155968 0 0 0 0 0.0258199 0 0 0 0 0.0258199 0 0 0 0.42 0"/>
<feBlend mode="normal" in2="shape" result="effect1_innerShadow_73_680"/>
<feColorMatrix in="SourceAlpha" type="matrix" values="0 0 0 0 0 0 0 0 0 0 0 0 0 0 0 0 0 0 127 0" result="hardAlpha"/>
<feOffset dx="8.94444" dy="19.6778"/>
<feGaussianBlur stdDeviation="5.18778"/>
<feComposite in2="hardAlpha" operator="arithmetic" k2="-1" k3="1"/>
<feColorMatrix type="matrix" values="0 0 0 0 1 0 0 0 0 1 0 0 0 0 1 0 0 0 0.49 0"/>
<feBlend mode="normal" in2="effect1_innerShadow_73_680" result="effect2_innerShadow_73_680"/>
</filter>
<filter id="filter18_ii_73_680" x="105.773" y="146.329" width="66.2037" height="76.5793" filterUnits="userSpaceOnUse" color-interpolation-filters="sRGB">
<feFlood flood-opacity="0" result="BackgroundImageFix"/>
<feBlend mode="normal" in="SourceGraphic" in2="BackgroundImageFix" result="shape"/>
<feColorMatrix in="SourceAlpha" type="matrix" values="0 0 0 0 0 0 0 0 0 0 0 0 0 0 0 0 0 0 127 0" result="hardAlpha"/>
<feOffset dy="-10.7333"/>
<feGaussianBlur stdDeviation="4.47222"/>
<feComposite in2="hardAlpha" operator="arithmetic" k2="-1" k3="1"/>
<feColorMatrix type="matrix" values="0 0 0 0 0.155968 0 0 0 0 0.0258199 0 0 0 0 0.0258199 0 0 0 0.42 0"/>
<feBlend mode="normal" in2="shape" result="effect1_innerShadow_73_680"/>
<feColorMatrix in="SourceAlpha" type="matrix" values="0 0 0 0 0 0 0 0 0 0 0 0 0 0 0 0 0 0 127 0" result="hardAlpha"/>
<feOffset dx="8.94444" dy="19.6778"/>
<feGaussianBlur stdDeviation="5.18778"/>
<feComposite in2="hardAlpha" operator="arithmetic" k2="-1" k3="1"/>
<feColorMatrix type="matrix" values="0 0 0 0 1 0 0 0 0 1 0 0 0 0 1 0 0 0 0.49 0"/>
<feBlend mode="normal" in2="effect1_innerShadow_73_680" result="effect2_innerShadow_73_680"/>
</filter>
<filter id="filter19_ii_73_680" x="45.5127" y="4.52959" width="84.9767" height="98.2971" filterUnits="userSpaceOnUse" color-interpolation-filters="sRGB">
<feFlood flood-opacity="0" result="BackgroundImageFix"/>
<feBlend mode="normal" in="SourceGraphic" in2="BackgroundImageFix" result="shape"/>
<feColorMatrix in="SourceAlpha" type="matrix" values="0 0 0 0 0 0 0 0 0 0 0 0 0 0 0 0 0 0 127 0" result="hardAlpha"/>
<feOffset dy="-13.7791"/>
<feGaussianBlur stdDeviation="5.74131"/>
<feComposite in2="hardAlpha" operator="arithmetic" k2="-1" k3="1"/>
<feColorMatrix type="matrix" values="0 0 0 0 0.155968 0 0 0 0 0.0258199 0 0 0 0 0.0258199 0 0 0 0.42 0"/>
<feBlend mode="normal" in2="shape" result="effect1_innerShadow_73_680"/>
<feColorMatrix in="SourceAlpha" type="matrix" values="0 0 0 0 0 0 0 0 0 0 0 0 0 0 0 0 0 0 127 0" result="hardAlpha"/>
<feOffset dx="11.4826" dy="25.2617"/>
<feGaussianBlur stdDeviation="6.65992"/>
<feComposite in2="hardAlpha" operator="arithmetic" k2="-1" k3="1"/>
<feColorMatrix type="matrix" values="0 0 0 0 1 0 0 0 0 1 0 0 0 0 1 0 0 0 0.49 0"/>
<feBlend mode="normal" in2="effect1_innerShadow_73_680" result="effect2_innerShadow_73_680"/>
</filter>
<linearGradient id="paint0_linear_73_680" x1="69.174" y1="84.9682" x2="346.621" y2="232.23" gradientUnits="userSpaceOnUse">
<stop stop-color="#DAEBFF"/>
<stop offset="1" stop-color="#B3C1E3"/>
</linearGradient>
<clipPath id="clip0_73_680">
<rect width="416" height="299" fill="white" transform="translate(0 0.5)"/>
</clipPath>
</defs>
</svg>
