<svg width="327" height="184" viewBox="0 0 327 184" fill="none" xmlns="http://www.w3.org/2000/svg">
<rect x="8.8092" y="25.8113" width="290" height="141" rx="16" transform="rotate(0.59212 8.8092 25.8113)" fill="url(#paint0_linear_18_800)"/>
<rect x="8.8092" y="25.8113" width="290" height="141" rx="16" transform="rotate(0.59212 8.8092 25.8113)" fill="black" fill-opacity="0.05"/>
<rect x="9.30401" y="26.3164" width="289" height="140" rx="15.5" transform="rotate(0.59212 9.30401 26.3164)" stroke="white" stroke-opacity="0.96"/>
<rect x="9.30401" y="26.3164" width="289" height="140" rx="15.5" transform="rotate(0.59212 9.30401 26.3164)" stroke="#434EC6" stroke-opacity="0.39"/>
<rect x="39.1359" y="91.1282" width="12" height="12" rx="6" transform="rotate(0.59212 39.1359 91.1282)" fill="#FDE985"/>
<rect x="81.1335" y="91.5623" width="12" height="12" rx="6" transform="rotate(0.59212 81.1335 91.5623)" fill="white"/>
<rect x="123.131" y="91.9962" width="12" height="12" rx="6" transform="rotate(0.59212 123.131 91.9962)" fill="#9AB5FF"/>
<rect x="165.129" y="92.4303" width="12" height="12" rx="6" transform="rotate(0.59212 165.129 92.4303)" fill="#8EEB86"/>
<rect x="207.127" y="92.8644" width="12" height="12" rx="6" transform="rotate(0.59212 207.127 92.8644)" fill="#FD838F"/>
<rect x="249.125" y="93.2983" width="12" height="12" rx="6" transform="rotate(0.59212 249.125 93.2983)" fill="white"/>
<rect x="195.562" y="50.7426" width="83" height="16" rx="5" transform="rotate(0.59212 195.562 50.7426)" fill="white" fill-opacity="0.2"/>
<rect x="26.6611" y="137.002" width="251" height="16" rx="5" transform="rotate(0.59212 26.6611 137.002)" fill="white" fill-opacity="0.2"/>
<path d="M46.0644 49.7308L45.9812 57.7769L41.8275 57.734L41.905 50.235C41.9189 48.8979 41.4626 48.2435 40.5794 48.2343C39.4376 48.2225 38.8433 49.0522 38.8266 50.6679L38.754 57.7011L34.7082 57.6593L34.7857 50.1603C34.7991 48.8611 34.3463 48.1688 33.4768 48.1598C32.3507 48.1482 31.7248 48.9987 31.7083 50.5932L31.6356 57.6264L27.4819 57.5835L27.6145 44.7583L30.5352 44.7885L31.1128 46.173C31.5517 45.6309 32.0957 45.1964 32.7074 44.8993C33.3191 44.6023 33.984 44.4497 34.6561 44.4522C35.335 44.4416 36.0053 44.6122 36.6059 44.9484C37.2064 45.2846 37.7179 45.7756 38.0936 46.3766C38.5425 45.7889 39.1107 45.3171 39.7556 44.9966C40.4004 44.6761 41.105 44.5152 41.8163 44.5262C44.3997 44.5529 46.0893 46.7111 46.0581 49.7319" fill="#1540F2"/>
<path d="M47.2591 51.3747C47.3002 47.3979 50.1582 44.5701 54.0908 44.6108C58.0234 44.6514 60.8234 47.5387 60.7824 51.5144C60.7413 55.4901 57.8696 58.32 53.9495 58.2795C50.0295 58.239 47.2181 55.3381 47.2591 51.3747ZM53.9906 54.3105C54.3425 54.3241 54.6934 54.2596 55.0208 54.1213C55.3483 53.9829 55.6451 53.7736 55.8925 53.5067C56.14 53.2398 56.3326 52.9211 56.458 52.5709C56.5835 52.2207 56.6391 51.8467 56.6213 51.4726C56.635 51.1027 56.5789 50.7338 56.4561 50.3877C56.3334 50.0415 56.1467 49.7251 55.9069 49.4572C55.6671 49.1894 55.3792 48.9754 55.0602 48.828C54.7412 48.6807 54.3975 48.6029 54.0496 48.5993C53.7016 48.5957 53.3565 48.6664 53.0345 48.8071C52.7125 48.9478 52.4202 49.1558 52.175 49.4187C51.9297 49.6815 51.7365 49.994 51.6066 50.3375C51.4768 50.6811 51.413 51.0487 51.419 51.4188C51.3935 51.7924 51.4414 52.1676 51.5596 52.5203C51.6778 52.873 51.8637 53.1956 52.1056 53.4675C52.3475 53.7395 52.64 53.9549 52.9645 54.1C53.289 54.2451 53.6384 54.3168 53.9906 54.3105Z" fill="#1540F2"/>
<path d="M70.2457 54.151L70.2057 58.0208L67.3479 57.9913C66.7699 58.0374 66.1896 57.9484 65.6478 57.7304C65.1059 57.5125 64.6157 57.1708 64.2116 56.7296C63.8074 56.2883 63.4991 55.7582 63.3084 55.1763C63.1176 54.5945 63.0491 53.9751 63.1075 53.3618L63.1575 48.527L60.9503 48.5042L60.9609 47.4723L66.4307 41.4076L67.2845 41.4164L67.2458 45.167L70.2754 45.1983L70.2402 48.6002L67.3154 48.5699L67.2732 52.6526C67.2547 52.8514 67.2776 53.0521 67.3403 53.2403C67.403 53.4285 67.5039 53.5997 67.6358 53.7417C67.7678 53.8837 67.9275 53.993 68.1037 54.0619C68.2799 54.1307 68.4683 54.1574 68.6554 54.1401L70.2457 54.151Z" fill="#1540F2"/>
<path d="M79.54 54.247L79.5 58.1169L76.6422 58.0873C76.0642 58.1335 75.4839 58.0445 74.9421 57.8265C74.4002 57.6085 73.91 57.2669 73.5059 56.8257C73.1017 56.3844 72.7934 55.8542 72.6027 55.2724C72.412 54.6906 72.3434 54.0712 72.4019 53.4578L72.4518 48.623L70.2446 48.6002L70.2552 47.5684L75.7209 41.5036L76.5746 41.5124L76.5359 45.263L79.5655 45.2943L79.5303 48.6962L76.6055 48.666L76.5633 52.7486C76.5457 52.947 76.5692 53.147 76.6322 53.3346C76.6953 53.5221 76.7963 53.6926 76.9281 53.834C77.06 53.9753 77.2195 54.0841 77.3953 54.1526C77.5711 54.2212 77.759 54.2478 77.9456 54.2306L79.54 54.247Z" fill="#1540F2"/>
<path d="M80.0214 51.7133C80.0625 47.7365 82.9205 44.9087 86.8531 44.9494C90.7858 44.99 93.5858 47.8774 93.5447 51.8531C93.5036 55.8288 90.6319 58.6586 86.7119 58.6181C82.7918 58.5776 79.9805 55.6767 80.0214 51.7133ZM86.7529 54.6491C87.1048 54.6627 87.4557 54.5983 87.7831 54.4599C88.1106 54.3215 88.4074 54.1122 88.6549 53.8453C88.9023 53.5784 89.0949 53.2597 89.2204 52.9095C89.3458 52.5593 89.4014 52.1853 89.3837 51.8112C89.3973 51.4413 89.3412 51.0724 89.2185 50.7263C89.0958 50.3801 88.909 50.0637 88.6692 49.7959C88.4295 49.528 88.1415 49.314 87.8225 49.1667C87.5035 49.0193 87.1599 48.9415 86.8119 48.9379C86.464 48.9343 86.1188 49.005 85.7968 49.1457C85.4748 49.2865 85.1826 49.4944 84.9373 49.7573C84.692 50.0202 84.4988 50.3326 84.3689 50.6762C84.2391 51.0197 84.1753 51.3874 84.1813 51.7574C84.1558 52.1311 84.2037 52.5062 84.3219 52.8589C84.4401 53.2116 84.6261 53.5342 84.8679 53.8062C85.1098 54.0781 85.4023 54.2935 85.7268 54.4386C86.0513 54.5838 86.4007 54.6554 86.7529 54.6491Z" fill="#1540F2"/>
<circle cx="238.687" cy="87.1902" r="27" transform="rotate(0.59212 238.687 87.1902)" fill="black" fill-opacity="0.08"/>
<path d="M216.678 71.312L235.478 95.2093L269.349 51.9195" stroke="white" stroke-width="10" stroke-linecap="round"/>
<g clip-path="url(#clip0_18_800)">
<rect y="43.6531" width="290" height="141" rx="16" transform="rotate(-7.0619 0 43.6531)" fill="url(#paint1_linear_18_800)"/>
<rect y="43.6531" width="290" height="141" rx="16" transform="rotate(-7.0619 0 43.6531)" fill="black" fill-opacity="0.05"/>
<rect x="38.756" y="104.349" width="12" height="12" rx="6" transform="rotate(-7.0619 38.756 104.349)" fill="#FDE985"/>
<rect x="80.4374" y="99.1852" width="12" height="12" rx="6" transform="rotate(-7.0619 80.4374 99.1852)" fill="white"/>
<rect x="122.119" y="94.0217" width="12" height="12" rx="6" transform="rotate(-7.0619 122.119 94.0217)" fill="#9AB5FF"/>
<rect x="163.8" y="88.8582" width="12" height="12" rx="6" transform="rotate(-7.0619 163.8 88.8582)" fill="#8EEB86"/>
<rect x="205.481" y="83.6946" width="12" height="12" rx="6" transform="rotate(-7.0619 205.481 83.6946)" fill="#FD838F"/>
<rect x="247.163" y="78.531" width="12" height="12" rx="6" transform="rotate(-7.0619 247.163 78.531)" fill="white"/>
<rect x="188.409" y="43.4885" width="83" height="16" rx="5" transform="rotate(-7.0619 188.409 43.4885)" fill="white" fill-opacity="0.2"/>
<rect x="32.5023" y="151.475" width="251" height="16" rx="5" transform="rotate(-7.0619 32.5023 151.475)" fill="white" fill-opacity="0.2"/>
<path d="M40.1091 62.3974L41.0983 70.3829L36.9759 70.8936L36.0539 63.4511C35.8895 62.1241 35.3501 61.5363 34.4737 61.6448C33.3404 61.7852 32.862 62.6866 33.0606 64.2901L33.9253 71.2704L29.91 71.7678L28.988 64.3253C28.8283 63.0359 28.2874 62.4101 27.4244 62.517C26.3067 62.6554 25.7997 63.5817 25.9957 65.1642L26.8605 72.1445L22.7381 72.6552L21.1612 59.9266L24.0599 59.5675L24.8168 60.8627C25.1796 60.267 25.6609 59.7639 26.2276 59.388C26.7943 59.0121 27.4329 58.7724 28.0993 58.6853C28.7708 58.5844 29.4579 58.6642 30.0978 58.9174C30.7378 59.1706 31.3101 59.5891 31.7625 60.1347C32.1291 59.4925 32.6295 58.9492 33.2259 58.5456C33.8223 58.1421 34.4992 57.8889 35.2056 57.805C37.7695 57.4874 39.7315 59.4013 40.1029 62.3993" fill="#1540F2"/>
<path d="M41.5121 63.8675C41.0231 59.9207 43.479 56.7375 47.382 56.2539C51.285 55.7704 54.4447 58.2591 54.9335 62.2049C55.4223 66.1506 52.9531 69.3377 49.0626 69.8197C45.172 70.3016 41.9994 67.8011 41.5121 63.8675ZM48.5746 65.8806C48.9252 65.8472 49.2644 65.7366 49.5705 65.5558C49.8766 65.3751 50.1429 65.1281 50.3526 64.8306C50.5623 64.5331 50.7107 64.1916 50.7884 63.8278C50.8661 63.4641 50.8714 63.0859 50.8039 62.7176C50.7683 62.3492 50.6635 61.991 50.4957 61.6643C50.328 61.3376 50.1008 61.0489 49.8275 60.8153C49.5541 60.5818 49.2403 60.4081 48.9045 60.3045C48.5687 60.201 48.2177 60.1697 47.8724 60.2124C47.5271 60.2552 47.1944 60.3712 46.8941 60.5536C46.5937 60.736 46.3317 60.981 46.1236 61.2742C45.9156 61.5674 45.7657 61.9028 45.6827 62.2606C45.5998 62.6183 45.5855 62.9912 45.6408 63.3572C45.6653 63.7309 45.7627 64.0963 45.9269 64.4301C46.091 64.7639 46.3182 65.0589 46.5942 65.2962C46.8701 65.5336 47.1887 65.7081 47.5296 65.8087C47.8706 65.9093 48.2264 65.9337 48.5746 65.8806Z" fill="#1540F2"/>
<path d="M64.6637 63.5575L65.1395 67.3982L62.3032 67.7495C61.7365 67.8723 61.1495 67.8613 60.5835 67.7175C60.0174 67.5736 59.4861 67.3003 59.0268 66.9168C58.5674 66.5333 58.1913 66.0489 57.9248 65.4977C57.6582 64.9465 57.5078 64.3417 57.484 63.7261L56.8896 58.9277L54.699 59.1991L54.5721 58.175L59.1854 51.4357L60.0328 51.3308L60.4939 55.0531L63.5007 54.6806L63.9189 58.0569L61.0161 58.4165L61.5181 62.4684C61.5263 62.6679 61.5757 62.8637 61.6629 63.0419C61.7501 63.2201 61.8729 63.3763 62.0226 63.4995C62.1722 63.6226 62.3451 63.7097 62.5289 63.7545C62.7128 63.7992 62.903 63.8006 63.0862 63.7585L64.6637 63.5575Z" fill="#1540F2"/>
<path d="M73.888 62.4148L74.3637 66.2555L71.5275 66.6068C70.9608 66.7296 70.3738 66.7186 69.8077 66.5748C69.2417 66.4309 68.7103 66.1576 68.251 65.7741C67.7917 65.3906 67.4155 64.9062 67.149 64.355C66.8825 63.8038 66.732 63.199 66.7083 62.5834L66.1138 57.785L63.9232 58.0564L63.7963 57.0323L68.4055 50.2936L69.2529 50.1886L69.714 53.9109L72.7208 53.5385L73.139 56.9147L70.2362 57.2743L70.7382 61.3262C70.7471 61.5252 70.7971 61.7203 70.8845 61.8978C70.972 62.0752 71.0948 62.2307 71.2443 62.3533C71.3938 62.4758 71.5664 62.5624 71.7497 62.6069C71.9331 62.6514 72.1229 62.6527 72.3056 62.6108L73.888 62.4148Z" fill="#1540F2"/>
<path d="M74.0276 59.8394C73.5386 55.8926 75.9945 52.7094 79.8975 52.2259C83.8005 51.7424 86.9602 54.231 87.449 58.1768C87.9378 62.1225 85.4686 65.3096 81.5781 65.7916C77.6875 66.2736 74.5149 63.773 74.0276 59.8394ZM81.0901 61.8525C81.4407 61.8191 81.7799 61.7085 82.086 61.5278C82.3921 61.347 82.6584 61.1 82.8681 60.8025C83.0778 60.5051 83.2262 60.1636 83.3039 59.7998C83.3816 59.436 83.3869 59.0579 83.3194 58.6895C83.2838 58.3211 83.179 57.963 83.0112 57.6362C82.8435 57.3095 82.6163 57.0208 82.343 56.7873C82.0696 56.5537 81.7558 56.38 81.42 56.2765C81.0842 56.1729 80.7332 56.1416 80.3879 56.1844C80.0426 56.2271 79.7099 56.3431 79.4096 56.5255C79.1092 56.7079 78.8472 56.9529 78.6391 57.2461C78.4311 57.5393 78.2812 57.8747 78.1982 58.2325C78.1153 58.5903 78.101 58.9632 78.1563 59.3291C78.1808 59.7028 78.2782 60.0682 78.4424 60.402C78.6065 60.7358 78.8337 61.0308 79.1097 61.2681C79.3856 61.5055 79.7042 61.68 80.0451 61.7806C80.3861 61.8812 80.7419 61.9057 81.0901 61.8525Z" fill="#1540F2"/>
<circle cx="236.005" cy="73.8675" r="27" transform="rotate(-7.0619 236.005 73.8675)" fill="black" fill-opacity="0.08"/>
<path d="M212.077 61.062L233.892 82.2425L261.695 34.8271" stroke="white" stroke-width="10" stroke-linecap="round"/>
</g>
<rect x="0.557678" y="44.0878" width="289" height="140" rx="15.5" transform="rotate(-7.0619 0.557678 44.0878)" stroke="white" stroke-opacity="0.96"/>
<rect x="0.557678" y="44.0878" width="289" height="140" rx="15.5" transform="rotate(-7.0619 0.557678 44.0878)" stroke="#434EC6" stroke-opacity="0.39"/>
<rect x="23.3011" y="5" width="290" height="141" rx="16" transform="rotate(1.3055 23.3011 5)" fill="url(#paint2_linear_18_800)"/>
<rect x="23.7896" y="5.51126" width="289" height="140" rx="15.5" transform="rotate(1.3055 23.7896 5.51126)" stroke="white" stroke-opacity="0.96"/>
<rect x="23.7896" y="5.51126" width="289" height="140" rx="15.5" transform="rotate(1.3055 23.7896 5.51126)" stroke="#434EC6" stroke-opacity="0.39"/>
<rect x="52.8121" y="70.6895" width="12" height="12" rx="6" transform="rotate(1.3055 52.8121 70.6895)" fill="#FDE985"/>
<rect x="94.8013" y="71.6464" width="12" height="12" rx="6" transform="rotate(1.3055 94.8013 71.6464)" fill="white"/>
<rect x="136.79" y="72.6033" width="12" height="12" rx="6" transform="rotate(1.3055 136.79 72.6033)" fill="#9AB5FF"/>
<rect x="178.78" y="73.5602" width="12" height="12" rx="6" transform="rotate(1.3055 178.78 73.5602)" fill="#8EEB86"/>
<rect x="220.769" y="74.5171" width="12" height="12" rx="6" transform="rotate(1.3055 220.769 74.5171)" fill="#FD838F"/>
<rect x="262.758" y="75.4739" width="12" height="12" rx="6" transform="rotate(1.3055 262.758 75.4739)" fill="white"/>
<rect x="209.729" y="32.2545" width="83" height="16" rx="5" transform="rotate(1.3055 209.729 32.2545)" fill="white" fill-opacity="0.2"/>
<rect x="39.7673" y="116.404" width="251" height="16" rx="5" transform="rotate(1.3055 39.7673 116.404)" fill="white" fill-opacity="0.2"/>
<path d="M60.2556 29.3814L60.0723 37.4259L55.9194 37.3313L56.0903 29.8338C56.1208 28.497 55.6726 27.8369 54.7897 27.8168C53.6481 27.7908 53.0435 28.613 53.0067 30.2283L52.8465 37.2601L48.8015 37.1679L48.9724 29.6705C49.002 28.3715 48.5579 27.6737 47.6886 27.6539C46.5626 27.6282 45.9262 28.4708 45.8899 30.065L45.7296 37.0968L41.5768 37.0022L41.869 24.1796L44.7891 24.2462L45.3495 25.6377C45.7951 25.1012 46.3445 24.6735 46.9598 24.3841C47.5752 24.0946 48.2419 23.9504 48.9139 23.9612C49.5929 23.9591 50.2611 24.138 50.8573 24.4816C51.4536 24.8252 51.959 25.3226 52.3272 25.9283C52.7833 25.3462 53.3574 24.8815 54.0062 24.569C54.655 24.2566 55.3615 24.1045 56.0727 24.1243C58.6555 24.1832 60.3181 26.3623 60.2493 29.3824" fill="#1540F2"/>
<path d="M61.4297 31.0401C61.5204 27.0642 64.4133 24.2722 68.3451 24.3618C72.277 24.4514 75.0408 27.3734 74.9502 31.3483C74.8596 35.3231 71.953 38.117 68.0337 38.0277C64.1145 37.9384 61.3394 35.0028 61.4297 31.0401ZM68.1241 34.0595C68.4759 34.0775 68.8275 34.0174 69.1567 33.8832C69.4858 33.7489 69.7853 33.5433 70.036 33.2795C70.2867 33.0157 70.4833 32.6994 70.6131 32.3508C70.7429 32.0022 70.8032 31.6289 70.79 31.2546C70.8083 30.8849 70.7568 30.5154 70.6384 30.1677C70.52 29.82 70.3372 29.5014 70.1008 29.2305C69.8643 28.9597 69.5791 28.7421 69.262 28.5908C68.9448 28.4395 68.6021 28.3575 68.2543 28.3495C67.9064 28.3416 67.5604 28.408 67.2367 28.5447C66.913 28.6814 66.6181 28.8857 66.3696 29.1455C66.1211 29.4053 65.924 29.7153 65.7898 30.0572C65.6557 30.3991 65.5874 30.766 65.5888 31.136C65.5586 31.5093 65.6019 31.885 65.7157 32.2392C65.8295 32.5933 66.0114 32.9182 66.2498 33.1932C66.4883 33.4681 66.7781 33.6872 67.1008 33.8363C67.4234 33.9854 67.7719 34.0615 68.1241 34.0595Z" fill="#1540F2"/>
<path d="M84.3801 34.1024L84.2919 37.9715L81.4347 37.9064C80.8562 37.9453 80.277 37.8491 79.7379 37.6244C79.1988 37.3997 78.7129 37.052 78.3143 36.6057C77.9156 36.1595 77.614 35.6255 77.4305 35.0413C77.247 34.4572 77.1862 33.837 77.2523 33.2244L77.3624 28.3906L75.1556 28.3403L75.1791 27.3087L80.7241 21.3125L81.5777 21.332L81.4922 25.0818L84.5212 25.1508L84.4437 28.552L81.5194 28.4854L81.4264 32.5672C81.4055 32.7658 81.4259 32.9667 81.4862 33.1557C81.5465 33.3447 81.6453 33.5171 81.7755 33.6607C81.9056 33.8043 82.064 33.9156 82.2394 33.9867C82.4147 34.0577 82.6027 34.0868 82.7901 34.0718L84.3801 34.1024Z" fill="#1540F2"/>
<path d="M93.6726 34.3141L93.5844 38.1832L90.7272 38.118C90.1487 38.157 89.5695 38.0607 89.0304 37.836C88.4913 37.6113 88.0054 37.2636 87.6068 36.8174C87.2081 36.3711 86.9065 35.8372 86.723 35.253C86.5395 34.6689 86.4787 34.0487 86.5448 33.4361L86.6549 28.6023L84.4481 28.552L84.4716 27.5204L90.0123 21.5241L90.866 21.5435L90.7805 25.2934L93.8095 25.3624L93.732 28.7636L90.8077 28.6969L90.7147 32.7788C90.6946 32.9769 90.7156 33.1772 90.7763 33.3655C90.837 33.5538 90.9359 33.7255 91.066 33.8685C91.1961 34.0115 91.3542 34.1223 91.5291 34.193C91.7041 34.2637 91.8916 34.2927 92.0785 34.2778L93.6726 34.3141Z" fill="#1540F2"/>
<path d="M94.1854 31.7866C94.276 27.8106 97.1689 25.0187 101.101 25.1083C105.033 25.1979 107.796 28.1198 107.706 32.0947C107.615 36.0696 104.709 38.8635 100.789 38.7741C96.8701 38.6848 94.0951 35.7492 94.1854 31.7866ZM100.88 34.806C101.232 34.824 101.583 34.7639 101.912 34.6296C102.241 34.4953 102.541 34.2897 102.792 34.0259C103.042 33.7621 103.239 33.4459 103.369 33.0972C103.499 32.7486 103.559 32.3753 103.546 32.001C103.564 31.6314 103.512 31.2618 103.394 30.9142C103.276 30.5665 103.093 30.2478 102.856 29.977C102.62 29.7061 102.335 29.4886 102.018 29.3373C101.7 29.186 101.358 29.1039 101.01 29.096C100.662 29.0881 100.316 29.1544 99.9923 29.2911C99.6686 29.4279 99.3737 29.6321 99.1252 29.8919C98.8767 30.1517 98.6796 30.4618 98.5455 30.8037C98.4114 31.1456 98.343 31.5124 98.3444 31.8825C98.3143 32.2558 98.3575 32.6315 98.4713 32.9856C98.5851 33.3398 98.767 33.6647 99.0054 33.9396C99.2439 34.2146 99.5337 34.4336 99.8564 34.5828C100.179 34.7319 100.528 34.8079 100.88 34.806Z" fill="#1540F2"/>
<circle cx="252.397" cy="69.2362" r="27" transform="rotate(1.3055 252.397 69.2362)" fill="black" fill-opacity="0.08"/>
<path d="M230.588 53.0853L249.088 77.2147L283.496 34.35" stroke="white" stroke-width="10" stroke-linecap="round"/>
<g clip-path="url(#clip1_18_800)">
<rect x="19.3738" y="40.2048" width="290" height="141" rx="16" transform="rotate(-7.969 19.3738 40.2048)" fill="url(#paint3_linear_18_800)"/>
<rect x="59.0858" y="100.279" width="12" height="12" rx="6" transform="rotate(-7.969 59.0858 100.279)" fill="#FDE985"/>
<rect x="100.68" y="94.4567" width="12" height="12" rx="6" transform="rotate(-7.969 100.68 94.4567)" fill="white"/>
<rect x="142.275" y="88.6339" width="12" height="12" rx="6" transform="rotate(-7.969 142.275 88.6339)" fill="#9AB5FF"/>
<rect x="183.869" y="82.8112" width="12" height="12" rx="6" transform="rotate(-7.969 183.869 82.8112)" fill="#8EEB86"/>
<rect x="225.463" y="76.9883" width="12" height="12" rx="6" transform="rotate(-7.969 225.463 76.9883)" fill="#FD838F"/>
<rect x="267.058" y="71.1655" width="12" height="12" rx="6" transform="rotate(-7.969 267.058 71.1655)" fill="white"/>
<rect x="207.757" y="37.0575" width="83" height="16" rx="5" transform="rotate(-7.969 207.757 37.0575)" fill="white" fill-opacity="0.2"/>
<rect x="53.5791" y="147.499" width="251" height="16" rx="5" transform="rotate(-7.969 53.5791 147.499)" fill="white" fill-opacity="0.2"/>
<path d="M59.7746 58.3119L60.8901 66.2808L56.7763 66.8567L55.7366 59.4297C55.5512 58.1054 55.0026 57.5262 54.128 57.6487C52.9971 57.807 52.533 58.7158 52.757 60.316L53.7321 67.2817L49.7252 67.8426L48.6855 60.4156C48.5053 59.1289 47.9545 58.5117 47.0934 58.6323C45.9781 58.7884 45.4858 59.7226 45.7068 61.3018L46.682 68.2675L42.5682 68.8434L40.79 56.1414L43.6826 55.7364L44.4599 57.0195C44.8133 56.4182 45.2865 55.9075 45.8472 55.5227C46.4079 55.1379 47.0426 54.888 47.7076 54.7904C48.3773 54.6789 49.0656 54.7478 49.7095 54.9908C50.3534 55.2339 50.9323 55.6433 51.3933 56.1817C51.7497 55.5337 52.2413 54.9825 52.8313 54.5696C53.4212 54.1567 54.094 53.8927 54.7991 53.7977C57.3576 53.4395 59.3497 55.3222 59.7685 58.3139" fill="#1540F2"/>
<path d="M61.2008 59.7596C60.6494 55.821 63.0546 52.5993 66.9495 52.0541C70.8443 51.5088 74.043 53.9472 74.5942 57.8847C75.1454 61.8222 72.727 65.048 68.8445 65.5915C64.9621 66.135 61.7503 63.685 61.2008 59.7596ZM68.2943 61.6606C68.6443 61.6217 68.9817 61.5057 69.2849 61.3202C69.5881 61.1346 69.8505 60.8834 70.0554 60.5826C70.2603 60.2819 70.4034 59.9381 70.4753 59.5731C70.5472 59.2081 70.5465 58.83 70.4733 58.4627C70.4317 58.0949 70.3213 57.7385 70.1484 57.4145C69.9755 57.0904 69.7438 56.8054 69.4668 56.5762C69.1898 56.347 68.8732 56.1783 68.5358 56.08C68.1985 55.9818 67.847 55.9561 67.5024 56.0043C67.1578 56.0525 66.8271 56.1738 66.5296 56.3609C66.2321 56.548 65.9741 56.7971 65.7707 57.0936C65.5673 57.39 65.4227 57.7278 65.3455 58.0868C65.2682 58.4459 65.2598 58.8189 65.3209 59.184C65.3513 59.5572 65.4545 59.921 65.6239 60.2522C65.7933 60.5834 66.0252 60.8747 66.3048 61.1077C66.5845 61.3406 66.9058 61.5101 67.2483 61.6053C67.5908 61.7004 67.947 61.7193 68.2943 61.6606Z" fill="#1540F2"/>
<path d="M84.3445 59.0831L84.881 62.9158L82.0506 63.312C81.486 63.4437 80.8989 63.442 80.3306 63.3072C79.7624 63.1723 79.2268 62.9074 78.7614 62.5313C78.2961 62.1551 77.9123 61.6767 77.6371 61.1298C77.3618 60.5828 77.2019 59.9805 77.1683 59.3653L76.498 54.5769L74.312 54.883L74.1689 53.8611L78.675 47.0496L79.5205 46.9312L80.0405 50.6458L83.0411 50.2258L83.5127 53.595L80.616 54.0005L81.182 58.0439C81.1933 58.2433 81.2459 58.4383 81.3358 58.6151C81.4258 58.7919 81.5511 58.9462 81.7027 59.0669C81.8543 59.1877 82.0286 59.272 82.2131 59.3138C82.3976 59.3557 82.5878 59.3541 82.7703 59.3091L84.3445 59.0831Z" fill="#1540F2"/>
<path d="M93.5495 57.7945L94.0861 61.6272L91.2557 62.0234C90.691 62.1551 90.1039 62.1535 89.5357 62.0186C88.9674 61.8837 88.4318 61.6189 87.9665 61.2427C87.5011 60.8665 87.1174 60.3881 86.8421 59.8412C86.5669 59.2942 86.4069 58.692 86.3734 58.0767L85.7031 53.2884L83.517 53.5944L83.374 52.5725L87.8759 45.7616L88.7215 45.6432L89.2415 49.3578L92.242 48.9378L92.7136 52.307L89.8169 52.7125L90.3829 56.7559C90.395 56.9547 90.448 57.149 90.5383 57.3251C90.6286 57.5012 90.7538 57.6547 90.9053 57.7749C91.0567 57.895 91.2306 57.9789 91.4146 58.0204C91.5987 58.062 91.7884 58.0604 91.9705 58.0156L93.5495 57.7945Z" fill="#1540F2"/>
<path d="M93.6484 55.2173C93.097 51.2786 95.5022 48.0569 99.3971 47.5117C103.292 46.9665 106.491 49.4048 107.042 53.3423C107.593 57.2798 105.175 60.5056 101.292 61.0491C97.4098 61.5926 94.1979 59.1426 93.6484 55.2173ZM100.742 57.1182C101.092 57.0793 101.429 56.9634 101.733 56.7778C102.036 56.5922 102.298 56.3411 102.503 56.0403C102.708 55.7395 102.851 55.3957 102.923 55.0307C102.995 54.6658 102.994 54.2876 102.921 53.9203C102.879 53.5526 102.769 53.1961 102.596 52.8721C102.423 52.5481 102.191 52.263 101.914 52.0338C101.637 51.8046 101.321 51.6359 100.983 51.5377C100.646 51.4395 100.295 51.4137 99.9501 51.4619C99.6055 51.5102 99.2747 51.6314 98.9772 51.8185C98.6798 52.0056 98.4217 52.2548 98.2183 52.5512C98.0149 52.8477 97.8703 53.1854 97.7931 53.5445C97.7158 53.9035 97.7075 54.2766 97.7685 54.6416C97.7989 55.0149 97.9021 55.3787 98.0715 55.7099C98.2409 56.0411 98.4728 56.3324 98.7525 56.5653C99.0321 56.7983 99.3534 56.9677 99.6959 57.0629C100.038 57.1581 100.395 57.1769 100.742 57.1182Z" fill="#1540F2"/>
<circle cx="255.827" cy="66.6792" r="27" transform="rotate(-7.969 255.827 66.6792)" fill="black" fill-opacity="0.08"/>
<path d="M231.7 54.2542L253.847 75.0866L280.897 27.237" stroke="white" stroke-width="10" stroke-linecap="round"/>
</g>
<rect x="19.9383" y="40.6307" width="289" height="140" rx="15.5" transform="rotate(-7.969 19.9383 40.6307)" stroke="white" stroke-opacity="0.96"/>
<rect x="19.9383" y="40.6307" width="289" height="140" rx="15.5" transform="rotate(-7.969 19.9383 40.6307)" stroke="#434EC6" stroke-opacity="0.39"/>
<defs>
<linearGradient id="paint0_linear_18_800" x1="14.9832" y1="31.2795" x2="292.43" y2="178.541" gradientUnits="userSpaceOnUse">
<stop stop-color="#DAEBFF"/>
<stop offset="1" stop-color="#B3C1E3"/>
</linearGradient>
<linearGradient id="paint1_linear_18_800" x1="6.17399" y1="49.1213" x2="283.621" y2="196.383" gradientUnits="userSpaceOnUse">
<stop stop-color="#DAEBFF"/>
<stop offset="1" stop-color="#B3C1E3"/>
</linearGradient>
<linearGradient id="paint2_linear_18_800" x1="29.4751" y1="10.4682" x2="306.922" y2="157.73" gradientUnits="userSpaceOnUse">
<stop stop-color="#DAEBFF"/>
<stop offset="1" stop-color="#B3C1E3"/>
</linearGradient>
<linearGradient id="paint3_linear_18_800" x1="25.5478" y1="45.6731" x2="302.995" y2="192.935" gradientUnits="userSpaceOnUse">
<stop stop-color="#DAEBFF"/>
<stop offset="1" stop-color="#B3C1E3"/>
</linearGradient>
<clipPath id="clip0_18_800">
<rect y="43.6531" width="290" height="141" rx="16" transform="rotate(-7.0619 0 43.6531)" fill="white"/>
</clipPath>
<clipPath id="clip1_18_800">
<rect x="19.3738" y="40.2048" width="290" height="141" rx="16" transform="rotate(-7.969 19.3738 40.2048)" fill="white"/>
</clipPath>
</defs>
</svg>
