<svg width="416" height="299" viewBox="0 0 416 299" fill="none" xmlns="http://www.w3.org/2000/svg">
<g clip-path="url(#clip0_26_943)">
<rect width="289.423" height="140.803" rx="16" transform="matrix(0.938764 -0.344561 0.691712 0.722173 23 163.716)" fill="url(#paint0_linear_26_943)"/>
<rect x="5.70667" y="1.32164" width="25" height="25" rx="12.5" transform="matrix(0.938764 -0.344561 0.691712 0.722173 96.4982 202.309)" fill="white" stroke="#BCCBEA" stroke-width="7"/>
<path d="M123.148 207.762C122.779 207.377 122.522 207.051 122.376 206.785C122.232 206.513 122.171 206.277 122.194 206.078C122.216 205.878 122.3 205.663 122.443 205.432C122.618 205.15 122.718 204.904 122.743 204.695C122.772 204.484 122.691 204.278 122.498 204.078C122.294 203.864 122.033 203.728 121.718 203.67C121.399 203.609 121.099 203.63 120.816 203.734C120.632 203.802 120.493 203.897 120.398 204.021C120.299 204.142 120.259 204.281 120.277 204.439C120.292 204.594 120.373 204.751 120.521 204.91L118.48 205.659C118.041 205.189 117.808 204.747 117.783 204.334C117.758 203.916 117.907 203.546 118.228 203.223C118.546 202.897 118.994 202.628 119.571 202.416C120.196 202.187 120.823 202.059 121.451 202.033C122.084 202.006 122.675 202.089 123.225 202.283C123.78 202.475 124.252 202.775 124.643 203.184C125.018 203.575 125.214 203.955 125.231 204.322C125.248 204.69 125.127 205.065 124.87 205.449C124.733 205.65 124.644 205.834 124.601 206.001C124.56 206.163 124.572 206.33 124.638 206.502C124.704 206.673 124.836 206.863 125.035 207.07L125.167 207.208L123.281 207.901L123.148 207.762ZM126.441 209.823C126.231 209.9 125.999 209.932 125.743 209.919C125.488 209.906 125.243 209.849 125.008 209.749C124.772 209.648 124.578 209.515 124.425 209.349C124.269 209.192 124.178 209.028 124.152 208.855C124.125 208.683 124.164 208.524 124.268 208.379C124.372 208.234 124.529 208.123 124.738 208.046C124.939 207.972 125.166 207.943 125.417 207.957C125.672 207.97 125.918 208.025 126.154 208.12C126.394 208.214 126.592 208.34 126.748 208.496C126.901 208.662 126.991 208.834 127.016 209.012C127.038 209.186 126.999 209.347 126.898 209.495C126.794 209.64 126.642 209.75 126.441 209.823Z" fill="#B6C5E6"/>
<rect x="5.70667" y="1.32164" width="25" height="25" rx="12.5" transform="matrix(0.938764 -0.344561 0.691712 0.722173 133.11 188.871)" fill="white" stroke="#BCCBEA" stroke-width="7"/>
<path d="M159.76 194.324C159.391 193.939 159.134 193.613 158.988 193.347C158.844 193.075 158.783 192.839 158.806 192.64C158.828 192.44 158.911 192.225 159.055 191.994C159.23 191.712 159.33 191.466 159.355 191.257C159.384 191.046 159.303 190.84 159.11 190.64C158.905 190.426 158.645 190.29 158.33 190.232C158.011 190.171 157.711 190.192 157.428 190.296C157.244 190.364 157.105 190.459 157.009 190.583C156.911 190.704 156.871 190.843 156.889 191.001C156.904 191.156 156.985 191.313 157.132 191.472L155.092 192.221C154.653 191.751 154.42 191.309 154.395 190.896C154.37 190.478 154.518 190.108 154.84 189.785C155.158 189.459 155.606 189.19 156.183 188.978C156.808 188.749 157.434 188.621 158.063 188.595C158.696 188.568 159.287 188.651 159.837 188.845C160.391 189.037 160.864 189.338 161.255 189.746C161.63 190.137 161.826 190.517 161.843 190.884C161.859 191.252 161.739 191.627 161.482 192.011C161.345 192.212 161.256 192.396 161.213 192.563C161.172 192.725 161.184 192.892 161.25 193.064C161.316 193.235 161.448 193.425 161.647 193.632L161.779 193.77L159.892 194.463L159.76 194.324ZM163.052 196.385C162.843 196.462 162.61 196.494 162.355 196.481C162.1 196.468 161.854 196.411 161.619 196.311C161.384 196.21 161.19 196.077 161.037 195.911C160.881 195.754 160.79 195.59 160.763 195.417C160.737 195.245 160.776 195.086 160.88 194.941C160.984 194.796 161.141 194.685 161.35 194.608C161.551 194.534 161.777 194.505 162.028 194.519C162.284 194.532 162.53 194.587 162.766 194.682C163.006 194.776 163.204 194.902 163.36 195.058C163.513 195.224 163.603 195.396 163.628 195.574C163.65 195.748 163.611 195.909 163.51 196.057C163.406 196.202 163.254 196.312 163.052 196.385Z" fill="#B6C5E6"/>
<rect x="5.70667" y="1.32164" width="25" height="25" rx="12.5" transform="matrix(0.938764 -0.344561 0.691712 0.722173 169.722 175.433)" fill="white" stroke="#BCCBEA" stroke-width="7"/>
<path d="M196.372 180.887C196.003 180.502 195.746 180.176 195.6 179.909C195.455 179.637 195.395 179.402 195.417 179.202C195.44 179.002 195.523 178.787 195.667 178.557C195.842 178.274 195.942 178.029 195.967 177.819C195.996 177.608 195.914 177.403 195.722 177.202C195.517 176.988 195.257 176.852 194.941 176.794C194.623 176.733 194.322 176.755 194.04 176.858C193.856 176.926 193.716 177.022 193.621 177.146C193.523 177.266 193.483 177.405 193.501 177.563C193.516 177.718 193.597 177.875 193.744 178.035L191.703 178.784C191.264 178.313 191.032 177.871 191.006 177.458C190.982 177.04 191.13 176.67 191.451 176.347C191.77 176.021 192.217 175.752 192.795 175.54C193.42 175.311 194.046 175.184 194.675 175.158C195.307 175.13 195.899 175.213 196.449 175.407C197.003 175.599 197.476 175.9 197.867 176.308C198.242 176.7 198.438 177.079 198.454 177.447C198.471 177.814 198.351 178.19 198.094 178.573C197.957 178.775 197.867 178.959 197.825 179.126C197.783 179.288 197.796 179.454 197.862 179.626C197.928 179.797 198.06 179.987 198.258 180.194L198.391 180.332L196.504 181.025L196.372 180.887ZM199.664 182.948C199.455 183.025 199.222 183.056 198.967 183.043C198.711 183.03 198.466 182.974 198.231 182.873C197.996 182.773 197.802 182.639 197.648 182.473C197.493 182.317 197.402 182.152 197.375 181.98C197.349 181.807 197.387 181.648 197.491 181.503C197.595 181.358 197.752 181.247 197.962 181.17C198.163 181.097 198.389 181.067 198.64 181.082C198.895 181.095 199.141 181.149 199.377 181.245C199.618 181.339 199.816 181.464 199.972 181.62C200.125 181.787 200.214 181.958 200.24 182.136C200.262 182.31 200.223 182.471 200.122 182.619C200.018 182.764 199.865 182.874 199.664 182.948Z" fill="#B6C5E6"/>
<rect x="5.70667" y="1.32164" width="25" height="25" rx="12.5" transform="matrix(0.938764 -0.344561 0.691712 0.722173 206.334 161.995)" fill="white" stroke="#BCCBEA" stroke-width="7"/>
<path d="M232.984 167.449C232.615 167.064 232.358 166.738 232.212 166.471C232.067 166.199 232.006 165.964 232.029 165.764C232.052 165.564 232.135 165.349 232.278 165.119C232.453 164.836 232.553 164.591 232.578 164.381C232.608 164.17 232.526 163.965 232.334 163.764C232.129 163.55 231.869 163.414 231.553 163.356C231.235 163.295 230.934 163.317 230.652 163.42C230.468 163.488 230.328 163.584 230.233 163.708C230.135 163.828 230.095 163.967 230.113 164.125C230.128 164.28 230.209 164.437 230.356 164.597L228.315 165.346C227.876 164.875 227.644 164.433 227.618 164.02C227.594 163.602 227.742 163.232 228.063 162.909C228.381 162.583 228.829 162.314 229.407 162.102C230.031 161.873 230.658 161.746 231.286 161.72C231.919 161.692 232.511 161.775 233.061 161.969C233.615 162.162 234.088 162.462 234.479 162.87C234.854 163.262 235.05 163.641 235.066 164.009C235.083 164.376 234.963 164.752 234.706 165.135C234.569 165.337 234.479 165.521 234.437 165.688C234.395 165.85 234.407 166.016 234.473 166.188C234.539 166.359 234.672 166.549 234.87 166.756L235.003 166.894L233.116 167.587L232.984 167.449ZM236.276 169.51C236.066 169.587 235.834 169.618 235.579 169.605C235.323 169.592 235.078 169.536 234.843 169.435C234.608 169.335 234.414 169.201 234.26 169.035C234.105 168.879 234.014 168.714 233.987 168.542C233.961 168.369 233.999 168.21 234.103 168.065C234.207 167.92 234.364 167.809 234.574 167.732C234.775 167.659 235.001 167.629 235.252 167.644C235.507 167.657 235.753 167.711 235.989 167.807C236.23 167.901 236.428 168.026 236.583 168.182C236.737 168.349 236.826 168.52 236.852 168.698C236.874 168.872 236.835 169.033 236.734 169.181C236.63 169.326 236.477 169.436 236.276 169.51Z" fill="#B6C5E6"/>
<rect x="5.70667" y="1.32164" width="25" height="25" rx="12.5" transform="matrix(0.938764 -0.344561 0.691712 0.722173 242.945 148.557)" fill="white" stroke="#BCCBEA" stroke-width="7"/>
<path d="M269.595 154.011C269.227 153.626 268.969 153.3 268.824 153.033C268.679 152.761 268.618 152.526 268.641 152.326C268.664 152.127 268.747 151.911 268.89 151.681C269.065 151.399 269.165 151.153 269.19 150.944C269.219 150.733 269.138 150.527 268.946 150.326C268.741 150.112 268.481 149.976 268.165 149.919C267.846 149.858 267.546 149.879 267.264 149.983C267.08 150.05 266.94 150.146 266.845 150.27C266.746 150.39 266.706 150.53 266.725 150.688C266.74 150.842 266.821 150.999 266.968 151.159L264.927 151.908C264.488 151.437 264.256 150.996 264.23 150.582C264.205 150.164 264.354 149.794 264.675 149.471C264.993 149.146 265.441 148.877 266.019 148.665C266.643 148.435 267.27 148.308 267.898 148.282C268.531 148.254 269.122 148.337 269.672 148.531C270.227 148.724 270.699 149.024 271.09 149.432C271.465 149.824 271.661 150.203 271.678 150.571C271.695 150.938 271.574 151.314 271.317 151.697C271.181 151.899 271.091 152.083 271.048 152.25C271.007 152.412 271.019 152.579 271.085 152.75C271.151 152.922 271.284 153.111 271.482 153.318L271.615 153.457L269.728 154.149L269.595 154.011ZM272.888 156.072C272.678 156.149 272.446 156.181 272.19 156.168C271.935 156.155 271.69 156.098 271.455 155.997C271.22 155.897 271.025 155.763 270.872 155.597C270.717 155.441 270.625 155.276 270.599 155.104C270.572 154.931 270.611 154.772 270.715 154.627C270.819 154.483 270.976 154.372 271.186 154.295C271.387 154.221 271.613 154.191 271.864 154.206C272.119 154.219 272.365 154.273 272.601 154.369C272.842 154.463 273.04 154.588 273.195 154.745C273.349 154.911 273.438 155.083 273.463 155.26C273.486 155.434 273.446 155.596 273.345 155.744C273.241 155.889 273.089 155.998 272.888 156.072Z" fill="#B6C5E6"/>
<rect x="5.70667" y="1.32164" width="25" height="25" rx="12.5" transform="matrix(0.938764 -0.344561 0.691712 0.722173 279.557 135.119)" fill="white" stroke="#BCCBEA" stroke-width="7"/>
<path d="M306.207 140.573C305.838 140.188 305.581 139.862 305.435 139.595C305.291 139.323 305.23 139.088 305.253 138.888C305.275 138.689 305.359 138.473 305.502 138.243C305.677 137.961 305.777 137.715 305.802 137.506C305.831 137.295 305.75 137.089 305.557 136.888C305.352 136.674 305.092 136.538 304.777 136.481C304.458 136.42 304.158 136.441 303.875 136.545C303.691 136.612 303.552 136.708 303.457 136.832C303.358 136.952 303.318 137.092 303.336 137.25C303.351 137.404 303.432 137.561 303.579 137.721L301.539 138.47C301.1 137.999 300.867 137.558 300.842 137.144C300.817 136.726 300.966 136.356 301.287 136.034C301.605 135.708 302.053 135.439 302.63 135.227C303.255 134.998 303.882 134.87 304.51 134.844C305.143 134.816 305.734 134.899 306.284 135.093C306.839 135.286 307.311 135.586 307.702 135.994C308.077 136.386 308.273 136.765 308.29 137.133C308.306 137.5 308.186 137.876 307.929 138.259C307.792 138.461 307.703 138.645 307.66 138.812C307.619 138.974 307.631 139.141 307.697 139.312C307.763 139.484 307.895 139.673 308.094 139.88L308.226 140.019L306.34 140.711L306.207 140.573ZM309.5 142.634C309.29 142.711 309.057 142.743 308.802 142.73C308.547 142.717 308.302 142.66 308.067 142.559C307.831 142.459 307.637 142.325 307.484 142.159C307.328 142.003 307.237 141.838 307.211 141.666C307.184 141.493 307.223 141.334 307.327 141.189C307.431 141.045 307.588 140.934 307.797 140.857C307.998 140.783 308.224 140.753 308.476 140.768C308.731 140.781 308.977 140.835 309.213 140.931C309.453 141.025 309.651 141.15 309.807 141.307C309.96 141.473 310.05 141.645 310.075 141.822C310.097 141.996 310.058 142.158 309.957 142.306C309.853 142.451 309.701 142.56 309.5 142.634Z" fill="#B6C5E6"/>
<rect width="83" height="16" rx="5" transform="matrix(0.938764 -0.344561 0.691712 0.722173 214.458 115.893)" fill="white" fill-opacity="0.2"/>
<rect width="251" height="16" rx="5" transform="matrix(0.938764 -0.344561 0.691712 0.722173 117.617 237.33)" fill="white" fill-opacity="0.2"/>
<path d="M74.065 167.453L79.3035 172.922L75.4117 174.35L70.5294 169.253C69.6589 168.344 68.8021 168.062 67.9747 168.366C66.9048 168.758 66.9002 169.528 67.9521 170.626L72.5312 175.407L68.7405 176.798L63.8582 171.701C63.0123 170.817 62.1338 170.508 61.3192 170.807C60.264 171.195 60.2438 171.989 61.2819 173.073L65.8609 177.854L61.9691 179.282L53.6192 170.565L56.3557 169.56L57.8077 170.293C57.8578 169.773 58.0767 169.288 58.4494 168.873C58.8221 168.457 59.3397 168.121 59.9665 167.887C60.5909 167.641 61.3272 167.522 62.1078 167.538C62.8885 167.555 63.6886 167.707 64.4352 167.982C64.4644 167.427 64.6812 166.909 65.0693 166.466C65.4573 166.023 66.0064 165.667 66.6753 165.424C69.0957 164.536 72.0931 165.402 74.0598 167.456" fill="#000518" fill-opacity="0.24"/>
<path d="M76.2624 168.145C73.6732 165.442 74.4633 162.527 78.148 161.175C81.8326 159.822 86.3445 160.792 88.933 163.495C91.5214 166.197 90.72 169.118 87.0471 170.466C83.3742 171.814 78.8428 170.839 76.2624 168.145ZM84.463 167.768C84.7994 167.654 85.0831 167.487 85.2963 167.279C85.5094 167.07 85.6473 166.825 85.7011 166.557C85.7549 166.29 85.7234 166.007 85.6088 165.726C85.4941 165.445 85.2987 165.173 85.035 164.926C84.8034 164.671 84.5075 164.442 84.1646 164.251C83.8218 164.06 83.4391 163.911 83.0391 163.814C82.6391 163.717 82.2299 163.674 81.8358 163.686C81.4418 163.698 81.0707 163.766 80.7447 163.886C80.4187 164.006 80.1444 164.175 79.9379 164.383C79.7314 164.591 79.5969 164.834 79.5424 165.098C79.488 165.362 79.5147 165.641 79.6209 165.918C79.7271 166.196 79.9106 166.467 80.1607 166.715C80.3839 166.977 80.6762 167.214 81.0192 167.411C81.3622 167.608 81.7482 167.761 82.1529 167.86C82.5575 167.959 82.9719 168.002 83.3696 167.986C83.7673 167.97 84.1397 167.896 84.463 167.768Z" fill="#000518" fill-opacity="0.24"/>
<path d="M99.4768 161.957L101.996 164.587L99.3187 165.57C98.8116 165.804 98.2131 165.947 97.5651 165.99C96.9171 166.033 96.2354 165.974 95.568 165.817C94.9005 165.661 94.2635 165.41 93.7017 165.084C93.1399 164.758 92.667 164.363 92.3161 163.928L89.1684 160.641L87.1003 161.4L86.4285 160.699L87.5093 154.679L88.3092 154.386L90.7511 156.935L93.5897 155.893L95.8045 158.206L93.0641 159.211L95.7221 161.986C95.8363 162.127 95.9902 162.255 96.1728 162.36C96.3555 162.466 96.5624 162.546 96.7789 162.596C96.9955 162.645 97.2163 162.663 97.4257 162.648C97.6351 162.633 97.8279 162.585 97.9905 162.507L99.4768 161.957Z" fill="#000518" fill-opacity="0.24"/>
<path d="M108.185 158.76L110.705 161.391L108.027 162.373C107.52 162.607 106.921 162.751 106.273 162.794C105.625 162.836 104.944 162.777 104.276 162.621C103.609 162.464 102.972 162.214 102.41 161.888C101.848 161.561 101.375 161.167 101.024 160.731L97.8767 157.445L95.8086 158.204L95.1368 157.503L96.2137 151.484L97.0136 151.191L99.4555 153.74L102.294 152.698L104.509 155.011L101.768 156.017L104.426 158.792C104.541 158.932 104.695 159.059 104.878 159.164C105.06 159.268 105.267 159.348 105.483 159.397C105.699 159.447 105.919 159.464 106.128 159.449C106.337 159.434 106.529 159.386 106.691 159.309L108.185 158.76Z" fill="#000518" fill-opacity="0.24"/>
<path d="M106.959 156.878C104.37 154.175 105.16 151.26 108.844 149.908C112.529 148.556 117.041 149.525 119.629 152.228C122.218 154.93 121.416 157.851 117.744 159.199C114.071 160.547 109.539 159.572 106.959 156.878ZM115.16 156.501C115.496 156.387 115.78 156.22 115.993 156.012C116.206 155.803 116.344 155.558 116.398 155.29C116.451 155.023 116.42 154.74 116.305 154.459C116.191 154.179 115.995 153.906 115.732 153.659C115.5 153.405 115.204 153.175 114.861 152.984C114.518 152.793 114.136 152.645 113.736 152.548C113.336 152.451 112.926 152.407 112.532 152.419C112.138 152.432 111.767 152.5 111.441 152.619C111.115 152.739 110.841 152.908 110.634 153.116C110.428 153.324 110.293 153.567 110.239 153.831C110.185 154.095 110.211 154.374 110.317 154.652C110.424 154.929 110.607 155.2 110.857 155.448C111.08 155.71 111.373 155.947 111.716 156.144C112.059 156.341 112.445 156.494 112.849 156.593C113.254 156.692 113.668 156.735 114.066 156.719C114.464 156.703 114.836 156.629 115.16 156.501Z" fill="#000518" fill-opacity="0.24"/>
</g>
<rect x="0.815238" y="0.188806" width="288.423" height="139.803" rx="15.5" transform="matrix(0.938764 -0.344561 0.691712 0.722173 22.9193 164.049)" stroke="white" stroke-opacity="0.96"/>
<rect x="0.815238" y="0.188806" width="288.423" height="139.803" rx="15.5" transform="matrix(0.938764 -0.344561 0.691712 0.722173 22.9193 164.049)" stroke="#434EC6" stroke-opacity="0.39"/>
<g filter="url(#filter0_f_26_943)">
<ellipse cx="279.5" cy="142.5" rx="68.5" ry="26.5" fill="url(#paint1_linear_26_943)"/>
</g>
<mask id="path-23-inside-1_26_943" fill="white">
<path fill-rule="evenodd" clip-rule="evenodd" d="M229 35C220.716 35 214 41.7157 214 50V95.5944C214 103.879 220.716 110.594 229 110.594H248.248C250.391 110.594 252.372 111.738 253.444 113.594L259.419 123.944C261.729 127.944 267.502 127.944 269.812 123.944L275.787 113.594C276.859 111.738 278.839 110.594 280.983 110.594H299.573C307.858 110.594 314.573 103.879 314.573 95.5944V50C314.573 41.7157 307.858 35 299.573 35H229Z"/>
</mask>
<path fill-rule="evenodd" clip-rule="evenodd" d="M229 35C220.716 35 214 41.7157 214 50V95.5944C214 103.879 220.716 110.594 229 110.594H248.248C250.391 110.594 252.372 111.738 253.444 113.594L259.419 123.944C261.729 127.944 267.502 127.944 269.812 123.944L275.787 113.594C276.859 111.738 278.839 110.594 280.983 110.594H299.573C307.858 110.594 314.573 103.879 314.573 95.5944V50C314.573 41.7157 307.858 35 299.573 35H229Z" fill="white"/>
<path d="M275.787 113.594L276.653 114.094L275.787 113.594ZM259.419 123.944L258.553 124.444L259.419 123.944ZM269.812 123.944L268.946 123.444L269.812 123.944ZM253.444 113.594L252.578 114.094L253.444 113.594ZM215 50C215 42.268 221.268 36 229 36V34C220.163 34 213 41.1634 213 50H215ZM215 95.5944V50H213V95.5944H215ZM229 109.594C221.268 109.594 215 103.326 215 95.5944H213C213 104.431 220.163 111.594 229 111.594V109.594ZM248.248 109.594H229V111.594H248.248V109.594ZM260.285 123.444L254.31 113.094L252.578 114.094L258.553 124.444L260.285 123.444ZM274.921 113.094L268.946 123.444L270.678 124.444L276.653 114.094L274.921 113.094ZM299.573 109.594H280.983V111.594H299.573V109.594ZM313.573 95.5944C313.573 103.326 307.305 109.594 299.573 109.594V111.594C308.41 111.594 315.573 104.431 315.573 95.5944H313.573ZM313.573 50V95.5944H315.573V50H313.573ZM299.573 36C307.305 36 313.573 42.268 313.573 50H315.573C315.573 41.1634 308.41 34 299.573 34V36ZM229 36H299.573V34H229V36ZM276.653 114.094C277.546 112.547 279.197 111.594 280.983 111.594V109.594C278.482 109.594 276.171 110.929 274.921 113.094L276.653 114.094ZM258.553 124.444C261.248 129.111 267.983 129.111 270.678 124.444L268.946 123.444C267.021 126.777 262.21 126.777 260.285 123.444L258.553 124.444ZM248.248 111.594C250.034 111.594 251.685 112.547 252.578 114.094L254.31 113.094C253.059 110.929 250.749 109.594 248.248 109.594V111.594Z" fill="black" fill-opacity="0.15" mask="url(#path-23-inside-1_26_943)"/>
<path d="M251.673 74.6628C250.967 74.6628 250.312 74.49 249.707 74.1443C249.102 73.7986 248.627 73.3232 248.281 72.7183C247.935 72.1133 247.77 71.4507 247.784 70.7305C247.77 70.0391 247.935 69.3981 248.281 68.8075C248.627 68.2169 249.102 67.7488 249.707 67.4031C250.312 67.0574 250.967 66.8845 251.673 66.8845C252.35 66.8845 252.984 67.0574 253.575 67.4031C254.179 67.7488 254.662 68.2169 255.022 68.8075C255.397 69.3981 255.591 70.0391 255.606 70.7305C255.591 71.4507 255.404 72.1133 255.044 72.7183C254.684 73.3088 254.201 73.7842 253.596 74.1443C252.991 74.49 252.35 74.6628 251.673 74.6628ZM264.594 74.6628C263.888 74.6628 263.233 74.49 262.628 74.1443C262.023 73.7986 261.547 73.3232 261.202 72.7183C260.856 72.1133 260.69 71.4507 260.705 70.7305C260.69 70.0391 260.856 69.3981 261.202 68.8075C261.547 68.2169 262.023 67.7488 262.628 67.4031C263.233 67.0574 263.888 66.8845 264.594 66.8845C265.271 66.8845 265.905 67.0574 266.495 67.4031C267.1 67.7488 267.583 68.2169 267.943 68.8075C268.317 69.3981 268.512 70.0391 268.526 70.7305C268.512 71.4507 268.325 72.1133 267.964 72.7183C267.604 73.3088 267.122 73.7842 266.517 74.1443C265.912 74.49 265.271 74.6628 264.594 74.6628ZM277.514 74.6628C276.809 74.6628 276.153 74.49 275.548 74.1443C274.943 73.7986 274.468 73.3232 274.122 72.7183C273.777 72.1133 273.611 71.4507 273.625 70.7305C273.611 70.0391 273.777 69.3981 274.122 68.8075C274.468 68.2169 274.943 67.7488 275.548 67.4031C276.153 67.0574 276.809 66.8845 277.514 66.8845C278.191 66.8845 278.825 67.0574 279.416 67.4031C280.021 67.7488 280.503 68.2169 280.863 68.8075C281.238 69.3981 281.432 70.0391 281.447 70.7305C281.432 71.4507 281.245 72.1133 280.885 72.7183C280.525 73.3088 280.042 73.7842 279.437 74.1443C278.832 74.49 278.191 74.6628 277.514 74.6628Z" fill="#707070"/>
<defs>
<filter id="filter0_f_26_943" x="192" y="97" width="175" height="91" filterUnits="userSpaceOnUse" color-interpolation-filters="sRGB">
<feFlood flood-opacity="0" result="BackgroundImageFix"/>
<feBlend mode="normal" in="SourceGraphic" in2="BackgroundImageFix" result="shape"/>
<feGaussianBlur stdDeviation="9.5" result="effect1_foregroundBlur_26_943"/>
</filter>
<linearGradient id="paint0_linear_26_943" x1="6.16171" y1="5.46059" x2="283.129" y2="152.381" gradientUnits="userSpaceOnUse">
<stop stop-color="#DAEBFF"/>
<stop offset="1" stop-color="#CFD2D8"/>
</linearGradient>
<linearGradient id="paint1_linear_26_943" x1="211.247" y1="129.747" x2="312.242" y2="144.826" gradientUnits="userSpaceOnUse">
<stop stop-color="#00247F" stop-opacity="0.33"/>
<stop offset="1" stop-color="#3149FF" stop-opacity="0"/>
</linearGradient>
<clipPath id="clip0_26_943">
<rect width="289.423" height="140.803" rx="16" transform="matrix(0.938764 -0.344561 0.691712 0.722173 23 163.716)" fill="white"/>
</clipPath>
</defs>
</svg>
