<svg width="170" height="98" viewBox="0 0 170 98" fill="none" xmlns="http://www.w3.org/2000/svg">
<g id="img__addone" clip-path="url(#clip0_73_764)">
<path id="Vector" d="M155 0.5H15C6.71573 0.5 0 7.21573 0 15.5V82.5C0 90.7843 6.71573 97.5 15 97.5H155C163.284 97.5 170 90.7843 170 82.5V15.5C170 7.21573 163.284 0.5 155 0.5Z" fill="white"/>
<path id="Vector_2" d="M155 1H15C6.99187 1 0.5 7.49187 0.5 15.5V82.5C0.5 90.5081 6.99187 97 15 97H155C163.008 97 169.5 90.5081 169.5 82.5V15.5C169.5 7.49187 163.008 1 155 1Z" stroke="black" stroke-opacity="0.15"/>
<path id="Vector_3" d="M83 49C83 28.8416 66.6584 12.5 46.5 12.5C26.3416 12.5 10 28.8416 10 49C10 69.1584 26.3416 85.5 46.5 85.5C66.6584 85.5 83 69.1584 83 49Z" fill="#F3F3F3"/>
<path id="main-color" fill-rule="evenodd" clip-rule="evenodd" d="M31.466 37.8885C30.2095 38.5621 30 39.2818 30 42.9284V46.078L30.6639 46.2045C31.0508 46.2782 31.5986 46.6058 31.9771 46.9898C33.1082 48.1381 33.1082 49.8551 31.9771 51.0034C31.5986 51.3874 31.0508 51.7151 30.6639 51.7887L30 51.9152V55.0648C30 58.749 30.2065 59.4409 31.5062 60.1141C32.2344 60.4912 32.5916 60.5 47 60.5C61.4084 60.5 61.7656 60.4912 62.4938 60.1141C63.7935 59.4409 64 58.749 64 55.0648V51.9152L63.3361 51.7887C62.9492 51.7151 62.4014 51.3874 62.0229 51.0034C60.8918 49.8551 60.8918 48.1381 62.0229 46.9898C62.4014 46.6058 62.9492 46.2782 63.3361 46.2045L64 46.078V42.9284C64 39.2442 63.7935 38.5523 62.4938 37.8792C61.7651 37.5018 61.4171 37.4934 46.9603 37.5016C32.6101 37.5099 32.1513 37.5214 31.466 37.8885ZM36.1304 41.7984L35.6667 42.2688V48.9966V55.7244L36.1304 56.1949L36.5939 56.6655H47H57.4061L57.8696 56.1949L58.3333 55.7244V48.9966V42.2688L57.8696 41.7984L57.4061 41.3277H47H36.5939L36.1304 41.7984ZM37.5556 48.9966V54.7483H47H56.4444V48.9966V43.2449H47H37.5556V48.9966Z" fill="#0252C8"/>
<path id="Vector_4" d="M114.926 51.2695H108.422V46.3828H114.926V39.8789H119.848V46.3828H126.352V51.2695H119.848V57.7734H114.926V51.2695ZM142.805 61.5H136.793V41.6719H136.652L130.922 45.1875V39.9844L137.215 36.0469H142.805V61.5Z" fill="#04C88D"/>
</g>
<defs>
<clipPath id="clip0_73_764">
<rect width="170" height="97" fill="white" transform="translate(0 0.5)"/>
</clipPath>
</defs>
</svg>
