<svg width="416" height="299" viewBox="0 0 416 299" fill="none" xmlns="http://www.w3.org/2000/svg">
<g clip-path="url(#clip0_28_1104)">
<g clip-path="url(#clip1_28_1104)">
<rect width="289.423" height="140.803" rx="16" transform="matrix(0.938764 -0.344561 0.691712 0.722173 23 139.724)" fill="url(#paint0_linear_28_1104)"/>
<rect x="5.70667" y="1.32164" width="25" height="25" rx="12.5" transform="matrix(0.938764 -0.344561 0.691712 0.722173 96.4982 178.317)" fill="white" stroke="#BCCBEA" stroke-width="7"/>
<path d="M123.148 183.771C122.779 183.386 122.522 183.06 122.376 182.793C122.232 182.521 122.171 182.286 122.194 182.086C122.216 181.886 122.3 181.671 122.443 181.441C122.618 181.158 122.718 180.913 122.743 180.703C122.772 180.492 122.691 180.287 122.498 180.086C122.294 179.872 122.033 179.736 121.718 179.678C121.399 179.617 121.099 179.639 120.816 179.742C120.632 179.81 120.493 179.906 120.398 180.03C120.299 180.15 120.259 180.289 120.277 180.447C120.292 180.602 120.373 180.759 120.521 180.919L118.48 181.668C118.041 181.197 117.808 180.755 117.783 180.342C117.758 179.924 117.907 179.554 118.228 179.231C118.546 178.905 118.994 178.637 119.571 178.425C120.196 178.195 120.823 178.068 121.451 178.042C122.084 178.014 122.675 178.097 123.225 178.291C123.78 178.484 124.252 178.784 124.643 179.192C125.018 179.584 125.214 179.963 125.231 180.331C125.248 180.698 125.127 181.074 124.87 181.457C124.733 181.659 124.644 181.843 124.601 182.01C124.56 182.172 124.572 182.338 124.638 182.51C124.704 182.681 124.836 182.871 125.035 183.078L125.167 183.216L123.281 183.909L123.148 183.771ZM126.441 185.832C126.231 185.909 125.999 185.941 125.743 185.927C125.488 185.914 125.243 185.858 125.008 185.757C124.772 185.657 124.578 185.523 124.425 185.357C124.269 185.201 124.178 185.036 124.152 184.864C124.125 184.691 124.164 184.532 124.268 184.387C124.372 184.242 124.529 184.131 124.738 184.054C124.939 183.981 125.166 183.951 125.417 183.966C125.672 183.979 125.918 184.033 126.154 184.129C126.394 184.223 126.592 184.348 126.748 184.504C126.901 184.671 126.991 184.842 127.016 185.02C127.038 185.194 126.999 185.355 126.898 185.504C126.794 185.648 126.642 185.758 126.441 185.832Z" fill="#B6C5E6"/>
<rect x="5.70667" y="1.32164" width="25" height="25" rx="12.5" transform="matrix(0.938764 -0.344561 0.691712 0.722173 133.11 164.879)" fill="white" stroke="#BCCBEA" stroke-width="7"/>
<path d="M159.76 170.333C159.391 169.948 159.134 169.622 158.988 169.355C158.844 169.083 158.783 168.848 158.806 168.648C158.828 168.448 158.911 168.233 159.055 168.003C159.23 167.72 159.33 167.475 159.355 167.265C159.384 167.054 159.303 166.849 159.11 166.648C158.905 166.434 158.645 166.298 158.33 166.24C158.011 166.179 157.711 166.201 157.428 166.304C157.244 166.372 157.105 166.468 157.009 166.592C156.911 166.712 156.871 166.851 156.889 167.009C156.904 167.164 156.985 167.321 157.132 167.481L155.092 168.23C154.653 167.759 154.42 167.317 154.395 166.904C154.37 166.486 154.518 166.116 154.84 165.793C155.158 165.467 155.606 165.199 156.183 164.987C156.808 164.757 157.434 164.63 158.063 164.604C158.696 164.576 159.287 164.659 159.837 164.853C160.391 165.046 160.864 165.346 161.255 165.754C161.63 166.146 161.826 166.525 161.843 166.893C161.859 167.26 161.739 167.636 161.482 168.019C161.345 168.221 161.256 168.405 161.213 168.572C161.172 168.734 161.184 168.9 161.25 169.072C161.316 169.243 161.448 169.433 161.647 169.64L161.779 169.778L159.892 170.471L159.76 170.333ZM163.052 172.394C162.843 172.471 162.61 172.503 162.355 172.489C162.1 172.476 161.854 172.42 161.619 172.319C161.384 172.219 161.19 172.085 161.037 171.919C160.881 171.763 160.79 171.598 160.763 171.426C160.737 171.253 160.776 171.094 160.88 170.949C160.984 170.804 161.141 170.693 161.35 170.616C161.551 170.543 161.777 170.513 162.028 170.528C162.284 170.541 162.53 170.595 162.766 170.691C163.006 170.785 163.204 170.91 163.36 171.066C163.513 171.233 163.603 171.404 163.628 171.582C163.65 171.756 163.611 171.917 163.51 172.066C163.406 172.21 163.254 172.32 163.052 172.394Z" fill="#B6C5E6"/>
<rect x="5.70667" y="1.32164" width="25" height="25" rx="12.5" transform="matrix(0.938764 -0.344561 0.691712 0.722173 169.722 151.441)" fill="white" stroke="#BCCBEA" stroke-width="7"/>
<path d="M196.372 156.895C196.003 156.51 195.746 156.184 195.6 155.917C195.456 155.645 195.395 155.41 195.417 155.21C195.44 155.011 195.523 154.795 195.667 154.565C195.842 154.283 195.942 154.037 195.967 153.828C195.996 153.617 195.914 153.411 195.722 153.21C195.517 152.996 195.257 152.86 194.942 152.803C194.623 152.742 194.322 152.763 194.04 152.867C193.856 152.934 193.716 153.03 193.621 153.154C193.523 153.274 193.483 153.414 193.501 153.572C193.516 153.726 193.597 153.883 193.744 154.043L191.703 154.792C191.264 154.321 191.032 153.88 191.006 153.466C190.982 153.048 191.13 152.678 191.452 152.356C191.77 152.03 192.218 151.761 192.795 151.549C193.42 151.32 194.046 151.192 194.675 151.166C195.307 151.138 195.899 151.221 196.449 151.415C197.003 151.608 197.476 151.908 197.867 152.316C198.242 152.708 198.438 153.087 198.454 153.455C198.471 153.822 198.351 154.198 198.094 154.581C197.957 154.783 197.867 154.967 197.825 155.134C197.783 155.296 197.796 155.463 197.862 155.634C197.928 155.806 198.06 155.995 198.259 156.202L198.391 156.341L196.504 157.033L196.372 156.895ZM199.664 158.956C199.455 159.033 199.222 159.065 198.967 159.052C198.711 159.039 198.466 158.982 198.231 158.881C197.996 158.781 197.802 158.647 197.649 158.481C197.493 158.325 197.402 158.16 197.375 157.988C197.349 157.815 197.387 157.656 197.492 157.511C197.596 157.367 197.752 157.256 197.962 157.179C198.163 157.105 198.389 157.075 198.64 157.09C198.896 157.103 199.141 157.157 199.378 157.253C199.618 157.347 199.816 157.472 199.972 157.629C200.125 157.795 200.214 157.967 200.24 158.144C200.262 158.318 200.223 158.48 200.122 158.628C200.018 158.773 199.865 158.882 199.664 158.956Z" fill="#B6C5E6"/>
<rect x="5.70667" y="1.32164" width="25" height="25" rx="12.5" transform="matrix(0.938764 -0.344561 0.691712 0.722173 206.334 138.003)" fill="white" stroke="#BCCBEA" stroke-width="7"/>
<path d="M232.984 143.457C232.615 143.072 232.358 142.746 232.212 142.479C232.067 142.207 232.006 141.972 232.029 141.772C232.052 141.573 232.135 141.357 232.278 141.127C232.453 140.845 232.553 140.599 232.578 140.39C232.608 140.179 232.526 139.973 232.334 139.772C232.129 139.558 231.869 139.422 231.553 139.365C231.235 139.304 230.934 139.325 230.652 139.429C230.468 139.496 230.328 139.592 230.233 139.716C230.135 139.836 230.095 139.976 230.113 140.134C230.128 140.288 230.209 140.445 230.356 140.605L228.315 141.354C227.876 140.883 227.644 140.442 227.618 140.028C227.594 139.61 227.742 139.24 228.063 138.918C228.381 138.592 228.829 138.323 229.407 138.111C230.032 137.882 230.658 137.754 231.287 137.728C231.919 137.7 232.511 137.783 233.061 137.977C233.615 138.17 234.088 138.47 234.479 138.878C234.854 139.27 235.05 139.649 235.066 140.017C235.083 140.384 234.963 140.76 234.706 141.144C234.569 141.345 234.479 141.529 234.437 141.696C234.395 141.858 234.408 142.025 234.474 142.196C234.539 142.368 234.672 142.557 234.87 142.764L235.003 142.903L233.116 143.595L232.984 143.457ZM236.276 145.518C236.066 145.595 235.834 145.627 235.579 145.614C235.323 145.601 235.078 145.544 234.843 145.443C234.608 145.343 234.414 145.21 234.26 145.043C234.105 144.887 234.014 144.722 233.987 144.55C233.961 144.377 233.999 144.218 234.103 144.073C234.207 143.929 234.364 143.818 234.574 143.741C234.775 143.667 235.001 143.637 235.252 143.652C235.507 143.665 235.753 143.719 235.989 143.815C236.23 143.909 236.428 144.034 236.583 144.191C236.737 144.357 236.826 144.529 236.852 144.706C236.874 144.88 236.835 145.042 236.734 145.19C236.63 145.335 236.477 145.444 236.276 145.518Z" fill="#B6C5E6"/>
<rect x="5.70667" y="1.32164" width="25" height="25" rx="12.5" transform="matrix(0.938764 -0.344561 0.691712 0.722173 242.945 124.566)" fill="white" stroke="#BCCBEA" stroke-width="7"/>
<path d="M269.595 130.019C269.227 129.634 268.969 129.308 268.824 129.041C268.679 128.77 268.618 128.534 268.641 128.334C268.664 128.135 268.747 127.92 268.89 127.689C269.065 127.407 269.165 127.161 269.19 126.952C269.219 126.741 269.138 126.535 268.946 126.334C268.741 126.12 268.48 125.985 268.165 125.927C267.846 125.866 267.546 125.887 267.264 125.991C267.08 126.058 266.94 126.154 266.845 126.278C266.746 126.399 266.706 126.538 266.724 126.696C266.74 126.85 266.821 127.008 266.968 127.167L264.927 127.916C264.488 127.446 264.256 127.004 264.23 126.591C264.205 126.173 264.354 125.802 264.675 125.48C264.993 125.154 265.441 124.885 266.019 124.673C266.643 124.444 267.27 124.316 267.898 124.29C268.531 124.262 269.122 124.346 269.672 124.54C270.227 124.732 270.699 125.032 271.09 125.44C271.465 125.832 271.661 126.212 271.678 126.579C271.695 126.947 271.574 127.322 271.317 127.706C271.181 127.907 271.091 128.091 271.048 128.258C271.007 128.42 271.019 128.587 271.085 128.758C271.151 128.93 271.283 129.119 271.482 129.327L271.614 129.465L269.728 130.157L269.595 130.019ZM272.888 132.08C272.678 132.157 272.446 132.189 272.19 132.176C271.935 132.163 271.69 132.106 271.455 132.006C271.22 131.905 271.025 131.772 270.872 131.606C270.716 131.449 270.625 131.285 270.599 131.112C270.572 130.939 270.611 130.781 270.715 130.636C270.819 130.491 270.976 130.38 271.186 130.303C271.387 130.229 271.613 130.2 271.864 130.214C272.119 130.227 272.365 130.282 272.601 130.377C272.842 130.471 273.04 130.597 273.195 130.753C273.348 130.919 273.438 131.091 273.463 131.268C273.486 131.443 273.446 131.604 273.345 131.752C273.241 131.897 273.089 132.006 272.888 132.08Z" fill="#B6C5E6"/>
<rect x="5.70667" y="1.32164" width="25" height="25" rx="12.5" transform="matrix(0.938764 -0.344561 0.691712 0.722173 279.557 111.128)" fill="white" stroke="#BCCBEA" stroke-width="7"/>
<path d="M306.207 116.581C305.838 116.196 305.581 115.87 305.435 115.603C305.291 115.332 305.23 115.096 305.253 114.896C305.275 114.697 305.359 114.482 305.502 114.251C305.677 113.969 305.777 113.723 305.802 113.514C305.831 113.303 305.75 113.097 305.557 112.896C305.352 112.682 305.092 112.547 304.777 112.489C304.458 112.428 304.158 112.449 303.875 112.553C303.691 112.62 303.552 112.716 303.457 112.84C303.358 112.961 303.318 113.1 303.336 113.258C303.351 113.412 303.432 113.57 303.579 113.729L301.539 114.478C301.1 114.008 300.867 113.566 300.842 113.153C300.817 112.735 300.966 112.364 301.287 112.042C301.605 111.716 302.053 111.447 302.63 111.235C303.255 111.006 303.882 110.878 304.51 110.852C305.143 110.824 305.734 110.908 306.284 111.102C306.839 111.294 307.311 111.594 307.702 112.002C308.077 112.394 308.273 112.774 308.29 113.141C308.306 113.509 308.186 113.884 307.929 114.268C307.792 114.469 307.703 114.653 307.66 114.82C307.619 114.982 307.631 115.149 307.697 115.32C307.763 115.492 307.895 115.681 308.094 115.889L308.226 116.027L306.34 116.719L306.207 116.581ZM309.5 118.642C309.29 118.719 309.057 118.751 308.802 118.738C308.547 118.725 308.302 118.668 308.067 118.568C307.831 118.467 307.637 118.334 307.484 118.168C307.328 118.011 307.237 117.847 307.211 117.674C307.184 117.501 307.223 117.343 307.327 117.198C307.431 117.053 307.588 116.942 307.797 116.865C307.998 116.791 308.224 116.762 308.476 116.776C308.731 116.789 308.977 116.844 309.213 116.939C309.453 117.033 309.651 117.159 309.807 117.315C309.96 117.481 310.05 117.653 310.075 117.83C310.097 118.005 310.058 118.166 309.957 118.314C309.853 118.459 309.701 118.568 309.5 118.642Z" fill="#B6C5E6"/>
<rect width="83" height="16" rx="5" transform="matrix(0.938764 -0.344561 0.691712 0.722173 214.458 91.9011)" fill="white" fill-opacity="0.2"/>
<rect width="251" height="16" rx="5" transform="matrix(0.938764 -0.344561 0.691712 0.722173 117.617 213.338)" fill="white" fill-opacity="0.2"/>
<path d="M74.065 143.461L79.3035 148.93L75.4117 150.359L70.5294 145.261C69.6589 144.352 68.8021 144.07 67.9747 144.374C66.9048 144.767 66.9002 145.536 67.9521 146.634L72.5312 151.415L68.7405 152.806L63.8582 147.709C63.0123 146.826 62.1338 146.517 61.3192 146.816C60.264 147.203 60.2438 147.998 61.2819 149.081L65.8609 153.862L61.9691 155.29L53.6192 146.573L56.3557 145.568L57.8077 146.302C57.8578 145.781 58.0767 145.297 58.4494 144.881C58.8221 144.466 59.3397 144.129 59.9665 143.895C60.5909 143.65 61.3272 143.53 62.1078 143.546C62.8885 143.563 63.6886 143.716 64.4352 143.99C64.4644 143.435 64.6812 142.917 65.0693 142.474C65.4573 142.031 66.0064 141.675 66.6753 141.433C69.0957 140.544 72.0931 141.411 74.0598 143.464" fill="#1540F2"/>
<path d="M76.2623 144.153C73.6732 141.45 74.4632 138.536 78.1479 137.183C81.8326 135.831 86.3445 136.8 88.9329 139.503C91.5213 142.205 90.7199 145.126 87.047 146.474C83.3741 147.822 78.8427 146.847 76.2623 144.153ZM84.463 143.776C84.7993 143.662 85.0831 143.495 85.2962 143.287C85.5094 143.079 85.6472 142.833 85.701 142.566C85.7548 142.298 85.7234 142.015 85.6087 141.734C85.4941 141.454 85.2987 141.181 85.035 140.935C84.8034 140.68 84.5074 140.45 84.1646 140.259C83.8217 140.068 83.439 139.92 83.039 139.823C82.639 139.726 82.2299 139.682 81.8358 139.694C81.4417 139.707 81.0707 139.775 80.7447 139.894C80.4187 140.014 80.1443 140.183 79.9378 140.391C79.7313 140.599 79.5968 140.842 79.5424 141.106C79.4879 141.37 79.5146 141.649 79.6208 141.927C79.727 142.205 79.9106 142.476 80.1607 142.724C80.3838 142.985 80.6762 143.222 81.0191 143.419C81.3621 143.616 81.7482 143.769 82.1528 143.868C82.5575 143.967 82.9718 144.01 83.3695 143.994C83.7673 143.978 84.1396 143.904 84.463 143.776Z" fill="#1540F2"/>
<path d="M99.4768 137.965L101.996 140.595L99.3187 141.578C98.8116 141.812 98.2131 141.955 97.5651 141.998C96.9171 142.041 96.2354 141.982 95.568 141.826C94.9005 141.669 94.2635 141.419 93.7017 141.092C93.1399 140.766 92.667 140.371 92.3161 139.936L89.1684 136.65L87.1003 137.409L86.4285 136.707L87.5093 130.688L88.3092 130.394L90.7511 132.943L93.5897 131.902L95.8045 134.214L93.0641 135.22L95.7221 137.995C95.8363 138.136 95.9902 138.263 96.1728 138.369C96.3555 138.474 96.5624 138.554 96.7789 138.604C96.9955 138.654 97.2163 138.671 97.4257 138.656C97.6351 138.641 97.8279 138.593 97.9905 138.515L99.4768 137.965Z" fill="#1540F2"/>
<path d="M108.185 134.769L110.705 137.399L108.027 138.382C107.52 138.616 106.921 138.759 106.273 138.802C105.625 138.845 104.944 138.786 104.276 138.629C103.609 138.473 102.972 138.222 102.41 137.896C101.848 137.57 101.375 137.175 101.024 136.74L97.8766 133.453L95.8085 134.212L95.1368 133.511L96.2136 127.493L97.0135 127.199L99.4554 129.749L102.294 128.707L104.509 131.019L101.768 132.025L104.426 134.8C104.541 134.94 104.695 135.067 104.878 135.172C105.06 135.277 105.267 135.356 105.483 135.406C105.699 135.455 105.919 135.473 106.128 135.457C106.337 135.442 106.529 135.394 106.691 135.317L108.185 134.769Z" fill="#1540F2"/>
<path d="M106.959 132.887C104.37 130.183 105.16 127.269 108.844 125.916C112.529 124.564 117.041 125.534 119.629 128.236C122.218 130.938 121.416 133.859 117.744 135.207C114.071 136.555 109.539 135.581 106.959 132.887ZM115.159 132.51C115.496 132.395 115.78 132.229 115.993 132.02C116.206 131.812 116.344 131.566 116.398 131.299C116.451 131.031 116.42 130.748 116.305 130.468C116.191 130.187 115.995 129.914 115.731 129.668C115.5 129.413 115.204 129.183 114.861 128.992C114.518 128.801 114.136 128.653 113.736 128.556C113.336 128.459 112.926 128.415 112.532 128.428C112.138 128.44 111.767 128.508 111.441 128.627C111.115 128.747 110.841 128.916 110.634 129.124C110.428 129.332 110.293 129.575 110.239 129.839C110.184 130.103 110.211 130.382 110.317 130.66C110.424 130.938 110.607 131.209 110.857 131.457C111.08 131.718 111.373 131.955 111.716 132.152C112.059 132.349 112.445 132.502 112.849 132.601C113.254 132.7 113.668 132.743 114.066 132.727C114.464 132.712 114.836 132.637 115.159 132.51Z" fill="#1540F2"/>
</g>
<rect x="0.815238" y="0.188806" width="288.423" height="139.803" rx="15.5" transform="matrix(0.938764 -0.344561 0.691712 0.722173 22.9193 140.057)" stroke="white" stroke-opacity="0.96"/>
<rect x="0.815238" y="0.188806" width="288.423" height="139.803" rx="15.5" transform="matrix(0.938764 -0.344561 0.691712 0.722173 22.9193 140.057)" stroke="#434EC6" stroke-opacity="0.39"/>
<path d="M200.496 123.719L394.7 208.262L418.221 112.785L295.898 89.0678L200.496 123.719Z" fill="url(#paint1_linear_28_1104)"/>
<rect x="195" y="31" width="157.645" height="97" rx="15" fill="white"/>
<rect x="195.5" y="31.5" width="156.645" height="96" rx="14.5" stroke="black" stroke-opacity="0.15"/>
<rect x="205" y="43" width="73" height="73" rx="36.5" fill="#D3E1F7"/>
<path fill-rule="evenodd" clip-rule="evenodd" d="M226.466 68.3885C225.209 69.0621 225 69.7818 225 73.4284V76.578L225.664 76.7045C226.051 76.7782 226.599 77.1058 226.977 77.4898C228.108 78.6381 228.108 80.3551 226.977 81.5034C226.599 81.8874 226.051 82.2151 225.664 82.2887L225 82.4152V85.5648C225 89.249 225.206 89.9409 226.506 90.6141C227.234 90.9912 227.592 91 242 91C256.408 91 256.766 90.9912 257.494 90.6141C258.794 89.9409 259 89.249 259 85.5648V82.4152L258.336 82.2887C257.949 82.2151 257.401 81.8874 257.023 81.5034C255.892 80.3551 255.892 78.6381 257.023 77.4898C257.401 77.1058 257.949 76.7782 258.336 76.7045L259 76.578V73.4284C259 69.7442 258.794 69.0523 257.494 68.3792C256.765 68.0018 256.417 67.9934 241.96 68.0016C227.61 68.0099 227.151 68.0214 226.466 68.3885ZM231.13 72.2984L230.667 72.7688V79.4966V86.2244L231.13 86.6949L231.594 87.1655H242H252.406L252.87 86.6949L253.333 86.2244V79.4966V72.7688L252.87 72.2984L252.406 71.8277H242H231.594L231.13 72.2984ZM232.556 79.4966V85.2483H242H251.444V79.4966V73.7449H242H232.556V79.4966Z" fill="#0252C8"/>
<path d="M301.26 79.111L311.563 91.9338L329.645 68.3256" stroke="#04C88D" stroke-width="10" stroke-linecap="round"/>
</g>
<defs>
<linearGradient id="paint0_linear_28_1104" x1="6.16171" y1="5.46059" x2="283.129" y2="152.381" gradientUnits="userSpaceOnUse">
<stop stop-color="#DAEBFF"/>
<stop offset="1" stop-color="#B3C1E3"/>
</linearGradient>
<linearGradient id="paint1_linear_28_1104" x1="201.005" y1="126.036" x2="364.242" y2="134.372" gradientUnits="userSpaceOnUse">
<stop stop-opacity="0.33"/>
<stop offset="1" stop-opacity="0"/>
</linearGradient>
<clipPath id="clip0_28_1104">
<rect width="416" height="299" fill="white"/>
</clipPath>
<clipPath id="clip1_28_1104">
<rect width="289.423" height="140.803" rx="16" transform="matrix(0.938764 -0.344561 0.691712 0.722173 23 139.724)" fill="white"/>
</clipPath>
</defs>
</svg>
