<svg width="216" height="70" viewBox="0 0 216 70" fill="none" xmlns="http://www.w3.org/2000/svg">
<rect x="30" y="15.5455" width="56" height="21.2121" rx="7" fill="#B0D0FF"/>
<rect x="30" y="13" width="56" height="21.2121" rx="7" fill="#0052C8"/>
<path d="M44.217 25.28V26.666H36.441V25.28H39.555V24.416H36.873V21.284H42.291V20.762H36.855V19.43H43.794V22.553H38.376V23.084H43.884V24.416H41.103V25.28H44.217ZM48.7972 24.002H45.4582V19.43H48.7792V20.843H46.9612V22.598H48.7972V24.002ZM52.5412 24.002H49.1122V19.43H52.4512V20.843H50.6152V22.598H52.5412V24.002ZM52.8742 25.253V26.666H45.0982V25.253H48.2302V24.308H49.7512V25.253H52.8742ZM58.9059 26.981C58.3959 26.981 57.9279 26.873 57.5019 26.657C57.0819 26.447 56.7459 26.15 56.4939 25.766C56.2479 25.376 56.1249 24.926 56.1249 24.416C56.1249 24.08 56.1789 23.765 56.2869 23.471C56.3949 23.171 56.5629 22.838 56.7909 22.472L58.6809 19.475H60.5349L58.8699 21.959C58.9299 21.935 58.9989 21.923 59.0769 21.923C59.5509 21.923 59.9859 22.028 60.3819 22.238C60.7839 22.448 61.1019 22.742 61.3359 23.12C61.5699 23.498 61.6869 23.927 61.6869 24.407C61.6869 24.899 61.5609 25.34 61.3089 25.73C61.0629 26.12 60.7269 26.426 60.3009 26.648C59.8809 26.87 59.4159 26.981 58.9059 26.981ZM58.9059 25.595C59.2659 25.595 59.5539 25.484 59.7699 25.262C59.9859 25.04 60.0939 24.761 60.0939 24.425C60.0939 24.089 59.9859 23.81 59.7699 23.588C59.5539 23.366 59.2659 23.255 58.9059 23.255C58.5459 23.255 58.2579 23.366 58.0419 23.588C57.8259 23.81 57.7179 24.089 57.7179 24.425C57.7179 24.761 57.8259 25.04 58.0419 25.262C58.2579 25.484 58.5459 25.595 58.9059 25.595ZM70.5969 25.334H67.3029V23.984L70.1379 19.475H72.1449V23.984H73.1079V25.334H72.1449V26.81H70.5969V25.334ZM70.5969 23.984V21.158L68.8689 23.984H70.5969ZM76.2622 26.981C75.4762 26.981 74.8462 26.774 74.3722 26.36C73.9042 25.946 73.6402 25.382 73.5802 24.668H75.1912C75.2572 25.286 75.6142 25.595 76.2622 25.595C76.5922 25.595 76.8532 25.487 77.0452 25.271C77.2372 25.049 77.3332 24.767 77.3332 24.425C77.3332 24.077 77.2342 23.798 77.0362 23.588C76.8442 23.372 76.5772 23.264 76.2352 23.264C75.7852 23.264 75.4402 23.429 75.2002 23.759H73.7152L73.9312 19.475H78.5662V20.87H75.4162L75.3352 22.247C75.6772 22.043 76.0702 21.941 76.5142 21.941C76.9942 21.941 77.4142 22.04 77.7742 22.238C78.1402 22.436 78.4222 22.724 78.6202 23.102C78.8242 23.474 78.9262 23.915 78.9262 24.425C78.9262 24.929 78.8092 25.376 78.5752 25.766C78.3472 26.15 78.0292 26.447 77.6212 26.657C77.2192 26.873 76.7662 26.981 76.2622 26.981Z" fill="white"/>
<path d="M63.6124 27.35H62.0374L65.3314 18.935H66.9064L63.6124 27.35Z" fill="white" fill-opacity="0.33"/>
<path d="M101.412 21.5828V23.5508H100.212V25.5188H98.184V19.8788H100.212V21.5828H101.412ZM97.704 24.7508C97.44 24.8628 97.088 24.9508 96.648 25.0148C96.208 25.0788 95.744 25.1108 95.256 25.1108H90.816V19.9988H97.116V21.6668H92.844V23.4548H95.34C95.812 23.4548 96.256 23.4268 96.672 23.3708C97.096 23.3068 97.44 23.2228 97.704 23.1188V24.7508ZM95.688 25.6628C97.088 25.6628 98.208 25.8468 99.048 26.2148C99.888 26.5748 100.308 27.1548 100.308 27.9548C100.308 28.7548 99.888 29.3348 99.048 29.6948C98.208 30.0628 97.088 30.2468 95.688 30.2468C94.288 30.2468 93.168 30.0628 92.328 29.6948C91.488 29.3348 91.068 28.7548 91.068 27.9548C91.068 27.1548 91.488 26.5748 92.328 26.2148C93.168 25.8468 94.288 25.6628 95.688 25.6628ZM95.688 28.6268C96.424 28.6268 97.012 28.5748 97.452 28.4708C97.9 28.3588 98.124 28.1868 98.124 27.9548C98.124 27.7308 97.9 27.5628 97.452 27.4508C97.004 27.3388 96.416 27.2828 95.688 27.2828C94.96 27.2828 94.372 27.3388 93.924 27.4508C93.476 27.5628 93.252 27.7308 93.252 27.9548C93.252 28.1868 93.472 28.3588 93.912 28.4708C94.36 28.5748 94.952 28.6268 95.688 28.6268ZM112.091 19.8788V25.8548H110.063V23.6228H108.719V22.2788H106.715C106.651 22.5348 106.595 22.7228 106.547 22.8428L109.307 24.3308L108.395 25.8188L105.659 24.3068C105.235 24.7708 104.735 25.1428 104.159 25.4228C103.591 25.7028 102.975 25.8508 102.311 25.8668V24.1628C102.887 24.1148 103.379 23.9148 103.787 23.5628C104.203 23.2108 104.487 22.7828 104.639 22.2788H102.431V20.6468H104.687V19.6988H106.751V20.6468H109.007V21.8228H110.063V19.8788H112.091ZM102.923 26.2148H112.091V30.1268H102.923V26.2148ZM104.939 28.5428H110.075V27.7988H104.939V28.5428ZM120.214 25.9868H113.962V19.9988H115.942V21.2948H118.234V19.9988H120.214V21.9788H121.606V19.8788H123.634V27.4628H121.606V23.8868H120.214V25.9868ZM118.234 24.2948V22.9508H115.942V24.2948H118.234ZM123.778 28.3028V30.1268H114.466V26.5868H116.53V28.3028H123.778ZM135.249 22.5068H125.553V20.7308H129.357V19.7468H131.445V20.7308H135.249V22.5068ZM135.585 27.9668V29.7668H125.217V27.9668H129.369V27.0668C128.289 26.9948 127.441 26.7868 126.825 26.4428C126.209 26.0988 125.901 25.6108 125.901 24.9788C125.901 24.2508 126.305 23.7148 127.113 23.3708C127.929 23.0268 129.025 22.8548 130.401 22.8548C131.777 22.8548 132.869 23.0268 133.677 23.3708C134.493 23.7148 134.901 24.2508 134.901 24.9788C134.901 25.6108 134.593 26.0988 133.977 26.4428C133.361 26.7868 132.513 26.9948 131.433 27.0668V27.9668H135.585ZM127.977 24.9788C127.977 25.3068 128.785 25.4708 130.401 25.4708C132.017 25.4708 132.825 25.3068 132.825 24.9788C132.825 24.6508 132.017 24.4868 130.401 24.4868C128.785 24.4868 127.977 24.6508 127.977 24.9788ZM147.584 25.4948H146.408V30.1268H144.38V19.8788H146.408V23.5268H147.584V25.4948ZM141.152 27.7508C141.664 27.7508 142.156 27.7188 142.628 27.6548C143.1 27.5828 143.488 27.4788 143.792 27.3428V29.2388C143.488 29.3748 143.1 29.4748 142.628 29.5388C142.156 29.6108 141.648 29.6468 141.104 29.6468H136.76V27.7508H139.136V26.2508C138.464 26.0588 137.928 25.6908 137.528 25.1468C137.136 24.5948 136.94 23.9348 136.94 23.1668C136.94 22.5348 137.076 21.9748 137.348 21.4868C137.62 20.9988 138 20.6228 138.488 20.3588C138.976 20.0868 139.528 19.9508 140.144 19.9508C140.76 19.9508 141.312 20.0868 141.8 20.3588C142.296 20.6228 142.684 20.9988 142.964 21.4868C143.244 21.9748 143.384 22.5348 143.384 23.1668C143.384 23.9268 143.18 24.5828 142.772 25.1348C142.372 25.6868 141.832 26.0588 141.152 26.2508V27.7508ZM140.144 21.7628C139.76 21.7628 139.456 21.8948 139.232 22.1588C139.008 22.4148 138.896 22.7508 138.896 23.1668C138.896 23.5828 139.008 23.9228 139.232 24.1868C139.456 24.4428 139.76 24.5708 140.144 24.5708C140.528 24.5708 140.84 24.4388 141.08 24.1748C141.32 23.9108 141.44 23.5748 141.44 23.1668C141.44 22.7588 141.32 22.4228 141.08 22.1588C140.84 21.8948 140.528 21.7628 140.144 21.7628ZM162.034 24.2588V25.8188H151.666V24.2588H155.842V23.6948H152.29V19.8788H161.41V21.4268H154.306V22.1468H161.53V23.6948H157.858V24.2588H162.034ZM156.85 26.2148C158.322 26.2148 159.474 26.3788 160.306 26.7068C161.138 27.0268 161.554 27.5388 161.554 28.2428C161.554 28.9468 161.138 29.4588 160.306 29.7788C159.474 30.1068 158.322 30.2708 156.85 30.2708C155.378 30.2708 154.226 30.1068 153.394 29.7788C152.562 29.4588 152.146 28.9468 152.146 28.2428C152.146 27.5388 152.562 27.0268 153.394 26.7068C154.226 26.3788 155.378 26.2148 156.85 26.2148ZM156.85 28.7588C158.546 28.7588 159.394 28.5868 159.394 28.2428C159.394 28.0668 159.166 27.9388 158.71 27.8588C158.254 27.7708 157.634 27.7268 156.85 27.7268C156.066 27.7268 155.446 27.7708 154.99 27.8588C154.534 27.9388 154.306 28.0668 154.306 28.2428C154.306 28.5868 155.154 28.7588 156.85 28.7588ZM173.121 24.8948H171.093V19.8788H173.121V24.8948ZM166.569 19.8908C167.233 19.8908 167.813 19.9948 168.309 20.2028C168.805 20.4108 169.189 20.7028 169.461 21.0788C169.733 21.4548 169.869 21.8868 169.869 22.3748C169.869 22.8708 169.733 23.3068 169.461 23.6828C169.189 24.0508 168.805 24.3388 168.309 24.5468C167.813 24.7548 167.233 24.8588 166.569 24.8588C165.905 24.8588 165.325 24.7548 164.829 24.5468C164.333 24.3388 163.949 24.0508 163.677 23.6828C163.405 23.3068 163.269 22.8708 163.269 22.3748C163.269 21.8868 163.405 21.4548 163.677 21.0788C163.949 20.7028 164.333 20.4108 164.829 20.2028C165.325 19.9948 165.905 19.8908 166.569 19.8908ZM166.569 21.4868C166.177 21.4868 165.861 21.5668 165.621 21.7268C165.389 21.8868 165.273 22.1028 165.273 22.3748C165.273 22.6468 165.389 22.8628 165.621 23.0228C165.861 23.1828 166.177 23.2628 166.569 23.2628C166.961 23.2628 167.273 23.1828 167.505 23.0228C167.745 22.8628 167.865 22.6468 167.865 22.3748C167.865 22.1028 167.745 21.8868 167.505 21.7268C167.273 21.5668 166.961 21.4868 166.569 21.4868ZM173.121 28.3148H166.089V28.7228H173.229V30.1268H164.085V27.0668H171.117V26.6588H164.061V25.2548H173.121V28.3148ZM184.664 19.8788V30.1268H182.636V19.8788H184.664ZM179.72 20.1548C179.72 21.6268 179.588 22.9868 179.324 24.2348L182.36 28.4588L180.716 29.6348L178.604 26.5748C178.172 27.5588 177.632 28.3148 176.984 28.8428C176.344 29.3708 175.632 29.6388 174.848 29.6468V27.5588C175.392 27.4948 175.876 27.1428 176.3 26.5028C176.724 25.8548 177.056 24.9748 177.296 23.8628C177.536 22.7508 177.656 21.4908 177.656 20.0828L179.72 20.1548Z" fill="#0052C8"/>
<path d="M48.664 51.56C48.1307 52.2427 47.464 52.7867 46.664 53.192C45.8747 53.5867 44.9947 53.7893 44.024 53.8V51.384C44.792 51.3413 45.448 51.0693 45.992 50.568C46.5467 50.056 46.92 49.4107 47.112 48.632H44.312V46.2H47.16V44.824H49.912V46.2H52.76V48.632H49.896C49.864 48.8773 49.8053 49.1547 49.72 49.464L53.432 51.816L51.976 53.784L48.664 51.56ZM57.032 45V58.664H54.328V45H57.032ZM50.008 55.544C50.6907 55.544 51.3467 55.5013 51.976 55.416C52.616 55.32 53.1387 55.1813 53.544 55V57.48C53.1387 57.6613 52.6213 57.7947 51.992 57.88C51.3627 57.976 50.6853 58.024 49.96 58.024H43.784V55.544H47.144V53.512H49.832V55.544H50.008ZM72.7746 45V58.664H70.2466V52.584H69.1106V58.424H66.6146V45.064H69.1106V50.024H70.2466V45H72.7746ZM62.7906 55.656C63.3453 55.656 63.9106 55.6187 64.4866 55.544C65.0733 55.4587 65.5693 55.3413 65.9746 55.192V57.528C65.5906 57.688 65.0786 57.8107 64.4386 57.896C63.7986 57.9813 63.1693 58.024 62.5506 58.024H59.4146V45.32H65.3826V47.688H62.0226V55.656H62.7906Z" fill="#F69876"/>
<path d="M81.313 56.854H77.5844V43.3198H74.618V40.065H81.313V56.854ZM87.1444 58.502H84.4046L85.1462 53.1666H88.4216L87.1444 58.502ZM96.0373 39.6118C97.2871 39.6118 98.3926 39.9483 99.3539 40.6212C100.329 41.2804 101.091 42.2761 101.641 43.6082C102.19 44.9266 102.465 46.5403 102.465 48.4492C102.465 50.3581 102.19 51.9718 101.641 53.2902C101.091 54.6086 100.329 55.5974 99.3539 56.2566C98.3926 56.9295 97.2871 57.266 96.0373 57.266C94.7876 57.266 93.6752 56.9295 92.7001 56.2566C91.7388 55.5974 90.9835 54.6086 90.4341 53.2902C89.8848 51.9718 89.6101 50.3581 89.6101 48.4492C89.6101 46.5403 89.8848 44.9266 90.4341 43.6082C90.9835 42.2761 91.7388 41.2804 92.7001 40.6212C93.6752 39.9483 94.7876 39.6118 96.0373 39.6118ZM96.0373 42.8872C95.1721 42.8872 94.4717 43.3541 93.9361 44.288C93.4143 45.2219 93.1533 46.6089 93.1533 48.4492C93.1533 50.2757 93.4143 51.6559 93.9361 52.5898C94.4717 53.5237 95.1721 53.9906 96.0373 53.9906C96.9025 53.9906 97.5961 53.5237 98.1179 52.5898C98.6535 51.6559 98.9213 50.2757 98.9213 48.4492C98.9213 46.6089 98.6535 45.2219 98.1179 44.288C97.5961 43.3541 96.9025 42.8872 96.0373 42.8872ZM110.542 39.6118C111.792 39.6118 112.897 39.9483 113.858 40.6212C114.833 41.2804 115.596 42.2761 116.145 43.6082C116.694 44.9266 116.969 46.5403 116.969 48.4492C116.969 50.3581 116.694 51.9718 116.145 53.2902C115.596 54.6086 114.833 55.5974 113.858 56.2566C112.897 56.9295 111.792 57.266 110.542 57.266C109.292 57.266 108.18 56.9295 107.205 56.2566C106.243 55.5974 105.488 54.6086 104.939 53.2902C104.389 51.9718 104.115 50.3581 104.115 48.4492C104.115 46.5403 104.389 44.9266 104.939 43.6082C105.488 42.2761 106.243 41.2804 107.205 40.6212C108.18 39.9483 109.292 39.6118 110.542 39.6118ZM110.542 42.8872C109.677 42.8872 108.976 43.3541 108.441 44.288C107.919 45.2219 107.658 46.6089 107.658 48.4492C107.658 50.2757 107.919 51.6559 108.441 52.5898C108.976 53.5237 109.677 53.9906 110.542 53.9906C111.407 53.9906 112.101 53.5237 112.622 52.5898C113.158 51.6559 113.426 50.2757 113.426 48.4492C113.426 46.6089 113.158 45.2219 112.622 44.288C112.101 43.3541 111.407 42.8872 110.542 42.8872ZM125.046 39.6118C126.296 39.6118 127.402 39.9483 128.363 40.6212C129.338 41.2804 130.1 42.2761 130.65 43.6082C131.199 44.9266 131.474 46.5403 131.474 48.4492C131.474 50.3581 131.199 51.9718 130.65 53.2902C130.1 54.6086 129.338 55.5974 128.363 56.2566C127.402 56.9295 126.296 57.266 125.046 57.266C123.797 57.266 122.684 56.9295 121.709 56.2566C120.748 55.5974 119.992 54.6086 119.443 53.2902C118.894 51.9718 118.619 50.3581 118.619 48.4492C118.619 46.5403 118.894 44.9266 119.443 43.6082C119.992 42.2761 120.748 41.2804 121.709 40.6212C122.684 39.9483 123.797 39.6118 125.046 39.6118ZM125.046 42.8872C124.181 42.8872 123.481 43.3541 122.945 44.288C122.423 45.2219 122.162 46.6089 122.162 48.4492C122.162 50.2757 122.423 51.6559 122.945 52.5898C123.481 53.5237 124.181 53.9906 125.046 53.9906C125.912 53.9906 126.605 53.5237 127.127 52.5898C127.663 51.6559 127.93 50.2757 127.93 48.4492C127.93 46.6089 127.663 45.2219 127.127 44.288C126.605 43.3541 125.912 42.8872 125.046 42.8872ZM151.89 43.052V46.4304H149.83V52.5692H146.349V39.55H149.83V43.052H151.89ZM144.433 49.7676H133.7V39.756H144.433V49.7676ZM140.993 42.7018H137.141V46.8218H140.993V42.7018ZM137.841 54.0112H150.077V57.1424H134.298V50.983H137.841V54.0112ZM159.387 46.5334C157.753 46.5334 156.441 46.2313 155.452 45.627C154.477 45.009 153.99 44.1163 153.99 42.949C153.99 41.7817 154.477 40.8959 155.452 40.2916C156.441 39.6736 157.753 39.3646 159.387 39.3646C161.021 39.3646 162.326 39.6736 163.301 40.2916C164.29 40.8959 164.784 41.7817 164.784 42.949C164.784 44.1163 164.29 45.009 163.301 45.627C162.326 46.2313 161.021 46.5334 159.387 46.5334ZM166.782 50.3032V39.55H170.264V53.2078H166.782V52.7134H162.25V50.3032H166.782ZM159.387 41.919C158.755 41.919 158.254 42.0083 157.883 42.1868C157.526 42.3516 157.347 42.6057 157.347 42.949C157.347 43.2923 157.526 43.5533 157.883 43.7318C158.254 43.8966 158.755 43.979 159.387 43.979C160.019 43.979 160.513 43.8966 160.87 43.7318C161.241 43.5533 161.426 43.2923 161.426 42.949C161.426 42.6057 161.241 42.3516 160.87 42.1868C160.513 42.0083 160.019 41.919 159.387 41.919ZM170.511 54.2378V57.1424H154.525V51.5598H157.327V49.8088H153.124V47.1308H161.22C162.127 47.1308 162.985 47.0827 163.795 46.9866C164.606 46.8767 165.265 46.7119 165.773 46.4922V49.1702C164.798 49.5959 163.26 49.8088 161.158 49.8088H160.788V52.4662H158.007V54.2378H170.511Z" fill="#F06B4C"/>
<path d="M192.97 6.01565V9.80226H190.956V6.27313C190.956 5.64386 190.731 5.33814 190.303 5.33814C189.749 5.33814 189.466 5.73144 189.466 6.4918V9.80174H187.504V6.2726C187.504 5.66117 187.281 5.33762 186.859 5.33762C186.313 5.33762 186.014 5.74088 186.014 6.49128V9.80121H184V3.76551H185.416L185.703 4.41417C185.913 4.15698 186.175 3.94987 186.47 3.8071C186.765 3.66434 187.087 3.58932 187.412 3.58721C187.741 3.57893 188.067 3.65594 188.36 3.81122C188.653 3.96649 188.903 4.19507 189.089 4.47605C189.303 4.19734 189.576 3.97254 189.887 3.81858C190.198 3.66462 190.539 3.58551 190.884 3.58721C192.137 3.58721 192.967 4.59456 192.967 6.01618" fill="#1540F2"/>
<path d="M193.557 6.78339C193.557 4.91185 194.929 3.56732 196.836 3.56732C198.742 3.56732 200.114 4.91238 200.114 6.78339C200.114 8.65441 198.736 9.99999 196.836 9.99999C194.935 9.99999 193.557 8.64864 193.557 6.78339ZM196.836 8.13212C197.006 8.13682 197.176 8.1048 197.334 8.03809C197.492 7.97138 197.635 7.87145 197.754 7.74465C197.872 7.61784 197.964 7.46695 198.023 7.30155C198.082 7.13615 198.107 6.95987 198.097 6.78392C198.102 6.60982 198.073 6.4365 198.011 6.27421C197.95 6.11192 197.858 5.96395 197.74 5.83906C197.623 5.71417 197.482 5.61489 197.327 5.5471C197.171 5.47931 197.004 5.44438 196.836 5.44438C196.667 5.44438 196.5 5.47931 196.345 5.5471C196.189 5.61489 196.048 5.71417 195.931 5.83906C195.813 5.96395 195.721 6.11192 195.66 6.27421C195.599 6.4365 195.57 6.60982 195.574 6.78392C195.564 6.95987 195.589 7.13615 195.648 7.30155C195.707 7.46695 195.799 7.61784 195.918 7.74465C196.036 7.87145 196.179 7.97138 196.337 8.03809C196.495 8.1048 196.665 8.13682 196.836 8.13212Z" fill="#1540F2"/>
<path d="M204.716 7.97803V9.79923H203.33C203.05 9.82376 202.768 9.78468 202.504 9.68475C202.241 9.58481 202.001 9.42644 201.803 9.22077C201.605 9.0151 201.453 8.76712 201.357 8.49426C201.262 8.2214 201.226 7.93028 201.251 7.64137V5.36605H200.181V4.88046L202.802 2H203.216V3.76509H204.685V5.36605H203.267V7.28741C203.259 7.38105 203.271 7.47536 203.303 7.56363C203.334 7.6519 203.384 7.73196 203.448 7.79814C203.513 7.86431 203.591 7.91496 203.677 7.94651C203.763 7.97805 203.854 7.98971 203.945 7.98065L204.716 7.97803Z" fill="#1540F2"/>
<path d="M209.222 7.97803V9.79923H207.837C207.557 9.82376 207.275 9.78468 207.011 9.68475C206.747 9.58481 206.508 9.42644 206.31 9.22077C206.112 9.0151 205.959 8.76712 205.864 8.49426C205.769 8.2214 205.732 7.93028 205.758 7.64137V5.36605H204.687V4.88046L207.307 2H207.721V3.76509H209.19V5.36605H207.772V7.28741C207.764 7.38085 207.776 7.47486 207.808 7.5628C207.839 7.65074 207.889 7.73047 207.954 7.79634C208.019 7.86222 208.096 7.91264 208.182 7.94403C208.268 7.97542 208.359 7.98703 208.449 7.97803H209.222Z" fill="#1540F2"/>
<path d="M209.443 6.78339C209.443 4.91185 210.814 3.56732 212.721 3.56732C214.628 3.56732 216 4.91238 216 6.78339C216 8.65441 214.622 9.99999 212.721 9.99999C210.82 9.99999 209.443 8.64864 209.443 6.78339ZM212.721 8.13212C212.892 8.13682 213.062 8.1048 213.22 8.03809C213.378 7.97138 213.521 7.87145 213.639 7.74465C213.758 7.61784 213.85 7.46695 213.909 7.30155C213.968 7.13615 213.993 6.95987 213.982 6.78392C213.987 6.60982 213.958 6.4365 213.897 6.27421C213.836 6.11192 213.744 5.96395 213.626 5.83906C213.508 5.71417 213.368 5.61489 213.212 5.5471C213.057 5.47931 212.89 5.44438 212.721 5.44438C212.553 5.44438 212.386 5.47931 212.23 5.5471C212.075 5.61489 211.934 5.71417 211.816 5.83906C211.699 5.96395 211.607 6.11192 211.546 6.27421C211.484 6.4365 211.455 6.60982 211.46 6.78392C211.449 6.95987 211.475 7.13615 211.534 7.30155C211.593 7.46695 211.684 7.61784 211.803 7.74465C211.922 7.87145 212.065 7.97138 212.223 8.03809C212.381 8.1048 212.551 8.13682 212.721 8.13212Z" fill="#1540F2"/>
</svg>
