<svg width="416" height="299" viewBox="0 0 416 299" fill="none" xmlns="http://www.w3.org/2000/svg">
<g clip-path="url(#clip0_36_1634)">
<g filter="url(#filter0_f_36_1634)">
<path d="M268.906 101.349L281.954 123.949H255.857L268.906 101.349Z" fill="#3B36CC"/>
</g>
<g filter="url(#filter1_f_36_1634)">
<path d="M222.246 204.389L235.294 226.99H209.197L222.246 204.389Z" fill="#F94B45"/>
</g>
<path d="M206.693 71.2144L219.741 93.8151H193.644L206.693 71.2144Z" fill="#F945BA"/>
<g opacity="0.92" filter="url(#filter2_f_36_1634)">
<path d="M49.6843 30.1984L66.2168 24.5058L62.8804 41.6696L49.6843 30.1984Z" fill="#F945BA"/>
</g>
<path opacity="0.96" d="M113.457 35.3015L119.433 66.0427L89.8225 55.847L113.457 35.3015Z" fill="#3B36CC"/>
<path opacity="0.75" d="M262.217 48.2026L245.094 39.8512L260.888 29.1981L262.217 48.2026Z" fill="#F7C512"/>
<g opacity="0.84" filter="url(#filter3_f_36_1634)">
<path d="M300.849 37.3339L289.904 21.1073L309.43 19.742L300.849 37.3339Z" fill="#F945BA"/>
</g>
<path opacity="0.71" d="M365.012 60.6671L349.784 44.898L371.054 39.5947L365.012 60.6671Z" fill="#F7C512"/>
<path opacity="0.8" d="M37.2041 73.258L18.9738 56.8434L42.3045 49.2628L37.2041 73.258Z" fill="#3B36CC"/>
<path opacity="0.71" d="M94.9674 59.0971L91.4948 42.7599L107.38 47.9211L94.9674 59.0971Z" fill="#3B36CC"/>
<g opacity="0.89" filter="url(#filter4_f_36_1634)">
<path d="M234.031 67.113L263.741 68.6701L247.538 93.6212L234.031 67.113Z" fill="#F7C512"/>
</g>
<g opacity="0.78" filter="url(#filter5_f_36_1634)">
<path d="M348.625 81.5226L368.123 98.4726L343.695 106.884L348.625 81.5226Z" fill="#F7C512"/>
</g>
<g opacity="0.76" filter="url(#filter6_f_36_1634)">
<path d="M395.656 83.1111L385.663 59.569L411.047 62.6859L395.656 83.1111Z" fill="#F945BA"/>
</g>
<path opacity="0.88" d="M101.622 170.262L104.612 194.61L82.0309 185.025L101.622 170.262Z" fill="#F94B45"/>
<g opacity="0.72" filter="url(#filter7_f_36_1634)">
<path d="M118.686 159.035L104.092 171.281L100.784 152.519L118.686 159.035Z" fill="#3B36CC"/>
</g>
<path opacity="0.79" d="M217.114 168.658L243.604 181.011L219.661 197.775L217.114 168.658Z" fill="#F945BA"/>
<path opacity="0.96" d="M349.118 138.552L343.255 155.578L331.442 141.987L349.118 138.552Z" fill="#F945BA"/>
<path opacity="0.82" d="M388.489 154.325L388.985 125.884L413.368 140.535L388.489 154.325Z" fill="#3B36CC"/>
<g opacity="0.76" filter="url(#filter8_f_36_1634)">
<path d="M28.7321 232.616L11.2481 243.541L10.5286 222.937L28.7321 232.616Z" fill="#3B36CC"/>
</g>
<path opacity="0.91" d="M112.025 178.26L129.766 166.294L131.259 187.641L112.025 178.26Z" fill="#F945BA"/>
<path opacity="0.98" d="M199.984 208.209L198.346 239.483L172.081 222.427L199.984 208.209Z" fill="#F7C512"/>
<path opacity="0.9" d="M332.075 228.782L335.3 208.419L351.322 221.394L332.075 228.782Z" fill="#F7C512"/>
<path opacity="0.91" d="M242.822 260.35L243.469 241.832L259.182 251.651L242.822 260.35Z" fill="#F945BA"/>
<g opacity="0.83" filter="url(#filter9_f_36_1634)">
<path d="M334.671 260.197L316.775 249.444L335.036 239.323L334.671 260.197Z" fill="#F945BA"/>
</g>
<g filter="url(#filter10_ii_36_1634)">
<rect x="203.211" y="191.789" width="57.2444" height="57.2444" rx="28.6222" fill="#63B9DF"/>
<path d="M229.241 229.789H225.058V215.995H224.961L220.974 218.441V214.821L225.352 212.082H229.241V229.789ZM241.225 229.789H237.043V215.995H236.945L232.958 218.441V214.821L237.336 212.082H241.225V229.789Z" fill="black"/>
</g>
<g filter="url(#filter11_ii_36_1634)">
<rect x="184" y="144" width="57.2444" height="57.2444" rx="28.6222" fill="#F57F8B"/>
<path d="M198.192 178.992L204.649 173.318C205.22 172.796 205.664 172.356 205.982 171.997C206.308 171.638 206.561 171.275 206.74 170.909C206.92 170.534 207.013 170.13 207.021 169.698C207.013 169.217 206.895 168.797 206.667 168.438C206.447 168.071 206.141 167.79 205.75 167.595C205.367 167.399 204.926 167.301 204.429 167.301C203.663 167.301 203.051 167.529 202.595 167.986C202.138 168.442 201.91 169.07 201.91 169.869H197.948C197.948 168.695 198.217 167.668 198.755 166.787C199.301 165.907 200.063 165.23 201.042 164.757C202.028 164.285 203.165 164.048 204.453 164.048C205.766 164.048 206.92 164.272 207.914 164.721C208.917 165.161 209.691 165.785 210.238 166.592C210.784 167.399 211.057 168.328 211.057 169.38C211.057 170.081 210.914 170.758 210.629 171.41C210.352 172.062 209.863 172.788 209.161 173.587C208.469 174.377 207.486 175.331 206.214 176.448L203.989 178.503V178.625H211.277V182H198.192V178.992ZM220.449 182.245C219.177 182.245 218.031 182.016 217.012 181.56C216.001 181.095 215.202 180.451 214.616 179.628C214.037 178.804 213.739 177.875 213.723 176.839H217.783C217.799 177.272 217.925 177.655 218.162 177.989C218.406 178.315 218.728 178.568 219.128 178.747C219.527 178.927 219.968 179.016 220.449 179.016C220.995 179.016 221.484 178.894 221.916 178.649C222.356 178.405 222.695 178.066 222.931 177.634C223.176 177.194 223.294 176.693 223.286 176.13C223.294 175.56 223.176 175.054 222.931 174.614C222.686 174.174 222.344 173.831 221.904 173.587C221.464 173.342 220.962 173.22 220.4 173.22C219.772 173.22 219.242 173.342 218.81 173.587C218.386 173.823 218.052 174.182 217.807 174.663H214.065L214.946 164.293H226.269V167.668H218.37L217.954 171.899H218.076C218.386 171.402 218.867 171.002 219.519 170.701C220.171 170.391 220.905 170.236 221.72 170.236C222.788 170.236 223.746 170.485 224.594 170.982C225.442 171.471 226.106 172.156 226.587 173.036C227.077 173.909 227.321 174.899 227.321 176.008C227.321 177.214 227.032 178.291 226.453 179.236C225.882 180.182 225.075 180.92 224.032 181.45C222.996 181.98 221.802 182.245 220.449 182.245Z" fill="black"/>
</g>
<g filter="url(#filter12_ii_36_1634)">
<rect x="255.089" y="207.078" width="57.2444" height="57.2444" rx="28.6222" fill="#B4D852"/>
<path d="M270.529 238.841L277.866 227.37H283.124V238.817H285.276V242.094H283.124V245.078H279.138V242.094H270.529V238.841ZM279.211 238.817V231.797H279.064L274.686 238.67V238.817H279.211ZM295.353 245.078H291.171V231.284H291.073L287.086 233.729V230.11L291.464 227.37H295.353V245.078Z" fill="black"/>
</g>
<g filter="url(#filter13_ii_36_1634)">
<rect x="333" y="124" width="57.2444" height="57.2444" rx="28.6222" fill="#B1B1B1"/>
<path d="M355.557 162.245C354.228 162.245 353.038 162.016 351.986 161.56C350.942 161.103 350.123 160.463 349.528 159.64C348.933 158.816 348.627 157.883 348.611 156.839H352.818C352.826 157.223 352.948 157.569 353.184 157.879C353.429 158.181 353.759 158.417 354.175 158.588C354.599 158.759 355.068 158.845 355.581 158.845C356.095 158.845 356.555 158.751 356.963 158.564C357.371 158.376 357.689 158.119 357.917 157.793C358.145 157.459 358.255 157.084 358.247 156.668C358.255 156.244 358.133 155.865 357.88 155.531C357.636 155.197 357.281 154.936 356.816 154.748C356.36 154.561 355.826 154.467 355.214 154.467H353.502V151.483H355.214C355.744 151.483 356.217 151.394 356.633 151.214C357.049 151.035 357.371 150.786 357.599 150.468C357.835 150.142 357.954 149.771 357.954 149.355C357.954 148.956 357.852 148.601 357.648 148.292C357.452 147.982 357.175 147.741 356.816 147.57C356.458 147.391 356.046 147.301 355.581 147.301C355.1 147.301 354.66 147.391 354.261 147.57C353.869 147.741 353.555 147.986 353.319 148.304C353.091 148.614 352.972 148.972 352.964 149.38H348.953C348.97 148.353 349.263 147.436 349.834 146.628C350.413 145.813 351.203 145.181 352.206 144.733C353.217 144.276 354.35 144.048 355.606 144.048C356.845 144.048 357.95 144.268 358.92 144.709C359.89 145.149 360.64 145.756 361.17 146.531C361.708 147.297 361.973 148.157 361.965 149.111C361.973 149.755 361.83 150.338 361.537 150.86C361.243 151.381 360.831 151.809 360.302 152.144C359.772 152.47 359.168 152.682 358.492 152.78V152.902C359.829 153.057 360.856 153.497 361.573 154.223C362.291 154.948 362.641 155.869 362.625 156.986C362.633 157.989 362.336 158.89 361.732 159.689C361.129 160.488 360.289 161.115 359.213 161.572C358.137 162.02 356.918 162.245 355.557 162.245ZM373.117 162H368.935V148.206H368.837L364.851 150.652V147.032L369.228 144.293H373.117V162Z" fill="black"/>
</g>
<rect x="63" y="79" width="290" height="141" rx="16" fill="url(#paint0_linear_36_1634)"/>
<rect x="63.5" y="79.5" width="289" height="140" rx="15.5" stroke="white" stroke-opacity="0.96"/>
<rect x="63.5" y="79.5" width="289" height="140" rx="15.5" stroke="#434EC6" stroke-opacity="0.39"/>
<rect x="94" y="144" width="12" height="12" rx="6" fill="#FDE985"/>
<rect x="136" y="144" width="12" height="12" rx="6" fill="white"/>
<rect x="178" y="144" width="12" height="12" rx="6" fill="#9AB5FF"/>
<rect x="220" y="144" width="12" height="12" rx="6" fill="#8EEB86"/>
<rect x="262" y="144" width="12" height="12" rx="6" fill="#FD838F"/>
<rect x="304" y="144" width="12" height="12" rx="6" fill="white"/>
<rect x="250" y="102" width="83" height="16" rx="5" fill="white" fill-opacity="0.2"/>
<rect x="82" y="190" width="251" height="16" rx="5" fill="white" fill-opacity="0.2"/>
<circle cx="293.5" cy="138" r="27" fill="black" fill-opacity="0.08"/>
<path d="M271.328 122.35L290.374 146.052L323.795 102.414" stroke="white" stroke-width="10" stroke-linecap="round"/>
<g filter="url(#filter14_ii_36_1634)">
<rect x="25" y="121" width="57.2444" height="57.2444" rx="28.6222" fill="#F7C510"/>
<path d="M55.8582 159.311H51.676V145.517H51.5782L47.5916 147.963V144.343L51.9695 141.604H55.8582V159.311Z" fill="black"/>
</g>
<g filter="url(#filter15_ii_36_1634)">
<rect x="266.51" y="119" width="57.2444" height="57.2444" rx="28.6222" transform="rotate(37.0739 266.51 119)" fill="#F7C510"/>
<path d="M266.833 167.569C265.818 166.802 265.042 165.929 264.504 164.951C263.978 163.971 263.729 162.975 263.757 161.964C263.791 160.958 264.114 160.037 264.725 159.202L267.964 161.649C267.717 162.004 267.587 162.386 267.574 162.795C267.573 163.202 267.677 163.598 267.888 163.982C268.098 164.366 268.395 164.703 268.779 164.993C269.215 165.322 269.679 165.519 270.171 165.585C270.67 165.655 271.144 165.589 271.593 165.387C272.053 165.183 272.45 164.854 272.783 164.401C273.133 163.95 273.344 163.476 273.414 162.977C273.484 162.478 273.417 161.999 273.213 161.538C273.01 161.078 272.683 160.678 272.235 160.339C271.734 159.96 271.237 159.738 270.745 159.673C270.264 159.606 269.781 159.691 269.296 159.927L266.311 157.671L273.265 149.928L282.299 156.755L280.265 159.448L273.962 154.685L271.079 157.811L271.177 157.884C271.724 157.674 272.349 157.645 273.051 157.798C273.758 157.944 274.437 158.263 275.087 158.754C275.939 159.398 276.554 160.174 276.93 161.082C277.312 161.983 277.429 162.93 277.282 163.923C277.146 164.913 276.744 165.851 276.076 166.736C275.349 167.698 274.469 168.383 273.437 168.788C272.412 169.199 271.323 169.301 270.171 169.094C269.025 168.893 267.913 168.384 266.833 167.569Z" fill="black"/>
</g>
<g filter="url(#filter16_ii_36_1634)">
<rect x="59.8396" y="207.715" width="57.2444" height="57.2444" rx="28.6222" transform="rotate(-33.1569 59.8396 207.715)" fill="#63B9DF"/>
<path d="M101.309 226.013L97.8076 228.301L90.2632 216.753L90.1813 216.806L88.1815 221.034L86.2018 218.004L88.3687 213.316L91.6242 211.189L101.309 226.013ZM103.468 207.63L103.401 207.527L96.3162 212.156L94.4703 209.33L105.179 202.334L107.038 205.18L108.782 221.131L105.179 223.485L103.468 207.63Z" fill="black"/>
</g>
<g filter="url(#filter17_ii_36_1634)">
<rect x="316" y="54" width="57.2444" height="57.2444" rx="28.6222" fill="#F57F8B"/>
<path d="M332.186 88.9917L338.642 83.3176C339.213 82.7958 339.657 82.3556 339.975 81.9969C340.301 81.6382 340.554 81.2754 340.733 80.9085C340.913 80.5335 341.007 80.13 341.015 79.6979C341.007 79.2169 340.888 78.797 340.66 78.4383C340.44 78.0715 340.134 77.7902 339.743 77.5946C339.36 77.3989 338.92 77.3011 338.422 77.3011C337.656 77.3011 337.044 77.5293 336.588 77.9859C336.131 78.4424 335.903 79.0702 335.903 79.8691H331.941C331.941 78.6951 332.21 77.6679 332.748 76.7875C333.294 75.907 334.057 75.2303 335.035 74.7575C336.021 74.2846 337.159 74.0482 338.447 74.0482C339.759 74.0482 340.913 74.2724 341.907 74.7208C342.91 75.161 343.685 75.7847 344.231 76.5918C344.777 77.3989 345.05 78.3283 345.05 79.3799C345.05 80.0811 344.908 80.7577 344.622 81.4099C344.345 82.0621 343.856 82.7877 343.155 83.5866C342.462 84.3774 341.479 85.3313 340.208 86.4482L337.982 88.5026V88.6249H345.27V92H332.186V88.9917ZM355.763 92H351.58V78.206H351.483L347.496 80.6517V77.032L351.874 74.2928H355.763V92Z" fill="black"/>
</g>
<g filter="url(#filter18_ii_36_1634)">
<rect x="97" y="167.927" width="57.2444" height="57.2444" rx="28.6222" transform="rotate(-22.5222 97 167.927)" fill="#B4D852"/>
<path d="M121.7 192.07L124.084 178.664L128.942 176.65L133.326 187.223L135.314 186.399L136.569 189.426L134.581 190.251L135.724 193.007L132.042 194.534L130.899 191.778L122.946 195.075L121.7 192.07ZM129.711 188.722L127.023 182.238L126.887 182.294L125.476 190.32L125.532 190.455L129.711 188.722ZM138.616 188.551L142.407 180.836C142.734 180.136 142.976 179.559 143.132 179.106C143.296 178.65 143.391 178.218 143.416 177.81C143.438 177.395 143.37 176.986 143.212 176.584C143.02 176.143 142.75 175.8 142.402 175.556C142.058 175.302 141.668 175.159 141.231 175.128C140.802 175.094 140.358 175.173 139.899 175.363C139.191 175.657 138.714 176.102 138.467 176.698C138.22 177.295 138.25 177.962 138.556 178.7L134.896 180.218C134.446 179.133 134.301 178.082 134.461 177.062C134.628 176.04 135.073 175.123 135.796 174.311C136.526 173.496 137.486 172.842 138.676 172.349C139.888 171.846 141.04 171.611 142.13 171.645C143.225 171.667 144.179 171.947 144.993 172.483C145.807 173.019 146.415 173.773 146.818 174.745C147.086 175.392 147.214 176.072 147.2 176.784C147.194 177.492 147.02 178.35 146.678 179.357C146.341 180.352 145.799 181.61 145.052 183.129L143.783 185.879L143.83 185.992L150.562 183.2L151.855 186.318L139.768 191.33L138.616 188.551Z" fill="black"/>
</g>
<g filter="url(#filter19_ii_36_1634)">
<rect x="31" y="60.7878" width="73.4887" height="73.4887" rx="36.7444" transform="rotate(-54.4457 31 60.7878)" fill="#B1B1B1"/>
<path d="M85.8393 67.1486C84.8474 68.5365 83.7205 69.6092 82.4586 70.3668C81.2028 71.1159 79.9228 71.4939 78.6186 71.5008C77.3143 71.5078 76.1112 71.1302 75.0091 70.3683L78.1493 65.9747C78.5556 66.2522 79.0088 66.3832 79.5088 66.3675C80.0064 66.3372 80.4998 66.1688 80.989 65.8624C81.4842 65.5474 81.9236 65.1217 82.307 64.5853C82.6904 64.0489 82.9363 63.4978 83.0447 62.9321C83.1532 62.3664 83.1223 61.8426 82.9521 61.3608C82.7734 60.8729 82.4639 60.478 82.0236 60.1761C81.5869 59.8512 81.0997 59.6959 80.5619 59.7103C80.0302 59.7163 79.493 59.8919 78.9503 60.2373C78.4137 60.5741 77.9171 61.0619 77.4607 61.7005L76.1827 63.4886L73.0663 61.2612L74.3443 59.4731C74.7399 58.9197 74.9992 58.3589 75.1223 57.7907C75.2453 57.2226 75.226 56.7007 75.0643 56.2249C74.9002 55.7345 74.601 55.3342 74.1668 55.0238C73.7496 54.7256 73.3031 54.5673 72.8274 54.5489C72.3578 54.522 71.8997 54.632 71.4531 54.8789C70.998 55.1196 70.597 55.4827 70.2501 55.968C69.8911 56.4704 69.6561 56.9971 69.5452 57.5482C69.4319 58.0847 69.4531 58.5951 69.6087 59.0794C69.7618 59.549 70.0482 59.9403 70.4679 60.2531L67.4738 64.4423C66.4131 63.6585 65.6742 62.6673 65.2573 61.4688C64.8379 60.2557 64.7683 58.9581 65.0485 57.5761C65.3263 56.1795 65.9338 54.8256 66.871 53.5143C67.796 52.2201 68.8506 51.2306 70.0345 50.546C71.2185 49.8614 72.4128 49.5314 73.6172 49.5561C74.8193 49.5662 75.9153 49.9315 76.9055 50.652C77.5842 51.1243 78.0865 51.7084 78.4124 52.4044C78.7382 53.1004 78.8779 53.8499 78.8315 54.6529C78.7765 55.4498 78.5475 56.2381 78.1446 57.0178L78.2723 57.1091C79.4322 55.8283 80.6587 55.0841 81.9521 54.8764C83.2454 54.6688 84.4693 54.9903 85.6236 55.8411C86.677 56.5811 87.3958 57.5643 87.7799 58.7908C88.164 60.0173 88.1928 61.3629 87.8663 62.8277C87.5313 64.2863 86.8557 65.7266 85.8393 67.1486ZM89.5074 54.8348L88.401 43.8555C88.2821 42.87 88.154 42.0774 88.0167 41.4775C87.8854 40.8692 87.6952 40.3344 87.4459 39.8732C87.1881 39.4059 86.8366 39.0068 86.3914 38.6757C85.883 38.3252 85.3562 38.1352 84.8112 38.1059C84.2637 38.0619 83.7417 38.1713 83.2453 38.4339C82.7549 38.6881 82.3241 39.0748 81.9529 39.5942C81.3808 40.3946 81.1628 41.2036 81.2988 42.0212C81.4349 42.8388 81.9201 43.5459 82.7545 44.1422L79.7969 48.2804C78.5708 47.4041 77.6988 46.3563 77.1808 45.1371C76.669 43.9093 76.5313 42.6081 76.7677 41.2334C77.0102 39.8501 77.6122 38.4858 78.5738 37.1405C79.5535 35.7696 80.6488 34.7322 81.8596 34.0281C83.0679 33.3094 84.2974 32.966 85.5481 32.998C86.7988 33.03 87.9734 33.4386 89.0718 34.2236C89.804 34.747 90.4042 35.4011 90.8724 36.186C91.3467 36.9623 91.7394 38.0148 92.0504 39.3435C92.3591 40.6575 92.622 42.3956 92.8391 44.5576L93.3235 48.4157L93.4512 48.507L98.8918 40.8948L102.417 43.4143L92.6494 57.0804L89.5074 54.8348Z" fill="black"/>
</g>
<path opacity="0.78" d="M230.032 64.3315L254.047 80.5301L228.011 93.2288L230.032 64.3315Z" fill="#F945BA"/>
<path d="M123.286 192.987L95.1402 206.112L97.8469 175.174L123.286 192.987Z" fill="#F945BA"/>
</g>
<defs>
<filter id="filter0_f_36_1634" x="243.026" y="88.5172" width="51.76" height="48.2637" filterUnits="userSpaceOnUse" color-interpolation-filters="sRGB">
<feFlood flood-opacity="0" result="BackgroundImageFix"/>
<feBlend mode="normal" in="SourceGraphic" in2="BackgroundImageFix" result="shape"/>
<feGaussianBlur stdDeviation="6.41571" result="effect1_foregroundBlur_36_1634"/>
</filter>
<filter id="filter1_f_36_1634" x="196.366" y="191.557" width="51.76" height="48.2637" filterUnits="userSpaceOnUse" color-interpolation-filters="sRGB">
<feFlood flood-opacity="0" result="BackgroundImageFix"/>
<feBlend mode="normal" in="SourceGraphic" in2="BackgroundImageFix" result="shape"/>
<feGaussianBlur stdDeviation="6.41571" result="effect1_foregroundBlur_36_1634"/>
</filter>
<filter id="filter2_f_36_1634" x="36.8529" y="11.6744" width="42.1953" height="42.8267" filterUnits="userSpaceOnUse" color-interpolation-filters="sRGB">
<feFlood flood-opacity="0" result="BackgroundImageFix"/>
<feBlend mode="normal" in="SourceGraphic" in2="BackgroundImageFix" result="shape"/>
<feGaussianBlur stdDeviation="6.41571" result="effect1_foregroundBlur_36_1634"/>
</filter>
<filter id="filter3_f_36_1634" x="277.073" y="6.91053" width="45.188" height="43.2549" filterUnits="userSpaceOnUse" color-interpolation-filters="sRGB">
<feFlood flood-opacity="0" result="BackgroundImageFix"/>
<feBlend mode="normal" in="SourceGraphic" in2="BackgroundImageFix" result="shape"/>
<feGaussianBlur stdDeviation="6.41571" result="effect1_foregroundBlur_36_1634"/>
</filter>
<filter id="filter4_f_36_1634" x="221.2" y="54.2816" width="55.3728" height="52.1709" filterUnits="userSpaceOnUse" color-interpolation-filters="sRGB">
<feFlood flood-opacity="0" result="BackgroundImageFix"/>
<feBlend mode="normal" in="SourceGraphic" in2="BackgroundImageFix" result="shape"/>
<feGaussianBlur stdDeviation="6.41571" result="effect1_foregroundBlur_36_1634"/>
</filter>
<filter id="filter5_f_36_1634" x="330.863" y="68.691" width="50.0913" height="51.0244" filterUnits="userSpaceOnUse" color-interpolation-filters="sRGB">
<feFlood flood-opacity="0" result="BackgroundImageFix"/>
<feBlend mode="normal" in="SourceGraphic" in2="BackgroundImageFix" result="shape"/>
<feGaussianBlur stdDeviation="6.41571" result="effect1_foregroundBlur_36_1634"/>
</filter>
<filter id="filter6_f_36_1634" x="372.831" y="46.7377" width="51.0476" height="49.2048" filterUnits="userSpaceOnUse" color-interpolation-filters="sRGB">
<feFlood flood-opacity="0" result="BackgroundImageFix"/>
<feBlend mode="normal" in="SourceGraphic" in2="BackgroundImageFix" result="shape"/>
<feGaussianBlur stdDeviation="6.41571" result="effect1_foregroundBlur_36_1634"/>
</filter>
<filter id="filter7_f_36_1634" x="87.9523" y="139.688" width="43.5647" height="44.4243" filterUnits="userSpaceOnUse" color-interpolation-filters="sRGB">
<feFlood flood-opacity="0" result="BackgroundImageFix"/>
<feBlend mode="normal" in="SourceGraphic" in2="BackgroundImageFix" result="shape"/>
<feGaussianBlur stdDeviation="6.41571" result="effect1_foregroundBlur_36_1634"/>
</filter>
<filter id="filter8_f_36_1634" x="-2.30285" y="210.105" width="43.8664" height="46.2671" filterUnits="userSpaceOnUse" color-interpolation-filters="sRGB">
<feFlood flood-opacity="0" result="BackgroundImageFix"/>
<feBlend mode="normal" in="SourceGraphic" in2="BackgroundImageFix" result="shape"/>
<feGaussianBlur stdDeviation="6.41571" result="effect1_foregroundBlur_36_1634"/>
</filter>
<filter id="filter9_f_36_1634" x="303.944" y="226.491" width="43.9231" height="46.5373" filterUnits="userSpaceOnUse" color-interpolation-filters="sRGB">
<feFlood flood-opacity="0" result="BackgroundImageFix"/>
<feBlend mode="normal" in="SourceGraphic" in2="BackgroundImageFix" result="shape"/>
<feGaussianBlur stdDeviation="6.41571" result="effect1_foregroundBlur_36_1634"/>
</filter>
<filter id="filter10_ii_36_1634" x="203.211" y="182.845" width="66.1888" height="76.5644" filterUnits="userSpaceOnUse" color-interpolation-filters="sRGB">
<feFlood flood-opacity="0" result="BackgroundImageFix"/>
<feBlend mode="normal" in="SourceGraphic" in2="BackgroundImageFix" result="shape"/>
<feColorMatrix in="SourceAlpha" type="matrix" values="0 0 0 0 0 0 0 0 0 0 0 0 0 0 0 0 0 0 127 0" result="hardAlpha"/>
<feOffset dy="-10.7333"/>
<feGaussianBlur stdDeviation="4.47222"/>
<feComposite in2="hardAlpha" operator="arithmetic" k2="-1" k3="1"/>
<feColorMatrix type="matrix" values="0 0 0 0 0.155968 0 0 0 0 0.0258199 0 0 0 0 0.0258199 0 0 0 0.42 0"/>
<feBlend mode="normal" in2="shape" result="effect1_innerShadow_36_1634"/>
<feColorMatrix in="SourceAlpha" type="matrix" values="0 0 0 0 0 0 0 0 0 0 0 0 0 0 0 0 0 0 127 0" result="hardAlpha"/>
<feOffset dx="8.94444" dy="19.6778"/>
<feGaussianBlur stdDeviation="5.18778"/>
<feComposite in2="hardAlpha" operator="arithmetic" k2="-1" k3="1"/>
<feColorMatrix type="matrix" values="0 0 0 0 1 0 0 0 0 1 0 0 0 0 1 0 0 0 0.49 0"/>
<feBlend mode="normal" in2="effect1_innerShadow_36_1634" result="effect2_innerShadow_36_1634"/>
</filter>
<filter id="filter11_ii_36_1634" x="184" y="135.056" width="66.1888" height="76.5644" filterUnits="userSpaceOnUse" color-interpolation-filters="sRGB">
<feFlood flood-opacity="0" result="BackgroundImageFix"/>
<feBlend mode="normal" in="SourceGraphic" in2="BackgroundImageFix" result="shape"/>
<feColorMatrix in="SourceAlpha" type="matrix" values="0 0 0 0 0 0 0 0 0 0 0 0 0 0 0 0 0 0 127 0" result="hardAlpha"/>
<feOffset dy="-10.7333"/>
<feGaussianBlur stdDeviation="4.47222"/>
<feComposite in2="hardAlpha" operator="arithmetic" k2="-1" k3="1"/>
<feColorMatrix type="matrix" values="0 0 0 0 0.155968 0 0 0 0 0.0258199 0 0 0 0 0.0258199 0 0 0 0.42 0"/>
<feBlend mode="normal" in2="shape" result="effect1_innerShadow_36_1634"/>
<feColorMatrix in="SourceAlpha" type="matrix" values="0 0 0 0 0 0 0 0 0 0 0 0 0 0 0 0 0 0 127 0" result="hardAlpha"/>
<feOffset dx="8.94444" dy="19.6778"/>
<feGaussianBlur stdDeviation="5.18778"/>
<feComposite in2="hardAlpha" operator="arithmetic" k2="-1" k3="1"/>
<feColorMatrix type="matrix" values="0 0 0 0 1 0 0 0 0 1 0 0 0 0 1 0 0 0 0.49 0"/>
<feBlend mode="normal" in2="effect1_innerShadow_36_1634" result="effect2_innerShadow_36_1634"/>
</filter>
<filter id="filter12_ii_36_1634" x="255.089" y="198.133" width="66.1888" height="76.5644" filterUnits="userSpaceOnUse" color-interpolation-filters="sRGB">
<feFlood flood-opacity="0" result="BackgroundImageFix"/>
<feBlend mode="normal" in="SourceGraphic" in2="BackgroundImageFix" result="shape"/>
<feColorMatrix in="SourceAlpha" type="matrix" values="0 0 0 0 0 0 0 0 0 0 0 0 0 0 0 0 0 0 127 0" result="hardAlpha"/>
<feOffset dy="-10.7333"/>
<feGaussianBlur stdDeviation="4.47222"/>
<feComposite in2="hardAlpha" operator="arithmetic" k2="-1" k3="1"/>
<feColorMatrix type="matrix" values="0 0 0 0 0.155968 0 0 0 0 0.0258199 0 0 0 0 0.0258199 0 0 0 0.42 0"/>
<feBlend mode="normal" in2="shape" result="effect1_innerShadow_36_1634"/>
<feColorMatrix in="SourceAlpha" type="matrix" values="0 0 0 0 0 0 0 0 0 0 0 0 0 0 0 0 0 0 127 0" result="hardAlpha"/>
<feOffset dx="8.94444" dy="19.6778"/>
<feGaussianBlur stdDeviation="5.18778"/>
<feComposite in2="hardAlpha" operator="arithmetic" k2="-1" k3="1"/>
<feColorMatrix type="matrix" values="0 0 0 0 1 0 0 0 0 1 0 0 0 0 1 0 0 0 0.49 0"/>
<feBlend mode="normal" in2="effect1_innerShadow_36_1634" result="effect2_innerShadow_36_1634"/>
</filter>
<filter id="filter13_ii_36_1634" x="333" y="115.056" width="66.1888" height="76.5644" filterUnits="userSpaceOnUse" color-interpolation-filters="sRGB">
<feFlood flood-opacity="0" result="BackgroundImageFix"/>
<feBlend mode="normal" in="SourceGraphic" in2="BackgroundImageFix" result="shape"/>
<feColorMatrix in="SourceAlpha" type="matrix" values="0 0 0 0 0 0 0 0 0 0 0 0 0 0 0 0 0 0 127 0" result="hardAlpha"/>
<feOffset dy="-10.7333"/>
<feGaussianBlur stdDeviation="4.47222"/>
<feComposite in2="hardAlpha" operator="arithmetic" k2="-1" k3="1"/>
<feColorMatrix type="matrix" values="0 0 0 0 0.155968 0 0 0 0 0.0258199 0 0 0 0 0.0258199 0 0 0 0.42 0"/>
<feBlend mode="normal" in2="shape" result="effect1_innerShadow_36_1634"/>
<feColorMatrix in="SourceAlpha" type="matrix" values="0 0 0 0 0 0 0 0 0 0 0 0 0 0 0 0 0 0 127 0" result="hardAlpha"/>
<feOffset dx="8.94444" dy="19.6778"/>
<feGaussianBlur stdDeviation="5.18778"/>
<feComposite in2="hardAlpha" operator="arithmetic" k2="-1" k3="1"/>
<feColorMatrix type="matrix" values="0 0 0 0 1 0 0 0 0 1 0 0 0 0 1 0 0 0 0.49 0"/>
<feBlend mode="normal" in2="effect1_innerShadow_36_1634" result="effect2_innerShadow_36_1634"/>
</filter>
<filter id="filter14_ii_36_1634" x="25" y="112.056" width="66.1888" height="76.5644" filterUnits="userSpaceOnUse" color-interpolation-filters="sRGB">
<feFlood flood-opacity="0" result="BackgroundImageFix"/>
<feBlend mode="normal" in="SourceGraphic" in2="BackgroundImageFix" result="shape"/>
<feColorMatrix in="SourceAlpha" type="matrix" values="0 0 0 0 0 0 0 0 0 0 0 0 0 0 0 0 0 0 127 0" result="hardAlpha"/>
<feOffset dy="-10.7333"/>
<feGaussianBlur stdDeviation="4.47222"/>
<feComposite in2="hardAlpha" operator="arithmetic" k2="-1" k3="1"/>
<feColorMatrix type="matrix" values="0 0 0 0 0.155968 0 0 0 0 0.0258199 0 0 0 0 0.0258199 0 0 0 0.42 0"/>
<feBlend mode="normal" in2="shape" result="effect1_innerShadow_36_1634"/>
<feColorMatrix in="SourceAlpha" type="matrix" values="0 0 0 0 0 0 0 0 0 0 0 0 0 0 0 0 0 0 127 0" result="hardAlpha"/>
<feOffset dx="8.94444" dy="19.6778"/>
<feGaussianBlur stdDeviation="5.18778"/>
<feComposite in2="hardAlpha" operator="arithmetic" k2="-1" k3="1"/>
<feColorMatrix type="matrix" values="0 0 0 0 1 0 0 0 0 1 0 0 0 0 1 0 0 0 0.49 0"/>
<feBlend mode="normal" in2="effect1_innerShadow_36_1634" result="effect2_innerShadow_36_1634"/>
</filter>
<filter id="filter15_ii_36_1634" x="243.467" y="121.523" width="66.1922" height="76.5676" filterUnits="userSpaceOnUse" color-interpolation-filters="sRGB">
<feFlood flood-opacity="0" result="BackgroundImageFix"/>
<feBlend mode="normal" in="SourceGraphic" in2="BackgroundImageFix" result="shape"/>
<feColorMatrix in="SourceAlpha" type="matrix" values="0 0 0 0 0 0 0 0 0 0 0 0 0 0 0 0 0 0 127 0" result="hardAlpha"/>
<feOffset dy="-10.7333"/>
<feGaussianBlur stdDeviation="4.47222"/>
<feComposite in2="hardAlpha" operator="arithmetic" k2="-1" k3="1"/>
<feColorMatrix type="matrix" values="0 0 0 0 0.155968 0 0 0 0 0.0258199 0 0 0 0 0.0258199 0 0 0 0.42 0"/>
<feBlend mode="normal" in2="shape" result="effect1_innerShadow_36_1634"/>
<feColorMatrix in="SourceAlpha" type="matrix" values="0 0 0 0 0 0 0 0 0 0 0 0 0 0 0 0 0 0 127 0" result="hardAlpha"/>
<feOffset dx="8.94444" dy="19.6778"/>
<feGaussianBlur stdDeviation="5.18778"/>
<feComposite in2="hardAlpha" operator="arithmetic" k2="-1" k3="1"/>
<feColorMatrix type="matrix" values="0 0 0 0 1 0 0 0 0 1 0 0 0 0 1 0 0 0 0.49 0"/>
<feBlend mode="normal" in2="effect1_innerShadow_36_1634" result="effect2_innerShadow_36_1634"/>
</filter>
<filter id="filter16_ii_36_1634" x="70.8303" y="178.452" width="66.1954" height="76.571" filterUnits="userSpaceOnUse" color-interpolation-filters="sRGB">
<feFlood flood-opacity="0" result="BackgroundImageFix"/>
<feBlend mode="normal" in="SourceGraphic" in2="BackgroundImageFix" result="shape"/>
<feColorMatrix in="SourceAlpha" type="matrix" values="0 0 0 0 0 0 0 0 0 0 0 0 0 0 0 0 0 0 127 0" result="hardAlpha"/>
<feOffset dy="-10.7333"/>
<feGaussianBlur stdDeviation="4.47222"/>
<feComposite in2="hardAlpha" operator="arithmetic" k2="-1" k3="1"/>
<feColorMatrix type="matrix" values="0 0 0 0 0.155968 0 0 0 0 0.0258199 0 0 0 0 0.0258199 0 0 0 0.42 0"/>
<feBlend mode="normal" in2="shape" result="effect1_innerShadow_36_1634"/>
<feColorMatrix in="SourceAlpha" type="matrix" values="0 0 0 0 0 0 0 0 0 0 0 0 0 0 0 0 0 0 127 0" result="hardAlpha"/>
<feOffset dx="8.94444" dy="19.6778"/>
<feGaussianBlur stdDeviation="5.18778"/>
<feComposite in2="hardAlpha" operator="arithmetic" k2="-1" k3="1"/>
<feColorMatrix type="matrix" values="0 0 0 0 1 0 0 0 0 1 0 0 0 0 1 0 0 0 0.49 0"/>
<feBlend mode="normal" in2="effect1_innerShadow_36_1634" result="effect2_innerShadow_36_1634"/>
</filter>
<filter id="filter17_ii_36_1634" x="316" y="45.0556" width="66.1888" height="76.5644" filterUnits="userSpaceOnUse" color-interpolation-filters="sRGB">
<feFlood flood-opacity="0" result="BackgroundImageFix"/>
<feBlend mode="normal" in="SourceGraphic" in2="BackgroundImageFix" result="shape"/>
<feColorMatrix in="SourceAlpha" type="matrix" values="0 0 0 0 0 0 0 0 0 0 0 0 0 0 0 0 0 0 127 0" result="hardAlpha"/>
<feOffset dy="-10.7333"/>
<feGaussianBlur stdDeviation="4.47222"/>
<feComposite in2="hardAlpha" operator="arithmetic" k2="-1" k3="1"/>
<feColorMatrix type="matrix" values="0 0 0 0 0.155968 0 0 0 0 0.0258199 0 0 0 0 0.0258199 0 0 0 0.42 0"/>
<feBlend mode="normal" in2="shape" result="effect1_innerShadow_36_1634"/>
<feColorMatrix in="SourceAlpha" type="matrix" values="0 0 0 0 0 0 0 0 0 0 0 0 0 0 0 0 0 0 127 0" result="hardAlpha"/>
<feOffset dx="8.94444" dy="19.6778"/>
<feGaussianBlur stdDeviation="5.18778"/>
<feComposite in2="hardAlpha" operator="arithmetic" k2="-1" k3="1"/>
<feColorMatrix type="matrix" values="0 0 0 0 1 0 0 0 0 1 0 0 0 0 1 0 0 0 0.49 0"/>
<feBlend mode="normal" in2="effect1_innerShadow_36_1634" result="effect2_innerShadow_36_1634"/>
</filter>
<filter id="filter18_ii_36_1634" x="105.773" y="145.829" width="66.204" height="76.5795" filterUnits="userSpaceOnUse" color-interpolation-filters="sRGB">
<feFlood flood-opacity="0" result="BackgroundImageFix"/>
<feBlend mode="normal" in="SourceGraphic" in2="BackgroundImageFix" result="shape"/>
<feColorMatrix in="SourceAlpha" type="matrix" values="0 0 0 0 0 0 0 0 0 0 0 0 0 0 0 0 0 0 127 0" result="hardAlpha"/>
<feOffset dy="-10.7333"/>
<feGaussianBlur stdDeviation="4.47222"/>
<feComposite in2="hardAlpha" operator="arithmetic" k2="-1" k3="1"/>
<feColorMatrix type="matrix" values="0 0 0 0 0.155968 0 0 0 0 0.0258199 0 0 0 0 0.0258199 0 0 0 0.42 0"/>
<feBlend mode="normal" in2="shape" result="effect1_innerShadow_36_1634"/>
<feColorMatrix in="SourceAlpha" type="matrix" values="0 0 0 0 0 0 0 0 0 0 0 0 0 0 0 0 0 0 127 0" result="hardAlpha"/>
<feOffset dx="8.94444" dy="19.6778"/>
<feGaussianBlur stdDeviation="5.18778"/>
<feComposite in2="hardAlpha" operator="arithmetic" k2="-1" k3="1"/>
<feColorMatrix type="matrix" values="0 0 0 0 1 0 0 0 0 1 0 0 0 0 1 0 0 0 0.49 0"/>
<feBlend mode="normal" in2="effect1_innerShadow_36_1634" result="effect2_innerShadow_36_1634"/>
</filter>
<filter id="filter19_ii_36_1634" x="45.5127" y="4.03008" width="84.977" height="98.2968" filterUnits="userSpaceOnUse" color-interpolation-filters="sRGB">
<feFlood flood-opacity="0" result="BackgroundImageFix"/>
<feBlend mode="normal" in="SourceGraphic" in2="BackgroundImageFix" result="shape"/>
<feColorMatrix in="SourceAlpha" type="matrix" values="0 0 0 0 0 0 0 0 0 0 0 0 0 0 0 0 0 0 127 0" result="hardAlpha"/>
<feOffset dy="-13.7791"/>
<feGaussianBlur stdDeviation="5.74131"/>
<feComposite in2="hardAlpha" operator="arithmetic" k2="-1" k3="1"/>
<feColorMatrix type="matrix" values="0 0 0 0 0.155968 0 0 0 0 0.0258199 0 0 0 0 0.0258199 0 0 0 0.42 0"/>
<feBlend mode="normal" in2="shape" result="effect1_innerShadow_36_1634"/>
<feColorMatrix in="SourceAlpha" type="matrix" values="0 0 0 0 0 0 0 0 0 0 0 0 0 0 0 0 0 0 127 0" result="hardAlpha"/>
<feOffset dx="11.4826" dy="25.2617"/>
<feGaussianBlur stdDeviation="6.65992"/>
<feComposite in2="hardAlpha" operator="arithmetic" k2="-1" k3="1"/>
<feColorMatrix type="matrix" values="0 0 0 0 1 0 0 0 0 1 0 0 0 0 1 0 0 0 0.49 0"/>
<feBlend mode="normal" in2="effect1_innerShadow_36_1634" result="effect2_innerShadow_36_1634"/>
</filter>
<linearGradient id="paint0_linear_36_1634" x1="69.174" y1="84.4682" x2="346.621" y2="231.73" gradientUnits="userSpaceOnUse">
<stop stop-color="#DAEBFF"/>
<stop offset="1" stop-color="#B3C1E3"/>
</linearGradient>
<clipPath id="clip0_36_1634">
<rect width="416" height="299" fill="white"/>
</clipPath>
</defs>
</svg>
