<svg width="600" height="309" viewBox="0 0 600 309" fill="none" xmlns="http://www.w3.org/2000/svg">
<g clip-path="url(#clip0_37_1836)">
<path d="M165 224L526.5 301L579 162.5L251.898 190.068L165 224Z" fill="url(#paint0_linear_37_1836)"/>
<rect x="155" y="84" width="290" height="141" rx="16" fill="url(#paint1_linear_37_1836)"/>
<rect x="155.5" y="84.5" width="289" height="140" rx="15.5" stroke="white" stroke-opacity="0.96"/>
<rect x="155.5" y="84.5" width="289" height="140" rx="15.5" stroke="#434EC6" stroke-opacity="0.39"/>
<rect x="186" y="149" width="12" height="12" rx="6" fill="#FDE985"/>
<rect x="228" y="149" width="12" height="12" rx="6" fill="white"/>
<rect x="270" y="149" width="12" height="12" rx="6" fill="#9AB5FF"/>
<rect x="312" y="149" width="12" height="12" rx="6" fill="#8EEB86"/>
<rect x="354" y="149" width="12" height="12" rx="6" fill="#FD838F"/>
<rect x="396" y="149" width="12" height="12" rx="6" fill="white"/>
<rect x="342" y="107" width="83" height="16" rx="5" fill="white" fill-opacity="0.2"/>
<rect x="174" y="195" width="251" height="16" rx="5" fill="white" fill-opacity="0.2"/>
</g>
<defs>
<linearGradient id="paint0_linear_37_1836" x1="157.005" y1="227.036" x2="500.997" y2="241.068" gradientUnits="userSpaceOnUse">
<stop stop-opacity="0.33"/>
<stop offset="1" stop-opacity="0"/>
</linearGradient>
<linearGradient id="paint1_linear_37_1836" x1="161.174" y1="89.4682" x2="438.621" y2="236.73" gradientUnits="userSpaceOnUse">
<stop stop-color="#DAEBFF"/>
<stop offset="1" stop-color="#B3C1E3"/>
</linearGradient>
<clipPath id="clip0_37_1836">
<rect width="600" height="309" fill="white"/>
</clipPath>
</defs>
</svg>
