<svg width="416" height="300" viewBox="0 0 416 300" fill="none" xmlns="http://www.w3.org/2000/svg">
<g id="img_empty">
<g id="Clip path group">
<mask id="mask0_73_813" style="mask-type:luminance" maskUnits="userSpaceOnUse" x="30" y="68" width="355" height="194">
<g id="clip0_26_943">
<path id="Vector" d="M279.68 70.0054L38.0202 158.703C29.7248 161.748 27.955 169.39 34.0674 175.771L109.328 254.346C115.44 260.727 127.12 263.432 135.415 260.387L377.075 171.69C385.37 168.645 387.14 161.003 381.028 154.622L305.767 76.0472C299.655 69.6657 287.975 66.9607 279.68 70.0054Z" fill="white"/>
</g>
</mask>
<g mask="url(#mask0_73_813)">
<g id="Group">
<path id="Vector_2" d="M279.68 70.0054L38.0202 158.703C29.7248 161.748 27.955 169.39 34.0674 175.771L109.328 254.346C115.44 260.727 127.12 263.432 135.415 260.387L377.075 171.69C385.37 168.645 387.14 161.003 381.028 154.622L305.767 76.0472C299.655 69.6657 287.975 66.9607 279.68 70.0054Z" fill="url(#paint0_linear_73_813)"/>
<path id="Vector_3" d="M134.885 202.211C130.11 197.225 120.985 195.112 114.504 197.49C108.023 199.869 106.641 205.839 111.416 210.825C116.191 215.81 125.316 217.923 131.797 215.545C138.278 213.166 139.66 207.196 134.885 202.211Z" fill="white" stroke="#BCCBEA" stroke-width="7"/>
<path id="Vector_4" d="M123.148 208.262C122.779 207.877 122.522 207.551 122.376 207.285C122.232 207.013 122.171 206.777 122.194 206.578C122.216 206.378 122.3 206.163 122.443 205.932C122.618 205.65 122.718 205.404 122.743 205.195C122.772 204.984 122.691 204.778 122.498 204.578C122.294 204.364 122.033 204.228 121.718 204.17C121.399 204.109 121.099 204.13 120.816 204.234C120.632 204.302 120.493 204.397 120.398 204.521C120.299 204.642 120.259 204.781 120.277 204.939C120.292 205.094 120.373 205.251 120.521 205.41L118.48 206.159C118.041 205.689 117.808 205.247 117.783 204.834C117.758 204.416 117.907 204.046 118.228 203.723C118.546 203.397 118.994 203.128 119.571 202.916C120.196 202.687 120.823 202.559 121.451 202.533C122.084 202.506 122.675 202.589 123.225 202.783C123.78 202.975 124.252 203.275 124.643 203.684C125.018 204.075 125.214 204.455 125.231 204.822C125.248 205.19 125.127 205.565 124.87 205.949C124.733 206.15 124.644 206.334 124.601 206.501C124.56 206.663 124.572 206.83 124.638 207.002C124.704 207.173 124.836 207.363 125.035 207.57L125.167 207.708L123.281 208.401L123.148 208.262ZM126.441 210.323C126.231 210.4 125.999 210.432 125.743 210.419C125.488 210.406 125.243 210.349 125.008 210.249C124.772 210.148 124.578 210.015 124.425 209.849C124.269 209.692 124.178 209.528 124.152 209.355C124.125 209.183 124.164 209.024 124.268 208.879C124.372 208.734 124.529 208.623 124.738 208.546C124.939 208.472 125.166 208.443 125.417 208.457C125.672 208.47 125.918 208.525 126.154 208.62C126.394 208.714 126.592 208.84 126.748 208.996C126.901 209.162 126.991 209.334 127.016 209.512C127.038 209.686 126.999 209.847 126.898 209.995C126.794 210.14 126.642 210.25 126.441 210.323Z" fill="#B6C5E6"/>
<path id="Vector_5" d="M171.497 188.773C166.722 183.787 157.597 181.674 151.116 184.052C144.635 186.431 143.252 192.401 148.028 197.387C152.803 202.372 161.928 204.485 168.409 202.107C174.89 199.728 176.272 193.758 171.497 188.773Z" fill="white" stroke="#BCCBEA" stroke-width="7"/>
<path id="Vector_6" d="M159.76 194.824C159.391 194.439 159.134 194.113 158.988 193.847C158.844 193.575 158.783 193.339 158.806 193.14C158.828 192.94 158.911 192.725 159.055 192.494C159.23 192.212 159.33 191.966 159.355 191.757C159.384 191.546 159.303 191.34 159.11 191.14C158.905 190.926 158.645 190.79 158.33 190.732C158.011 190.671 157.711 190.692 157.428 190.796C157.244 190.864 157.105 190.959 157.009 191.083C156.911 191.204 156.871 191.343 156.889 191.501C156.904 191.656 156.985 191.813 157.132 191.972L155.092 192.721C154.653 192.251 154.42 191.809 154.395 191.396C154.37 190.978 154.518 190.608 154.84 190.285C155.158 189.959 155.606 189.69 156.183 189.478C156.808 189.249 157.434 189.121 158.063 189.095C158.696 189.068 159.287 189.151 159.837 189.345C160.391 189.537 160.864 189.838 161.255 190.246C161.63 190.637 161.826 191.017 161.843 191.384C161.859 191.752 161.739 192.127 161.482 192.511C161.345 192.712 161.256 192.896 161.213 193.063C161.172 193.225 161.184 193.392 161.25 193.564C161.316 193.735 161.448 193.925 161.647 194.132L161.779 194.27L159.892 194.963L159.76 194.824ZM163.052 196.885C162.843 196.962 162.61 196.994 162.355 196.981C162.1 196.968 161.854 196.911 161.619 196.811C161.384 196.71 161.19 196.577 161.037 196.411C160.881 196.254 160.79 196.09 160.763 195.917C160.737 195.745 160.776 195.586 160.88 195.441C160.984 195.296 161.141 195.185 161.35 195.108C161.551 195.034 161.777 195.005 162.028 195.019C162.284 195.032 162.53 195.087 162.766 195.182C163.006 195.276 163.204 195.402 163.36 195.558C163.513 195.724 163.603 195.896 163.628 196.074C163.65 196.248 163.611 196.409 163.51 196.557C163.406 196.702 163.254 196.812 163.052 196.885Z" fill="#B6C5E6"/>
<path id="Vector_7" d="M208.109 175.335C203.334 170.349 194.209 168.236 187.728 170.614C181.247 172.993 179.865 178.963 184.64 183.949C189.415 188.934 198.54 191.047 205.021 188.669C211.502 186.29 212.884 180.32 208.109 175.335Z" fill="white" stroke="#BCCBEA" stroke-width="7"/>
<path id="Vector_8" d="M196.372 181.387C196.003 181.002 195.746 180.676 195.6 180.409C195.456 180.137 195.395 179.902 195.417 179.702C195.44 179.502 195.523 179.287 195.667 179.057C195.842 178.774 195.942 178.529 195.967 178.319C195.996 178.108 195.914 177.903 195.722 177.702C195.517 177.488 195.257 177.352 194.942 177.294C194.623 177.233 194.322 177.255 194.04 177.358C193.856 177.426 193.716 177.522 193.621 177.646C193.523 177.766 193.483 177.905 193.501 178.063C193.516 178.218 193.597 178.375 193.744 178.535L191.703 179.284C191.264 178.813 191.032 178.371 191.006 177.958C190.982 177.54 191.13 177.17 191.452 176.847C191.77 176.521 192.218 176.252 192.795 176.04C193.42 175.811 194.046 175.684 194.675 175.658C195.307 175.63 195.899 175.713 196.449 175.907C197.003 176.099 197.476 176.4 197.867 176.808C198.242 177.2 198.438 177.579 198.454 177.947C198.471 178.314 198.351 178.69 198.094 179.073C197.957 179.275 197.867 179.459 197.825 179.626C197.783 179.788 197.796 179.954 197.862 180.126C197.928 180.297 198.06 180.487 198.259 180.694L198.391 180.832L196.504 181.525L196.372 181.387ZM199.664 183.448C199.455 183.525 199.222 183.556 198.967 183.543C198.711 183.53 198.466 183.474 198.231 183.373C197.996 183.273 197.802 183.139 197.649 182.973C197.493 182.817 197.402 182.652 197.375 182.48C197.349 182.307 197.387 182.148 197.492 182.003C197.596 181.858 197.752 181.747 197.962 181.67C198.163 181.597 198.389 181.567 198.64 181.582C198.896 181.595 199.141 181.649 199.378 181.745C199.618 181.839 199.816 181.964 199.972 182.12C200.125 182.287 200.214 182.458 200.24 182.636C200.262 182.81 200.223 182.971 200.122 183.119C200.018 183.264 199.865 183.374 199.664 183.448Z" fill="#B6C5E6"/>
<path id="Vector_9" d="M244.721 161.897C239.946 156.911 230.821 154.798 224.34 157.176C217.859 159.555 216.477 165.525 221.252 170.511C226.027 175.496 235.152 177.609 241.633 175.231C248.114 172.852 249.496 166.882 244.721 161.897Z" fill="white" stroke="#BCCBEA" stroke-width="7"/>
<path id="Vector_10" d="M232.984 167.949C232.615 167.564 232.358 167.238 232.212 166.971C232.067 166.699 232.006 166.464 232.029 166.264C232.052 166.064 232.135 165.849 232.278 165.619C232.453 165.336 232.553 165.091 232.578 164.881C232.608 164.67 232.526 164.465 232.334 164.264C232.129 164.05 231.869 163.914 231.553 163.856C231.235 163.795 230.934 163.817 230.652 163.92C230.468 163.988 230.328 164.084 230.233 164.208C230.135 164.328 230.095 164.467 230.113 164.625C230.128 164.78 230.209 164.937 230.356 165.097L228.315 165.846C227.876 165.375 227.644 164.933 227.618 164.52C227.594 164.102 227.742 163.732 228.063 163.409C228.381 163.083 228.829 162.814 229.407 162.602C230.032 162.373 230.658 162.246 231.287 162.22C231.919 162.192 232.511 162.275 233.061 162.469C233.615 162.662 234.088 162.962 234.479 163.37C234.854 163.762 235.05 164.141 235.066 164.509C235.083 164.876 234.963 165.252 234.706 165.635C234.569 165.837 234.479 166.021 234.437 166.188C234.395 166.35 234.408 166.516 234.474 166.688C234.539 166.859 234.672 167.049 234.87 167.256L235.003 167.394L233.116 168.087L232.984 167.949ZM236.276 170.01C236.066 170.087 235.834 170.118 235.579 170.105C235.323 170.092 235.078 170.036 234.843 169.935C234.608 169.835 234.414 169.701 234.26 169.535C234.105 169.379 234.014 169.214 233.987 169.042C233.961 168.869 233.999 168.71 234.103 168.565C234.207 168.42 234.364 168.309 234.574 168.232C234.775 168.159 235.001 168.129 235.252 168.144C235.507 168.157 235.753 168.211 235.989 168.307C236.23 168.401 236.428 168.526 236.583 168.682C236.737 168.849 236.826 169.02 236.852 169.198C236.874 169.372 236.835 169.533 236.734 169.681C236.63 169.826 236.477 169.936 236.276 170.01Z" fill="#B6C5E6"/>
<path id="Vector_11" d="M281.333 148.459C276.558 143.473 267.433 141.36 260.952 143.738C254.471 146.117 253.088 152.087 257.864 157.073C262.639 162.058 271.764 164.171 278.245 161.793C284.725 159.414 286.108 153.444 281.333 148.459Z" fill="white" stroke="#BCCBEA" stroke-width="7"/>
<path id="Vector_12" d="M269.595 154.511C269.227 154.126 268.969 153.8 268.824 153.533C268.679 153.261 268.618 153.026 268.641 152.826C268.664 152.627 268.747 152.411 268.89 152.181C269.065 151.899 269.165 151.653 269.19 151.444C269.219 151.233 269.138 151.027 268.946 150.826C268.741 150.612 268.481 150.476 268.165 150.419C267.847 150.358 267.546 150.379 267.264 150.483C267.08 150.55 266.94 150.646 266.845 150.77C266.746 150.89 266.706 151.03 266.725 151.188C266.74 151.342 266.821 151.499 266.968 151.659L264.927 152.408C264.488 151.937 264.256 151.496 264.23 151.082C264.205 150.664 264.354 150.294 264.675 149.971C264.993 149.646 265.441 149.377 266.019 149.165C266.643 148.935 267.27 148.808 267.898 148.782C268.531 148.754 269.122 148.837 269.673 149.031C270.227 149.224 270.7 149.524 271.09 149.932C271.466 150.324 271.661 150.703 271.678 151.071C271.695 151.438 271.575 151.814 271.317 152.197C271.181 152.399 271.091 152.583 271.049 152.75C271.007 152.912 271.019 153.079 271.085 153.25C271.151 153.422 271.284 153.611 271.482 153.818L271.615 153.957L269.728 154.649L269.595 154.511ZM272.888 156.572C272.678 156.649 272.446 156.681 272.19 156.668C271.935 156.655 271.69 156.598 271.455 156.497C271.22 156.397 271.026 156.263 270.872 156.097C270.717 155.941 270.626 155.776 270.599 155.604C270.572 155.431 270.611 155.272 270.715 155.127C270.819 154.983 270.976 154.872 271.186 154.795C271.387 154.721 271.613 154.691 271.864 154.706C272.119 154.719 272.365 154.773 272.601 154.869C272.842 154.963 273.04 155.088 273.195 155.245C273.349 155.411 273.438 155.583 273.463 155.76C273.486 155.934 273.446 156.096 273.346 156.244C273.242 156.389 273.089 156.498 272.888 156.572Z" fill="#B6C5E6"/>
<path id="Vector_13" d="M317.944 135.021C313.169 130.035 304.044 127.922 297.563 130.3C291.082 132.679 289.699 138.649 294.475 143.635C299.25 148.62 308.375 150.733 314.856 148.355C321.337 145.976 322.719 140.006 317.944 135.021Z" fill="white" stroke="#BCCBEA" stroke-width="7"/>
<path id="Vector_14" d="M306.207 141.073C305.838 140.688 305.581 140.362 305.436 140.095C305.291 139.823 305.23 139.588 305.253 139.388C305.276 139.189 305.359 138.973 305.502 138.743C305.677 138.461 305.777 138.215 305.802 138.006C305.831 137.795 305.75 137.589 305.558 137.388C305.353 137.174 305.092 137.038 304.777 136.981C304.458 136.92 304.158 136.941 303.875 137.045C303.692 137.112 303.552 137.208 303.457 137.332C303.358 137.452 303.318 137.592 303.336 137.75C303.352 137.904 303.433 138.061 303.58 138.221L301.539 138.97C301.1 138.499 300.867 138.058 300.842 137.644C300.817 137.226 300.966 136.856 301.287 136.534C301.605 136.208 302.053 135.939 302.631 135.727C303.255 135.498 303.882 135.37 304.51 135.344C305.143 135.316 305.734 135.399 306.284 135.593C306.839 135.786 307.311 136.086 307.702 136.494C308.077 136.886 308.273 137.265 308.29 137.633C308.307 138 308.186 138.376 307.929 138.759C307.793 138.961 307.703 139.145 307.66 139.312C307.619 139.474 307.631 139.641 307.697 139.812C307.763 139.984 307.895 140.173 308.094 140.38L308.226 140.519L306.34 141.211L306.207 141.073ZM309.5 143.134C309.29 143.211 309.058 143.243 308.802 143.23C308.547 143.217 308.302 143.16 308.067 143.059C307.832 142.959 307.637 142.825 307.484 142.659C307.328 142.503 307.237 142.338 307.211 142.166C307.184 141.993 307.223 141.834 307.327 141.689C307.431 141.545 307.588 141.434 307.797 141.357C307.999 141.283 308.225 141.253 308.476 141.268C308.731 141.281 308.977 141.335 309.213 141.431C309.453 141.525 309.651 141.65 309.807 141.807C309.96 141.973 310.05 142.145 310.075 142.322C310.098 142.496 310.058 142.658 309.957 142.806C309.853 142.951 309.701 143.06 309.5 143.134Z" fill="#B6C5E6"/>
<path id="Vector_15" d="M287.682 89.5173L219.152 114.67C216.56 115.622 216.006 118.01 217.917 120.004L222.067 124.337C223.977 126.331 227.627 127.177 230.219 126.225L298.749 101.072C301.341 100.121 301.894 97.7326 299.984 95.7384L295.834 91.4054C293.924 89.4111 290.274 88.5658 287.682 89.5173Z" fill="white" fill-opacity="0.2"/>
<path id="Vector_16" d="M348.553 153.068L122.311 236.107C119.718 237.059 119.165 239.447 121.076 241.441L125.226 245.774C127.136 247.768 130.786 248.614 133.378 247.662L359.62 164.623C362.213 163.671 362.766 161.283 360.856 159.289L356.705 154.956C354.795 152.962 351.145 152.117 348.553 153.068Z" fill="white" fill-opacity="0.2"/>
</g>
</g>
</g>
<path id="Vector_17" d="M280.025 70.3657L38.366 159.064C30.3298 162.013 28.6154 169.416 34.5367 175.598L109.797 254.173C115.718 260.355 127.033 262.975 135.069 260.026L376.729 171.328C384.765 168.378 386.48 160.975 380.558 154.793L305.298 76.2187C299.377 70.0366 288.062 67.4161 280.025 70.3657Z" stroke="white" stroke-opacity="0.96"/>
<path id="Vector_18" d="M280.025 70.3657L38.366 159.064C30.3298 162.013 28.6154 169.416 34.5367 175.598L109.797 254.173C115.718 260.355 127.033 262.975 135.069 260.026L376.729 171.328C384.765 168.378 386.48 160.975 380.558 154.793L305.298 76.2187C299.377 70.0366 288.062 67.4161 280.025 70.3657Z" stroke="#434EC6" stroke-opacity="0.39"/>
<g id="Group_2" filter="url(#filter0_f_73_813)">
<path id="Vector_19" d="M279.5 169.5C317.332 169.5 348 157.636 348 143C348 128.364 317.332 116.5 279.5 116.5C241.668 116.5 211 128.364 211 143C211 157.636 241.668 169.5 279.5 169.5Z" fill="url(#paint1_linear_73_813)"/>
</g>
<path id="Vector_20" fill-rule="evenodd" clip-rule="evenodd" d="M229 35.5C220.716 35.5 214 42.2157 214 50.5V96.0944C214 104.379 220.716 111.094 229 111.094H248.248C250.391 111.094 252.372 112.238 253.444 114.094L259.419 124.444C261.729 128.444 267.502 128.444 269.812 124.444L275.787 114.094C276.859 112.238 278.839 111.094 280.983 111.094H299.573C307.858 111.094 314.573 104.379 314.573 96.0944V50.5C314.573 42.2157 307.858 35.5 299.573 35.5H229Z" fill="white"/>
<g id="Mask group">
<mask id="mask1_73_813" style="mask-type:luminance" maskUnits="userSpaceOnUse" x="214" y="35" width="101" height="93">
<g id="Group_3">
<path id="Vector_21" fill-rule="evenodd" clip-rule="evenodd" d="M229 35.5C220.716 35.5 214 42.2157 214 50.5V96.0944C214 104.379 220.716 111.094 229 111.094H248.248C250.391 111.094 252.372 112.238 253.444 114.094L259.419 124.444C261.729 128.444 267.502 128.444 269.812 124.444L275.787 114.094C276.859 112.238 278.839 111.094 280.983 111.094H299.573C307.858 111.094 314.573 104.379 314.573 96.0944V50.5C314.573 42.2157 307.858 35.5 299.573 35.5H229Z" fill="white"/>
</g>
</mask>
<g mask="url(#mask1_73_813)">
<path id="Vector_22" d="M215 50.5C215 42.768 221.268 36.5 229 36.5V34.5C220.163 34.5 213 41.6634 213 50.5H215ZM215 96.0944V50.5H213V96.0944H215ZM229 110.094C221.268 110.094 215 103.826 215 96.0944H213C213 104.931 220.163 112.094 229 112.094V110.094ZM248.248 110.094H229V112.094H248.248V110.094ZM260.285 123.944L254.31 113.594L252.578 114.594L258.553 124.944L260.285 123.944ZM274.921 113.594L268.946 123.944L270.678 124.944L276.653 114.594L274.921 113.594ZM299.573 110.094H280.983V112.094H299.573V110.094ZM313.573 96.0944C313.573 103.826 307.305 110.094 299.573 110.094V112.094C308.41 112.094 315.573 104.931 315.573 96.0944H313.573ZM313.573 50.5V96.0944H315.573V50.5H313.573ZM299.573 36.5C307.305 36.5 313.573 42.768 313.573 50.5H315.573C315.573 41.6634 308.41 34.5 299.573 34.5V36.5ZM229 36.5H299.573V34.5H229V36.5ZM276.653 114.594C277.546 113.047 279.197 112.094 280.983 112.094V110.094C278.482 110.094 276.171 111.429 274.921 113.594L276.653 114.594ZM258.553 124.944C261.248 129.611 267.983 129.611 270.678 124.944L268.946 123.944C267.021 127.277 262.21 127.277 260.285 123.944L258.553 124.944ZM248.248 112.094C250.034 112.094 251.685 113.047 252.578 114.594L254.31 113.594C253.059 111.429 250.749 110.094 248.248 110.094V112.094Z" fill="black" fill-opacity="0.15"/>
</g>
</g>
<path id="Vector_23" d="M251.673 75.1626C250.967 75.1626 250.312 74.9898 249.707 74.6441C249.102 74.2984 248.626 73.823 248.281 73.2181C247.935 72.6131 247.769 71.9505 247.784 71.2303C247.769 70.5389 247.935 69.8979 248.281 69.3073C248.626 68.7167 249.102 68.2486 249.707 67.9029C250.312 67.5572 250.967 67.3843 251.673 67.3843C252.35 67.3843 252.984 67.5572 253.574 67.9029C254.179 68.2486 254.662 68.7167 255.022 69.3073C255.396 69.8979 255.591 70.5389 255.605 71.2303C255.591 71.9505 255.404 72.6131 255.044 73.2181C254.683 73.8086 254.201 74.284 253.596 74.6441C252.991 74.9898 252.35 75.1626 251.673 75.1626ZM264.594 75.1626C263.888 75.1626 263.232 74.9898 262.627 74.6441C262.022 74.2984 261.547 73.823 261.201 73.2181C260.856 72.6131 260.69 71.9505 260.704 71.2303C260.69 70.5389 260.856 69.8979 261.201 69.3073C261.547 68.7167 262.022 68.2486 262.627 67.9029C263.232 67.5572 263.888 67.3843 264.594 67.3843C265.271 67.3843 265.904 67.5572 266.495 67.9029C267.1 68.2486 267.582 68.7167 267.943 69.3073C268.317 69.8979 268.512 70.5389 268.526 71.2303C268.512 71.9505 268.324 72.6131 267.964 73.2181C267.604 73.8086 267.122 74.284 266.517 74.6441C265.912 74.9898 265.271 75.1626 264.594 75.1626ZM277.514 75.1626C276.808 75.1626 276.153 74.9898 275.548 74.6441C274.943 74.2984 274.468 73.823 274.122 73.2181C273.776 72.6131 273.611 71.9505 273.625 71.2303C273.611 70.5389 273.776 69.8979 274.122 69.3073C274.468 68.7167 274.943 68.2486 275.548 67.9029C276.153 67.5572 276.808 67.3843 277.514 67.3843C278.191 67.3843 278.825 67.5572 279.416 67.9029C280.021 68.2486 280.503 68.7167 280.863 69.3073C281.238 69.8979 281.432 70.5389 281.447 71.2303C281.432 71.9505 281.245 72.6131 280.885 73.2181C280.525 73.8086 280.042 74.284 279.437 74.6441C278.832 74.9898 278.191 75.1626 277.514 75.1626Z" fill="#707070"/>
</g>
<defs>
<filter id="filter0_f_73_813" x="192" y="97.5" width="175" height="91" filterUnits="userSpaceOnUse" color-interpolation-filters="sRGB">
<feFlood flood-opacity="0" result="BackgroundImageFix"/>
<feBlend mode="normal" in="SourceGraphic" in2="BackgroundImageFix" result="shape"/>
<feGaussianBlur stdDeviation="9.5" result="effect1_foregroundBlur_73_813"/>
</filter>
<linearGradient id="paint0_linear_73_813" x1="32.5615" y1="166.037" x2="376.163" y2="92.4775" gradientUnits="userSpaceOnUse">
<stop stop-color="#DAEBFF"/>
<stop offset="1" stop-color="#CFD2D8"/>
</linearGradient>
<linearGradient id="paint1_linear_73_813" x1="211.247" y1="130.247" x2="312.242" y2="145.326" gradientUnits="userSpaceOnUse">
<stop stop-color="#00247F" stop-opacity="0.33"/>
<stop offset="1" stop-color="#3149FF" stop-opacity="0"/>
</linearGradient>
</defs>
</svg>
