<svg width="170" height="97" viewBox="0 0 170 97" fill="none" xmlns="http://www.w3.org/2000/svg">
<rect width="170" height="97" rx="15" fill="white"/>
<rect x="0.5" y="0.5" width="169" height="96" rx="14.5" stroke="black" stroke-opacity="0.15"/>
<rect x="10" y="12" width="73" height="73" rx="36.5" fill="#D3E1F7"/>
<path fill-rule="evenodd" clip-rule="evenodd" d="M31.466 37.3885C30.2095 38.0621 30 38.7818 30 42.4284V45.578L30.6639 45.7045C31.0508 45.7782 31.5986 46.1058 31.9771 46.4898C33.1082 47.6381 33.1082 49.3551 31.9771 50.5034C31.5986 50.8874 31.0508 51.2151 30.6639 51.2887L30 51.4152V54.5648C30 58.249 30.2065 58.9409 31.5062 59.6141C32.2344 59.9912 32.5916 60 47 60C61.4084 60 61.7656 59.9912 62.4938 59.6141C63.7935 58.9409 64 58.249 64 54.5648V51.4152L63.3361 51.2887C62.9492 51.2151 62.4014 50.8874 62.0229 50.5034C60.8918 49.3551 60.8918 47.6381 62.0229 46.4898C62.4014 46.1058 62.9492 45.7782 63.3361 45.7045L64 45.578V42.4284C64 38.7442 63.7935 38.0523 62.4938 37.3792C61.7651 37.0018 61.4171 36.9934 46.9603 37.0016C32.6101 37.0099 32.1513 37.0214 31.466 37.3885ZM36.1304 41.2984L35.6667 41.7688V48.4966V55.2244L36.1304 55.6949L36.5939 56.1655H47H57.4061L57.8696 55.6949L58.3333 55.2244V48.4966V41.7688L57.8696 41.2984L57.4061 40.8277H47H36.5939L36.1304 41.2984ZM37.5556 48.4966V54.2483H47H56.4444V48.4966V42.7449H47H37.5556V48.4966Z" fill="#0252C8"/>
<path d="M114.926 50.7695H108.422V45.8828H114.926V39.3789H119.848V45.8828H126.352V50.7695H119.848V57.2734H114.926V50.7695ZM142.805 61H136.793V41.1719H136.652L130.922 44.6875V39.4844L137.215 35.5469H142.805V61Z" fill="#04C88D"/>
</svg>
