<svg width="413" height="239" viewBox="0 0 413 239" fill="none" xmlns="http://www.w3.org/2000/svg">
<g clip-path="url(#clip0_14_353)">
<rect width="289.511" height="140.752" rx="16" transform="matrix(0.82102 -0.570899 0.851873 0.523748 0 165.282)" fill="url(#paint0_linear_14_353)"/>
<rect x="5.85513" y="-0.165029" width="25" height="25" rx="12.5" transform="matrix(0.82102 -0.570899 0.851873 0.523748 82.012 184.891)" fill="white" stroke="#BCCBEA" stroke-width="7"/>
<path d="M108.029 182.562C107.575 182.283 107.243 182.033 107.035 181.811C106.826 181.585 106.708 181.372 106.679 181.174C106.651 180.975 106.677 180.745 106.757 180.486C106.855 180.169 106.89 179.906 106.861 179.697C106.836 179.485 106.705 179.307 106.468 179.161C106.216 179.006 105.93 178.94 105.61 178.964C105.286 178.986 105.001 179.083 104.754 179.254C104.593 179.366 104.482 179.494 104.421 179.638C104.357 179.78 104.353 179.925 104.411 180.073C104.465 180.219 104.583 180.35 104.765 180.467L102.981 181.708C102.437 181.364 102.1 180.996 101.971 180.602C101.841 180.204 101.891 179.808 102.12 179.415C102.346 179.019 102.711 178.646 103.216 178.294C103.763 177.914 104.336 177.632 104.938 177.448C105.543 177.261 106.136 177.192 106.717 177.241C107.302 177.287 107.835 177.458 108.317 177.754C108.779 178.038 109.064 178.355 109.173 178.707C109.283 179.058 109.261 179.452 109.109 179.888C109.028 180.118 108.988 180.318 108.989 180.491C108.99 180.658 109.044 180.816 109.151 180.965C109.258 181.115 109.434 181.264 109.679 181.415L109.842 181.515L108.192 182.662L108.029 182.562ZM111.735 183.723C111.552 183.851 111.335 183.94 111.085 183.992C110.835 184.044 110.583 184.052 110.33 184.014C110.077 183.976 109.856 183.896 109.665 183.774C109.475 183.662 109.346 183.526 109.276 183.366C109.207 183.205 109.204 183.042 109.268 182.875C109.332 182.709 109.456 182.562 109.639 182.434C109.815 182.312 110.026 182.226 110.273 182.177C110.523 182.125 110.775 182.115 111.027 182.148C111.284 182.178 111.507 182.249 111.697 182.361C111.887 182.483 112.017 182.627 112.087 182.792C112.153 182.955 112.155 183.121 112.095 183.29C112.031 183.457 111.911 183.601 111.735 183.723Z" fill="#B6C5E6"/>
<rect x="5.85513" y="-0.165029" width="25" height="25" rx="12.5" transform="matrix(0.82102 -0.570899 0.851873 0.523748 114.032 162.626)" fill="white" stroke="#BCCBEA" stroke-width="7"/>
<path d="M140.049 160.297C139.594 160.018 139.263 159.768 139.055 159.546C138.846 159.32 138.728 159.107 138.699 158.908C138.671 158.71 138.697 158.48 138.777 158.221C138.875 157.904 138.909 157.641 138.881 157.432C138.856 157.22 138.725 157.042 138.488 156.896C138.236 156.741 137.949 156.675 137.63 156.699C137.306 156.721 137.021 156.818 136.774 156.989C136.613 157.101 136.502 157.229 136.441 157.373C136.377 157.515 136.373 157.66 136.431 157.808C136.484 157.954 136.602 158.085 136.785 158.202L135 159.443C134.457 159.099 134.12 158.731 133.991 158.337C133.861 157.939 133.911 157.543 134.14 157.15C134.366 156.754 134.731 156.381 135.236 156.029C135.782 155.649 136.356 155.367 136.957 155.183C137.563 154.996 138.156 154.927 138.737 154.976C139.322 155.022 139.855 155.193 140.337 155.489C140.799 155.773 141.084 156.09 141.193 156.442C141.302 156.793 141.281 157.187 141.129 157.623C141.048 157.853 141.008 158.053 141.009 158.226C141.01 158.393 141.064 158.551 141.171 158.7C141.278 158.85 141.454 158.999 141.699 159.15L141.862 159.25L140.212 160.397L140.049 160.297ZM143.755 161.458C143.572 161.586 143.355 161.675 143.105 161.727C142.854 161.779 142.603 161.787 142.35 161.749C142.097 161.711 141.876 161.631 141.685 161.509C141.495 161.397 141.365 161.261 141.296 161.101C141.227 160.94 141.224 160.777 141.288 160.61C141.352 160.444 141.475 160.297 141.659 160.169C141.835 160.047 142.046 159.961 142.292 159.912C142.543 159.86 142.794 159.85 143.047 159.883C143.303 159.913 143.527 159.984 143.717 160.096C143.907 160.218 144.037 160.362 144.107 160.527C144.172 160.69 144.175 160.856 144.115 161.025C144.051 161.192 143.931 161.336 143.755 161.458Z" fill="#B6C5E6"/>
<rect x="5.85513" y="-0.165029" width="25" height="25" rx="12.5" transform="matrix(0.82102 -0.570899 0.851873 0.523748 146.052 140.361)" fill="white" stroke="#BCCBEA" stroke-width="7"/>
<path d="M172.069 138.032C171.614 137.753 171.283 137.502 171.075 137.281C170.866 137.055 170.747 136.842 170.719 136.643C170.69 136.444 170.716 136.215 170.797 135.956C170.895 135.639 170.929 135.376 170.901 135.167C170.875 134.955 170.745 134.777 170.508 134.631C170.255 134.476 169.969 134.41 169.65 134.434C169.326 134.456 169.041 134.553 168.794 134.724C168.633 134.836 168.522 134.964 168.461 135.108C168.396 135.25 168.393 135.395 168.45 135.543C168.504 135.689 168.622 135.82 168.805 135.937L167.02 137.178C166.476 136.834 166.14 136.465 166.01 136.072C165.881 135.674 165.931 135.278 166.16 134.885C166.385 134.489 166.751 134.115 167.256 133.764C167.802 133.384 168.376 133.102 168.977 132.918C169.582 132.731 170.176 132.662 170.757 132.711C171.342 132.757 171.875 132.927 172.356 133.223C172.818 133.508 173.104 133.825 173.213 134.177C173.322 134.528 173.301 134.922 173.149 135.358C173.068 135.587 173.028 135.788 173.029 135.96C173.03 136.128 173.084 136.286 173.191 136.435C173.298 136.584 173.474 136.734 173.719 136.885L173.882 136.985L172.232 138.132L172.069 138.032ZM175.775 139.193C175.592 139.321 175.375 139.41 175.125 139.462C174.874 139.514 174.623 139.521 174.37 139.484C174.117 139.446 173.895 139.366 173.705 139.244C173.515 139.132 173.385 138.996 173.316 138.836C173.246 138.675 173.244 138.512 173.308 138.345C173.372 138.179 173.495 138.032 173.679 137.904C173.855 137.782 174.066 137.696 174.312 137.647C174.563 137.595 174.814 137.585 175.067 137.618C175.323 137.648 175.547 137.719 175.737 137.831C175.927 137.953 176.057 138.097 176.127 138.262C176.192 138.425 176.195 138.591 176.135 138.76C176.071 138.926 175.951 139.071 175.775 139.193Z" fill="#B6C5E6"/>
<rect x="5.85513" y="-0.165029" width="25" height="25" rx="12.5" transform="matrix(0.82102 -0.570899 0.851873 0.523748 178.071 118.096)" fill="white" stroke="#BCCBEA" stroke-width="7"/>
<path d="M204.088 115.767C203.634 115.488 203.303 115.237 203.094 115.016C202.886 114.79 202.767 114.577 202.739 114.378C202.71 114.179 202.736 113.95 202.817 113.691C202.915 113.374 202.949 113.111 202.92 112.902C202.895 112.69 202.764 112.512 202.528 112.366C202.275 112.211 201.989 112.145 201.669 112.169C201.346 112.191 201.06 112.288 200.813 112.459C200.653 112.571 200.542 112.699 200.481 112.843C200.416 112.985 200.413 113.13 200.47 113.278C200.524 113.424 200.642 113.555 200.825 113.672L199.04 114.913C198.496 114.569 198.16 114.2 198.03 113.807C197.901 113.409 197.951 113.013 198.18 112.62C198.405 112.224 198.77 111.85 199.276 111.499C199.822 111.119 200.396 110.837 200.997 110.653C201.602 110.466 202.195 110.397 202.777 110.446C203.362 110.492 203.895 110.662 204.376 110.958C204.838 111.242 205.124 111.56 205.233 111.912C205.342 112.263 205.321 112.657 205.169 113.093C205.088 113.322 205.047 113.523 205.049 113.695C205.049 113.863 205.103 114.021 205.211 114.17C205.318 114.319 205.494 114.469 205.738 114.62L205.901 114.72L204.251 115.867L204.088 115.767ZM207.795 116.928C207.611 117.056 207.395 117.145 207.144 117.197C206.894 117.249 206.642 117.256 206.39 117.219C206.137 117.181 205.915 117.101 205.725 116.979C205.535 116.867 205.405 116.731 205.336 116.571C205.266 116.41 205.263 116.247 205.327 116.08C205.391 115.914 205.515 115.767 205.698 115.639C205.874 115.517 206.086 115.431 206.332 115.382C206.582 115.33 206.834 115.32 207.087 115.353C207.343 115.383 207.566 115.454 207.756 115.566C207.947 115.688 208.077 115.832 208.146 115.997C208.212 116.16 208.215 116.326 208.155 116.495C208.091 116.661 207.971 116.806 207.795 116.928Z" fill="#B6C5E6"/>
<rect x="5.85513" y="-0.165029" width="25" height="25" rx="12.5" transform="matrix(0.82102 -0.570899 0.851873 0.523748 210.091 95.8312)" fill="white" stroke="#BCCBEA" stroke-width="7"/>
<path d="M236.108 93.5019C235.654 93.2227 235.323 92.9724 235.114 92.7511C234.906 92.5248 234.787 92.3122 234.759 92.1133C234.73 91.9144 234.756 91.6853 234.836 91.4259C234.934 91.1086 234.969 90.8455 234.94 90.6366C234.915 90.4252 234.784 90.2466 234.547 90.101C234.295 89.9459 234.009 89.8803 233.689 89.9043C233.365 89.9259 233.08 90.0226 232.833 90.1943C232.672 90.3062 232.562 90.4341 232.501 90.5781C232.436 90.7197 232.432 90.8646 232.49 91.0127C232.544 91.1585 232.662 91.29 232.845 91.4072L231.06 92.6482C230.516 92.3041 230.179 91.9353 230.05 91.5421C229.921 91.1438 229.97 90.748 230.2 90.3546C230.425 89.9589 230.79 89.5853 231.295 89.2341C231.842 88.8543 232.416 88.5722 233.017 88.388C233.622 88.2012 234.215 88.1321 234.797 88.1806C235.381 88.2265 235.915 88.3975 236.396 88.6934C236.858 88.9775 237.144 89.2952 237.253 89.6466C237.362 89.998 237.34 90.3918 237.189 90.8279C237.107 91.0573 237.067 91.2582 237.068 91.4304C237.069 91.5976 237.123 91.7559 237.231 91.9051C237.338 92.0544 237.514 92.2042 237.758 92.3545L237.921 92.4548L236.271 93.6022L236.108 93.5019ZM239.815 94.6631C239.631 94.7906 239.415 94.8803 239.164 94.9323C238.914 94.9843 238.662 94.9914 238.409 94.9536C238.157 94.9158 237.935 94.8359 237.745 94.7139C237.554 94.602 237.425 94.4658 237.355 94.3055C237.286 94.1452 237.283 93.9818 237.347 93.8152C237.411 93.6487 237.535 93.5016 237.718 93.3742C237.894 93.2519 238.105 93.166 238.352 93.1167C238.602 93.0647 238.854 93.0551 239.106 93.0879C239.363 93.1181 239.586 93.1892 239.776 93.3012C239.967 93.4231 240.097 93.5667 240.166 93.732C240.232 93.8949 240.235 94.0609 240.174 94.2298C240.11 94.3964 239.991 94.5408 239.815 94.6631Z" fill="#B6C5E6"/>
<rect x="5.85513" y="-0.165029" width="25" height="25" rx="12.5" transform="matrix(0.82102 -0.570899 0.851873 0.523748 242.111 73.5661)" fill="white" stroke="#BCCBEA" stroke-width="7"/>
<path d="M268.128 71.2368C267.674 70.9575 267.342 70.7072 267.134 70.486C266.925 70.2597 266.807 70.0471 266.778 69.8482C266.75 69.6493 266.776 69.4201 266.856 69.1608C266.954 68.8435 266.989 68.5804 266.96 68.3715C266.935 68.16 266.804 67.9815 266.567 67.8359C266.315 67.6807 266.029 67.6152 265.709 67.6392C265.385 67.6608 265.1 67.7574 264.853 67.9291C264.692 68.041 264.581 68.169 264.52 68.313C264.456 68.4546 264.452 68.5995 264.51 68.7476C264.564 68.8934 264.682 69.0248 264.864 69.142L263.08 70.3831C262.536 70.0389 262.199 69.6702 262.07 69.2769C261.94 68.8787 261.99 68.4829 262.219 68.0895C262.445 67.6937 262.81 67.3202 263.315 66.969C263.862 66.5891 264.435 66.3071 265.037 66.1229C265.642 65.9361 266.235 65.8669 266.816 65.9155C267.401 65.9614 267.934 66.1323 268.416 66.4283C268.878 66.7123 269.163 67.0301 269.272 67.3815C269.382 67.7329 269.36 68.1266 269.208 68.5628C269.127 68.7922 269.087 68.993 269.088 69.1653C269.089 69.3325 269.143 69.4907 269.25 69.64C269.357 69.7892 269.533 69.939 269.778 70.0894L269.941 70.1897L268.291 71.337L268.128 71.2368ZM271.834 72.3979C271.651 72.5254 271.434 72.6152 271.184 72.6671C270.934 72.7191 270.682 72.7262 270.429 72.6884C270.176 72.6506 269.955 72.5707 269.764 72.4488C269.574 72.3368 269.445 72.2007 269.375 72.0404C269.306 71.8801 269.303 71.7167 269.367 71.5501C269.431 71.3835 269.555 71.2365 269.738 71.109C269.914 70.9867 270.125 70.9009 270.372 70.8515C270.622 70.7995 270.874 70.7899 271.126 70.8228C271.383 70.853 271.606 70.9241 271.796 71.036C271.986 71.158 272.116 71.3016 272.186 71.4669C272.252 71.6298 272.254 71.7957 272.194 71.9647C272.13 72.1312 272.01 72.2757 271.834 72.3979Z" fill="#B6C5E6"/>
<rect width="83" height="16" rx="5" transform="matrix(0.82102 -0.570899 0.851873 0.523748 173.124 70.5697)" fill="white" fill-opacity="0.2"/>
<rect width="251" height="16" rx="5" transform="matrix(0.82102 -0.570899 0.851873 0.523748 110.157 212.571)" fill="white" fill-opacity="0.2"/>
<path d="M52.2805 157.155L60.5464 162.237L57.1417 164.604L49.4379 159.868C48.0642 159.023 47.0174 158.877 46.2935 159.38C45.3575 160.031 45.736 160.892 47.3959 161.913L54.6212 166.355L51.305 168.661L43.6011 163.925C42.2664 163.104 41.1832 162.932 40.4705 163.427C39.5474 164.069 39.9219 164.962 41.5599 165.969L48.7853 170.412L45.3806 172.779L32.2051 164.679L34.5991 163.014L36.5003 163.547C36.294 162.955 36.2841 162.37 36.4712 161.831C36.6584 161.293 37.0383 160.814 37.5845 160.428C38.1228 160.03 38.8418 159.75 39.6757 159.615C40.5097 159.479 41.4321 159.491 42.3585 159.651C42.113 159.024 42.084 158.401 42.2737 157.829C42.4634 157.257 42.8669 156.75 43.4537 156.347C45.5712 154.875 49.1732 155.251 52.2765 157.159" fill="#1540F2"/>
<path d="M54.9497 157.494C50.8643 154.982 50.2477 151.566 53.4712 149.324C56.6947 147.083 61.9502 147.275 66.0345 149.786C70.1188 152.298 70.7264 155.723 67.5132 157.958C64.3 160.192 59.0214 159.998 54.9497 157.494ZM63.4358 155.451C63.7346 155.256 63.9517 155.014 64.0733 154.739C64.1949 154.463 64.2183 154.161 64.142 153.852C64.0658 153.542 63.8915 153.232 63.6303 152.94C63.3691 152.649 63.0267 152.383 62.6249 152.159C62.253 151.92 61.8255 151.721 61.3677 151.575C60.9099 151.429 60.4311 151.339 59.9597 151.31C59.4883 151.28 59.0338 151.312 58.6231 151.404C58.2124 151.496 57.8539 151.645 57.5687 151.844C57.2835 152.042 57.0774 152.285 56.9627 152.559C56.848 152.832 56.8269 153.131 56.9007 153.437C56.9746 153.743 57.1418 154.05 57.3926 154.339C57.6434 154.629 57.9725 154.896 58.3607 155.124C58.727 155.372 59.1543 155.58 59.6152 155.732C60.0761 155.885 60.5606 155.979 61.0379 156.01C61.5153 156.041 61.975 156.007 62.3878 155.911C62.8006 155.814 63.1575 155.658 63.4358 155.451Z" fill="#1540F2"/>
<path d="M76.4206 145.981L80.3962 148.425L78.0537 150.054C77.6339 150.416 77.0722 150.695 76.4081 150.871C75.7441 151.047 74.9937 151.116 74.2097 151.073C73.4258 151.03 72.6273 150.876 71.8704 150.621C71.1135 150.367 70.4166 150.019 69.8286 149.602L64.8618 146.548L63.0525 147.806L61.9925 147.155L60.1364 140.207L60.8362 139.721L64.6893 142.089L67.1726 140.363L70.6673 142.511L68.2699 144.178L72.4641 146.757C72.6551 146.892 72.8814 147.004 73.127 147.086C73.3727 147.168 73.6316 147.217 73.8854 147.229C74.1392 147.242 74.3816 147.218 74.5955 147.16C74.8094 147.101 74.9894 147.01 75.1229 146.891L76.4206 145.981Z" fill="#1540F2"/>
<path d="M84.039 140.684L88.0146 143.128L85.6721 144.757C85.2523 145.119 84.6906 145.397 84.0266 145.573C83.3625 145.749 82.6121 145.818 81.8281 145.775C81.0442 145.732 80.2457 145.578 79.4888 145.324C78.7319 145.07 78.035 144.722 77.447 144.304L72.4802 141.251L70.671 142.509L69.611 141.857L67.7513 134.912L68.4512 134.425L72.3042 136.794L74.7875 135.068L78.2823 137.216L75.8849 138.883L80.0791 141.462C80.2702 141.596 80.4964 141.708 80.7417 141.789C80.9869 141.87 81.2452 141.918 81.4983 141.931C81.7513 141.943 81.993 141.919 82.2062 141.861C82.4194 141.802 82.599 141.711 82.7321 141.592L84.039 140.684Z" fill="#1540F2"/>
<path d="M81.8043 138.821C77.7189 136.309 77.1023 132.893 80.3258 130.651C83.5493 128.41 88.8048 128.602 92.8891 131.113C96.9734 133.624 97.5811 137.05 94.3679 139.284C91.1547 141.519 85.876 141.324 81.8043 138.821ZM90.2904 136.777C90.5892 136.583 90.8064 136.341 90.9279 136.065C91.0495 135.79 91.0729 135.488 90.9966 135.178C90.9204 134.869 90.7461 134.558 90.4849 134.267C90.2238 133.975 89.8813 133.709 89.4795 133.485C89.1076 133.246 88.6801 133.048 88.2223 132.902C87.7645 132.756 87.2858 132.666 86.8144 132.636C86.3429 132.607 85.8884 132.639 85.4777 132.731C85.0671 132.822 84.7085 132.972 84.4233 133.17C84.1381 133.369 83.932 133.612 83.8173 133.885C83.7026 134.159 83.6815 134.458 83.7554 134.763C83.8292 135.069 83.9965 135.376 84.2472 135.666C84.498 135.956 84.8272 136.223 85.2153 136.451C85.5816 136.699 86.0089 136.906 86.4698 137.059C86.9307 137.211 87.4152 137.306 87.8926 137.337C88.3699 137.367 88.8296 137.334 89.2424 137.237C89.6552 137.141 90.0121 136.984 90.2904 136.777Z" fill="#1540F2"/>
</g>
<rect x="0.836447" y="-0.0235756" width="288.511" height="139.752" rx="15.5" transform="matrix(0.82102 -0.570899 0.851873 0.523748 0.16979 165.748)" stroke="white" stroke-opacity="0.96"/>
<rect x="0.836447" y="-0.0235756" width="288.511" height="139.752" rx="15.5" transform="matrix(0.82102 -0.570899 0.851873 0.523748 0.16979 165.748)" stroke="#434EC6" stroke-opacity="0.39"/>
<g clip-path="url(#clip1_14_353)">
<rect width="289.423" height="140.803" rx="16" transform="matrix(0.938764 -0.344561 0.691712 0.722173 43.9048 111.716)" fill="url(#paint1_linear_14_353)"/>
<rect x="5.70667" y="1.32164" width="25" height="25" rx="12.5" transform="matrix(0.938764 -0.344561 0.691712 0.722173 117.403 150.309)" fill="white" stroke="#BCCBEA" stroke-width="7"/>
<path d="M144.053 155.762C143.684 155.377 143.427 155.051 143.281 154.785C143.137 154.513 143.076 154.277 143.099 154.078C143.121 153.878 143.204 153.663 143.348 153.432C143.523 153.15 143.623 152.905 143.648 152.695C143.677 152.484 143.596 152.278 143.403 152.078C143.198 151.864 142.938 151.728 142.623 151.67C142.304 151.609 142.004 151.631 141.721 151.734C141.537 151.802 141.398 151.897 141.302 152.021C141.204 152.142 141.164 152.281 141.182 152.439C141.197 152.594 141.278 152.751 141.425 152.91L139.385 153.659C138.946 153.189 138.713 152.747 138.688 152.334C138.663 151.916 138.811 151.546 139.133 151.223C139.451 150.897 139.899 150.628 140.476 150.416C141.101 150.187 141.727 150.059 142.356 150.033C142.989 150.006 143.58 150.089 144.13 150.283C144.684 150.475 145.157 150.776 145.548 151.184C145.923 151.575 146.119 151.955 146.136 152.322C146.152 152.69 146.032 153.066 145.775 153.449C145.638 153.65 145.549 153.835 145.506 154.001C145.465 154.163 145.477 154.33 145.543 154.502C145.609 154.673 145.741 154.863 145.94 155.07L146.072 155.208L144.185 155.901L144.053 155.762ZM147.345 157.823C147.136 157.9 146.903 157.932 146.648 157.919C146.393 157.906 146.147 157.849 145.912 157.749C145.677 157.648 145.483 157.515 145.33 157.349C145.174 157.193 145.083 157.028 145.057 156.855C145.03 156.683 145.069 156.524 145.173 156.379C145.277 156.234 145.434 156.123 145.643 156.046C145.844 155.972 146.07 155.943 146.321 155.957C146.577 155.97 146.823 156.025 147.059 156.12C147.299 156.215 147.497 156.34 147.653 156.496C147.806 156.662 147.896 156.834 147.921 157.012C147.943 157.186 147.904 157.347 147.803 157.495C147.699 157.64 147.547 157.75 147.345 157.823Z" fill="#B6C5E6"/>
<rect x="5.70667" y="1.32164" width="25" height="25" rx="12.5" transform="matrix(0.938764 -0.344561 0.691712 0.722173 154.015 136.871)" fill="white" stroke="#BCCBEA" stroke-width="7"/>
<path d="M180.665 142.325C180.296 141.94 180.039 141.614 179.893 141.347C179.749 141.075 179.688 140.839 179.71 140.64C179.733 140.44 179.816 140.225 179.96 139.995C180.135 139.712 180.235 139.467 180.26 139.257C180.289 139.046 180.207 138.841 180.015 138.64C179.81 138.426 179.55 138.29 179.235 138.232C178.916 138.171 178.615 138.193 178.333 138.296C178.149 138.364 178.01 138.46 177.914 138.584C177.816 138.704 177.776 138.843 177.794 139.001C177.809 139.156 177.89 139.313 178.037 139.473L175.996 140.222C175.557 139.751 175.325 139.309 175.299 138.896C175.275 138.478 175.423 138.108 175.745 137.785C176.063 137.459 176.511 137.19 177.088 136.978C177.713 136.749 178.339 136.622 178.968 136.596C179.6 136.568 180.192 136.651 180.742 136.845C181.296 137.037 181.769 137.338 182.16 137.746C182.535 138.137 182.731 138.517 182.748 138.885C182.764 139.252 182.644 139.628 182.387 140.011C182.25 140.213 182.16 140.397 182.118 140.564C182.076 140.726 182.089 140.892 182.155 141.064C182.221 141.235 182.353 141.425 182.552 141.632L182.684 141.77L180.797 142.463L180.665 142.325ZM183.957 144.386C183.748 144.463 183.515 144.494 183.26 144.481C183.004 144.468 182.759 144.412 182.524 144.311C182.289 144.211 182.095 144.077 181.942 143.911C181.786 143.755 181.695 143.59 181.668 143.418C181.642 143.245 181.681 143.086 181.785 142.941C181.889 142.796 182.045 142.685 182.255 142.608C182.456 142.535 182.682 142.505 182.933 142.52C183.189 142.533 183.434 142.587 183.671 142.683C183.911 142.777 184.109 142.902 184.265 143.058C184.418 143.225 184.507 143.396 184.533 143.574C184.555 143.748 184.516 143.909 184.415 144.057C184.311 144.202 184.158 144.312 183.957 144.386Z" fill="#B6C5E6"/>
<rect x="5.70667" y="1.32164" width="25" height="25" rx="12.5" transform="matrix(0.938764 -0.344561 0.691712 0.722173 190.627 123.433)" fill="white" stroke="#BCCBEA" stroke-width="7"/>
<path d="M217.277 128.887C216.908 128.502 216.651 128.176 216.505 127.909C216.36 127.637 216.299 127.402 216.322 127.202C216.345 127.002 216.428 126.787 216.571 126.557C216.746 126.275 216.846 126.029 216.871 125.819C216.901 125.609 216.819 125.403 216.627 125.202C216.422 124.988 216.162 124.852 215.846 124.795C215.528 124.734 215.227 124.755 214.945 124.858C214.761 124.926 214.621 125.022 214.526 125.146C214.428 125.266 214.388 125.406 214.406 125.563C214.421 125.718 214.502 125.875 214.649 126.035L212.608 126.784C212.169 126.313 211.937 125.871 211.911 125.458C211.887 125.04 212.035 124.67 212.356 124.347C212.674 124.022 213.122 123.753 213.7 123.541C214.325 123.311 214.951 123.184 215.579 123.158C216.212 123.13 216.804 123.213 217.354 123.407C217.908 123.6 218.381 123.9 218.772 124.308C219.147 124.7 219.343 125.079 219.359 125.447C219.376 125.814 219.256 126.19 218.999 126.573C218.862 126.775 218.772 126.959 218.73 127.126C218.688 127.288 218.701 127.454 218.766 127.626C218.832 127.797 218.965 127.987 219.163 128.194L219.296 128.332L217.409 129.025L217.277 128.887ZM220.569 130.948C220.359 131.025 220.127 131.057 219.872 131.044C219.616 131.031 219.371 130.974 219.136 130.873C218.901 130.773 218.707 130.639 218.553 130.473C218.398 130.317 218.307 130.152 218.28 129.98C218.254 129.807 218.292 129.648 218.396 129.503C218.5 129.358 218.657 129.247 218.867 129.17C219.068 129.097 219.294 129.067 219.545 129.082C219.8 129.095 220.046 129.149 220.282 129.245C220.523 129.339 220.721 129.464 220.876 129.621C221.03 129.787 221.119 129.958 221.145 130.136C221.167 130.31 221.128 130.471 221.027 130.62C220.923 130.765 220.77 130.874 220.569 130.948Z" fill="#B6C5E6"/>
<rect x="5.70667" y="1.32164" width="25" height="25" rx="12.5" transform="matrix(0.938764 -0.344561 0.691712 0.722173 227.238 109.995)" fill="white" stroke="#BCCBEA" stroke-width="7"/>
<path d="M253.888 115.449C253.52 115.064 253.262 114.738 253.117 114.471C252.972 114.199 252.911 113.964 252.934 113.764C252.957 113.565 253.04 113.349 253.183 113.119C253.358 112.837 253.458 112.591 253.483 112.382C253.512 112.171 253.431 111.965 253.239 111.764C253.034 111.55 252.774 111.414 252.458 111.357C252.139 111.296 251.839 111.317 251.557 111.421C251.373 111.488 251.233 111.584 251.138 111.708C251.039 111.828 250.999 111.968 251.018 112.126C251.033 112.28 251.114 112.437 251.261 112.597L249.22 113.346C248.781 112.875 248.549 112.433 248.523 112.02C248.498 111.602 248.647 111.232 248.968 110.909C249.286 110.584 249.734 110.315 250.312 110.103C250.936 109.873 251.563 109.746 252.191 109.72C252.824 109.692 253.415 109.775 253.966 109.969C254.52 110.162 254.993 110.462 255.383 110.87C255.759 111.262 255.954 111.641 255.971 112.009C255.988 112.376 255.867 112.752 255.61 113.135C255.474 113.337 255.384 113.521 255.341 113.688C255.3 113.85 255.312 114.017 255.378 114.188C255.444 114.36 255.577 114.549 255.775 114.756L255.908 114.895L254.021 115.587L253.888 115.449ZM257.181 117.51C256.971 117.587 256.739 117.619 256.483 117.606C256.228 117.593 255.983 117.536 255.748 117.435C255.513 117.335 255.318 117.201 255.165 117.035C255.01 116.879 254.918 116.714 254.892 116.542C254.865 116.369 254.904 116.21 255.008 116.065C255.112 115.92 255.269 115.81 255.479 115.733C255.68 115.659 255.906 115.629 256.157 115.644C256.412 115.657 256.658 115.711 256.894 115.807C257.135 115.901 257.333 116.026 257.488 116.183C257.642 116.349 257.731 116.521 257.756 116.698C257.779 116.872 257.739 117.033 257.639 117.182C257.534 117.327 257.382 117.436 257.181 117.51Z" fill="#B6C5E6"/>
<rect x="5.70667" y="1.32164" width="25" height="25" rx="12.5" transform="matrix(0.938764 -0.344561 0.691712 0.722173 263.85 96.5575)" fill="white" stroke="#BCCBEA" stroke-width="7"/>
<path d="M290.5 102.011C290.131 101.626 289.874 101.3 289.729 101.033C289.584 100.762 289.523 100.526 289.546 100.326C289.569 100.127 289.652 99.9116 289.795 99.681C289.97 99.3988 290.07 99.1531 290.095 98.9437C290.124 98.7328 290.043 98.527 289.85 98.3262C289.646 98.1123 289.385 97.9765 289.07 97.9188C288.751 97.8578 288.451 97.8791 288.168 97.9828C287.985 98.0503 287.845 98.146 287.75 98.2699C287.651 98.3906 287.611 98.5298 287.629 98.6877C287.644 98.8423 287.726 98.9994 287.873 99.1589L285.832 99.9079C285.393 99.4375 285.16 98.9956 285.135 98.5825C285.11 98.1645 285.259 97.7942 285.58 97.4716C285.898 97.1458 286.346 96.8769 286.924 96.6649C287.548 96.4356 288.175 96.308 288.803 96.2819C289.436 96.2543 290.027 96.3375 290.577 96.5315C291.132 96.7239 291.604 97.0241 291.995 97.4323C292.37 97.8239 292.566 98.2035 292.583 98.571C292.6 98.9386 292.479 99.3141 292.222 99.6976C292.085 99.899 291.996 100.083 291.953 100.25C291.912 100.412 291.924 100.579 291.99 100.75C292.056 100.922 292.188 101.111 292.387 101.319L292.519 101.457L290.633 102.149L290.5 102.011ZM293.793 104.072C293.583 104.149 293.351 104.181 293.095 104.168C292.84 104.155 292.595 104.098 292.36 103.997C292.125 103.897 291.93 103.764 291.777 103.597C291.621 103.441 291.53 103.277 291.504 103.104C291.477 102.931 291.516 102.773 291.62 102.628C291.724 102.483 291.881 102.372 292.09 102.295C292.291 102.221 292.518 102.191 292.769 102.206C293.024 102.219 293.27 102.273 293.506 102.369C293.746 102.463 293.944 102.588 294.1 102.745C294.253 102.911 294.343 103.083 294.368 103.26C294.391 103.434 294.351 103.596 294.25 103.744C294.146 103.889 293.994 103.998 293.793 104.072Z" fill="#B6C5E6"/>
<rect x="5.70667" y="1.32164" width="25" height="25" rx="12.5" transform="matrix(0.938764 -0.344561 0.691712 0.722173 300.462 83.1196)" fill="white" stroke="#BCCBEA" stroke-width="7"/>
<path d="M327.112 88.5731C326.743 88.1881 326.486 87.8621 326.34 87.5953C326.196 87.3237 326.135 87.088 326.158 86.8884C326.18 86.6888 326.263 86.4737 326.407 86.2431C326.582 85.9609 326.682 85.7152 326.707 85.5058C326.736 85.2949 326.655 85.0891 326.462 84.8883C326.257 84.6744 325.997 84.5386 325.682 84.4809C325.363 84.4199 325.063 84.4413 324.78 84.5449C324.596 84.6124 324.457 84.7081 324.361 84.8321C324.263 84.9527 324.223 85.0919 324.241 85.2498C324.256 85.4044 324.337 85.5615 324.484 85.7211L322.444 86.4701C322.005 85.9996 321.772 85.5578 321.747 85.1446C321.722 84.7266 321.87 84.3563 322.192 84.0338C322.51 83.7079 322.958 83.439 323.535 83.227C324.16 82.9978 324.786 82.8701 325.415 82.8441C326.048 82.8164 326.639 82.8996 327.189 83.0936C327.743 83.286 328.216 83.5863 328.607 83.9944C328.982 84.386 329.178 84.7656 329.195 85.1332C329.211 85.5007 329.091 85.8762 328.834 86.2597C328.697 86.4611 328.608 86.6453 328.565 86.8121C328.524 86.9741 328.536 87.1409 328.602 87.3124C328.668 87.4839 328.8 87.6733 328.999 87.8806L329.131 88.0189L327.244 88.7114L327.112 88.5731ZM330.404 90.6341C330.195 90.711 329.962 90.743 329.707 90.73C329.452 90.7169 329.206 90.6601 328.971 90.5596C328.736 90.4591 328.542 90.3257 328.389 90.1596C328.233 90.0032 328.142 89.8387 328.115 89.666C328.089 89.4934 328.128 89.3346 328.232 89.1897C328.336 89.0448 328.493 88.9338 328.702 88.8569C328.903 88.7831 329.129 88.7535 329.38 88.7681C329.636 88.7811 329.881 88.8355 330.118 88.9312C330.358 89.0253 330.556 89.1505 330.712 89.3069C330.865 89.4731 330.955 89.6449 330.98 89.8224C331.002 89.9966 330.963 90.1578 330.862 90.306C330.758 90.4509 330.606 90.5603 330.404 90.6341Z" fill="#B6C5E6"/>
<rect width="83" height="16" rx="5" transform="matrix(0.938764 -0.344561 0.691712 0.722173 235.363 63.8927)" fill="white" fill-opacity="0.2"/>
<rect width="251" height="16" rx="5" transform="matrix(0.938764 -0.344561 0.691712 0.722173 138.521 185.33)" fill="white" fill-opacity="0.2"/>
<path d="M96.5323 117.084L103.244 124.091L99.3523 125.52L93.0969 118.989C91.9815 117.824 91.0058 117.418 90.1783 117.721C89.1085 118.114 89.2569 119.043 90.6046 120.45L96.4715 126.576L92.6809 127.967L86.4254 121.436C85.3417 120.305 84.3373 119.864 83.5226 120.163C82.4675 120.55 82.6041 121.509 83.9342 122.897L89.8011 129.023L85.9093 130.451L75.211 119.282L77.9475 118.277L79.6518 119.274C79.6019 118.649 79.7402 118.08 80.0574 117.607C80.3745 117.133 80.8629 116.766 81.4889 116.531C82.1101 116.283 82.8763 116.194 83.7174 116.274C84.5584 116.353 85.4475 116.599 86.3034 116.987C86.2242 116.319 86.3536 115.71 86.6817 115.204C87.0098 114.699 87.5281 114.311 88.1976 114.069C90.6181 113.181 94.0075 114.456 96.5273 117.087" fill="#1540F2"/>
<path d="M99.0283 118.088C95.711 114.625 95.9779 111.164 99.6626 109.811C103.347 108.459 108.383 109.975 111.699 113.437C115.015 116.9 114.737 120.367 111.065 121.715C107.392 123.064 102.335 121.54 99.0283 118.088ZM107.754 118.259C108.092 118.146 108.363 117.967 108.55 117.731C108.738 117.496 108.837 117.209 108.841 116.891C108.846 116.572 108.755 116.228 108.576 115.88C108.397 115.532 108.133 115.188 107.801 114.869C107.502 114.544 107.138 114.244 106.732 113.987C106.327 113.73 105.886 113.521 105.438 113.374C104.989 113.226 104.541 113.142 104.121 113.127C103.7 113.112 103.316 113.165 102.99 113.285C102.664 113.405 102.403 113.588 102.223 113.823C102.043 114.059 101.947 114.343 101.941 114.657C101.935 114.972 102.019 115.311 102.189 115.655C102.358 115.998 102.609 116.34 102.927 116.658C103.219 116.991 103.579 117.3 103.987 117.564C104.394 117.828 104.839 118.042 105.293 118.193C105.747 118.343 106.2 118.427 106.624 118.438C107.047 118.45 107.432 118.389 107.754 118.259Z" fill="#1540F2"/>
<path d="M122.708 112.385L125.936 115.755L123.258 116.738C122.761 116.982 122.147 117.109 121.46 117.112C120.773 117.114 120.03 116.99 119.282 116.75C118.535 116.51 117.801 116.159 117.133 115.722C116.465 115.285 115.879 114.772 115.416 114.219L111.383 110.008L109.315 110.768L108.454 109.869L108.414 102.679L109.214 102.386L112.343 105.652L115.181 104.61L118.019 107.573L115.279 108.579L118.684 112.134C118.835 112.313 119.025 112.479 119.242 112.62C119.459 112.761 119.697 112.874 119.94 112.951C120.182 113.027 120.423 113.066 120.644 113.063C120.866 113.061 121.063 113.018 121.222 112.937L122.708 112.385Z" fill="#1540F2"/>
<path d="M131.416 109.189L134.644 112.559L131.966 113.542C131.469 113.786 130.855 113.913 130.168 113.915C129.481 113.917 128.738 113.794 127.991 113.554C127.243 113.314 126.51 112.963 125.842 112.526C125.174 112.088 124.588 111.575 124.124 111.023L120.091 106.812L118.023 107.571L117.162 106.673L117.119 99.4843L117.918 99.1907L121.047 102.457L123.886 101.415L126.723 104.378L123.983 105.384L127.389 108.939C127.54 109.118 127.73 109.283 127.947 109.423C128.164 109.564 128.401 109.676 128.643 109.752C128.885 109.828 129.124 109.866 129.346 109.863C129.567 109.861 129.763 109.818 129.922 109.737L131.416 109.189Z" fill="#1540F2"/>
<path d="M129.725 106.821C126.408 103.358 126.674 99.8971 130.359 98.5447C134.044 97.1922 139.079 98.7083 142.395 102.171C145.712 105.633 145.434 109.101 141.761 110.449C138.088 111.797 133.031 110.273 129.725 106.821ZM138.45 106.992C138.788 106.88 139.06 106.7 139.247 106.465C139.434 106.229 139.533 105.943 139.538 105.624C139.542 105.305 139.452 104.961 139.273 104.613C139.094 104.265 138.83 103.921 138.498 103.603C138.198 103.277 137.835 102.977 137.429 102.72C137.023 102.463 136.583 102.255 136.134 102.107C135.686 101.959 135.238 101.875 134.817 101.86C134.397 101.845 134.012 101.899 133.686 102.018C133.36 102.138 133.099 102.321 132.919 102.557C132.739 102.792 132.643 103.076 132.638 103.39C132.632 103.705 132.716 104.044 132.885 104.388C133.055 104.732 133.306 105.073 133.623 105.392C133.915 105.725 134.276 106.033 134.683 106.297C135.091 106.562 135.535 106.776 135.989 106.926C136.443 107.077 136.897 107.16 137.32 107.172C137.744 107.183 138.129 107.122 138.45 106.992Z" fill="#1540F2"/>
</g>
<rect x="0.815238" y="0.188806" width="288.423" height="139.803" rx="15.5" transform="matrix(0.938764 -0.344561 0.691712 0.722173 43.8242 112.049)" stroke="white" stroke-opacity="0.96"/>
<rect x="0.815238" y="0.188806" width="288.423" height="139.803" rx="15.5" transform="matrix(0.938764 -0.344561 0.691712 0.722173 43.8242 112.049)" stroke="#434EC6" stroke-opacity="0.39"/>
<defs>
<linearGradient id="paint0_linear_14_353" x1="6.16359" y1="5.45861" x2="283.134" y2="152.478" gradientUnits="userSpaceOnUse">
<stop stop-color="#DAEBFF"/>
<stop offset="1" stop-color="#B3C1E3"/>
</linearGradient>
<linearGradient id="paint1_linear_14_353" x1="6.16171" y1="5.46059" x2="283.129" y2="152.381" gradientUnits="userSpaceOnUse">
<stop stop-color="#DAEBFF"/>
<stop offset="1" stop-color="#B3C1E3"/>
</linearGradient>
<clipPath id="clip0_14_353">
<rect width="289.511" height="140.752" rx="16" transform="matrix(0.82102 -0.570899 0.851873 0.523748 0 165.282)" fill="white"/>
</clipPath>
<clipPath id="clip1_14_353">
<rect width="289.423" height="140.803" rx="16" transform="matrix(0.938764 -0.344561 0.691712 0.722173 43.9048 111.716)" fill="white"/>
</clipPath>
</defs>
</svg>
