<svg width="216" height="71" viewBox="0 0 216 71" fill="none" xmlns="http://www.w3.org/2000/svg">
<g id="img_top">
<path id="main-color2" d="M79 16.0454H37C33.134 16.0454 30 19.1794 30 23.0454V30.2575C30 34.1235 33.134 37.2575 37 37.2575H79C82.866 37.2575 86 34.1235 86 30.2575V23.0454C86 19.1794 82.866 16.0454 79 16.0454Z" fill="black" fill-opacity="0.28"/>
<path id="main-color" d="M79 13.5H37C33.134 13.5 30 16.634 30 20.5V27.7121C30 31.5781 33.134 34.7121 37 34.7121H79C82.866 34.7121 86 31.5781 86 27.7121V20.5C86 16.634 82.866 13.5 79 13.5Z" fill="#1F1F1F"/>
<path id="Vector" d="M44.2169 25.7802V27.1662H36.4409V25.7802H39.5549V24.9162H36.8729V21.7842H42.2909V21.2622H36.8549V19.9302H43.7939V23.0532H38.3759V23.5842H43.8839V24.9162H41.1029V25.7802H44.2169ZM48.7971 24.5022H45.4581V19.9302H48.7791V21.3432H46.9611V23.0982H48.7971V24.5022ZM52.5411 24.5022H49.1121V19.9302H52.4511V21.3432H50.6151V23.0982H52.5411V24.5022ZM52.8741 25.7532V27.1662H45.0981V25.7532H48.2301V24.8082H49.7511V25.7532H52.8741ZM58.9058 27.4812C58.3958 27.4812 57.9278 27.3732 57.5018 27.1572C57.0818 26.9472 56.7458 26.6502 56.4938 26.2662C56.2478 25.8762 56.1248 25.4262 56.1248 24.9162C56.1248 24.5802 56.1788 24.2652 56.2868 23.9712C56.3948 23.6712 56.5628 23.3382 56.7908 22.9722L58.6808 19.9752H60.5348L58.8698 22.4592C58.9298 22.4352 58.9988 22.4232 59.0768 22.4232C59.5508 22.4232 59.9858 22.5282 60.3818 22.7382C60.7838 22.9482 61.1018 23.2422 61.3358 23.6202C61.5698 23.9982 61.6868 24.4272 61.6868 24.9072C61.6868 25.3992 61.5608 25.8402 61.3088 26.2302C61.0628 26.6202 60.7268 26.9262 60.3008 27.1482C59.8808 27.3702 59.4158 27.4812 58.9058 27.4812ZM58.9058 26.0952C59.2658 26.0952 59.5538 25.9842 59.7698 25.7622C59.9858 25.5402 60.0938 25.2612 60.0938 24.9252C60.0938 24.5892 59.9858 24.3102 59.7698 24.0882C59.5538 23.8662 59.2658 23.7552 58.9058 23.7552C58.5458 23.7552 58.2578 23.8662 58.0418 24.0882C57.8258 24.3102 57.7178 24.5892 57.7178 24.9252C57.7178 25.2612 57.8258 25.5402 58.0418 25.7622C58.2578 25.9842 58.5458 26.0952 58.9058 26.0952ZM70.5968 25.8342H67.3028V24.4842L70.1378 19.9752H72.1448V24.4842H73.1078V25.8342H72.1448V27.3102H70.5968V25.8342ZM70.5968 24.4842V21.6582L68.8688 24.4842H70.5968ZM76.2621 27.4812C75.4761 27.4812 74.8461 27.2742 74.3721 26.8602C73.9041 26.4462 73.6401 25.8822 73.5801 25.1682H75.1911C75.2571 25.7862 75.6141 26.0952 76.2621 26.0952C76.5921 26.0952 76.8531 25.9872 77.0451 25.7712C77.2371 25.5492 77.3331 25.2672 77.3331 24.9252C77.3331 24.5772 77.2341 24.2982 77.0361 24.0882C76.8441 23.8722 76.5771 23.7642 76.2351 23.7642C75.7851 23.7642 75.4401 23.9292 75.2001 24.2592H73.7151L73.9311 19.9752H78.5661V21.3702H75.4161L75.3351 22.7472C75.6771 22.5432 76.0701 22.4412 76.5141 22.4412C76.9941 22.4412 77.4141 22.5402 77.7741 22.7382C78.1401 22.9362 78.4221 23.2242 78.6201 23.6022C78.8241 23.9742 78.9261 24.4152 78.9261 24.9252C78.9261 25.4292 78.8091 25.8762 78.5751 26.2662C78.3471 26.6502 78.0291 26.9472 77.6211 27.1572C77.2191 27.3732 76.7661 27.4812 76.2621 27.4812Z" fill="white"/>
<path id="Vector_2" d="M63.6124 27.8501H62.0374L65.3314 19.4351H66.9064L63.6124 27.8501Z" fill="white" fill-opacity="0.33"/>
<path id="main-color_2" d="M101.412 22.0827V24.0507H100.212V26.0187H98.1839V20.3787H100.212V22.0827H101.412ZM97.7039 25.2507C97.4399 25.3627 97.0879 25.4507 96.6479 25.5147C96.2079 25.5787 95.7439 25.6107 95.2559 25.6107H90.8159V20.4987H97.1159V22.1667H92.8439V23.9547H95.3399C95.8119 23.9547 96.2559 23.9267 96.6719 23.8707C97.0959 23.8067 97.4399 23.7227 97.7039 23.6187V25.2507ZM95.6879 26.1627C97.0879 26.1627 98.2079 26.3467 99.0479 26.7147C99.8879 27.0747 100.308 27.6547 100.308 28.4547C100.308 29.2547 99.8879 29.8347 99.0479 30.1947C98.2079 30.5627 97.0879 30.7467 95.6879 30.7467C94.2879 30.7467 93.1679 30.5627 92.3279 30.1947C91.4879 29.8347 91.0679 29.2547 91.0679 28.4547C91.0679 27.6547 91.4879 27.0747 92.3279 26.7147C93.1679 26.3467 94.2879 26.1627 95.6879 26.1627ZM95.6879 29.1267C96.4239 29.1267 97.0119 29.0747 97.4519 28.9707C97.8999 28.8587 98.1239 28.6867 98.1239 28.4547C98.1239 28.2307 97.8999 28.0627 97.4519 27.9507C97.0039 27.8387 96.4159 27.7827 95.6879 27.7827C94.9599 27.7827 94.3719 27.8387 93.9239 27.9507C93.4759 28.0627 93.2519 28.2307 93.2519 28.4547C93.2519 28.6867 93.4719 28.8587 93.9119 28.9707C94.3599 29.0747 94.9519 29.1267 95.6879 29.1267ZM112.091 20.3787V26.3547H110.063V24.1227H108.719V22.7787H106.715C106.651 23.0347 106.595 23.2227 106.547 23.3427L109.307 24.8307L108.395 26.3187L105.659 24.8067C105.235 25.2707 104.735 25.6427 104.159 25.9227C103.591 26.2027 102.975 26.3507 102.311 26.3667V24.6627C102.887 24.6147 103.379 24.4147 103.787 24.0627C104.203 23.7107 104.487 23.2827 104.639 22.7787H102.431V21.1467H104.687V20.1987H106.751V21.1467H109.007V22.3227H110.063V20.3787H112.091ZM102.923 26.7147H112.091V30.6267H102.923V26.7147ZM104.939 29.0427H110.075V28.2987H104.939V29.0427ZM120.214 26.4867H113.962V20.4987H115.942V21.7947H118.234V20.4987H120.214V22.4787H121.606V20.3787H123.634V27.9627H121.606V24.3867H120.214V26.4867ZM118.234 24.7947V23.4507H115.942V24.7947H118.234ZM123.778 28.8027V30.6267H114.466V27.0867H116.53V28.8027H123.778ZM135.249 23.0067H125.553V21.2307H129.357V20.2467H131.445V21.2307H135.249V23.0067ZM135.585 28.4667V30.2667H125.217V28.4667H129.369V27.5667C128.289 27.4947 127.441 27.2867 126.825 26.9427C126.209 26.5987 125.901 26.1107 125.901 25.4787C125.901 24.7507 126.305 24.2147 127.113 23.8707C127.929 23.5267 129.025 23.3547 130.401 23.3547C131.777 23.3547 132.869 23.5267 133.677 23.8707C134.493 24.2147 134.901 24.7507 134.901 25.4787C134.901 26.1107 134.593 26.5987 133.977 26.9427C133.361 27.2867 132.513 27.4947 131.433 27.5667V28.4667H135.585ZM127.977 25.4787C127.977 25.8067 128.785 25.9707 130.401 25.9707C132.017 25.9707 132.825 25.8067 132.825 25.4787C132.825 25.1507 132.017 24.9867 130.401 24.9867C128.785 24.9867 127.977 25.1507 127.977 25.4787ZM147.584 25.9947H146.408V30.6267H144.38V20.3787H146.408V24.0267H147.584V25.9947ZM141.152 28.2507C141.664 28.2507 142.156 28.2187 142.628 28.1547C143.1 28.0827 143.488 27.9787 143.792 27.8427V29.7387C143.488 29.8747 143.1 29.9747 142.628 30.0387C142.156 30.1107 141.648 30.1467 141.104 30.1467H136.76V28.2507H139.136V26.7507C138.464 26.5587 137.928 26.1907 137.528 25.6467C137.136 25.0947 136.94 24.4347 136.94 23.6667C136.94 23.0347 137.076 22.4747 137.348 21.9867C137.62 21.4987 138 21.1227 138.488 20.8587C138.976 20.5867 139.528 20.4507 140.144 20.4507C140.76 20.4507 141.312 20.5867 141.8 20.8587C142.296 21.1227 142.684 21.4987 142.964 21.9867C143.244 22.4747 143.384 23.0347 143.384 23.6667C143.384 24.4267 143.18 25.0827 142.772 25.6347C142.372 26.1867 141.832 26.5587 141.152 26.7507V28.2507ZM140.144 22.2627C139.76 22.2627 139.456 22.3947 139.232 22.6587C139.008 22.9147 138.896 23.2507 138.896 23.6667C138.896 24.0827 139.008 24.4227 139.232 24.6867C139.456 24.9427 139.76 25.0707 140.144 25.0707C140.528 25.0707 140.84 24.9387 141.08 24.6747C141.32 24.4107 141.44 24.0747 141.44 23.6667C141.44 23.2587 141.32 22.9227 141.08 22.6587C140.84 22.3947 140.528 22.2627 140.144 22.2627ZM162.034 24.7587V26.3187H151.666V24.7587H155.842V24.1947H152.29V20.3787H161.41V21.9267H154.306V22.6467H161.53V24.1947H157.858V24.7587H162.034ZM156.85 26.7147C158.322 26.7147 159.474 26.8787 160.306 27.2067C161.138 27.5267 161.554 28.0387 161.554 28.7427C161.554 29.4467 161.138 29.9587 160.306 30.2787C159.474 30.6067 158.322 30.7707 156.85 30.7707C155.378 30.7707 154.226 30.6067 153.394 30.2787C152.562 29.9587 152.146 29.4467 152.146 28.7427C152.146 28.0387 152.562 27.5267 153.394 27.2067C154.226 26.8787 155.378 26.7147 156.85 26.7147ZM156.85 29.2587C158.546 29.2587 159.394 29.0867 159.394 28.7427C159.394 28.5667 159.166 28.4387 158.71 28.3587C158.254 28.2707 157.634 28.2267 156.85 28.2267C156.066 28.2267 155.446 28.2707 154.99 28.3587C154.534 28.4387 154.306 28.5667 154.306 28.7427C154.306 29.0867 155.154 29.2587 156.85 29.2587ZM173.121 25.3947H171.093V20.3787H173.121V25.3947ZM166.569 20.3907C167.233 20.3907 167.813 20.4947 168.309 20.7027C168.805 20.9107 169.189 21.2027 169.461 21.5787C169.733 21.9547 169.869 22.3867 169.869 22.8747C169.869 23.3707 169.733 23.8067 169.461 24.1827C169.189 24.5507 168.805 24.8387 168.309 25.0467C167.813 25.2547 167.233 25.3587 166.569 25.3587C165.905 25.3587 165.325 25.2547 164.829 25.0467C164.333 24.8387 163.949 24.5507 163.677 24.1827C163.405 23.8067 163.269 23.3707 163.269 22.8747C163.269 22.3867 163.405 21.9547 163.677 21.5787C163.949 21.2027 164.333 20.9107 164.829 20.7027C165.325 20.4947 165.905 20.3907 166.569 20.3907ZM166.569 21.9867C166.177 21.9867 165.861 22.0667 165.621 22.2267C165.389 22.3867 165.273 22.6027 165.273 22.8747C165.273 23.1467 165.389 23.3627 165.621 23.5227C165.861 23.6827 166.177 23.7627 166.569 23.7627C166.961 23.7627 167.273 23.6827 167.505 23.5227C167.745 23.3627 167.865 23.1467 167.865 22.8747C167.865 22.6027 167.745 22.3867 167.505 22.2267C167.273 22.0667 166.961 21.9867 166.569 21.9867ZM173.121 28.8147H166.089V29.2227H173.229V30.6267H164.085V27.5667H171.117V27.1587H164.061V25.7547H173.121V28.8147ZM184.664 20.3787V30.6267H182.636V20.3787H184.664ZM179.72 20.6547C179.72 22.1267 179.588 23.4867 179.324 24.7347L182.36 28.9587L180.716 30.1347L178.604 27.0747C178.172 28.0587 177.632 28.8147 176.984 29.3427C176.344 29.8707 175.632 30.1387 174.848 30.1467V28.0587C175.392 27.9947 175.876 27.6427 176.3 27.0027C176.724 26.3547 177.056 25.4747 177.296 24.3627C177.536 23.2507 177.656 21.9907 177.656 20.5827L179.72 20.6547Z" fill="#1F1F1F"/>
<path id="main-color333" d="M48.6639 52.0602C48.1306 52.7429 47.4639 53.2869 46.6639 53.6922C45.8746 54.0869 44.9946 54.2895 44.0239 54.3002V51.8842C44.7919 51.8415 45.4479 51.5695 45.9919 51.0682C46.5466 50.5562 46.9199 49.9109 47.1119 49.1322H44.3119V46.7002H47.1599V45.3242H49.9119V46.7002H52.7599V49.1322H49.8959C49.8639 49.3775 49.8052 49.6549 49.7199 49.9642L53.4319 52.3162L51.9759 54.2842L48.6639 52.0602ZM57.0319 45.5002V59.1642H54.3279V45.5002H57.0319ZM50.0079 56.0442C50.6906 56.0442 51.3466 56.0015 51.9759 55.9162C52.6159 55.8202 53.1386 55.6815 53.5439 55.5002V57.9802C53.1386 58.1615 52.6212 58.2949 51.9919 58.3802C51.3626 58.4762 50.6852 58.5242 49.9599 58.5242H43.7839V56.0442H47.1439V54.0122H49.8319V56.0442H50.0079ZM72.7745 45.5002V59.1642H70.2465V53.0842H69.1105V58.9242H66.6145V45.5642H69.1105V50.5242H70.2465V45.5002H72.7745ZM62.7905 56.1562C63.3452 56.1562 63.9105 56.1189 64.4865 56.0442C65.0732 55.9589 65.5692 55.8415 65.9745 55.6922V58.0282C65.5905 58.1882 65.0785 58.3109 64.4385 58.3962C63.7985 58.4815 63.1692 58.5242 62.5505 58.5242H59.4145V45.8202H65.3825V48.1882H62.0225V56.1562H62.7905Z" fill="#F69876"/>
<path id="main-color333_2" d="M81.3129 57.3541H77.5843V43.8199H74.6179V40.5651H81.3129V57.3541ZM87.1443 59.0021H84.4045L85.1461 53.6667H88.4215L87.1443 59.0021ZM96.0372 40.1119C97.287 40.1119 98.3925 40.4484 99.3538 41.1213C100.329 41.7805 101.091 42.7762 101.641 44.1083C102.19 45.4267 102.465 47.0404 102.465 48.9493C102.465 50.8582 102.19 52.4719 101.641 53.7903C101.091 55.1087 100.329 56.0975 99.3538 56.7567C98.3925 57.4296 97.287 57.7661 96.0372 57.7661C94.7875 57.7661 93.6751 57.4296 92.7 56.7567C91.7387 56.0975 90.9834 55.1087 90.434 53.7903C89.8847 52.4719 89.61 50.8582 89.61 48.9493C89.61 47.0404 89.8847 45.4267 90.434 44.1083C90.9834 42.7762 91.7387 41.7805 92.7 41.1213C93.6751 40.4484 94.7875 40.1119 96.0372 40.1119ZM96.0372 43.3873C95.172 43.3873 94.4716 43.8542 93.936 44.7881C93.4142 45.722 93.1532 47.109 93.1532 48.9493C93.1532 50.7758 93.4142 52.156 93.936 53.0899C94.4716 54.0238 95.172 54.4907 96.0372 54.4907C96.9024 54.4907 97.596 54.0238 98.1178 53.0899C98.6534 52.156 98.9212 50.7758 98.9212 48.9493C98.9212 47.109 98.6534 45.722 98.1178 44.7881C97.596 43.8542 96.9024 43.3873 96.0372 43.3873ZM110.542 40.1119C111.792 40.1119 112.897 40.4484 113.858 41.1213C114.833 41.7805 115.596 42.7762 116.145 44.1083C116.694 45.4267 116.969 47.0404 116.969 48.9493C116.969 50.8582 116.694 52.4719 116.145 53.7903C115.596 55.1087 114.833 56.0975 113.858 56.7567C112.897 57.4296 111.792 57.7661 110.542 57.7661C109.292 57.7661 108.18 57.4296 107.205 56.7567C106.243 56.0975 105.488 55.1087 104.939 53.7903C104.389 52.4719 104.115 50.8582 104.115 48.9493C104.115 47.0404 104.389 45.4267 104.939 44.1083C105.488 42.7762 106.243 41.7805 107.205 41.1213C108.18 40.4484 109.292 40.1119 110.542 40.1119ZM110.542 43.3873C109.677 43.3873 108.976 43.8542 108.441 44.7881C107.919 45.722 107.658 47.109 107.658 48.9493C107.658 50.7758 107.919 52.156 108.441 53.0899C108.976 54.0238 109.677 54.4907 110.542 54.4907C111.407 54.4907 112.101 54.0238 112.622 53.0899C113.158 52.156 113.426 50.7758 113.426 48.9493C113.426 47.109 113.158 45.722 112.622 44.7881C112.101 43.8542 111.407 43.3873 110.542 43.3873ZM125.046 40.1119C126.296 40.1119 127.402 40.4484 128.363 41.1213C129.338 41.7805 130.1 42.7762 130.65 44.1083C131.199 45.4267 131.474 47.0404 131.474 48.9493C131.474 50.8582 131.199 52.4719 130.65 53.7903C130.1 55.1087 129.338 56.0975 128.363 56.7567C127.402 57.4296 126.296 57.7661 125.046 57.7661C123.797 57.7661 122.684 57.4296 121.709 56.7567C120.748 56.0975 119.992 55.1087 119.443 53.7903C118.894 52.4719 118.619 50.8582 118.619 48.9493C118.619 47.0404 118.894 45.4267 119.443 44.1083C119.992 42.7762 120.748 41.7805 121.709 41.1213C122.684 40.4484 123.797 40.1119 125.046 40.1119ZM125.046 43.3873C124.181 43.3873 123.481 43.8542 122.945 44.7881C122.423 45.722 122.162 47.109 122.162 48.9493C122.162 50.7758 122.423 52.156 122.945 53.0899C123.481 54.0238 124.181 54.4907 125.046 54.4907C125.912 54.4907 126.605 54.0238 127.127 53.0899C127.663 52.156 127.93 50.7758 127.93 48.9493C127.93 47.109 127.663 45.722 127.127 44.7881C126.605 43.8542 125.912 43.3873 125.046 43.3873ZM151.89 43.5521V46.9305H149.83V53.0693H146.349V40.0501H149.83V43.5521H151.89ZM144.433 50.2677H133.7V40.2561H144.433V50.2677ZM140.993 43.2019H137.141V47.3219H140.993V43.2019ZM137.841 54.5113H150.077V57.6425H134.298V51.4831H137.841V54.5113ZM159.387 47.0335C157.753 47.0335 156.441 46.7314 155.452 46.1271C154.477 45.5091 153.99 44.6164 153.99 43.4491C153.99 42.2818 154.477 41.396 155.452 40.7917C156.441 40.1737 157.753 39.8647 159.387 39.8647C161.021 39.8647 162.326 40.1737 163.301 40.7917C164.29 41.396 164.784 42.2818 164.784 43.4491C164.784 44.6164 164.29 45.5091 163.301 46.1271C162.326 46.7314 161.021 47.0335 159.387 47.0335ZM166.782 50.8033V40.0501H170.264V53.7079H166.782V53.2135H162.25V50.8033H166.782ZM159.387 42.4191C158.755 42.4191 158.254 42.5084 157.883 42.6869C157.526 42.8517 157.347 43.1058 157.347 43.4491C157.347 43.7924 157.526 44.0534 157.883 44.2319C158.254 44.3967 158.755 44.4791 159.387 44.4791C160.019 44.4791 160.513 44.3967 160.87 44.2319C161.241 44.0534 161.426 43.7924 161.426 43.4491C161.426 43.1058 161.241 42.8517 160.87 42.6869C160.513 42.5084 160.019 42.4191 159.387 42.4191ZM170.511 54.7379V57.6425H154.525V52.0599H157.327V50.3089H153.124V47.6309H161.22C162.127 47.6309 162.985 47.5828 163.795 47.4867C164.606 47.3768 165.265 47.212 165.773 46.9923V49.6703C164.798 50.096 163.26 50.3089 161.158 50.3089H160.788V52.9663H158.007V54.7379H170.511Z" fill="#F06B4C"/>
</g>
</svg>
