<svg width="416" height="300" viewBox="0 0 416 300" fill="none" xmlns="http://www.w3.org/2000/svg">
<g id="img_multi_check" clip-path="url(#clip0_73_843)">
<g id="Clip path group">
<mask id="mask0_73_843" style="mask-type:luminance" maskUnits="userSpaceOnUse" x="0" y="0" width="416" height="300">
<g id="clip0_28_1308">
<path id="Vector" d="M416 0.5H0V299.5H416V0.5Z" fill="white"/>
</g>
</mask>
<g mask="url(#mask0_73_843)">
<g id="Group">
<g id="Clip path group_2">
<mask id="mask1_73_843" style="mask-type:luminance" maskUnits="userSpaceOnUse" x="19" y="55" width="354" height="179">
<g id="clip1_28_1308">
<path id="Vector_2" d="M275.917 55.7009L27.4388 123.306C18.9122 125.626 16.4909 133.088 22.0308 139.972L90.21 224.699C95.7499 231.583 107.153 235.283 115.68 232.963L364.158 165.358C372.684 163.038 375.106 155.577 369.566 148.692L301.387 63.9656C295.847 57.0813 284.444 53.381 275.917 55.7009Z" fill="white"/>
</g>
</mask>
<g mask="url(#mask1_73_843)">
<g id="Group_2">
<path id="Vector_3" d="M275.917 55.7009L27.4388 123.306C18.9122 125.626 16.4909 133.088 22.0308 139.972L90.21 224.699C95.7499 231.583 107.153 235.283 115.68 232.963L364.158 165.358C372.684 163.038 375.106 155.577 369.566 148.692L301.387 63.9656C295.847 57.0813 284.444 53.381 275.917 55.7009Z" fill="url(#paint0_linear_73_843)"/>
<path id="Vector_4" d="M120.194 174.991C115.866 169.613 106.957 166.722 100.295 168.534C93.634 170.347 91.7424 176.176 96.0704 181.554C100.398 186.933 109.307 189.824 115.969 188.011C122.63 186.199 124.522 180.369 120.194 174.991Z" fill="white" stroke="#BCCBEA" stroke-width="7"/>
<path id="Vector_5" d="M107.979 180.012C107.645 179.596 107.417 179.249 107.295 178.971C107.174 178.688 107.134 178.448 107.174 178.251C107.214 178.054 107.315 177.847 107.478 177.629C107.676 177.363 107.797 177.127 107.84 176.921C107.887 176.713 107.824 176.501 107.649 176.284C107.464 176.054 107.216 175.896 106.907 175.811C106.595 175.723 106.294 175.718 106.003 175.797C105.814 175.849 105.667 175.932 105.561 176.047C105.453 176.159 105.401 176.295 105.406 176.453C105.407 176.609 105.475 176.772 105.607 176.944L103.51 177.515C103.113 177.008 102.919 176.548 102.929 176.134C102.941 175.715 103.121 175.359 103.469 175.065C103.814 174.768 104.283 174.539 104.877 174.377C105.519 174.202 106.154 174.129 106.782 174.157C107.415 174.184 107.997 174.318 108.528 174.559C109.064 174.798 109.509 175.138 109.863 175.578C110.203 176.001 110.366 176.396 110.351 176.763C110.336 177.131 110.183 177.495 109.894 177.855C109.741 178.044 109.635 178.22 109.579 178.382C109.523 178.54 109.521 178.707 109.572 178.884C109.623 179.06 109.739 179.26 109.919 179.484L110.039 179.633L108.099 180.161L107.979 180.012ZM111.082 182.349C110.867 182.407 110.632 182.419 110.379 182.384C110.126 182.349 109.886 182.271 109.661 182.151C109.435 182.031 109.253 181.881 109.115 181.702C108.973 181.533 108.897 181.361 108.885 181.187C108.873 181.013 108.926 180.858 109.042 180.722C109.158 180.587 109.324 180.49 109.539 180.431C109.746 180.375 109.974 180.365 110.223 180.401C110.476 180.436 110.716 180.511 110.943 180.627C111.175 180.742 111.361 180.883 111.503 181.053C111.641 181.231 111.715 181.41 111.725 181.589C111.733 181.765 111.68 181.922 111.566 182.061C111.45 182.196 111.289 182.292 111.082 182.349Z" fill="#B6C5E6"/>
<path id="Vector_6" d="M157.826 164.753C153.498 159.374 144.589 156.484 137.928 158.296C131.266 160.108 129.375 165.938 133.703 171.316C138.031 176.695 146.939 179.585 153.601 177.773C160.262 175.961 162.154 170.131 157.826 164.753Z" fill="white" stroke="#BCCBEA" stroke-width="7"/>
<path id="Vector_7" d="M145.612 169.773C145.277 169.358 145.049 169.011 144.927 168.732C144.806 168.449 144.766 168.209 144.806 168.012C144.846 167.815 144.947 167.608 145.11 167.391C145.308 167.125 145.429 166.888 145.472 166.682C145.519 166.474 145.456 166.262 145.282 166.046C145.096 165.815 144.848 165.657 144.539 165.572C144.227 165.484 143.926 165.48 143.635 165.559C143.446 165.61 143.299 165.693 143.193 165.809C143.085 165.92 143.033 166.056 143.038 166.215C143.039 166.37 143.107 166.533 143.239 166.705L141.142 167.276C140.745 166.769 140.551 166.309 140.561 165.895C140.573 165.477 140.753 165.12 141.101 164.827C141.446 164.529 141.915 164.3 142.509 164.138C143.151 163.964 143.786 163.89 144.414 163.919C145.047 163.945 145.629 164.079 146.16 164.32C146.696 164.559 147.141 164.899 147.495 165.339C147.835 165.762 147.998 166.157 147.983 166.525C147.968 166.892 147.815 167.256 147.526 167.616C147.373 167.805 147.268 167.981 147.211 168.143C147.156 168.301 147.153 168.468 147.204 168.645C147.255 168.822 147.371 169.022 147.551 169.245L147.671 169.394L145.732 169.922L145.612 169.773ZM148.714 172.11C148.499 172.168 148.264 172.18 148.011 172.145C147.758 172.11 147.518 172.033 147.293 171.912C147.067 171.792 146.885 171.642 146.747 171.464C146.605 171.294 146.529 171.123 146.517 170.948C146.506 170.774 146.558 170.619 146.674 170.484C146.79 170.348 146.956 170.251 147.171 170.193C147.378 170.136 147.606 170.126 147.855 170.162C148.108 170.197 148.348 170.273 148.575 170.388C148.807 170.503 148.993 170.645 149.135 170.814C149.273 170.993 149.347 171.171 149.357 171.35C149.365 171.526 149.312 171.683 149.198 171.822C149.082 171.958 148.921 172.054 148.714 172.11Z" fill="#B6C5E6"/>
<path id="Vector_8" d="M195.458 154.514C191.13 149.136 182.221 146.245 175.56 148.057C168.899 149.87 167.007 155.699 171.335 161.077C175.663 166.456 184.572 169.347 191.233 167.534C197.895 165.722 199.786 159.892 195.458 154.514Z" fill="white" stroke="#BCCBEA" stroke-width="7"/>
<path id="Vector_9" d="M183.243 159.534C182.909 159.119 182.681 158.772 182.559 158.494C182.438 158.21 182.398 157.97 182.438 157.773C182.477 157.576 182.579 157.369 182.741 157.152C182.94 156.886 183.061 156.65 183.104 156.443C183.151 156.235 183.088 156.023 182.913 155.807C182.728 155.576 182.48 155.418 182.171 155.334C181.859 155.246 181.557 155.241 181.267 155.32C181.078 155.371 180.931 155.455 180.825 155.57C180.717 155.682 180.665 155.817 180.669 155.976C180.671 156.131 180.738 156.295 180.871 156.466L178.774 157.037C178.377 156.53 178.183 156.07 178.193 155.656C178.205 155.238 178.385 154.882 178.732 154.588C179.077 154.291 179.547 154.061 180.14 153.9C180.782 153.725 181.418 153.652 182.046 153.68C182.679 153.707 183.261 153.84 183.792 154.081C184.328 154.321 184.773 154.66 185.127 155.101C185.467 155.523 185.63 155.918 185.614 156.286C185.599 156.653 185.447 157.017 185.158 157.377C185.005 157.566 184.899 157.742 184.843 157.905C184.787 158.062 184.785 158.23 184.836 158.406C184.887 158.583 185.003 158.783 185.183 159.007L185.303 159.156L183.363 159.683L183.243 159.534ZM186.346 161.871C186.13 161.93 185.896 161.941 185.643 161.906C185.39 161.872 185.15 161.794 184.925 161.673C184.699 161.553 184.517 161.403 184.379 161.225C184.237 161.056 184.161 160.884 184.149 160.709C184.137 160.535 184.19 160.38 184.306 160.245C184.422 160.109 184.588 160.012 184.803 159.954C185.01 159.897 185.238 159.887 185.486 159.924C185.74 159.959 185.98 160.034 186.207 160.15C186.438 160.264 186.625 160.406 186.766 160.575C186.905 160.754 186.979 160.933 186.989 161.112C186.996 161.287 186.943 161.444 186.83 161.583C186.714 161.719 186.553 161.815 186.346 161.871Z" fill="#B6C5E6"/>
<path id="Vector_10" d="M233.09 144.275C228.762 138.896 219.853 136.006 213.192 137.818C206.531 139.63 204.639 145.46 208.967 150.838C213.295 156.217 222.204 159.107 228.865 157.295C235.526 155.483 237.418 149.653 233.09 144.275Z" fill="white" stroke="#BCCBEA" stroke-width="7"/>
<path id="Vector_11" d="M220.875 149.295C220.541 148.88 220.313 148.533 220.191 148.254C220.07 147.971 220.03 147.731 220.07 147.534C220.11 147.337 220.211 147.13 220.374 146.913C220.572 146.647 220.693 146.411 220.736 146.204C220.783 145.996 220.72 145.784 220.545 145.568C220.36 145.337 220.112 145.179 219.803 145.095C219.491 145.006 219.19 145.002 218.899 145.081C218.71 145.132 218.563 145.216 218.457 145.331C218.349 145.443 218.297 145.578 218.302 145.737C218.303 145.892 218.371 146.056 218.503 146.227L216.406 146.798C216.009 146.291 215.815 145.831 215.825 145.417C215.837 144.999 216.017 144.643 216.365 144.349C216.71 144.052 217.179 143.822 217.773 143.661C218.415 143.486 219.05 143.413 219.678 143.441C220.311 143.468 220.893 143.601 221.424 143.842C221.96 144.082 222.405 144.421 222.759 144.862C223.099 145.284 223.262 145.679 223.247 146.047C223.231 146.414 223.079 146.778 222.79 147.138C222.637 147.327 222.531 147.503 222.475 147.666C222.419 147.823 222.417 147.991 222.468 148.167C222.519 148.344 222.635 148.544 222.815 148.768L222.935 148.917L220.995 149.444L220.875 149.295ZM223.978 151.632C223.763 151.691 223.528 151.702 223.275 151.667C223.022 151.633 222.782 151.555 222.557 151.434C222.331 151.314 222.149 151.164 222.011 150.986C221.869 150.817 221.793 150.645 221.781 150.47C221.769 150.296 221.822 150.141 221.938 150.006C222.054 149.87 222.22 149.773 222.435 149.715C222.642 149.658 222.87 149.648 223.119 149.685C223.372 149.72 223.612 149.795 223.839 149.911C224.071 150.025 224.257 150.167 224.399 150.336C224.537 150.515 224.611 150.694 224.621 150.873C224.629 151.048 224.576 151.205 224.462 151.344C224.346 151.48 224.185 151.576 223.978 151.632Z" fill="#B6C5E6"/>
<path id="Vector_12" d="M270.722 134.036C266.394 128.658 257.486 125.767 250.824 127.579C244.163 129.392 242.271 135.221 246.599 140.599C250.927 145.978 259.836 148.869 266.497 147.056C273.159 145.244 275.05 139.414 270.722 134.036Z" fill="white" stroke="#BCCBEA" stroke-width="7"/>
<path id="Vector_13" d="M258.508 139.056C258.173 138.641 257.945 138.294 257.823 138.016C257.702 137.733 257.662 137.493 257.702 137.296C257.742 137.099 257.843 136.892 258.006 136.674C258.204 136.408 258.325 136.172 258.368 135.965C258.415 135.758 258.352 135.546 258.178 135.329C257.992 135.098 257.744 134.941 257.435 134.856C257.123 134.768 256.822 134.763 256.531 134.842C256.342 134.894 256.195 134.977 256.089 135.092C255.981 135.204 255.929 135.339 255.934 135.498C255.935 135.653 256.003 135.817 256.135 135.989L254.038 136.559C253.641 136.053 253.447 135.592 253.457 135.179C253.469 134.76 253.649 134.404 253.997 134.11C254.342 133.813 254.811 133.583 255.405 133.422C256.047 133.247 256.682 133.174 257.31 133.202C257.943 133.229 258.525 133.363 259.056 133.603C259.592 133.843 260.037 134.183 260.391 134.623C260.731 135.045 260.894 135.44 260.879 135.808C260.864 136.176 260.711 136.54 260.422 136.9C260.269 137.088 260.164 137.264 260.107 137.427C260.052 137.585 260.049 137.752 260.1 137.928C260.151 138.105 260.267 138.305 260.447 138.529L260.567 138.678L258.628 139.206L258.508 139.056ZM261.61 141.393C261.395 141.452 261.16 141.464 260.907 141.429C260.654 141.394 260.414 141.316 260.189 141.196C259.963 141.075 259.781 140.926 259.643 140.747C259.501 140.578 259.425 140.406 259.413 140.232C259.402 140.057 259.454 139.903 259.57 139.767C259.686 139.632 259.852 139.535 260.067 139.476C260.274 139.42 260.502 139.41 260.751 139.446C261.004 139.481 261.244 139.556 261.471 139.672C261.703 139.786 261.889 139.928 262.031 140.097C262.169 140.276 262.243 140.455 262.253 140.634C262.261 140.809 262.208 140.967 262.094 141.106C261.978 141.241 261.817 141.337 261.61 141.393Z" fill="#B6C5E6"/>
<path id="Vector_14" d="M308.354 123.797C304.026 118.418 295.117 115.527 288.456 117.34C281.795 119.152 279.903 124.982 284.231 130.36C288.559 135.739 297.468 138.629 304.129 136.817C310.791 135.004 312.682 129.175 308.354 123.797Z" fill="white" stroke="#BCCBEA" stroke-width="7"/>
<path id="Vector_15" d="M296.139 128.818C295.805 128.402 295.577 128.055 295.455 127.777C295.334 127.494 295.294 127.254 295.334 127.057C295.373 126.86 295.475 126.653 295.637 126.435C295.836 126.169 295.957 125.933 296 125.727C296.047 125.519 295.984 125.307 295.809 125.09C295.624 124.859 295.376 124.702 295.067 124.617C294.755 124.529 294.453 124.524 294.163 124.603C293.974 124.655 293.827 124.738 293.721 124.853C293.613 124.965 293.561 125.1 293.565 125.259C293.567 125.415 293.634 125.578 293.767 125.75L291.67 126.32C291.273 125.814 291.079 125.354 291.089 124.94C291.101 124.521 291.281 124.165 291.628 123.871C291.973 123.574 292.443 123.345 293.036 123.183C293.678 123.008 294.314 122.935 294.942 122.963C295.575 122.99 296.157 123.124 296.688 123.365C297.224 123.604 297.669 123.944 298.023 124.384C298.363 124.807 298.526 125.202 298.51 125.569C298.495 125.937 298.343 126.301 298.054 126.661C297.901 126.85 297.795 127.025 297.739 127.188C297.683 127.346 297.681 127.513 297.732 127.69C297.783 127.866 297.899 128.066 298.079 128.29L298.199 128.439L296.259 128.967L296.139 128.818ZM299.242 131.154C299.026 131.213 298.792 131.225 298.539 131.19C298.286 131.155 298.046 131.077 297.821 130.957C297.595 130.836 297.413 130.687 297.275 130.508C297.133 130.339 297.057 130.167 297.045 129.993C297.033 129.819 297.086 129.664 297.202 129.528C297.318 129.393 297.484 129.296 297.699 129.237C297.906 129.181 298.134 129.171 298.382 129.207C298.636 129.242 298.876 129.317 299.103 129.433C299.334 129.547 299.521 129.689 299.662 129.859C299.801 130.037 299.875 130.216 299.885 130.395C299.892 130.571 299.839 130.728 299.726 130.867C299.61 131.002 299.449 131.098 299.242 131.154Z" fill="#B6C5E6"/>
<path id="Vector_16" d="M282.124 75.8539L211.684 95.0189C209.02 95.7438 208.263 98.0756 209.994 100.227L213.756 104.901C215.487 107.053 219.051 108.209 221.715 107.484L292.155 88.3192C294.819 87.5942 295.576 85.2625 293.845 83.1111L290.083 78.4366C288.352 76.2853 284.788 75.1289 282.124 75.8539Z" fill="white" fill-opacity="0.2"/>
<path id="Vector_17" d="M337.293 144.413L104.746 207.683C102.082 208.408 101.325 210.74 103.056 212.891L106.818 217.566C108.549 219.717 112.113 220.874 114.777 220.149L347.324 156.878C349.988 156.153 350.745 153.821 349.014 151.67L345.252 146.995C343.521 144.844 339.958 143.688 337.293 144.413Z" fill="white" fill-opacity="0.2"/>
</g>
</g>
</g>
<path id="Vector_18" d="M276.23 56.0905L27.7522 123.696C19.4921 125.943 17.1465 133.172 22.5132 139.841L90.6925 224.567C96.0592 231.237 107.106 234.821 115.366 232.574L363.844 164.968C372.105 162.721 374.45 155.493 369.083 148.823L300.904 64.0969C295.537 57.4277 284.491 53.8431 276.23 56.0905Z" stroke="white" stroke-opacity="0.96"/>
<path id="Vector_19" d="M276.23 56.0905L27.7522 123.696C19.4921 125.943 17.1465 133.172 22.5132 139.841L90.6925 224.567C96.0592 231.237 107.106 234.821 115.366 232.574L363.844 164.968C372.105 162.721 374.45 155.493 369.083 148.823L300.904 64.0969C295.537 57.4277 284.491 53.8431 276.23 56.0905Z" stroke="#434EC6" stroke-opacity="0.39"/>
<g id="Clip path group_3">
<mask id="mask2_73_843" style="mask-type:luminance" maskUnits="userSpaceOnUse" x="46" y="73" width="354" height="179">
<g id="clip2_28_1308">
<path id="Vector_20" d="M302.917 73.7009L54.4388 141.306C45.9122 143.626 43.4909 151.088 49.0308 157.972L117.21 242.699C122.75 249.583 134.153 253.283 142.68 250.963L391.158 183.358C399.684 181.038 402.106 173.577 396.566 166.692L328.387 81.9656C322.847 75.0813 311.444 71.381 302.917 73.7009Z" fill="white"/>
</g>
</mask>
<g mask="url(#mask2_73_843)">
<g id="Group_3">
<path id="Vector_21" d="M302.917 73.7009L54.4388 141.306C45.9122 143.626 43.4909 151.088 49.0308 157.972L117.21 242.699C122.75 249.583 134.153 253.283 142.68 250.963L391.158 183.358C399.684 181.038 402.106 173.577 396.566 166.692L328.387 81.9656C322.847 75.0813 311.444 71.381 302.917 73.7009Z" fill="url(#paint1_linear_73_843)"/>
<path id="Vector_22" d="M147.194 192.991C142.866 187.613 133.957 184.722 127.296 186.534C120.635 188.347 118.743 194.176 123.071 199.554C127.399 204.933 136.308 207.824 142.969 206.011C149.63 204.199 151.522 198.369 147.194 192.991Z" fill="white" stroke="#BCCBEA" stroke-width="7"/>
<path id="Vector_23" d="M134.979 198.012C134.645 197.596 134.417 197.249 134.295 196.971C134.174 196.688 134.134 196.448 134.174 196.251C134.214 196.054 134.315 195.847 134.478 195.629C134.676 195.363 134.797 195.127 134.84 194.921C134.887 194.713 134.824 194.501 134.649 194.284C134.464 194.054 134.216 193.896 133.907 193.811C133.595 193.723 133.294 193.718 133.003 193.797C132.814 193.849 132.667 193.932 132.561 194.047C132.453 194.159 132.401 194.295 132.406 194.453C132.407 194.609 132.475 194.772 132.607 194.944L130.51 195.515C130.113 195.008 129.919 194.548 129.929 194.134C129.941 193.715 130.121 193.359 130.469 193.065C130.814 192.768 131.283 192.539 131.877 192.377C132.519 192.202 133.154 192.129 133.782 192.157C134.415 192.184 134.997 192.318 135.528 192.559C136.064 192.798 136.509 193.138 136.863 193.578C137.203 194.001 137.366 194.396 137.351 194.763C137.336 195.131 137.183 195.495 136.894 195.855C136.741 196.044 136.635 196.22 136.579 196.382C136.523 196.54 136.521 196.707 136.572 196.884C136.623 197.06 136.739 197.26 136.919 197.484L137.039 197.633L135.099 198.161L134.979 198.012ZM138.082 200.349C137.867 200.407 137.632 200.419 137.379 200.384C137.126 200.349 136.886 200.271 136.661 200.151C136.435 200.031 136.253 199.881 136.115 199.702C135.973 199.533 135.897 199.361 135.885 199.187C135.873 199.013 135.926 198.858 136.042 198.722C136.158 198.587 136.324 198.49 136.539 198.431C136.746 198.375 136.974 198.365 137.223 198.401C137.476 198.436 137.716 198.511 137.943 198.627C138.175 198.742 138.361 198.883 138.503 199.053C138.641 199.231 138.715 199.41 138.725 199.589C138.733 199.765 138.68 199.922 138.566 200.061C138.45 200.196 138.289 200.292 138.082 200.349Z" fill="#B6C5E6"/>
<path id="Vector_24" d="M184.826 182.753C180.498 177.374 171.589 174.484 164.928 176.296C158.266 178.108 156.375 183.938 160.703 189.316C165.031 194.695 173.939 197.585 180.601 195.773C187.262 193.961 189.154 188.131 184.826 182.753Z" fill="white" stroke="#BCCBEA" stroke-width="7"/>
<path id="Vector_25" d="M172.612 187.773C172.277 187.358 172.049 187.011 171.927 186.732C171.806 186.449 171.766 186.209 171.806 186.012C171.846 185.815 171.947 185.608 172.11 185.391C172.308 185.125 172.429 184.888 172.472 184.682C172.519 184.474 172.456 184.262 172.282 184.046C172.096 183.815 171.848 183.657 171.539 183.572C171.227 183.484 170.926 183.48 170.635 183.559C170.446 183.61 170.299 183.693 170.193 183.809C170.085 183.92 170.033 184.056 170.038 184.215C170.039 184.37 170.107 184.533 170.239 184.705L168.142 185.276C167.745 184.769 167.551 184.309 167.561 183.895C167.573 183.477 167.753 183.12 168.101 182.827C168.446 182.529 168.915 182.3 169.509 182.138C170.151 181.964 170.786 181.89 171.414 181.919C172.047 181.945 172.629 182.079 173.16 182.32C173.696 182.559 174.141 182.899 174.495 183.339C174.835 183.762 174.998 184.157 174.983 184.525C174.968 184.892 174.815 185.256 174.526 185.616C174.373 185.805 174.268 185.981 174.211 186.143C174.156 186.301 174.153 186.468 174.204 186.645C174.255 186.822 174.371 187.022 174.551 187.245L174.671 187.394L172.732 187.922L172.612 187.773ZM175.714 190.11C175.499 190.168 175.264 190.18 175.011 190.145C174.758 190.11 174.518 190.033 174.293 189.912C174.067 189.792 173.885 189.642 173.747 189.464C173.605 189.294 173.529 189.123 173.517 188.948C173.506 188.774 173.558 188.619 173.674 188.484C173.79 188.348 173.956 188.251 174.171 188.193C174.378 188.136 174.606 188.126 174.855 188.162C175.108 188.197 175.348 188.273 175.575 188.388C175.807 188.503 175.993 188.645 176.135 188.814C176.273 188.993 176.347 189.171 176.357 189.35C176.365 189.526 176.312 189.683 176.198 189.822C176.082 189.958 175.921 190.054 175.714 190.11Z" fill="#B6C5E6"/>
<path id="Vector_26" d="M222.458 172.514C218.13 167.136 209.221 164.245 202.56 166.057C195.899 167.87 194.007 173.699 198.335 179.077C202.663 184.456 211.572 187.347 218.233 185.534C224.895 183.722 226.786 177.892 222.458 172.514Z" fill="white" stroke="#BCCBEA" stroke-width="7"/>
<path id="Vector_27" d="M210.243 177.534C209.909 177.119 209.681 176.772 209.559 176.494C209.438 176.21 209.398 175.97 209.438 175.773C209.477 175.576 209.579 175.369 209.741 175.152C209.94 174.886 210.061 174.65 210.104 174.443C210.151 174.235 210.088 174.023 209.913 173.807C209.728 173.576 209.48 173.418 209.171 173.334C208.859 173.246 208.557 173.241 208.267 173.32C208.078 173.371 207.931 173.455 207.825 173.57C207.717 173.682 207.665 173.817 207.669 173.976C207.671 174.131 207.738 174.295 207.871 174.466L205.774 175.037C205.377 174.53 205.183 174.07 205.193 173.656C205.205 173.238 205.385 172.882 205.732 172.588C206.077 172.291 206.547 172.061 207.14 171.9C207.782 171.725 208.418 171.652 209.046 171.68C209.679 171.707 210.261 171.84 210.792 172.081C211.328 172.321 211.773 172.66 212.127 173.101C212.467 173.523 212.63 173.918 212.614 174.286C212.599 174.653 212.447 175.017 212.158 175.377C212.005 175.566 211.899 175.742 211.843 175.905C211.787 176.062 211.785 176.23 211.836 176.406C211.887 176.583 212.003 176.783 212.183 177.007L212.303 177.156L210.363 177.683L210.243 177.534ZM213.346 179.871C213.13 179.93 212.896 179.941 212.643 179.906C212.39 179.872 212.15 179.794 211.925 179.673C211.699 179.553 211.517 179.403 211.379 179.225C211.237 179.056 211.161 178.884 211.149 178.709C211.137 178.535 211.19 178.38 211.306 178.245C211.422 178.109 211.588 178.012 211.803 177.954C212.01 177.897 212.238 177.887 212.486 177.924C212.74 177.959 212.98 178.034 213.207 178.15C213.438 178.264 213.625 178.406 213.766 178.575C213.905 178.754 213.979 178.933 213.989 179.112C213.996 179.287 213.943 179.444 213.83 179.583C213.714 179.719 213.553 179.815 213.346 179.871Z" fill="#B6C5E6"/>
<path id="Vector_28" d="M260.09 162.275C255.762 156.896 246.853 154.006 240.192 155.818C233.531 157.63 231.639 163.46 235.967 168.838C240.295 174.217 249.204 177.107 255.865 175.295C262.526 173.483 264.418 167.653 260.09 162.275Z" fill="white" stroke="#BCCBEA" stroke-width="7"/>
<path id="Vector_29" d="M247.875 167.295C247.541 166.88 247.313 166.533 247.191 166.254C247.07 165.971 247.03 165.731 247.07 165.534C247.11 165.337 247.211 165.13 247.374 164.913C247.572 164.647 247.693 164.411 247.736 164.204C247.783 163.996 247.72 163.784 247.545 163.568C247.36 163.337 247.112 163.179 246.803 163.095C246.491 163.006 246.19 163.002 245.899 163.081C245.71 163.132 245.563 163.216 245.457 163.331C245.349 163.443 245.297 163.578 245.302 163.737C245.303 163.892 245.371 164.056 245.503 164.227L243.406 164.798C243.009 164.291 242.815 163.831 242.825 163.417C242.837 162.999 243.017 162.643 243.365 162.349C243.71 162.052 244.179 161.822 244.773 161.661C245.415 161.486 246.05 161.413 246.678 161.441C247.311 161.468 247.893 161.601 248.424 161.842C248.96 162.082 249.405 162.421 249.759 162.862C250.099 163.284 250.262 163.679 250.247 164.047C250.231 164.414 250.079 164.778 249.79 165.138C249.637 165.327 249.531 165.503 249.475 165.666C249.419 165.823 249.417 165.991 249.468 166.167C249.519 166.344 249.635 166.544 249.815 166.768L249.935 166.917L247.995 167.444L247.875 167.295ZM250.978 169.632C250.763 169.691 250.528 169.702 250.275 169.667C250.022 169.633 249.782 169.555 249.557 169.434C249.331 169.314 249.149 169.164 249.011 168.986C248.869 168.817 248.793 168.645 248.781 168.47C248.769 168.296 248.822 168.141 248.938 168.006C249.054 167.87 249.22 167.773 249.435 167.715C249.642 167.658 249.87 167.648 250.119 167.685C250.372 167.72 250.612 167.795 250.839 167.911C251.071 168.025 251.257 168.167 251.399 168.336C251.537 168.515 251.611 168.694 251.621 168.873C251.629 169.048 251.576 169.205 251.462 169.344C251.346 169.48 251.185 169.576 250.978 169.632Z" fill="#B6C5E6"/>
<path id="Vector_30" d="M297.722 152.036C293.394 146.658 284.486 143.767 277.824 145.579C271.163 147.392 269.271 153.221 273.599 158.599C277.927 163.978 286.836 166.869 293.497 165.056C300.159 163.244 302.05 157.414 297.722 152.036Z" fill="white" stroke="#BCCBEA" stroke-width="7"/>
<path id="Vector_31" d="M285.508 157.056C285.173 156.641 284.945 156.294 284.823 156.016C284.702 155.733 284.662 155.493 284.702 155.296C284.742 155.099 284.843 154.892 285.006 154.674C285.204 154.408 285.325 154.172 285.368 153.965C285.415 153.758 285.352 153.546 285.178 153.329C284.992 153.098 284.744 152.941 284.435 152.856C284.123 152.768 283.822 152.763 283.531 152.842C283.342 152.894 283.195 152.977 283.089 153.092C282.981 153.204 282.929 153.339 282.934 153.498C282.935 153.653 283.003 153.817 283.135 153.989L281.038 154.559C280.641 154.053 280.447 153.592 280.457 153.179C280.469 152.76 280.649 152.404 280.997 152.11C281.342 151.813 281.811 151.583 282.405 151.422C283.047 151.247 283.682 151.174 284.31 151.202C284.943 151.229 285.525 151.363 286.056 151.603C286.592 151.843 287.037 152.183 287.391 152.623C287.731 153.045 287.894 153.44 287.879 153.808C287.864 154.176 287.711 154.54 287.422 154.9C287.269 155.088 287.164 155.264 287.107 155.427C287.052 155.585 287.049 155.752 287.1 155.928C287.151 156.105 287.267 156.305 287.447 156.529L287.567 156.678L285.628 157.206L285.508 157.056ZM288.61 159.393C288.395 159.452 288.16 159.464 287.907 159.429C287.654 159.394 287.414 159.316 287.189 159.196C286.963 159.075 286.781 158.926 286.643 158.747C286.501 158.578 286.425 158.406 286.413 158.232C286.402 158.057 286.454 157.903 286.57 157.767C286.686 157.632 286.852 157.535 287.067 157.476C287.274 157.42 287.502 157.41 287.751 157.446C288.004 157.481 288.244 157.556 288.471 157.672C288.703 157.786 288.889 157.928 289.031 158.097C289.169 158.276 289.243 158.455 289.253 158.634C289.261 158.809 289.208 158.967 289.094 159.106C288.978 159.241 288.817 159.337 288.61 159.393Z" fill="#B6C5E6"/>
<path id="Vector_32" d="M335.354 141.797C331.026 136.418 322.117 133.527 315.456 135.34C308.795 137.152 306.903 142.982 311.231 148.36C315.559 153.739 324.468 156.629 331.129 154.817C337.791 153.004 339.682 147.175 335.354 141.797Z" fill="white" stroke="#BCCBEA" stroke-width="7"/>
<path id="Vector_33" d="M323.139 146.818C322.805 146.402 322.577 146.055 322.455 145.777C322.334 145.494 322.294 145.254 322.334 145.057C322.373 144.86 322.475 144.653 322.637 144.435C322.836 144.169 322.957 143.933 323 143.727C323.047 143.519 322.984 143.307 322.809 143.09C322.624 142.859 322.376 142.702 322.067 142.617C321.755 142.529 321.453 142.524 321.163 142.603C320.974 142.655 320.827 142.738 320.721 142.853C320.613 142.965 320.561 143.1 320.565 143.259C320.567 143.415 320.634 143.578 320.767 143.75L318.67 144.32C318.273 143.814 318.079 143.354 318.089 142.94C318.101 142.521 318.281 142.165 318.628 141.871C318.973 141.574 319.443 141.345 320.036 141.183C320.678 141.008 321.314 140.935 321.942 140.963C322.575 140.99 323.157 141.124 323.688 141.365C324.224 141.604 324.669 141.944 325.023 142.384C325.363 142.807 325.526 143.202 325.51 143.569C325.495 143.937 325.343 144.301 325.054 144.661C324.901 144.85 324.795 145.025 324.739 145.188C324.683 145.346 324.681 145.513 324.732 145.69C324.783 145.866 324.899 146.066 325.079 146.29L325.199 146.439L323.259 146.967L323.139 146.818ZM326.242 149.154C326.026 149.213 325.792 149.225 325.539 149.19C325.286 149.155 325.046 149.077 324.821 148.957C324.595 148.836 324.413 148.687 324.275 148.508C324.133 148.339 324.057 148.167 324.045 147.993C324.033 147.819 324.086 147.664 324.202 147.528C324.318 147.393 324.484 147.296 324.699 147.237C324.906 147.181 325.134 147.171 325.382 147.207C325.636 147.242 325.876 147.317 326.103 147.433C326.334 147.547 326.521 147.689 326.662 147.859C326.801 148.037 326.875 148.216 326.885 148.395C326.892 148.571 326.839 148.728 326.726 148.867C326.61 149.002 326.449 149.098 326.242 149.154Z" fill="#B6C5E6"/>
<path id="Vector_34" d="M309.124 93.8544L238.684 113.019C236.02 113.744 235.263 116.076 236.994 118.227L240.756 122.902C242.487 125.053 246.051 126.21 248.715 125.485L319.155 106.32C321.819 105.595 322.576 103.263 320.845 101.112L317.083 96.4371C315.352 94.2857 311.788 93.1294 309.124 93.8544Z" fill="white" fill-opacity="0.2"/>
<path id="Vector_35" d="M364.293 162.413L131.746 225.683C129.082 226.408 128.325 228.74 130.056 230.891L133.818 235.566C135.549 237.717 139.113 238.874 141.777 238.149L374.324 174.878C376.988 174.153 377.745 171.821 376.014 169.67L372.252 164.995C370.521 162.844 366.958 161.688 364.293 162.413Z" fill="white" fill-opacity="0.2"/>
<path id="Vector_36" d="M89.5625 153.621L94.3104 159.522L90.3089 160.61L85.8839 155.111C85.0949 154.131 84.2655 153.776 83.4148 154.007C82.3148 154.307 82.2438 155.073 83.1972 156.258L87.3473 161.415L83.4498 162.475L79.0248 156.976C78.2582 156.024 77.4095 155.64 76.5718 155.868C75.487 156.163 75.3982 156.953 76.3391 158.123L80.4892 163.28L76.4878 164.369L68.9199 154.964L71.7335 154.199L73.1171 155.054C73.212 154.54 73.472 154.076 73.8792 153.694C74.2865 153.312 74.8313 153.021 75.4761 152.842C76.1196 152.651 76.8635 152.595 77.64 152.678C78.4165 152.762 79.2007 152.983 79.9209 153.32C79.998 152.77 80.2588 152.272 80.6837 151.864C81.1086 151.456 81.6865 151.149 82.3739 150.965C84.8626 150.288 87.7746 151.409 89.5571 153.624" fill="#1540F2"/>
<path id="Vector_37" d="M91.6926 154.5C89.346 151.584 90.3849 148.748 94.1734 147.717C97.9619 146.686 102.374 148.04 104.72 150.956C107.066 153.871 106.015 156.713 102.239 157.74C98.4627 158.767 94.0314 157.407 91.6926 154.5ZM99.897 154.83C100.242 154.745 100.539 154.603 100.77 154.414C101 154.224 101.159 153.991 101.235 153.73C101.312 153.468 101.305 153.183 101.215 152.893C101.125 152.604 100.954 152.316 100.712 152.047C100.504 151.773 100.229 151.519 99.9034 151.299C99.5782 151.079 99.2097 150.899 98.8194 150.768C98.4292 150.637 98.0253 150.558 97.6315 150.536C97.2378 150.515 96.8622 150.55 96.527 150.642C96.1918 150.733 95.9038 150.878 95.6801 151.067C95.4563 151.257 95.3013 151.488 95.2243 151.746C95.1473 152.004 95.1498 152.284 95.2316 152.57C95.3134 152.856 95.4729 153.142 95.7007 153.411C95.9005 153.69 96.1714 153.952 96.4962 154.177C96.8209 154.403 97.1924 154.589 97.5871 154.722C97.9818 154.856 98.391 154.934 98.7886 154.953C99.1863 154.971 99.5638 154.929 99.897 154.83Z" fill="#1540F2"/>
<path id="Vector_38" d="M115.36 150.33L117.644 153.167L114.89 153.916C114.365 154.106 113.756 154.197 113.107 154.184C112.457 154.171 111.783 154.054 111.132 153.84C110.48 153.627 109.867 153.323 109.335 152.949C108.804 152.576 108.366 152.142 108.054 151.678L105.201 148.133L103.075 148.711L102.466 147.955L104.063 142.049L104.885 141.825L107.099 144.576L110.017 143.782L112.024 146.276L109.207 147.043L111.616 150.037C111.718 150.187 111.86 150.327 112.033 150.448C112.206 150.568 112.405 150.666 112.616 150.734C112.828 150.803 113.046 150.839 113.256 150.842C113.466 150.845 113.663 150.814 113.831 150.75L115.36 150.33Z" fill="#1540F2"/>
<path id="Vector_39" d="M124.314 147.894L126.597 150.731L123.844 151.48C123.319 151.67 122.71 151.761 122.06 151.748C121.411 151.735 120.737 151.618 120.085 151.404C119.434 151.191 118.82 150.887 118.289 150.513C117.757 150.14 117.32 149.706 117.008 149.242L114.155 145.697L112.029 146.275L111.42 145.518L113.012 139.614L113.835 139.39L116.048 142.141L118.967 141.347L120.974 143.841L118.156 144.608L120.565 147.602C120.668 147.751 120.81 147.891 120.983 148.011C121.156 148.131 121.355 148.228 121.566 148.296C121.777 148.364 121.995 148.4 122.204 148.403C122.414 148.406 122.609 148.374 122.778 148.311L124.314 147.894Z" fill="#1540F2"/>
<path id="Vector_40" d="M123.254 145.913C120.908 142.997 121.946 140.16 125.735 139.129C129.523 138.099 133.936 139.453 136.282 142.368C138.628 145.284 137.577 148.125 133.801 149.153C130.024 150.18 125.593 148.819 123.254 145.913ZM131.459 146.242C131.804 146.157 132.101 146.016 132.331 145.826C132.562 145.637 132.72 145.404 132.797 145.142C132.873 144.88 132.867 144.596 132.777 144.306C132.687 144.016 132.515 143.728 132.274 143.46C132.065 143.186 131.79 142.931 131.465 142.712C131.14 142.492 130.771 142.311 130.381 142.18C129.991 142.049 129.587 141.97 129.193 141.949C128.799 141.927 128.424 141.963 128.089 142.054C127.753 142.145 127.465 142.29 127.242 142.48C127.018 142.669 126.863 142.9 126.786 143.158C126.709 143.416 126.711 143.697 126.793 143.983C126.875 144.269 127.034 144.555 127.262 144.823C127.462 145.103 127.733 145.364 128.058 145.59C128.382 145.816 128.754 146.001 129.149 146.135C129.543 146.268 129.952 146.347 130.35 146.365C130.748 146.384 131.125 146.342 131.459 146.242Z" fill="#1540F2"/>
</g>
</g>
</g>
<path id="Vector_41" d="M303.23 74.0905L54.7522 141.696C46.4921 143.943 44.1465 151.172 49.5132 157.841L117.692 242.567C123.059 249.237 134.106 252.821 142.366 250.574L390.844 182.968C399.105 180.721 401.45 173.493 396.083 166.823L327.904 82.0969C322.537 75.4277 311.491 71.8431 303.23 74.0905Z" stroke="white" stroke-opacity="0.96"/>
<path id="Vector_42" d="M303.23 74.0905L54.7522 141.696C46.4921 143.943 44.1465 151.172 49.5132 157.841L117.692 242.567C123.059 249.237 134.106 252.821 142.366 250.574L390.844 182.968C399.105 180.721 401.45 173.493 396.083 166.823L327.904 82.0969C322.537 75.4277 311.491 71.8431 303.23 74.0905Z" stroke="#434EC6" stroke-opacity="0.39"/>
<g id="Clip path group_4">
<mask id="mask3_73_843" style="mask-type:luminance" maskUnits="userSpaceOnUse" x="8" y="35" width="343" height="230">
<g id="clip3_28_1308">
<path id="Vector_43" d="M225.558 39.6341L14.1363 186.647C6.88133 191.692 7.10234 199.533 14.63 204.161L107.273 261.12C114.8 265.748 126.784 265.41 134.039 260.365L345.461 113.353C352.716 108.308 352.495 100.466 344.967 95.8383L252.324 38.8797C244.797 34.2516 232.813 34.5893 225.558 39.6341Z" fill="white"/>
</g>
</mask>
<g mask="url(#mask3_73_843)">
<g id="Group_4">
<path id="Vector_44" d="M225.558 39.6341L14.1363 186.647C6.88133 191.692 7.10234 199.533 14.63 204.161L107.273 261.12C114.8 265.748 126.784 265.41 134.039 260.365L345.461 113.353C352.716 108.308 352.495 100.466 344.967 95.8383L252.324 38.8797C244.797 34.2516 232.813 34.5893 225.558 39.6341Z" fill="url(#paint2_linear_73_843)"/>
<path id="Vector_45" d="M118.853 204.236C112.972 200.621 103.609 200.884 97.9415 204.826C92.2735 208.767 92.4462 214.893 98.3271 218.509C104.208 222.124 113.57 221.861 119.238 217.919C124.906 213.978 124.734 207.852 118.853 204.236Z" fill="white" stroke="#BCCBEA" stroke-width="7"/>
<path id="Vector_46" d="M109.029 213.062C108.575 212.783 108.243 212.532 108.035 212.311C107.826 212.085 107.708 211.872 107.679 211.673C107.651 211.474 107.677 211.245 107.757 210.986C107.855 210.669 107.89 210.406 107.861 210.197C107.836 209.985 107.705 209.807 107.468 209.661C107.216 209.506 106.93 209.44 106.61 209.464C106.286 209.486 106.001 209.583 105.754 209.754C105.593 209.866 105.482 209.994 105.422 210.138C105.357 210.28 105.353 210.425 105.411 210.573C105.465 210.719 105.583 210.85 105.765 210.967L103.981 212.208C103.437 211.864 103.1 211.495 102.971 211.102C102.841 210.704 102.891 210.308 103.121 209.915C103.346 209.519 103.711 209.145 104.216 208.794C104.763 208.414 105.336 208.132 105.938 207.948C106.543 207.761 107.136 207.692 107.717 207.741C108.302 207.787 108.836 207.958 109.317 208.253C109.779 208.538 110.064 208.855 110.174 209.207C110.283 209.558 110.261 209.952 110.11 210.388C110.028 210.617 109.988 210.818 109.989 210.99C109.99 211.158 110.044 211.316 110.151 211.465C110.259 211.614 110.434 211.764 110.679 211.915L110.842 212.015L109.192 213.162L109.029 213.062ZM112.736 214.223C112.552 214.351 112.335 214.44 112.085 214.492C111.835 214.544 111.583 214.551 111.33 214.514C111.077 214.476 110.856 214.396 110.665 214.274C110.475 214.162 110.346 214.026 110.276 213.866C110.207 213.705 110.204 213.542 110.268 213.375C110.332 213.209 110.456 213.062 110.639 212.934C110.815 212.812 111.026 212.726 111.273 212.677C111.523 212.625 111.775 212.615 112.027 212.648C112.284 212.678 112.507 212.749 112.697 212.861C112.887 212.983 113.017 213.127 113.087 213.292C113.153 213.455 113.155 213.621 113.095 213.79C113.031 213.956 112.911 214.101 112.736 214.223Z" fill="#B6C5E6"/>
<path id="Vector_47" d="M150.873 181.971C144.992 178.355 135.629 178.619 129.961 182.561C124.294 186.502 124.466 192.628 130.347 196.244C136.228 199.859 145.59 199.595 151.258 195.654C156.926 191.713 156.754 185.587 150.873 181.971Z" fill="white" stroke="#BCCBEA" stroke-width="7"/>
<path id="Vector_48" d="M141.049 190.797C140.595 190.518 140.263 190.267 140.055 190.046C139.846 189.82 139.728 189.607 139.699 189.408C139.671 189.209 139.697 188.98 139.777 188.721C139.875 188.404 139.91 188.14 139.881 187.932C139.856 187.72 139.725 187.542 139.488 187.396C139.236 187.241 138.95 187.175 138.63 187.199C138.306 187.221 138.021 187.317 137.774 187.489C137.613 187.601 137.502 187.729 137.441 187.873C137.377 188.015 137.373 188.16 137.431 188.308C137.484 188.453 137.603 188.585 137.785 188.702L136 189.943C135.457 189.599 135.12 189.23 134.991 188.837C134.861 188.439 134.911 188.043 135.14 187.65C135.366 187.254 135.731 186.88 136.236 186.529C136.782 186.149 137.356 185.867 137.958 185.683C138.563 185.496 139.156 185.427 139.737 185.476C140.322 185.521 140.855 185.692 141.337 185.988C141.799 186.272 142.084 186.59 142.193 186.942C142.302 187.293 142.281 187.687 142.129 188.123C142.048 188.352 142.008 188.553 142.009 188.725C142.01 188.893 142.064 189.051 142.171 189.2C142.278 189.349 142.454 189.499 142.699 189.649L142.862 189.75L141.212 190.897L141.049 190.797ZM144.755 191.958C144.572 192.085 144.355 192.175 144.105 192.227C143.854 192.279 143.603 192.286 143.35 192.248C143.097 192.211 142.876 192.131 142.685 192.009C142.495 191.897 142.365 191.761 142.296 191.6C142.227 191.44 142.224 191.277 142.288 191.11C142.352 190.944 142.476 190.797 142.659 190.669C142.835 190.547 143.046 190.461 143.293 190.412C143.543 190.36 143.794 190.35 144.047 190.383C144.304 190.413 144.527 190.484 144.717 190.596C144.907 190.718 145.037 190.862 145.107 191.027C145.172 191.19 145.175 191.356 145.115 191.525C145.051 191.691 144.931 191.836 144.755 191.958Z" fill="#B6C5E6"/>
<path id="Vector_49" d="M182.893 159.707C177.012 156.091 167.649 156.355 161.981 160.296C156.314 164.237 156.486 170.363 162.367 173.979C168.248 177.595 177.61 177.331 183.278 173.39C188.946 169.448 188.774 163.322 182.893 159.707Z" fill="white" stroke="#BCCBEA" stroke-width="7"/>
<path id="Vector_50" d="M173.069 168.532C172.614 168.253 172.283 168.002 172.075 167.781C171.866 167.555 171.747 167.342 171.719 167.143C171.69 166.944 171.716 166.715 171.797 166.456C171.895 166.139 171.929 165.876 171.901 165.667C171.875 165.455 171.745 165.277 171.508 165.131C171.255 164.976 170.969 164.91 170.65 164.934C170.326 164.956 170.041 165.053 169.794 165.224C169.633 165.336 169.522 165.464 169.461 165.608C169.396 165.75 169.393 165.895 169.45 166.043C169.504 166.189 169.622 166.32 169.805 166.437L168.02 167.678C167.476 167.334 167.14 166.965 167.01 166.572C166.881 166.174 166.931 165.778 167.16 165.385C167.385 164.989 167.751 164.615 168.256 164.264C168.802 163.884 169.376 163.602 169.977 163.418C170.582 163.231 171.176 163.162 171.757 163.211C172.342 163.257 172.875 163.427 173.356 163.723C173.818 164.008 174.104 164.325 174.213 164.677C174.322 165.028 174.301 165.422 174.149 165.858C174.068 166.087 174.028 166.288 174.029 166.46C174.03 166.628 174.084 166.786 174.191 166.935C174.298 167.084 174.474 167.234 174.719 167.385L174.882 167.485L173.232 168.632L173.069 168.532ZM176.775 169.693C176.592 169.821 176.375 169.91 176.125 169.962C175.874 170.014 175.623 170.021 175.37 169.984C175.117 169.946 174.895 169.866 174.705 169.744C174.515 169.632 174.385 169.496 174.316 169.336C174.246 169.175 174.244 169.012 174.308 168.845C174.372 168.679 174.495 168.532 174.679 168.404C174.855 168.282 175.066 168.196 175.312 168.147C175.563 168.095 175.814 168.085 176.067 168.118C176.323 168.148 176.547 168.219 176.737 168.331C176.927 168.453 177.057 168.597 177.127 168.762C177.192 168.925 177.195 169.091 177.135 169.26C177.071 169.426 176.951 169.571 176.775 169.693Z" fill="#B6C5E6"/>
<path id="Vector_51" d="M214.912 137.441C209.031 133.826 199.669 134.09 194.001 138.031C188.333 141.972 188.505 148.098 194.386 151.714C200.267 155.33 209.629 155.066 215.297 151.124C220.965 147.183 220.793 141.057 214.912 137.441Z" fill="white" stroke="#BCCBEA" stroke-width="7"/>
<path id="Vector_52" d="M205.088 146.267C204.634 145.988 204.303 145.737 204.094 145.516C203.886 145.29 203.767 145.077 203.739 144.878C203.71 144.679 203.736 144.45 203.817 144.191C203.915 143.874 203.949 143.61 203.92 143.402C203.895 143.19 203.764 143.012 203.528 142.866C203.275 142.711 202.989 142.645 202.669 142.669C202.346 142.691 202.06 142.787 201.813 142.959C201.653 143.071 201.542 143.199 201.481 143.343C201.416 143.485 201.413 143.629 201.47 143.778C201.524 143.923 201.642 144.055 201.825 144.172L200.04 145.413C199.496 145.069 199.16 144.7 199.03 144.307C198.901 143.909 198.951 143.513 199.18 143.12C199.405 142.724 199.77 142.35 200.276 141.999C200.822 141.619 201.396 141.337 201.997 141.153C202.602 140.966 203.195 140.897 203.777 140.945C204.362 140.991 204.895 141.162 205.376 141.458C205.838 141.742 206.124 142.06 206.233 142.411C206.342 142.763 206.321 143.157 206.169 143.593C206.088 143.822 206.047 144.023 206.049 144.195C206.049 144.363 206.103 144.521 206.211 144.67C206.318 144.819 206.494 144.969 206.738 145.119L206.901 145.22L205.251 146.367L205.088 146.267ZM208.795 147.428C208.611 147.555 208.395 147.645 208.144 147.697C207.894 147.749 207.642 147.756 207.39 147.718C207.137 147.681 206.915 147.601 206.725 147.479C206.535 147.367 206.405 147.231 206.336 147.07C206.266 146.91 206.263 146.747 206.327 146.58C206.391 146.414 206.515 146.267 206.698 146.139C206.874 146.017 207.086 145.931 207.332 145.882C207.582 145.83 207.834 145.82 208.087 145.853C208.343 145.883 208.566 145.954 208.756 146.066C208.947 146.188 209.077 146.332 209.146 146.497C209.212 146.66 209.215 146.826 209.155 146.995C209.091 147.161 208.971 147.306 208.795 147.428Z" fill="#B6C5E6"/>
<path id="Vector_53" d="M246.932 115.176C241.051 111.561 231.689 111.824 226.021 115.766C220.353 119.707 220.525 125.833 226.406 129.449C232.287 133.064 241.649 132.801 247.317 128.859C252.985 124.918 252.813 118.792 246.932 115.176Z" fill="white" stroke="#BCCBEA" stroke-width="7"/>
<path id="Vector_54" d="M237.108 124.002C236.654 123.722 236.323 123.472 236.114 123.251C235.906 123.025 235.787 122.812 235.759 122.613C235.73 122.414 235.756 122.185 235.836 121.926C235.934 121.608 235.969 121.345 235.94 121.136C235.915 120.925 235.784 120.746 235.547 120.601C235.295 120.446 235.009 120.38 234.689 120.404C234.365 120.426 234.08 120.522 233.833 120.694C233.672 120.806 233.561 120.934 233.501 121.078C233.436 121.219 233.432 121.364 233.49 121.513C233.544 121.658 233.662 121.79 233.844 121.907L232.06 123.148C231.516 122.804 231.179 122.435 231.05 122.042C230.921 121.644 230.97 121.248 231.2 120.854C231.425 120.459 231.79 120.085 232.295 119.734C232.842 119.354 233.415 119.072 234.017 118.888C234.622 118.701 235.215 118.632 235.796 118.68C236.381 118.726 236.915 118.897 237.396 119.193C237.858 119.477 238.144 119.795 238.253 120.146C238.362 120.498 238.34 120.892 238.189 121.328C238.107 121.557 238.067 121.758 238.068 121.93C238.069 122.097 238.123 122.256 238.23 122.405C238.338 122.554 238.514 122.704 238.758 122.854L238.921 122.955L237.271 124.102L237.108 124.002ZM240.815 125.163C240.631 125.29 240.414 125.38 240.164 125.432C239.914 125.484 239.662 125.491 239.409 125.453C239.157 125.416 238.935 125.336 238.745 125.214C238.554 125.102 238.425 124.966 238.355 124.805C238.286 124.645 238.283 124.482 238.347 124.315C238.411 124.148 238.535 124.001 238.718 123.874C238.894 123.752 239.105 123.666 239.352 123.616C239.602 123.564 239.854 123.555 240.106 123.588C240.363 123.618 240.586 123.689 240.776 123.801C240.967 123.923 241.097 124.066 241.166 124.232C241.232 124.395 241.234 124.561 241.174 124.73C241.11 124.896 240.99 125.041 240.815 125.163Z" fill="#B6C5E6"/>
<path id="Vector_55" d="M278.951 92.9111C273.07 89.2954 263.708 89.5592 258.04 93.5005C252.372 97.4417 252.545 103.568 258.426 107.184C264.307 110.799 273.669 110.535 279.337 106.594C285.005 102.653 284.832 96.5268 278.951 92.9111Z" fill="white" stroke="#BCCBEA" stroke-width="7"/>
<path id="Vector_56" d="M269.128 101.737C268.674 101.458 268.342 101.207 268.134 100.986C267.925 100.76 267.807 100.547 267.778 100.348C267.75 100.149 267.776 99.92 267.856 99.6607C267.954 99.3434 267.989 99.0803 267.96 98.8714C267.935 98.6599 267.804 98.4814 267.567 98.3358C267.315 98.1806 267.029 98.1151 266.709 98.1391C266.385 98.1607 266.1 98.2573 265.853 98.429C265.692 98.5409 265.581 98.6689 265.52 98.8129C265.456 98.9545 265.452 99.0994 265.51 99.2475C265.563 99.3933 265.682 99.5247 265.864 99.6419L264.079 100.883C263.536 100.539 263.199 100.17 263.07 99.7768C262.94 99.3786 262.99 98.9828 263.219 98.5894C263.445 98.1936 263.81 97.8201 264.315 97.4689C264.861 97.089 265.435 96.807 266.037 96.6228C266.642 96.436 267.235 96.3668 267.816 96.4154C268.401 96.4613 268.934 96.6322 269.416 96.9282C269.878 97.2122 270.163 97.53 270.272 97.8814C270.381 98.2328 270.36 98.6265 270.208 99.0627C270.127 99.2921 270.087 99.4929 270.088 99.6652C270.089 99.8324 270.143 99.9906 270.25 100.14C270.357 100.289 270.533 100.439 270.778 100.589L270.941 100.69L269.291 101.837L269.128 101.737ZM272.834 102.898C272.651 103.025 272.434 103.115 272.184 103.167C271.934 103.219 271.682 103.226 271.429 103.188C271.176 103.151 270.955 103.071 270.764 102.949C270.574 102.837 270.444 102.701 270.375 102.54C270.306 102.38 270.303 102.217 270.367 102.05C270.431 101.884 270.555 101.737 270.738 101.609C270.914 101.487 271.125 101.401 271.372 101.352C271.622 101.3 271.873 101.29 272.126 101.323C272.383 101.353 272.606 101.424 272.796 101.536C272.986 101.658 273.116 101.802 273.186 101.967C273.251 102.13 273.254 102.296 273.194 102.465C273.13 102.631 273.01 102.776 272.834 102.898Z" fill="#B6C5E6"/>
<path id="Vector_57" d="M238.164 56.5397L178.229 98.2153C175.962 99.7918 176.031 102.242 178.383 103.689L183.495 106.831C185.847 108.277 189.592 108.172 191.859 106.595L251.794 64.9197C254.061 63.3432 253.992 60.8927 251.639 59.4464L246.528 56.3039C244.176 54.8577 240.431 54.9632 238.164 56.5397Z" fill="white" fill-opacity="0.2"/>
<path id="Vector_58" d="M313.128 102.629L115.262 240.215C112.995 241.792 113.064 244.242 115.417 245.689L120.528 248.831C122.88 250.277 126.625 250.172 128.892 248.595L326.758 111.009C329.025 109.432 328.956 106.982 326.604 105.535L321.493 102.393C319.14 100.947 315.395 101.052 313.128 102.629Z" fill="white" fill-opacity="0.2"/>
</g>
</g>
</g>
<path id="Vector_59" d="M225.984 39.8966L14.5622 186.909C7.53397 191.796 7.74807 199.393 15.0405 203.876L107.683 260.835C114.976 265.319 126.585 264.991 133.613 260.104L345.035 113.091C352.063 108.204 351.849 100.608 344.557 96.1244L251.914 39.1658C244.621 34.6823 233.012 35.0095 225.984 39.8966Z" stroke="white" stroke-opacity="0.96"/>
<path id="Vector_60" d="M225.984 39.8966L14.5622 186.909C7.53397 191.796 7.74807 199.393 15.0405 203.876L107.683 260.835C114.976 265.319 126.585 264.991 133.613 260.104L345.035 113.091C352.063 108.204 351.849 100.608 344.557 96.1244L251.914 39.1658C244.621 34.6823 233.012 35.0095 225.984 39.8966Z" stroke="#434EC6" stroke-opacity="0.39"/>
<g id="Clip path group_5">
<mask id="mask4_73_843" style="mask-type:luminance" maskUnits="userSpaceOnUse" x="56" y="45" width="353" height="211">
<g id="clip4_28_1308">
<path id="Vector_61" d="M293.429 47.6796L63.2988 163.23C55.4018 167.195 54.5087 174.988 61.3041 180.637L144.935 250.156C151.73 255.805 163.641 257.17 171.538 253.204L401.668 137.654C409.565 133.689 410.458 125.896 403.663 120.247L320.032 50.728C313.237 45.0793 301.326 43.7145 293.429 47.6796Z" fill="white"/>
</g>
</mask>
<g mask="url(#mask4_73_843)">
<g id="Group_5">
<path id="Vector_62" d="M293.429 47.6796L63.2988 163.23C55.4018 167.195 54.5087 174.988 61.3041 180.637L144.935 250.156C151.73 255.805 163.641 257.17 171.538 253.204L401.668 137.654C409.565 133.689 410.458 125.896 403.663 120.247L320.032 50.728C313.237 45.0793 301.326 43.7145 293.429 47.6796Z" fill="url(#paint3_linear_73_843)"/>
<path id="Vector_63" d="M164.463 195.49C159.154 191.077 149.849 190.011 143.679 193.108C137.51 196.206 136.812 202.295 142.121 206.708C147.43 211.121 156.735 212.187 162.904 209.089C169.074 205.992 169.772 199.903 164.463 195.49Z" fill="white" stroke="#BCCBEA" stroke-width="7"/>
<path id="Vector_64" d="M153.487 202.833C153.077 202.492 152.785 202.197 152.61 201.948C152.435 201.695 152.348 201.468 152.348 201.267C152.348 201.066 152.406 200.843 152.523 200.597C152.665 200.297 152.736 200.042 152.737 199.831C152.743 199.618 152.638 199.422 152.424 199.245C152.197 199.055 151.923 198.95 151.603 198.928C151.279 198.904 150.983 198.959 150.714 199.094C150.539 199.182 150.411 199.293 150.331 199.427C150.247 199.558 150.223 199.701 150.259 199.856C150.291 200.007 150.39 200.154 150.554 200.296L148.611 201.272C148.121 200.854 147.841 200.441 147.768 200.034C147.697 199.621 147.802 199.236 148.085 198.879C148.364 198.52 148.779 198.202 149.328 197.926C149.923 197.627 150.531 197.429 151.152 197.332C151.778 197.233 152.375 197.249 152.943 197.379C153.516 197.507 154.02 197.752 154.454 198.114C154.871 198.46 155.109 198.815 155.167 199.179C155.225 199.542 155.148 199.929 154.936 200.339C154.823 200.554 154.755 200.748 154.732 200.918C154.709 201.084 154.74 201.248 154.825 201.411C154.91 201.574 155.063 201.747 155.283 201.931L155.431 202.053L153.634 202.955L153.487 202.833ZM156.992 204.508C156.792 204.608 156.565 204.666 156.31 204.682C156.054 204.698 155.804 204.669 155.559 204.596C155.315 204.523 155.107 204.412 154.935 204.264C154.763 204.127 154.654 203.973 154.608 203.805C154.562 203.636 154.583 203.474 154.67 203.318C154.756 203.163 154.9 203.035 155.099 202.934C155.291 202.838 155.512 202.783 155.763 202.769C156.018 202.753 156.269 202.78 156.514 202.848C156.764 202.914 156.975 203.016 157.147 203.154C157.318 203.302 157.426 203.462 157.472 203.636C157.514 203.806 157.493 203.971 157.409 204.13C157.322 204.285 157.183 204.411 156.992 204.508Z" fill="#B6C5E6"/>
<path id="Vector_65" d="M199.316 177.99C194.007 173.577 184.702 172.511 178.532 175.608C172.363 178.706 171.665 184.795 176.974 189.208C182.283 193.621 191.588 194.687 197.757 191.589C203.927 188.492 204.625 182.403 199.316 177.99Z" fill="white" stroke="#BCCBEA" stroke-width="7"/>
<path id="Vector_66" d="M188.341 185.333C187.931 184.992 187.638 184.697 187.463 184.448C187.289 184.195 187.202 183.968 187.202 183.767C187.202 183.566 187.26 183.343 187.376 183.097C187.518 182.797 187.589 182.542 187.591 182.331C187.596 182.118 187.492 181.922 187.278 181.745C187.05 181.555 186.776 181.45 186.456 181.428C186.133 181.404 185.837 181.459 185.568 181.594C185.393 181.682 185.265 181.793 185.184 181.927C185.1 182.058 185.076 182.201 185.112 182.356C185.144 182.507 185.243 182.654 185.407 182.796L183.464 183.772C182.975 183.354 182.694 182.941 182.622 182.534C182.55 182.121 182.655 181.736 182.938 181.379C183.217 181.02 183.632 180.702 184.182 180.426C184.776 180.127 185.384 179.929 186.006 179.832C186.631 179.733 187.228 179.749 187.797 179.879C188.369 180.007 188.873 180.252 189.307 180.614C189.724 180.96 189.962 181.315 190.02 181.679C190.078 182.042 190.001 182.429 189.789 182.839C189.676 183.054 189.608 183.248 189.585 183.418C189.562 183.584 189.593 183.748 189.678 183.911C189.763 184.074 189.916 184.247 190.137 184.431L190.284 184.553L188.488 185.455L188.341 185.333ZM191.845 187.008C191.645 187.108 191.418 187.166 191.163 187.182C190.908 187.198 190.658 187.169 190.413 187.096C190.168 187.023 189.96 186.912 189.789 186.764C189.616 186.627 189.507 186.473 189.461 186.305C189.415 186.136 189.436 185.974 189.523 185.818C189.61 185.663 189.753 185.535 189.953 185.434C190.144 185.338 190.365 185.283 190.616 185.269C190.871 185.253 191.122 185.28 191.367 185.348C191.617 185.414 191.828 185.516 192 185.654C192.171 185.802 192.28 185.962 192.325 186.136C192.367 186.306 192.346 186.471 192.263 186.63C192.176 186.785 192.036 186.911 191.845 187.008Z" fill="#B6C5E6"/>
<path id="Vector_67" d="M234.17 160.49C228.861 156.077 219.556 155.011 213.386 158.108C207.217 161.206 206.519 167.295 211.828 171.708C217.137 176.121 226.442 177.187 232.611 174.089C238.781 170.992 239.479 164.903 234.17 160.49Z" fill="white" stroke="#BCCBEA" stroke-width="7"/>
<path id="Vector_68" d="M223.194 167.833C222.784 167.492 222.491 167.197 222.316 166.948C222.142 166.695 222.055 166.468 222.055 166.267C222.055 166.066 222.113 165.843 222.229 165.597C222.371 165.297 222.443 165.042 222.444 164.831C222.449 164.618 222.345 164.422 222.131 164.245C221.903 164.055 221.629 163.95 221.309 163.928C220.986 163.904 220.69 163.959 220.421 164.094C220.246 164.182 220.118 164.293 220.037 164.427C219.953 164.558 219.929 164.701 219.965 164.856C219.998 165.007 220.096 165.154 220.26 165.296L218.318 166.272C217.828 165.854 217.547 165.441 217.475 165.034C217.403 164.621 217.509 164.236 217.791 163.879C218.071 163.52 218.485 163.202 219.035 162.926C219.63 162.627 220.238 162.429 220.859 162.332C221.484 162.233 222.081 162.249 222.65 162.379C223.223 162.507 223.726 162.752 224.161 163.114C224.578 163.46 224.815 163.815 224.873 164.179C224.932 164.542 224.855 164.929 224.643 165.339C224.53 165.554 224.461 165.748 224.438 165.918C224.415 166.084 224.446 166.248 224.531 166.411C224.616 166.574 224.769 166.747 224.99 166.931L225.137 167.053L223.341 167.955L223.194 167.833ZM226.698 169.508C226.499 169.608 226.271 169.666 226.016 169.682C225.761 169.698 225.511 169.669 225.266 169.596C225.021 169.523 224.813 169.412 224.642 169.264C224.47 169.127 224.36 168.973 224.315 168.805C224.269 168.636 224.289 168.474 224.376 168.318C224.463 168.163 224.606 168.035 224.806 167.934C224.997 167.838 225.218 167.783 225.47 167.769C225.725 167.753 225.975 167.78 226.221 167.848C226.47 167.914 226.681 168.016 226.853 168.154C227.025 168.302 227.133 168.462 227.178 168.636C227.22 168.806 227.199 168.971 227.116 169.13C227.029 169.285 226.89 169.411 226.698 169.508Z" fill="#B6C5E6"/>
<path id="Vector_69" d="M269.023 142.99C263.714 138.577 254.409 137.511 248.239 140.608C242.07 143.706 241.372 149.795 246.681 154.208C251.99 158.621 261.295 159.687 267.464 156.589C273.634 153.492 274.332 147.403 269.023 142.99Z" fill="white" stroke="#BCCBEA" stroke-width="7"/>
<path id="Vector_70" d="M258.047 150.333C257.637 149.992 257.345 149.697 257.17 149.448C256.995 149.195 256.908 148.968 256.908 148.767C256.908 148.566 256.966 148.343 257.083 148.097C257.225 147.797 257.296 147.542 257.297 147.331C257.302 147.118 257.198 146.922 256.984 146.745C256.756 146.555 256.483 146.45 256.163 146.428C255.839 146.404 255.543 146.459 255.274 146.594C255.099 146.682 254.971 146.793 254.891 146.927C254.807 147.058 254.783 147.201 254.819 147.356C254.851 147.507 254.949 147.654 255.113 147.796L253.171 148.772C252.681 148.354 252.4 147.941 252.328 147.534C252.256 147.121 252.362 146.736 252.645 146.379C252.924 146.02 253.338 145.702 253.888 145.426C254.483 145.127 255.091 144.929 255.712 144.832C256.338 144.733 256.935 144.749 257.503 144.879C258.076 145.007 258.579 145.252 259.014 145.614C259.431 145.96 259.669 146.315 259.727 146.679C259.785 147.042 259.708 147.429 259.496 147.839C259.383 148.054 259.315 148.248 259.291 148.418C259.269 148.584 259.3 148.748 259.385 148.911C259.47 149.074 259.622 149.247 259.843 149.431L259.99 149.553L258.194 150.455L258.047 150.333ZM261.552 152.008C261.352 152.108 261.125 152.166 260.869 152.182C260.614 152.198 260.364 152.169 260.119 152.096C259.874 152.023 259.666 151.912 259.495 151.764C259.323 151.627 259.214 151.473 259.168 151.305C259.122 151.136 259.142 150.974 259.229 150.818C259.316 150.663 259.46 150.535 259.659 150.434C259.851 150.338 260.072 150.283 260.323 150.269C260.578 150.253 260.828 150.28 261.074 150.348C261.323 150.414 261.534 150.516 261.707 150.654C261.878 150.802 261.986 150.962 262.031 151.136C262.073 151.306 262.053 151.471 261.969 151.63C261.882 151.785 261.743 151.911 261.552 152.008Z" fill="#B6C5E6"/>
<path id="Vector_71" d="M303.876 125.489C298.567 121.076 289.262 120.01 283.092 123.107C276.923 126.205 276.225 132.294 281.534 136.707C286.843 141.12 296.148 142.186 302.317 139.088C308.487 135.991 309.185 129.902 303.876 125.489Z" fill="white" stroke="#BCCBEA" stroke-width="7"/>
<path id="Vector_72" d="M292.9 132.832C292.49 132.492 292.198 132.197 292.023 131.948C291.849 131.695 291.761 131.467 291.761 131.266C291.761 131.066 291.82 130.842 291.936 130.597C292.078 130.297 292.149 130.041 292.15 129.83C292.156 129.618 292.051 129.422 291.838 129.245C291.61 129.055 291.336 128.95 291.016 128.928C290.692 128.904 290.396 128.959 290.128 129.094C289.952 129.182 289.825 129.293 289.744 129.427C289.66 129.558 289.636 129.701 289.672 129.855C289.704 130.007 289.803 130.154 289.967 130.296L288.024 131.271C287.535 130.854 287.254 130.441 287.181 130.033C287.11 129.621 287.215 129.236 287.498 128.879C287.777 128.519 288.192 128.201 288.741 127.925C289.336 127.627 289.944 127.429 290.566 127.332C291.191 127.233 291.788 127.248 292.357 127.379C292.929 127.507 293.433 127.752 293.867 128.113C294.284 128.46 294.522 128.815 294.58 129.178C294.638 129.542 294.561 129.928 294.349 130.339C294.236 130.554 294.168 130.747 294.145 130.918C294.122 131.084 294.153 131.248 294.238 131.411C294.323 131.574 294.476 131.747 294.696 131.931L294.844 132.053L293.048 132.955L292.9 132.832ZM296.405 134.507C296.205 134.608 295.978 134.666 295.723 134.682C295.468 134.698 295.218 134.669 294.973 134.596C294.728 134.522 294.52 134.412 294.348 134.264C294.176 134.126 294.067 133.973 294.021 133.805C293.975 133.636 293.996 133.474 294.083 133.318C294.17 133.162 294.313 133.034 294.512 132.934C294.704 132.838 294.925 132.783 295.176 132.769C295.431 132.753 295.682 132.779 295.927 132.848C296.177 132.914 296.388 133.016 296.56 133.154C296.731 133.301 296.839 133.462 296.885 133.636C296.927 133.806 296.906 133.971 296.822 134.129C296.735 134.285 296.596 134.411 296.405 134.507Z" fill="#B6C5E6"/>
<path id="Vector_73" d="M338.73 107.989C333.421 103.576 324.116 102.51 317.946 105.607C311.777 108.705 311.079 114.794 316.388 119.207C321.697 123.62 331.002 124.686 337.171 121.588C343.341 118.491 344.039 112.402 338.73 107.989Z" fill="white" stroke="#BCCBEA" stroke-width="7"/>
<path id="Vector_74" d="M327.754 115.332C327.344 114.992 327.051 114.697 326.876 114.448C326.702 114.195 326.615 113.967 326.615 113.766C326.615 113.566 326.673 113.342 326.789 113.097C326.931 112.797 327.003 112.541 327.004 112.33C327.009 112.118 326.905 111.922 326.691 111.745C326.463 111.555 326.189 111.45 325.869 111.428C325.546 111.404 325.25 111.459 324.981 111.594C324.806 111.682 324.678 111.793 324.597 111.927C324.513 112.058 324.489 112.201 324.525 112.355C324.558 112.507 324.656 112.654 324.82 112.796L322.877 113.771C322.388 113.354 322.107 112.941 322.035 112.533C321.963 112.121 322.068 111.736 322.351 111.379C322.63 111.019 323.045 110.701 323.595 110.425C324.189 110.127 324.797 109.929 325.419 109.832C326.044 109.733 326.641 109.748 327.21 109.879C327.782 110.007 328.286 110.252 328.72 110.613C329.138 110.96 329.375 111.315 329.433 111.678C329.491 112.042 329.415 112.428 329.202 112.839C329.089 113.054 329.021 113.247 328.998 113.418C328.975 113.584 329.006 113.748 329.091 113.911C329.176 114.074 329.329 114.247 329.55 114.431L329.697 114.553L327.901 115.455L327.754 115.332ZM331.258 117.007C331.059 117.108 330.831 117.166 330.576 117.182C330.321 117.198 330.071 117.169 329.826 117.096C329.581 117.022 329.373 116.912 329.202 116.764C329.029 116.626 328.92 116.473 328.874 116.305C328.828 116.136 328.849 115.974 328.936 115.818C329.023 115.662 329.166 115.534 329.366 115.434C329.557 115.338 329.778 115.283 330.029 115.269C330.285 115.253 330.535 115.279 330.78 115.348C331.03 115.414 331.241 115.516 331.413 115.654C331.584 115.801 331.693 115.962 331.738 116.136C331.78 116.306 331.759 116.471 331.676 116.629C331.589 116.785 331.45 116.911 331.258 117.007Z" fill="#B6C5E6"/>
<path id="Vector_75" d="M303.511 66.2011L238.273 98.9576C235.805 100.197 235.526 102.632 237.649 104.397L242.263 108.233C244.387 109.998 248.109 110.425 250.577 109.185L315.815 76.429C318.283 75.1899 318.562 72.7544 316.438 70.9892L311.824 67.1537C309.701 65.3885 305.979 64.962 303.511 66.2011Z" fill="white" fill-opacity="0.2"/>
<path id="Vector_76" d="M371.182 122.455L155.807 230.596C153.339 231.835 153.06 234.271 155.184 236.036L159.798 239.872C161.921 241.637 165.644 242.063 168.111 240.824L383.487 132.683C385.954 131.444 386.233 129.008 384.11 127.243L379.496 123.408C377.372 121.642 373.65 121.216 371.182 122.455Z" fill="white" fill-opacity="0.2"/>
<path id="Vector_77" d="M100.168 168.333L105.992 173.174L102.286 175.035L96.8578 170.523C95.89 169.719 95.0067 169.535 94.2187 169.931C93.1999 170.442 93.2823 171.208 94.4518 172.18L99.5425 176.411L95.9328 178.224L90.505 173.712C89.5646 172.93 88.6566 172.723 87.8809 173.112C86.8761 173.617 86.9458 174.409 88.0999 175.368L93.1906 179.6L89.4846 181.46L80.2017 173.744L82.8075 172.435L84.3333 173C84.3243 172.477 84.4871 171.97 84.8105 171.515C85.1339 171.06 85.6102 170.667 86.2066 170.363C86.7994 170.048 87.5175 169.846 88.2951 169.774C89.0727 169.702 89.8851 169.763 90.658 169.951C90.6244 169.396 90.7813 168.856 91.1168 168.372C91.4523 167.888 91.9577 167.472 92.595 167.155C94.8999 165.998 97.9765 166.519 100.163 168.337" fill="#1540F2"/>
<path id="Vector_78" d="M102.43 168.772C99.5515 166.379 100.007 163.393 103.516 161.631C107.024 159.87 111.618 160.322 114.495 162.714C117.373 165.106 116.907 168.099 113.409 169.855C109.912 171.611 105.299 171.157 102.43 168.772ZM110.536 167.467C110.858 167.316 111.121 167.118 111.309 166.886C111.497 166.655 111.607 166.395 111.63 166.124C111.653 165.852 111.59 165.574 111.444 165.308C111.299 165.042 111.074 164.794 110.784 164.578C110.525 164.351 110.205 164.157 109.842 164.006C109.48 163.855 109.083 163.751 108.675 163.7C108.266 163.649 107.855 163.652 107.464 163.709C107.074 163.766 106.713 163.875 106.403 164.031C106.092 164.187 105.839 164.386 105.657 164.616C105.475 164.846 105.369 165.103 105.345 165.372C105.321 165.64 105.379 165.914 105.516 166.178C105.653 166.442 105.866 166.691 106.142 166.909C106.393 167.144 106.711 167.346 107.074 167.503C107.437 167.66 107.838 167.768 108.251 167.82C108.664 167.873 109.081 167.868 109.475 167.808C109.868 167.747 110.23 167.631 110.536 167.467Z" fill="#1540F2"/>
<path id="Vector_79" d="M124.799 159.99L127.601 162.318L125.051 163.598C124.573 163.888 123.995 164.099 123.356 164.215C122.716 164.331 122.032 164.349 121.351 164.27C120.67 164.19 120.009 164.013 119.414 163.752C118.819 163.492 118.304 163.153 117.906 162.76L114.407 159.851L112.438 160.84L111.691 160.219L112.084 154.115L112.846 153.732L115.561 155.989L118.264 154.632L120.726 156.679L118.117 157.989L121.072 160.445C121.201 160.572 121.368 160.682 121.562 160.766C121.755 160.85 121.97 160.906 122.191 160.931C122.411 160.956 122.633 160.948 122.839 160.909C123.046 160.87 123.232 160.801 123.385 160.705L124.799 159.99Z" fill="#1540F2"/>
<path id="Vector_80" d="M133.092 155.826L135.893 158.154L133.343 159.435C132.866 159.725 132.287 159.935 131.648 160.051C131.009 160.167 130.325 160.186 129.644 160.106C128.963 160.026 128.302 159.849 127.706 159.589C127.111 159.328 126.597 158.989 126.199 158.597L122.699 155.688L120.73 156.676L119.983 156.056L120.373 149.953L121.135 149.57L123.85 151.827L126.553 150.47L129.015 152.517L126.405 153.827L129.36 156.283C129.49 156.41 129.658 156.518 129.851 156.602C130.044 156.685 130.258 156.741 130.479 156.766C130.699 156.79 130.92 156.783 131.125 156.744C131.331 156.705 131.517 156.635 131.669 156.54L133.092 155.826Z" fill="#1540F2"/>
<path id="Vector_81" d="M131.661 154.095C128.782 151.702 129.238 148.716 132.747 146.954C136.255 145.193 140.849 145.645 143.726 148.037C146.604 150.429 146.138 153.422 142.64 155.178C139.143 156.934 134.529 156.48 131.661 154.095ZM139.767 152.79C140.089 152.639 140.352 152.441 140.54 152.209C140.728 151.978 140.838 151.718 140.861 151.447C140.884 151.175 140.821 150.897 140.675 150.631C140.53 150.365 140.305 150.117 140.015 149.901C139.756 149.674 139.436 149.48 139.073 149.329C138.711 149.178 138.314 149.074 137.906 149.023C137.497 148.972 137.086 148.975 136.695 149.032C136.305 149.089 135.944 149.198 135.634 149.354C135.323 149.51 135.07 149.709 134.888 149.939C134.706 150.169 134.6 150.426 134.576 150.695C134.552 150.963 134.61 151.237 134.747 151.501C134.883 151.765 135.096 152.014 135.373 152.232C135.624 152.467 135.942 152.669 136.305 152.826C136.668 152.983 137.069 153.091 137.482 153.143C137.895 153.196 138.312 153.191 138.705 153.131C139.099 153.07 139.461 152.954 139.767 152.79Z" fill="#1540F2"/>
</g>
</g>
</g>
<path id="Vector_82" d="M293.814 47.9997L63.6835 163.55C56.0333 167.391 55.1681 174.941 61.7511 180.413L145.382 249.932C151.965 255.404 163.503 256.726 171.153 252.885L401.284 137.335C408.934 133.494 409.799 125.944 403.216 120.472L319.586 50.9528C313.003 45.4806 301.464 44.1584 293.814 47.9997Z" stroke="white" stroke-opacity="0.96"/>
<path id="Vector_83" d="M293.814 47.9997L63.6835 163.55C56.0333 167.391 55.1681 174.941 61.7511 180.413L145.382 249.932C151.965 255.404 163.503 256.726 171.153 252.885L401.284 137.335C408.934 133.494 409.799 125.944 403.216 120.472L319.586 50.9528C313.003 45.4806 301.464 44.1584 293.814 47.9997Z" stroke="#434EC6" stroke-opacity="0.39"/>
<g id="Clip path group_6">
<mask id="mask5_73_843" style="mask-type:luminance" maskUnits="userSpaceOnUse" x="52" y="46" width="355" height="194">
<g id="clip5_28_1308">
<path id="Vector_84" d="M301.584 48.0054L59.925 136.703C51.6296 139.748 49.8598 147.39 55.9722 153.771L131.233 232.346C137.345 238.727 149.025 241.432 157.32 238.387L398.98 149.69C407.275 146.645 409.045 139.003 402.932 132.622L327.672 54.0472C321.56 47.6657 309.88 44.9607 301.584 48.0054Z" fill="white"/>
</g>
</mask>
<g mask="url(#mask5_73_843)">
<g id="Group_6">
<path id="Vector_85" d="M301.584 48.0054L59.925 136.703C51.6296 139.748 49.8598 147.39 55.9722 153.771L131.233 232.346C137.345 238.727 149.025 241.432 157.32 238.387L398.98 149.69C407.275 146.645 409.045 139.003 402.932 132.622L327.672 54.0472C321.56 47.6657 309.88 44.9607 301.584 48.0054Z" fill="url(#paint4_linear_73_843)"/>
<path id="Vector_86" d="M156.79 180.211C152.015 175.225 142.89 173.112 136.409 175.49C129.928 177.869 128.545 183.839 133.321 188.825C138.096 193.81 147.221 195.923 153.702 193.545C160.182 191.166 161.565 185.196 156.79 180.211Z" fill="white" stroke="#BCCBEA" stroke-width="7"/>
<path id="Vector_87" d="M145.053 186.262C144.684 185.877 144.427 185.551 144.281 185.285C144.137 185.013 144.076 184.777 144.099 184.578C144.121 184.378 144.204 184.163 144.348 183.932C144.523 183.65 144.623 183.404 144.648 183.195C144.677 182.984 144.596 182.778 144.403 182.578C144.198 182.364 143.938 182.228 143.623 182.17C143.304 182.109 143.004 182.13 142.721 182.234C142.537 182.302 142.398 182.397 142.302 182.521C142.204 182.642 142.164 182.781 142.182 182.939C142.197 183.094 142.278 183.251 142.425 183.41L140.385 184.159C139.946 183.689 139.713 183.247 139.687 182.834C139.663 182.416 139.811 182.046 140.133 181.723C140.451 181.397 140.899 181.128 141.476 180.916C142.101 180.687 142.727 180.559 143.356 180.533C143.989 180.506 144.58 180.589 145.13 180.783C145.684 180.975 146.157 181.275 146.548 181.684C146.923 182.075 147.119 182.455 147.136 182.822C147.152 183.19 147.032 183.565 146.775 183.949C146.638 184.15 146.549 184.334 146.506 184.501C146.465 184.663 146.477 184.83 146.543 185.002C146.609 185.173 146.741 185.363 146.94 185.57L147.072 185.708L145.185 186.401L145.053 186.262ZM148.345 188.323C148.136 188.4 147.903 188.432 147.648 188.419C147.393 188.406 147.147 188.349 146.912 188.249C146.677 188.148 146.483 188.015 146.33 187.849C146.174 187.692 146.083 187.528 146.056 187.355C146.03 187.183 146.069 187.024 146.173 186.879C146.277 186.734 146.434 186.623 146.643 186.546C146.844 186.472 147.07 186.443 147.321 186.457C147.577 186.47 147.822 186.525 148.059 186.62C148.299 186.714 148.497 186.84 148.653 186.996C148.806 187.162 148.896 187.334 148.921 187.512C148.943 187.686 148.904 187.847 148.803 187.995C148.699 188.14 148.546 188.25 148.345 188.323Z" fill="#B6C5E6"/>
<path id="Vector_88" d="M193.402 166.773C188.627 161.787 179.502 159.674 173.021 162.052C166.54 164.431 165.158 170.401 169.933 175.387C174.708 180.372 183.833 182.485 190.314 180.107C196.795 177.728 198.177 171.758 193.402 166.773Z" fill="white" stroke="#BCCBEA" stroke-width="7"/>
<path id="Vector_89" d="M181.665 172.824C181.296 172.439 181.039 172.113 180.893 171.847C180.749 171.575 180.688 171.339 180.71 171.14C180.733 170.94 180.816 170.725 180.96 170.494C181.135 170.212 181.235 169.966 181.26 169.757C181.289 169.546 181.207 169.34 181.015 169.14C180.81 168.926 180.55 168.79 180.234 168.732C179.916 168.671 179.615 168.692 179.333 168.796C179.149 168.864 179.009 168.959 178.914 169.083C178.816 169.204 178.776 169.343 178.794 169.501C178.809 169.656 178.89 169.813 179.037 169.972L176.996 170.721C176.557 170.251 176.325 169.809 176.299 169.396C176.275 168.978 176.423 168.608 176.744 168.285C177.063 167.959 177.511 167.69 178.088 167.478C178.713 167.249 179.339 167.121 179.968 167.095C180.6 167.068 181.192 167.151 181.742 167.345C182.296 167.537 182.769 167.838 183.16 168.246C183.535 168.637 183.731 169.017 183.747 169.384C183.764 169.752 183.644 170.127 183.387 170.511C183.25 170.712 183.16 170.896 183.118 171.063C183.076 171.225 183.089 171.392 183.155 171.564C183.221 171.735 183.353 171.925 183.552 172.132L183.684 172.27L181.797 172.963L181.665 172.824ZM184.957 174.885C184.748 174.962 184.515 174.994 184.26 174.981C184.004 174.968 183.759 174.911 183.524 174.811C183.289 174.71 183.095 174.577 182.942 174.411C182.786 174.254 182.695 174.09 182.668 173.917C182.642 173.745 182.68 173.586 182.784 173.441C182.889 173.296 183.045 173.185 183.255 173.108C183.456 173.034 183.682 173.005 183.933 173.019C184.189 173.032 184.434 173.087 184.67 173.182C184.911 173.276 185.109 173.402 185.265 173.558C185.418 173.724 185.507 173.896 185.533 174.074C185.555 174.248 185.516 174.409 185.415 174.557C185.311 174.702 185.158 174.812 184.957 174.885Z" fill="#B6C5E6"/>
<path id="Vector_90" d="M230.014 153.335C225.239 148.349 216.114 146.236 209.633 148.614C203.152 150.993 201.77 156.963 206.545 161.949C211.32 166.934 220.445 169.047 226.926 166.669C233.407 164.29 234.789 158.32 230.014 153.335Z" fill="white" stroke="#BCCBEA" stroke-width="7"/>
<path id="Vector_91" d="M218.277 159.387C217.908 159.002 217.651 158.676 217.505 158.409C217.36 158.137 217.299 157.902 217.322 157.702C217.345 157.502 217.428 157.287 217.571 157.057C217.746 156.774 217.846 156.529 217.871 156.319C217.901 156.108 217.819 155.903 217.627 155.702C217.422 155.488 217.162 155.352 216.846 155.294C216.528 155.233 216.227 155.255 215.945 155.358C215.761 155.426 215.621 155.522 215.526 155.646C215.428 155.766 215.388 155.905 215.406 156.063C215.421 156.218 215.502 156.375 215.649 156.535L213.608 157.284C213.169 156.813 212.937 156.371 212.911 155.958C212.887 155.54 213.035 155.17 213.356 154.847C213.674 154.521 214.122 154.252 214.7 154.04C215.325 153.811 215.951 153.684 216.579 153.658C217.212 153.63 217.804 153.713 218.354 153.907C218.908 154.099 219.381 154.4 219.772 154.808C220.147 155.2 220.343 155.579 220.359 155.947C220.376 156.314 220.256 156.69 219.999 157.073C219.862 157.275 219.772 157.459 219.73 157.626C219.688 157.788 219.701 157.954 219.766 158.126C219.832 158.297 219.965 158.487 220.163 158.694L220.296 158.832L218.409 159.525L218.277 159.387ZM221.569 161.448C221.359 161.525 221.127 161.556 220.872 161.543C220.616 161.53 220.371 161.474 220.136 161.373C219.901 161.273 219.707 161.139 219.553 160.973C219.398 160.817 219.307 160.652 219.28 160.48C219.254 160.307 219.292 160.148 219.396 160.003C219.5 159.858 219.657 159.747 219.867 159.67C220.068 159.597 220.294 159.567 220.545 159.582C220.8 159.595 221.046 159.649 221.282 159.745C221.523 159.839 221.721 159.964 221.876 160.12C222.03 160.287 222.119 160.458 222.145 160.636C222.167 160.81 222.128 160.971 222.027 161.119C221.923 161.264 221.77 161.374 221.569 161.448Z" fill="#B6C5E6"/>
<path id="Vector_92" d="M266.625 139.897C261.85 134.911 252.725 132.798 246.244 135.176C239.763 137.555 238.38 143.525 243.156 148.511C247.931 153.496 257.056 155.609 263.537 153.231C270.017 150.852 271.4 144.882 266.625 139.897Z" fill="white" stroke="#BCCBEA" stroke-width="7"/>
<path id="Vector_93" d="M254.888 145.949C254.52 145.564 254.262 145.238 254.117 144.971C253.972 144.699 253.911 144.464 253.934 144.264C253.957 144.064 254.04 143.849 254.183 143.619C254.358 143.336 254.458 143.091 254.483 142.881C254.512 142.67 254.431 142.465 254.239 142.264C254.034 142.05 253.774 141.914 253.458 141.856C253.139 141.795 252.839 141.817 252.557 141.92C252.373 141.988 252.233 142.084 252.138 142.208C252.039 142.328 251.999 142.467 252.018 142.625C252.033 142.78 252.114 142.937 252.261 143.097L250.22 143.846C249.781 143.375 249.549 142.933 249.523 142.52C249.498 142.102 249.647 141.732 249.968 141.409C250.286 141.083 250.734 140.814 251.312 140.602C251.936 140.373 252.563 140.246 253.191 140.22C253.824 140.192 254.415 140.275 254.966 140.469C255.52 140.662 255.993 140.962 256.383 141.37C256.759 141.762 256.954 142.141 256.971 142.509C256.988 142.876 256.867 143.252 256.61 143.635C256.474 143.837 256.384 144.021 256.341 144.188C256.3 144.35 256.312 144.516 256.378 144.688C256.444 144.859 256.577 145.049 256.775 145.256L256.908 145.394L255.021 146.087L254.888 145.949ZM258.181 148.01C257.971 148.087 257.739 148.118 257.483 148.105C257.228 148.092 256.983 148.036 256.748 147.935C256.513 147.835 256.318 147.701 256.165 147.535C256.01 147.379 255.918 147.214 255.892 147.042C255.865 146.869 255.904 146.71 256.008 146.565C256.112 146.42 256.269 146.309 256.479 146.232C256.68 146.159 256.906 146.129 257.157 146.144C257.412 146.157 257.658 146.211 257.894 146.307C258.135 146.401 258.333 146.526 258.488 146.682C258.642 146.849 258.731 147.02 258.756 147.198C258.779 147.372 258.739 147.533 258.639 147.681C258.534 147.826 258.382 147.936 258.181 148.01Z" fill="#B6C5E6"/>
<path id="Vector_94" d="M303.237 126.459C298.462 121.473 289.337 119.36 282.856 121.738C276.375 124.117 274.993 130.087 279.768 135.073C284.543 140.058 293.668 142.171 300.149 139.793C306.63 137.414 308.012 131.444 303.237 126.459Z" fill="white" stroke="#BCCBEA" stroke-width="7"/>
<path id="Vector_95" d="M291.5 132.511C291.131 132.126 290.874 131.8 290.729 131.533C290.584 131.261 290.523 131.026 290.546 130.826C290.569 130.627 290.652 130.411 290.795 130.181C290.97 129.899 291.07 129.653 291.095 129.444C291.124 129.233 291.043 129.027 290.85 128.826C290.646 128.612 290.385 128.476 290.07 128.419C289.751 128.358 289.451 128.379 289.168 128.483C288.985 128.55 288.845 128.646 288.75 128.77C288.651 128.89 288.611 129.03 288.629 129.188C288.644 129.342 288.726 129.499 288.873 129.659L286.832 130.408C286.393 129.937 286.16 129.496 286.135 129.082C286.11 128.664 286.259 128.294 286.58 127.971C286.898 127.646 287.346 127.377 287.924 127.165C288.548 126.935 289.175 126.808 289.803 126.782C290.436 126.754 291.027 126.837 291.577 127.031C292.132 127.224 292.604 127.524 292.995 127.932C293.37 128.324 293.566 128.703 293.583 129.071C293.6 129.438 293.479 129.814 293.222 130.197C293.085 130.399 292.996 130.583 292.953 130.75C292.912 130.912 292.924 131.079 292.99 131.25C293.056 131.422 293.188 131.611 293.387 131.818L293.519 131.957L291.633 132.649L291.5 132.511ZM294.793 134.572C294.583 134.649 294.351 134.681 294.095 134.668C293.84 134.655 293.595 134.598 293.36 134.497C293.125 134.397 292.93 134.263 292.777 134.097C292.621 133.941 292.53 133.776 292.504 133.604C292.477 133.431 292.516 133.272 292.62 133.127C292.724 132.983 292.881 132.872 293.09 132.795C293.291 132.721 293.518 132.691 293.769 132.706C294.024 132.719 294.27 132.773 294.506 132.869C294.746 132.963 294.944 133.088 295.1 133.245C295.253 133.411 295.343 133.583 295.368 133.76C295.391 133.934 295.351 134.096 295.25 134.244C295.146 134.389 294.994 134.498 294.793 134.572Z" fill="#B6C5E6"/>
<path id="Vector_96" d="M339.849 113.021C335.074 108.035 325.949 105.922 319.468 108.3C312.987 110.679 311.605 116.649 316.38 121.635C321.155 126.62 330.28 128.733 336.761 126.355C343.242 123.976 344.624 118.006 339.849 113.021Z" fill="white" stroke="#BCCBEA" stroke-width="7"/>
<path id="Vector_97" d="M328.112 119.073C327.743 118.688 327.486 118.362 327.34 118.095C327.196 117.823 327.135 117.588 327.158 117.388C327.18 117.189 327.263 116.973 327.407 116.743C327.582 116.461 327.682 116.215 327.707 116.006C327.736 115.795 327.655 115.589 327.462 115.388C327.257 115.174 326.997 115.038 326.682 114.981C326.363 114.92 326.063 114.941 325.78 115.045C325.596 115.112 325.457 115.208 325.361 115.332C325.263 115.452 325.223 115.592 325.241 115.75C325.256 115.904 325.337 116.061 325.484 116.221L323.444 116.97C323.005 116.499 322.772 116.058 322.747 115.644C322.722 115.226 322.87 114.856 323.192 114.534C323.51 114.208 323.958 113.939 324.535 113.727C325.16 113.498 325.786 113.37 326.415 113.344C327.048 113.316 327.639 113.399 328.189 113.593C328.744 113.786 329.216 114.086 329.607 114.494C329.982 114.886 330.178 115.265 330.195 115.633C330.211 116 330.091 116.376 329.834 116.759C329.697 116.961 329.608 117.145 329.565 117.312C329.524 117.474 329.536 117.641 329.602 117.812C329.668 117.984 329.8 118.173 329.999 118.38L330.131 118.519L328.244 119.211L328.112 119.073ZM331.404 121.134C331.195 121.211 330.962 121.243 330.707 121.23C330.452 121.217 330.206 121.16 329.971 121.059C329.736 120.959 329.542 120.825 329.389 120.659C329.233 120.503 329.142 120.338 329.116 120.166C329.089 119.993 329.128 119.834 329.232 119.689C329.336 119.545 329.493 119.434 329.702 119.357C329.903 119.283 330.129 119.253 330.38 119.268C330.636 119.281 330.882 119.335 331.118 119.431C331.358 119.525 331.556 119.65 331.712 119.807C331.865 119.973 331.955 120.145 331.98 120.322C332.002 120.496 331.963 120.658 331.862 120.806C331.758 120.951 331.606 121.06 331.404 121.134Z" fill="#B6C5E6"/>
<path id="Vector_98" d="M309.586 67.5173L241.057 92.6703C238.464 93.6217 237.911 96.0097 239.821 98.0039L243.972 102.337C245.882 104.331 249.532 105.177 252.124 104.225L320.654 79.0721C323.246 78.1206 323.799 75.7326 321.889 73.7384L317.739 69.4054C315.829 67.4111 312.179 66.5658 309.586 67.5173Z" fill="white" fill-opacity="0.2"/>
<path id="Vector_99" d="M370.457 131.068L144.215 214.107C141.622 215.059 141.069 217.447 142.98 219.441L147.13 223.774C149.04 225.768 152.69 226.614 155.282 225.662L381.524 142.623C384.117 141.671 384.67 139.283 382.76 137.289L378.609 132.956C376.699 130.962 373.049 130.117 370.457 131.068Z" fill="white" fill-opacity="0.2"/>
</g>
</g>
</g>
<path id="Vector_100" d="M301.93 48.3657L60.2711 137.064C52.2348 140.013 50.5204 147.416 56.4418 153.598L131.702 232.173C137.623 238.355 148.938 240.975 156.974 238.026L398.634 149.328C406.67 146.378 408.385 138.975 402.463 132.793L327.203 54.2187C321.282 48.0366 309.967 45.4161 301.93 48.3657Z" stroke="white" stroke-opacity="0.96"/>
<path id="Vector_101" d="M301.93 48.3657L60.2711 137.064C52.2348 140.013 50.5204 147.416 56.4418 153.598L131.702 232.173C137.623 238.355 148.938 240.975 156.974 238.026L398.634 149.328C406.67 146.378 408.385 138.975 402.463 132.793L327.203 54.2187C321.282 48.0366 309.967 45.4161 301.93 48.3657Z" stroke="#434EC6" stroke-opacity="0.39"/>
<path id="Vector_102" d="M200.496 124.219L394.7 208.762L418.221 113.285L295.898 89.5679L200.496 124.219Z" fill="url(#paint5_linear_73_843)"/>
<path id="Vector_103" d="M344 31.5H210C201.716 31.5 195 38.2157 195 46.5V113.5C195 121.784 201.716 128.5 210 128.5H344C352.284 128.5 359 121.784 359 113.5V46.5C359 38.2157 352.284 31.5 344 31.5Z" fill="white"/>
<path id="Vector_104" d="M344 32H210C201.992 32 195.5 38.4919 195.5 46.5V113.5C195.5 121.508 201.992 128 210 128H344C352.008 128 358.5 121.508 358.5 113.5V46.5C358.5 38.4919 352.008 32 344 32Z" stroke="black" stroke-opacity="0.15"/>
<path id="Vector_105" d="M278 80C278 59.8416 261.658 43.5 241.5 43.5C221.342 43.5 205 59.8416 205 80C205 100.158 221.342 116.5 241.5 116.5C261.658 116.5 278 100.158 278 80Z" fill="#F3F3F3"/>
<path id="main-color" fill-rule="evenodd" clip-rule="evenodd" d="M226.466 68.8885C225.209 69.5621 225 70.2818 225 73.9284V77.078L225.664 77.2045C226.051 77.2782 226.599 77.6058 226.977 77.9898C228.108 79.1381 228.108 80.8551 226.977 82.0034C226.599 82.3874 226.051 82.7151 225.664 82.7887L225 82.9152V86.0648C225 89.749 225.206 90.4409 226.506 91.1141C227.234 91.4912 227.592 91.5 242 91.5C256.408 91.5 256.766 91.4912 257.494 91.1141C258.794 90.4409 259 89.749 259 86.0648V82.9152L258.336 82.7887C257.949 82.7151 257.401 82.3874 257.023 82.0034C255.892 80.8551 255.892 79.1381 257.023 77.9898C257.401 77.6058 257.949 77.2782 258.336 77.2045L259 77.078V73.9284C259 70.2442 258.794 69.5523 257.494 68.8792C256.765 68.5018 256.417 68.4934 241.96 68.5016C227.61 68.5099 227.151 68.5214 226.466 68.8885ZM231.13 72.7984L230.667 73.2688V79.9966V86.7244L231.13 87.1949L231.594 87.6655H242H252.406L252.87 87.1949L253.333 86.7244V79.9966V73.2688L252.87 72.7984L252.406 72.3277H242H231.594L231.13 72.7984ZM232.556 79.9966V85.7483H242H251.444V79.9966V74.2449H242H232.556V79.9966Z" fill="#0252C8"/>
<path id="Vector_106" d="M304.506 82.0586H292.764V77.4883H304.506V82.0586ZM320.291 92.5H314.279V72.6719H314.139L308.408 76.1875V70.9844L314.701 67.0469H320.291V92.5ZM336.287 92.8516C334.084 92.8516 332.186 92.3418 330.592 91.3223C328.998 90.291 327.773 88.7969 326.918 86.8398C326.062 84.8828 325.635 82.5273 325.635 79.7734C325.635 77.0195 326.062 74.6641 326.918 72.707C327.773 70.75 328.998 69.2617 330.592 68.2422C332.186 67.2109 334.084 66.6953 336.287 66.6953C338.49 66.6953 340.389 67.2109 341.982 68.2422C343.576 69.2617 344.801 70.75 345.656 72.707C346.512 74.6641 346.939 77.0195 346.939 79.7734C346.939 82.5391 346.512 84.9004 345.656 86.8574C344.801 88.8145 343.576 90.3027 341.982 91.3223C340.389 92.3418 338.49 92.8516 336.287 92.8516ZM336.287 87.9648C337.693 87.9648 338.795 87.2852 339.592 85.9258C340.389 84.5547 340.787 82.5039 340.787 79.7734C340.787 77.0664 340.383 75.0215 339.574 73.6387C338.777 72.2441 337.682 71.5469 336.287 71.5469C334.881 71.5469 333.779 72.2559 332.982 73.6738C332.186 75.0801 331.787 77.1719 331.787 79.9492C331.787 82.6094 332.191 84.6133 333 85.9609C333.809 87.2969 334.904 87.9648 336.287 87.9648Z" fill="#C82D02"/>
</g>
</g>
</g>
</g>
<defs>
<linearGradient id="paint0_linear_73_843" x1="21.3695" y1="130.141" x2="370.127" y2="86.5747" gradientUnits="userSpaceOnUse">
<stop stop-color="#DAEBFF"/>
<stop offset="1" stop-color="#B3C1E3"/>
</linearGradient>
<linearGradient id="paint1_linear_73_843" x1="48.3695" y1="148.141" x2="397.127" y2="104.575" gradientUnits="userSpaceOnUse">
<stop stop-color="#DAEBFF"/>
<stop offset="1" stop-color="#B3C1E3"/>
</linearGradient>
<linearGradient id="paint2_linear_73_843" x1="10.7105" y1="195.121" x2="324.667" y2="37.1291" gradientUnits="userSpaceOnUse">
<stop stop-color="#DAEBFF"/>
<stop offset="1" stop-color="#B3C1E3"/>
</linearGradient>
<linearGradient id="paint3_linear_73_843" x1="58.7059" y1="171.133" x2="391.892" y2="59.2522" gradientUnits="userSpaceOnUse">
<stop stop-color="#DAEBFF"/>
<stop offset="1" stop-color="#B3C1E3"/>
</linearGradient>
<linearGradient id="paint4_linear_73_843" x1="54.4663" y1="144.037" x2="398.068" y2="70.4775" gradientUnits="userSpaceOnUse">
<stop stop-color="#DAEBFF"/>
<stop offset="1" stop-color="#B3C1E3"/>
</linearGradient>
<linearGradient id="paint5_linear_73_843" x1="201.005" y1="126.536" x2="364.242" y2="134.872" gradientUnits="userSpaceOnUse">
<stop stop-opacity="0.33"/>
<stop offset="1" stop-opacity="0"/>
</linearGradient>
<clipPath id="clip0_73_843">
<rect width="416" height="299" fill="white" transform="translate(0 0.5)"/>
</clipPath>
</defs>
</svg>
