<svg width="416" height="299" viewBox="0 0 416 299" fill="none" xmlns="http://www.w3.org/2000/svg">
<g clip-path="url(#clip0_28_1161)">
<g clip-path="url(#clip1_28_1161)">
<rect width="289.511" height="140.752" rx="16" transform="matrix(0.964923 -0.262534 0.626924 0.77908 12 127.007)" fill="url(#paint0_linear_28_1161)"/>
<rect x="5.57146" y="1.80791" width="25" height="25" rx="12.5" transform="matrix(0.964923 -0.262534 0.626924 0.77908 81.7247 171.37)" fill="white" stroke="#BCCBEA" stroke-width="7"/>
<path d="M107.98 179.512C107.645 179.096 107.417 178.749 107.295 178.471C107.174 178.188 107.134 177.948 107.174 177.751C107.214 177.554 107.315 177.347 107.478 177.129C107.676 176.863 107.797 176.627 107.84 176.421C107.887 176.213 107.824 176.001 107.65 175.784C107.464 175.554 107.216 175.396 106.907 175.311C106.595 175.223 106.294 175.218 106.003 175.297C105.814 175.349 105.667 175.432 105.561 175.547C105.453 175.659 105.401 175.795 105.406 175.953C105.407 176.109 105.475 176.272 105.607 176.444L103.51 177.015C103.113 176.508 102.919 176.048 102.929 175.634C102.941 175.215 103.121 174.859 103.469 174.565C103.814 174.268 104.283 174.039 104.877 173.877C105.519 173.702 106.154 173.629 106.782 173.657C107.415 173.684 107.997 173.818 108.528 174.059C109.064 174.298 109.509 174.638 109.863 175.078C110.203 175.501 110.366 175.896 110.351 176.263C110.336 176.631 110.183 176.995 109.894 177.355C109.741 177.544 109.636 177.72 109.579 177.882C109.524 178.04 109.521 178.207 109.572 178.384C109.623 178.56 109.739 178.76 109.919 178.984L110.039 179.133L108.1 179.661L107.98 179.512ZM111.082 181.849C110.867 181.907 110.632 181.919 110.379 181.884C110.126 181.849 109.886 181.771 109.661 181.651C109.435 181.531 109.253 181.381 109.115 181.202C108.973 181.033 108.897 180.861 108.885 180.687C108.874 180.513 108.926 180.358 109.042 180.222C109.158 180.087 109.324 179.99 109.539 179.931C109.746 179.875 109.974 179.865 110.223 179.901C110.476 179.936 110.716 180.011 110.943 180.127C111.175 180.242 111.361 180.383 111.503 180.553C111.641 180.731 111.715 180.91 111.725 181.089C111.733 181.265 111.68 181.422 111.566 181.561C111.45 181.696 111.289 181.792 111.082 181.849Z" fill="#B6C5E6"/>
<rect x="5.57146" y="1.80791" width="25" height="25" rx="12.5" transform="matrix(0.964923 -0.262534 0.626924 0.77908 119.357 161.132)" fill="white" stroke="#BCCBEA" stroke-width="7"/>
<path d="M145.612 169.273C145.277 168.858 145.049 168.511 144.927 168.232C144.806 167.949 144.766 167.709 144.806 167.512C144.846 167.315 144.947 167.108 145.11 166.891C145.308 166.625 145.429 166.388 145.472 166.182C145.519 165.974 145.456 165.762 145.282 165.546C145.096 165.315 144.848 165.157 144.539 165.072C144.227 164.984 143.926 164.98 143.635 165.059C143.446 165.11 143.299 165.193 143.193 165.309C143.085 165.42 143.033 165.556 143.038 165.715C143.039 165.87 143.107 166.033 143.239 166.205L141.142 166.776C140.745 166.269 140.551 165.809 140.561 165.395C140.573 164.977 140.753 164.62 141.101 164.327C141.446 164.029 141.915 163.8 142.509 163.638C143.151 163.464 143.786 163.39 144.414 163.419C145.047 163.445 145.629 163.579 146.16 163.82C146.696 164.059 147.141 164.399 147.495 164.839C147.835 165.262 147.998 165.657 147.983 166.025C147.968 166.392 147.815 166.756 147.526 167.116C147.373 167.305 147.268 167.481 147.211 167.643C147.156 167.801 147.153 167.968 147.204 168.145C147.255 168.322 147.371 168.522 147.551 168.745L147.671 168.894L145.732 169.422L145.612 169.273ZM148.714 171.61C148.499 171.668 148.264 171.68 148.011 171.645C147.758 171.61 147.518 171.533 147.293 171.412C147.067 171.292 146.885 171.142 146.747 170.964C146.605 170.794 146.529 170.623 146.517 170.448C146.506 170.274 146.558 170.119 146.674 169.984C146.79 169.848 146.956 169.751 147.171 169.693C147.378 169.636 147.606 169.626 147.855 169.662C148.108 169.697 148.348 169.773 148.575 169.888C148.807 170.003 148.993 170.145 149.135 170.314C149.273 170.493 149.347 170.671 149.357 170.85C149.365 171.026 149.312 171.183 149.198 171.322C149.082 171.458 148.921 171.554 148.714 171.61Z" fill="#B6C5E6"/>
<rect x="5.57146" y="1.80791" width="25" height="25" rx="12.5" transform="matrix(0.964923 -0.262534 0.626924 0.77908 156.989 150.893)" fill="white" stroke="#BCCBEA" stroke-width="7"/>
<path d="M183.244 159.034C182.909 158.619 182.681 158.272 182.559 157.994C182.438 157.71 182.398 157.47 182.438 157.273C182.478 157.076 182.579 156.869 182.742 156.652C182.94 156.386 183.061 156.15 183.104 155.943C183.151 155.735 183.088 155.523 182.914 155.307C182.728 155.076 182.48 154.918 182.171 154.834C181.859 154.746 181.558 154.741 181.267 154.82C181.078 154.871 180.931 154.955 180.826 155.07C180.717 155.182 180.665 155.317 180.67 155.476C180.671 155.631 180.739 155.795 180.871 155.966L178.774 156.537C178.377 156.03 178.183 155.57 178.193 155.156C178.205 154.738 178.385 154.382 178.733 154.088C179.078 153.791 179.547 153.561 180.141 153.4C180.783 153.225 181.418 153.152 182.046 153.18C182.679 153.207 183.261 153.34 183.792 153.581C184.328 153.821 184.773 154.16 185.127 154.601C185.467 155.023 185.63 155.418 185.615 155.786C185.6 156.153 185.448 156.517 185.158 156.877C185.005 157.066 184.9 157.242 184.843 157.405C184.788 157.562 184.786 157.73 184.836 157.906C184.887 158.083 185.003 158.283 185.183 158.507L185.303 158.656L183.364 159.183L183.244 159.034ZM186.346 161.371C186.131 161.43 185.896 161.441 185.643 161.406C185.39 161.372 185.15 161.294 184.925 161.173C184.699 161.053 184.517 160.903 184.379 160.725C184.237 160.556 184.161 160.384 184.149 160.209C184.138 160.035 184.19 159.88 184.306 159.745C184.422 159.609 184.588 159.512 184.803 159.454C185.01 159.397 185.238 159.387 185.487 159.424C185.74 159.459 185.98 159.534 186.207 159.65C186.439 159.764 186.625 159.906 186.767 160.075C186.905 160.254 186.979 160.433 186.989 160.612C186.997 160.787 186.944 160.944 186.83 161.083C186.714 161.219 186.553 161.315 186.346 161.371Z" fill="#B6C5E6"/>
<rect x="5.57146" y="1.80791" width="25" height="25" rx="12.5" transform="matrix(0.964923 -0.262534 0.626924 0.77908 194.621 140.654)" fill="white" stroke="#BCCBEA" stroke-width="7"/>
<path d="M220.876 148.795C220.541 148.38 220.313 148.033 220.191 147.754C220.07 147.471 220.03 147.231 220.07 147.034C220.11 146.837 220.211 146.63 220.374 146.413C220.572 146.147 220.693 145.911 220.736 145.704C220.783 145.496 220.72 145.284 220.546 145.068C220.36 144.837 220.112 144.679 219.803 144.595C219.491 144.506 219.19 144.502 218.899 144.581C218.71 144.632 218.563 144.716 218.457 144.831C218.349 144.943 218.297 145.078 218.302 145.237C218.303 145.392 218.371 145.556 218.503 145.727L216.406 146.298C216.009 145.791 215.815 145.331 215.825 144.917C215.837 144.499 216.017 144.143 216.365 143.849C216.71 143.552 217.179 143.322 217.773 143.161C218.415 142.986 219.05 142.913 219.678 142.941C220.311 142.968 220.893 143.101 221.424 143.342C221.96 143.582 222.405 143.921 222.759 144.362C223.099 144.784 223.262 145.179 223.247 145.547C223.232 145.914 223.079 146.278 222.79 146.638C222.637 146.827 222.532 147.003 222.475 147.166C222.42 147.323 222.417 147.491 222.468 147.667C222.519 147.844 222.635 148.044 222.815 148.268L222.935 148.417L220.996 148.944L220.876 148.795ZM223.978 151.132C223.763 151.191 223.528 151.202 223.275 151.167C223.022 151.133 222.782 151.055 222.557 150.934C222.331 150.814 222.149 150.664 222.011 150.486C221.869 150.317 221.793 150.145 221.781 149.97C221.77 149.796 221.822 149.641 221.938 149.506C222.054 149.37 222.22 149.273 222.435 149.215C222.642 149.158 222.87 149.148 223.119 149.185C223.372 149.22 223.612 149.295 223.839 149.411C224.071 149.525 224.257 149.667 224.399 149.836C224.537 150.015 224.611 150.194 224.621 150.373C224.629 150.548 224.576 150.705 224.462 150.844C224.346 150.98 224.185 151.076 223.978 151.132Z" fill="#B6C5E6"/>
<rect x="5.57146" y="1.80791" width="25" height="25" rx="12.5" transform="matrix(0.964923 -0.262534 0.626924 0.77908 232.253 130.415)" fill="white" stroke="#BCCBEA" stroke-width="7"/>
<path d="M258.508 138.556C258.173 138.141 257.945 137.794 257.823 137.516C257.702 137.233 257.662 136.993 257.702 136.796C257.742 136.599 257.843 136.392 258.006 136.174C258.204 135.908 258.325 135.672 258.368 135.465C258.415 135.258 258.352 135.046 258.178 134.829C257.992 134.598 257.744 134.441 257.435 134.356C257.123 134.268 256.822 134.263 256.531 134.342C256.342 134.394 256.195 134.477 256.089 134.592C255.981 134.704 255.929 134.839 255.934 134.998C255.935 135.153 256.003 135.317 256.135 135.489L254.038 136.059C253.641 135.553 253.447 135.092 253.457 134.679C253.469 134.26 253.649 133.904 253.997 133.61C254.342 133.313 254.811 133.083 255.405 132.922C256.047 132.747 256.682 132.674 257.31 132.702C257.943 132.729 258.525 132.863 259.056 133.103C259.592 133.343 260.037 133.683 260.391 134.123C260.731 134.545 260.894 134.94 260.879 135.308C260.864 135.676 260.711 136.04 260.422 136.4C260.269 136.588 260.164 136.764 260.107 136.927C260.052 137.085 260.049 137.252 260.1 137.428C260.151 137.605 260.267 137.805 260.447 138.029L260.567 138.178L258.628 138.706L258.508 138.556ZM261.61 140.893C261.395 140.952 261.16 140.964 260.907 140.929C260.654 140.894 260.414 140.816 260.189 140.696C259.963 140.575 259.781 140.426 259.643 140.247C259.501 140.078 259.425 139.906 259.413 139.732C259.402 139.557 259.454 139.403 259.57 139.267C259.686 139.132 259.852 139.035 260.067 138.976C260.274 138.92 260.502 138.91 260.751 138.946C261.004 138.981 261.244 139.056 261.471 139.172C261.703 139.286 261.889 139.428 262.031 139.597C262.169 139.776 262.243 139.955 262.253 140.134C262.261 140.309 262.208 140.467 262.094 140.606C261.978 140.741 261.817 140.837 261.61 140.893Z" fill="#B6C5E6"/>
<rect x="5.57146" y="1.80791" width="25" height="25" rx="12.5" transform="matrix(0.964923 -0.262534 0.626924 0.77908 269.885 120.176)" fill="white" stroke="#BCCBEA" stroke-width="7"/>
<path d="M296.14 128.318C295.805 127.902 295.577 127.555 295.455 127.277C295.334 126.994 295.294 126.754 295.334 126.557C295.374 126.36 295.475 126.153 295.638 125.935C295.836 125.669 295.957 125.433 296 125.227C296.047 125.019 295.984 124.807 295.81 124.59C295.624 124.359 295.376 124.202 295.067 124.117C294.755 124.029 294.454 124.024 294.163 124.103C293.974 124.155 293.827 124.238 293.722 124.353C293.613 124.465 293.561 124.6 293.566 124.759C293.567 124.915 293.635 125.078 293.767 125.25L291.67 125.82C291.273 125.314 291.079 124.854 291.089 124.44C291.101 124.021 291.281 123.665 291.629 123.371C291.974 123.074 292.443 122.845 293.037 122.683C293.679 122.508 294.314 122.435 294.942 122.463C295.575 122.49 296.157 122.624 296.688 122.865C297.224 123.104 297.669 123.444 298.023 123.884C298.363 124.307 298.526 124.702 298.511 125.069C298.496 125.437 298.344 125.801 298.054 126.161C297.901 126.35 297.796 126.525 297.739 126.688C297.684 126.846 297.682 127.013 297.732 127.19C297.783 127.366 297.899 127.566 298.079 127.79L298.199 127.939L296.26 128.467L296.14 128.318ZM299.242 130.654C299.027 130.713 298.792 130.725 298.539 130.69C298.286 130.655 298.046 130.577 297.821 130.457C297.595 130.336 297.413 130.187 297.275 130.008C297.133 129.839 297.057 129.667 297.045 129.493C297.034 129.319 297.086 129.164 297.202 129.028C297.318 128.893 297.484 128.796 297.699 128.737C297.906 128.681 298.134 128.671 298.383 128.707C298.636 128.742 298.876 128.817 299.103 128.933C299.335 129.047 299.521 129.189 299.663 129.359C299.801 129.537 299.875 129.716 299.885 129.895C299.893 130.071 299.84 130.228 299.726 130.367C299.61 130.502 299.449 130.598 299.242 130.654Z" fill="#B6C5E6"/>
<rect width="83" height="16" rx="5" transform="matrix(0.964923 -0.262534 0.626924 0.77908 206.86 95.8315)" fill="white" fill-opacity="0.2"/>
<rect width="251" height="16" rx="5" transform="matrix(0.964923 -0.262534 0.626924 0.77908 99.9221 208.496)" fill="white" fill-opacity="0.2"/>
</g>
<rect x="0.795924" y="0.258273" width="288.511" height="139.752" rx="15.5" transform="matrix(0.964923 -0.262534 0.626924 0.77908 11.866 127.273)" stroke="white" stroke-opacity="0.96"/>
<rect x="0.795924" y="0.258273" width="288.511" height="139.752" rx="15.5" transform="matrix(0.964923 -0.262534 0.626924 0.77908 11.866 127.273)" stroke="#434EC6" stroke-opacity="0.39"/>
<g clip-path="url(#clip2_28_1161)">
<rect width="289.511" height="140.752" rx="16" transform="matrix(0.964923 -0.262534 0.626924 0.77908 39 145.007)" fill="url(#paint1_linear_28_1161)"/>
<rect x="5.57146" y="1.80791" width="25" height="25" rx="12.5" transform="matrix(0.964923 -0.262534 0.626924 0.77908 108.725 189.37)" fill="white" stroke="#BCCBEA" stroke-width="7"/>
<path d="M134.98 197.512C134.645 197.096 134.417 196.749 134.295 196.471C134.174 196.188 134.134 195.948 134.174 195.751C134.214 195.554 134.315 195.347 134.478 195.129C134.676 194.863 134.797 194.627 134.84 194.421C134.887 194.213 134.824 194.001 134.65 193.784C134.464 193.554 134.216 193.396 133.907 193.311C133.595 193.223 133.294 193.218 133.003 193.297C132.814 193.349 132.667 193.432 132.561 193.547C132.453 193.659 132.401 193.795 132.406 193.953C132.407 194.109 132.475 194.272 132.607 194.444L130.51 195.015C130.113 194.508 129.919 194.048 129.929 193.634C129.941 193.215 130.121 192.859 130.469 192.565C130.814 192.268 131.283 192.039 131.877 191.877C132.519 191.702 133.154 191.629 133.782 191.657C134.415 191.684 134.997 191.818 135.528 192.059C136.064 192.298 136.509 192.638 136.863 193.078C137.203 193.501 137.366 193.896 137.351 194.263C137.336 194.631 137.183 194.995 136.894 195.355C136.741 195.544 136.636 195.72 136.579 195.882C136.524 196.04 136.521 196.207 136.572 196.384C136.623 196.56 136.739 196.76 136.919 196.984L137.039 197.133L135.1 197.661L134.98 197.512ZM138.082 199.849C137.867 199.907 137.632 199.919 137.379 199.884C137.126 199.849 136.886 199.771 136.661 199.651C136.435 199.531 136.253 199.381 136.115 199.202C135.973 199.033 135.897 198.861 135.885 198.687C135.874 198.513 135.926 198.358 136.042 198.222C136.158 198.087 136.324 197.99 136.539 197.931C136.746 197.875 136.974 197.865 137.223 197.901C137.476 197.936 137.716 198.011 137.943 198.127C138.175 198.242 138.361 198.383 138.503 198.553C138.641 198.731 138.715 198.91 138.725 199.089C138.733 199.265 138.68 199.422 138.566 199.561C138.45 199.696 138.289 199.792 138.082 199.849Z" fill="#B6C5E6"/>
<rect x="5.57146" y="1.80791" width="25" height="25" rx="12.5" transform="matrix(0.964923 -0.262534 0.626924 0.77908 146.357 179.132)" fill="white" stroke="#BCCBEA" stroke-width="7"/>
<path d="M172.612 187.273C172.277 186.858 172.049 186.511 171.927 186.232C171.806 185.949 171.766 185.709 171.806 185.512C171.846 185.315 171.947 185.108 172.11 184.891C172.308 184.625 172.429 184.388 172.472 184.182C172.519 183.974 172.456 183.762 172.282 183.546C172.096 183.315 171.848 183.157 171.539 183.072C171.227 182.984 170.926 182.98 170.635 183.059C170.446 183.11 170.299 183.193 170.193 183.309C170.085 183.42 170.033 183.556 170.038 183.715C170.039 183.87 170.107 184.033 170.239 184.205L168.142 184.776C167.745 184.269 167.551 183.809 167.561 183.395C167.573 182.977 167.753 182.62 168.101 182.327C168.446 182.029 168.915 181.8 169.509 181.638C170.151 181.464 170.786 181.39 171.414 181.419C172.047 181.445 172.629 181.579 173.16 181.82C173.696 182.059 174.141 182.399 174.495 182.839C174.835 183.262 174.998 183.657 174.983 184.025C174.968 184.392 174.815 184.756 174.526 185.116C174.373 185.305 174.268 185.481 174.211 185.643C174.156 185.801 174.153 185.968 174.204 186.145C174.255 186.322 174.371 186.522 174.551 186.745L174.671 186.894L172.732 187.422L172.612 187.273ZM175.714 189.61C175.499 189.668 175.264 189.68 175.011 189.645C174.758 189.61 174.518 189.533 174.293 189.412C174.067 189.292 173.885 189.142 173.747 188.964C173.605 188.794 173.529 188.623 173.517 188.448C173.506 188.274 173.558 188.119 173.674 187.984C173.79 187.848 173.956 187.751 174.171 187.693C174.378 187.636 174.606 187.626 174.855 187.662C175.108 187.697 175.348 187.773 175.575 187.888C175.807 188.003 175.993 188.145 176.135 188.314C176.273 188.493 176.347 188.671 176.357 188.85C176.365 189.026 176.312 189.183 176.198 189.322C176.082 189.458 175.921 189.554 175.714 189.61Z" fill="#B6C5E6"/>
<rect x="5.57146" y="1.80791" width="25" height="25" rx="12.5" transform="matrix(0.964923 -0.262534 0.626924 0.77908 183.989 168.893)" fill="white" stroke="#BCCBEA" stroke-width="7"/>
<path d="M210.244 177.034C209.909 176.619 209.681 176.272 209.559 175.994C209.438 175.71 209.398 175.47 209.438 175.273C209.478 175.076 209.579 174.869 209.742 174.652C209.94 174.386 210.061 174.15 210.104 173.943C210.151 173.735 210.088 173.523 209.914 173.307C209.728 173.076 209.48 172.918 209.171 172.834C208.859 172.746 208.558 172.741 208.267 172.82C208.078 172.871 207.931 172.955 207.826 173.07C207.717 173.182 207.665 173.317 207.67 173.476C207.671 173.631 207.739 173.795 207.871 173.966L205.774 174.537C205.377 174.03 205.183 173.57 205.193 173.156C205.205 172.738 205.385 172.382 205.733 172.088C206.078 171.791 206.547 171.561 207.141 171.4C207.783 171.225 208.418 171.152 209.046 171.18C209.679 171.207 210.261 171.34 210.792 171.581C211.328 171.821 211.773 172.16 212.127 172.601C212.467 173.023 212.63 173.418 212.615 173.786C212.6 174.153 212.448 174.517 212.158 174.877C212.005 175.066 211.9 175.242 211.843 175.405C211.788 175.562 211.786 175.73 211.836 175.906C211.887 176.083 212.003 176.283 212.183 176.507L212.303 176.656L210.364 177.183L210.244 177.034ZM213.346 179.371C213.131 179.43 212.896 179.441 212.643 179.406C212.39 179.372 212.15 179.294 211.925 179.173C211.699 179.053 211.517 178.903 211.379 178.725C211.237 178.556 211.161 178.384 211.149 178.209C211.138 178.035 211.19 177.88 211.306 177.745C211.422 177.609 211.588 177.512 211.803 177.454C212.01 177.397 212.238 177.387 212.487 177.424C212.74 177.459 212.98 177.534 213.207 177.65C213.439 177.764 213.625 177.906 213.767 178.075C213.905 178.254 213.979 178.433 213.989 178.612C213.997 178.787 213.944 178.944 213.83 179.083C213.714 179.219 213.553 179.315 213.346 179.371Z" fill="#B6C5E6"/>
<rect x="5.57146" y="1.80791" width="25" height="25" rx="12.5" transform="matrix(0.964923 -0.262534 0.626924 0.77908 221.621 158.654)" fill="white" stroke="#BCCBEA" stroke-width="7"/>
<path d="M247.876 166.795C247.541 166.38 247.313 166.033 247.191 165.754C247.07 165.471 247.03 165.231 247.07 165.034C247.11 164.837 247.211 164.63 247.374 164.413C247.572 164.147 247.693 163.911 247.736 163.704C247.783 163.496 247.72 163.284 247.546 163.068C247.36 162.837 247.112 162.679 246.803 162.595C246.491 162.506 246.19 162.502 245.899 162.581C245.71 162.632 245.563 162.716 245.457 162.831C245.349 162.943 245.297 163.078 245.302 163.237C245.303 163.392 245.371 163.556 245.503 163.727L243.406 164.298C243.009 163.791 242.815 163.331 242.825 162.917C242.837 162.499 243.017 162.143 243.365 161.849C243.71 161.552 244.179 161.322 244.773 161.161C245.415 160.986 246.05 160.913 246.678 160.941C247.311 160.968 247.893 161.101 248.424 161.342C248.96 161.582 249.405 161.921 249.759 162.362C250.099 162.784 250.262 163.179 250.247 163.547C250.232 163.914 250.079 164.278 249.79 164.638C249.637 164.827 249.532 165.003 249.475 165.166C249.42 165.323 249.417 165.491 249.468 165.667C249.519 165.844 249.635 166.044 249.815 166.268L249.935 166.417L247.996 166.944L247.876 166.795ZM250.978 169.132C250.763 169.191 250.528 169.202 250.275 169.167C250.022 169.133 249.782 169.055 249.557 168.934C249.331 168.814 249.149 168.664 249.011 168.486C248.869 168.317 248.793 168.145 248.781 167.97C248.77 167.796 248.822 167.641 248.938 167.506C249.054 167.37 249.22 167.273 249.435 167.215C249.642 167.158 249.87 167.148 250.119 167.185C250.372 167.22 250.612 167.295 250.839 167.411C251.071 167.525 251.257 167.667 251.399 167.836C251.537 168.015 251.611 168.194 251.621 168.373C251.629 168.548 251.576 168.705 251.462 168.844C251.346 168.98 251.185 169.076 250.978 169.132Z" fill="#B6C5E6"/>
<rect x="5.57146" y="1.80791" width="25" height="25" rx="12.5" transform="matrix(0.964923 -0.262534 0.626924 0.77908 259.253 148.415)" fill="white" stroke="#BCCBEA" stroke-width="7"/>
<path d="M285.508 156.556C285.173 156.141 284.945 155.794 284.823 155.516C284.702 155.233 284.662 154.993 284.702 154.796C284.742 154.599 284.843 154.392 285.006 154.174C285.204 153.908 285.325 153.672 285.368 153.465C285.415 153.258 285.352 153.046 285.178 152.829C284.992 152.598 284.744 152.441 284.435 152.356C284.123 152.268 283.822 152.263 283.531 152.342C283.342 152.394 283.195 152.477 283.089 152.592C282.981 152.704 282.929 152.839 282.934 152.998C282.935 153.153 283.003 153.317 283.135 153.489L281.038 154.059C280.641 153.553 280.447 153.092 280.457 152.679C280.469 152.26 280.649 151.904 280.997 151.61C281.342 151.313 281.811 151.083 282.405 150.922C283.047 150.747 283.682 150.674 284.31 150.702C284.943 150.729 285.525 150.863 286.056 151.103C286.592 151.343 287.037 151.683 287.391 152.123C287.731 152.545 287.894 152.94 287.879 153.308C287.864 153.676 287.711 154.04 287.422 154.4C287.269 154.588 287.164 154.764 287.107 154.927C287.052 155.085 287.049 155.252 287.1 155.428C287.151 155.605 287.267 155.805 287.447 156.029L287.567 156.178L285.628 156.706L285.508 156.556ZM288.61 158.893C288.395 158.952 288.16 158.964 287.907 158.929C287.654 158.894 287.414 158.816 287.189 158.696C286.963 158.575 286.781 158.426 286.643 158.247C286.501 158.078 286.425 157.906 286.413 157.732C286.402 157.557 286.454 157.403 286.57 157.267C286.686 157.132 286.852 157.035 287.067 156.976C287.274 156.92 287.502 156.91 287.751 156.946C288.004 156.981 288.244 157.056 288.471 157.172C288.703 157.286 288.889 157.428 289.031 157.597C289.169 157.776 289.243 157.955 289.253 158.134C289.261 158.309 289.208 158.467 289.094 158.606C288.978 158.741 288.817 158.837 288.61 158.893Z" fill="#B6C5E6"/>
<rect x="5.57146" y="1.80791" width="25" height="25" rx="12.5" transform="matrix(0.964923 -0.262534 0.626924 0.77908 296.885 138.176)" fill="white" stroke="#BCCBEA" stroke-width="7"/>
<path d="M323.14 146.318C322.805 145.902 322.577 145.555 322.455 145.277C322.334 144.994 322.294 144.754 322.334 144.557C322.374 144.36 322.475 144.153 322.638 143.935C322.836 143.669 322.957 143.433 323 143.227C323.047 143.019 322.984 142.807 322.81 142.59C322.624 142.359 322.376 142.202 322.067 142.117C321.755 142.029 321.454 142.024 321.163 142.103C320.974 142.155 320.827 142.238 320.722 142.353C320.613 142.465 320.561 142.6 320.566 142.759C320.567 142.915 320.635 143.078 320.767 143.25L318.67 143.82C318.273 143.314 318.079 142.854 318.089 142.44C318.101 142.021 318.281 141.665 318.629 141.371C318.974 141.074 319.443 140.845 320.037 140.683C320.679 140.508 321.314 140.435 321.942 140.463C322.575 140.49 323.157 140.624 323.688 140.865C324.224 141.104 324.669 141.444 325.023 141.884C325.363 142.307 325.526 142.702 325.511 143.069C325.496 143.437 325.344 143.801 325.054 144.161C324.901 144.35 324.796 144.525 324.739 144.688C324.684 144.846 324.682 145.013 324.732 145.19C324.783 145.366 324.899 145.566 325.079 145.79L325.199 145.939L323.26 146.467L323.14 146.318ZM326.242 148.654C326.027 148.713 325.792 148.725 325.539 148.69C325.286 148.655 325.046 148.577 324.821 148.457C324.595 148.336 324.413 148.187 324.275 148.008C324.133 147.839 324.057 147.667 324.045 147.493C324.034 147.319 324.086 147.164 324.202 147.028C324.318 146.893 324.484 146.796 324.699 146.737C324.906 146.681 325.134 146.671 325.383 146.707C325.636 146.742 325.876 146.817 326.103 146.933C326.335 147.047 326.521 147.189 326.663 147.359C326.801 147.537 326.875 147.716 326.885 147.895C326.893 148.071 326.84 148.228 326.726 148.367C326.61 148.502 326.449 148.598 326.242 148.654Z" fill="#B6C5E6"/>
<rect width="83" height="16" rx="5" transform="matrix(0.964923 -0.262534 0.626924 0.77908 233.86 113.832)" fill="white" fill-opacity="0.2"/>
<rect width="251" height="16" rx="5" transform="matrix(0.964923 -0.262534 0.626924 0.77908 126.922 226.496)" fill="white" fill-opacity="0.2"/>
<path d="M89.5629 153.121L94.3107 159.022L90.3092 160.11L85.8842 154.611C85.0952 153.631 84.2659 153.276 83.4151 153.507C82.3151 153.807 82.2441 154.573 83.1975 155.758L87.3476 160.915L83.4501 161.975L79.0252 156.476C78.2585 155.524 77.4098 155.14 76.5722 155.368C75.4873 155.663 75.3985 156.453 76.3394 157.623L80.4895 162.78L76.4881 163.869L68.9202 154.464L71.7339 153.699L73.1174 154.554C73.2123 154.04 73.4723 153.576 73.8796 153.194C74.2868 152.812 74.8316 152.521 75.4764 152.342C76.1199 152.151 76.8639 152.095 77.6403 152.178C78.4168 152.262 79.201 152.483 79.9212 152.82C79.9983 152.27 80.2591 151.772 80.684 151.364C81.1089 150.956 81.6868 150.649 82.3742 150.465C84.8629 149.788 87.775 150.909 89.5575 153.124" fill="#1540F2"/>
<path d="M91.6927 154C89.3461 151.084 90.3851 148.248 94.1736 147.217C97.9621 146.186 102.374 147.54 104.72 150.456C107.066 153.371 106.016 156.213 102.239 157.24C98.4628 158.267 94.0315 156.907 91.6927 154ZM99.8971 154.33C100.242 154.245 100.539 154.103 100.77 153.914C101 153.724 101.159 153.491 101.235 153.23C101.312 152.968 101.305 152.683 101.215 152.393C101.125 152.104 100.954 151.816 100.713 151.547C100.504 151.273 100.229 151.019 99.9035 150.799C99.5784 150.579 99.2098 150.399 98.8196 150.268C98.4293 150.137 98.0254 150.058 97.6317 150.036C97.2379 150.015 96.8623 150.05 96.5271 150.142C96.1919 150.233 95.904 150.378 95.6802 150.567C95.4564 150.757 95.3015 150.988 95.2244 151.246C95.1474 151.504 95.1499 151.784 95.2317 152.07C95.3136 152.356 95.4731 152.642 95.7009 152.911C95.9006 153.19 96.1715 153.452 96.4963 153.677C96.821 153.903 97.1926 154.089 97.5872 154.222C97.9819 154.356 98.3911 154.434 98.7888 154.453C99.1864 154.471 99.5639 154.429 99.8971 154.33Z" fill="#1540F2"/>
<path d="M115.36 149.83L117.643 152.667L114.89 153.416C114.365 153.606 113.756 153.697 113.107 153.684C112.457 153.671 111.783 153.554 111.131 153.34C110.48 153.127 109.867 152.823 109.335 152.449C108.803 152.076 108.366 151.642 108.054 151.178L105.201 147.633L103.075 148.211L102.466 147.455L104.063 141.549L104.885 141.325L107.098 144.076L110.017 143.282L112.024 145.776L109.207 146.543L111.616 149.537C111.717 149.687 111.86 149.827 112.033 149.948C112.206 150.068 112.405 150.166 112.616 150.234C112.828 150.303 113.046 150.339 113.256 150.342C113.466 150.345 113.663 150.314 113.831 150.25L115.36 149.83Z" fill="#1540F2"/>
<path d="M124.314 147.394L126.597 150.231L123.844 150.98C123.319 151.17 122.71 151.261 122.06 151.248C121.411 151.235 120.737 151.118 120.085 150.904C119.434 150.691 118.82 150.387 118.289 150.013C117.757 149.64 117.32 149.206 117.008 148.742L114.155 145.197L112.029 145.775L111.42 145.018L113.012 139.114L113.835 138.89L116.048 141.641L118.967 140.847L120.974 143.341L118.156 144.108L120.565 147.102C120.668 147.251 120.81 147.391 120.983 147.511C121.156 147.631 121.355 147.728 121.566 147.796C121.777 147.864 121.995 147.9 122.204 147.903C122.414 147.906 122.609 147.874 122.778 147.811L124.314 147.394Z" fill="#1540F2"/>
<path d="M123.254 145.413C120.908 142.497 121.946 139.66 125.735 138.629C129.523 137.599 133.936 138.953 136.282 141.868C138.628 144.784 137.577 147.625 133.801 148.653C130.024 149.68 125.593 148.319 123.254 145.413ZM131.459 145.742C131.804 145.657 132.101 145.516 132.331 145.326C132.562 145.137 132.72 144.904 132.797 144.642C132.873 144.38 132.867 144.096 132.777 143.806C132.687 143.516 132.515 143.228 132.274 142.96C132.065 142.686 131.79 142.431 131.465 142.212C131.14 141.992 130.771 141.811 130.381 141.68C129.991 141.549 129.587 141.47 129.193 141.449C128.799 141.427 128.424 141.463 128.089 141.554C127.753 141.645 127.465 141.79 127.242 141.98C127.018 142.169 126.863 142.4 126.786 142.658C126.709 142.916 126.711 143.197 126.793 143.483C126.875 143.769 127.034 144.055 127.262 144.323C127.462 144.603 127.733 144.864 128.058 145.09C128.382 145.316 128.754 145.501 129.149 145.635C129.543 145.768 129.952 145.847 130.35 145.865C130.748 145.884 131.125 145.842 131.459 145.742Z" fill="#1540F2"/>
</g>
<rect x="0.795924" y="0.258273" width="288.511" height="139.752" rx="15.5" transform="matrix(0.964923 -0.262534 0.626924 0.77908 38.866 145.273)" stroke="white" stroke-opacity="0.96"/>
<rect x="0.795924" y="0.258273" width="288.511" height="139.752" rx="15.5" transform="matrix(0.964923 -0.262534 0.626924 0.77908 38.866 145.273)" stroke="#434EC6" stroke-opacity="0.39"/>
<g clip-path="url(#clip3_28_1161)">
<rect width="289.511" height="140.752" rx="16" transform="matrix(0.82102 -0.570899 0.851873 0.523748 1 195.281)" fill="url(#paint2_linear_28_1161)"/>
<rect x="5.85513" y="-0.165029" width="25" height="25" rx="12.5" transform="matrix(0.82102 -0.570899 0.851873 0.523748 83.0119 214.891)" fill="white" stroke="#BCCBEA" stroke-width="7"/>
<path d="M109.029 212.562C108.575 212.283 108.243 212.032 108.035 211.811C107.826 211.585 107.708 211.372 107.679 211.173C107.651 210.974 107.677 210.745 107.757 210.486C107.855 210.169 107.89 209.906 107.861 209.697C107.836 209.485 107.705 209.307 107.468 209.161C107.216 209.006 106.93 208.94 106.61 208.964C106.286 208.986 106.001 209.083 105.754 209.254C105.593 209.366 105.482 209.494 105.421 209.638C105.357 209.78 105.353 209.925 105.411 210.073C105.464 210.219 105.583 210.35 105.765 210.467L103.98 211.708C103.437 211.364 103.1 210.995 102.971 210.602C102.841 210.204 102.891 209.808 103.12 209.415C103.346 209.019 103.711 208.645 104.216 208.294C104.762 207.914 105.336 207.632 105.938 207.448C106.543 207.261 107.136 207.192 107.717 207.241C108.302 207.287 108.835 207.458 109.317 207.753C109.779 208.038 110.064 208.355 110.173 208.707C110.282 209.058 110.261 209.452 110.109 209.888C110.028 210.117 109.988 210.318 109.989 210.49C109.99 210.658 110.044 210.816 110.151 210.965C110.258 211.114 110.434 211.264 110.679 211.415L110.842 211.515L109.192 212.662L109.029 212.562ZM112.735 213.723C112.552 213.851 112.335 213.94 112.085 213.992C111.835 214.044 111.583 214.051 111.33 214.014C111.077 213.976 110.856 213.896 110.665 213.774C110.475 213.662 110.345 213.526 110.276 213.366C110.207 213.205 110.204 213.042 110.268 212.875C110.332 212.709 110.456 212.562 110.639 212.434C110.815 212.312 111.026 212.226 111.273 212.177C111.523 212.125 111.774 212.115 112.027 212.148C112.284 212.178 112.507 212.249 112.697 212.361C112.887 212.483 113.017 212.627 113.087 212.792C113.152 212.955 113.155 213.121 113.095 213.29C113.031 213.456 112.911 213.601 112.735 213.723Z" fill="#B6C5E6"/>
<rect x="5.85513" y="-0.165029" width="25" height="25" rx="12.5" transform="matrix(0.82102 -0.570899 0.851873 0.523748 115.032 192.626)" fill="white" stroke="#BCCBEA" stroke-width="7"/>
<path d="M141.049 190.297C140.594 190.018 140.263 189.767 140.055 189.546C139.846 189.32 139.728 189.107 139.699 188.908C139.671 188.709 139.697 188.48 139.777 188.221C139.875 187.904 139.909 187.64 139.881 187.432C139.856 187.22 139.725 187.042 139.488 186.896C139.235 186.741 138.949 186.675 138.63 186.699C138.306 186.721 138.021 186.817 137.774 186.989C137.613 187.101 137.502 187.229 137.441 187.373C137.377 187.515 137.373 187.66 137.431 187.808C137.484 187.953 137.602 188.085 137.785 188.202L136 189.443C135.456 189.099 135.12 188.73 134.991 188.337C134.861 187.939 134.911 187.543 135.14 187.15C135.366 186.754 135.731 186.38 136.236 186.029C136.782 185.649 137.356 185.367 137.957 185.183C138.563 184.996 139.156 184.927 139.737 184.976C140.322 185.021 140.855 185.192 141.337 185.488C141.799 185.772 142.084 186.09 142.193 186.442C142.302 186.793 142.281 187.187 142.129 187.623C142.048 187.852 142.008 188.053 142.009 188.225C142.01 188.393 142.064 188.551 142.171 188.7C142.278 188.849 142.454 188.999 142.699 189.149L142.862 189.25L141.212 190.397L141.049 190.297ZM144.755 191.458C144.572 191.585 144.355 191.675 144.105 191.727C143.854 191.779 143.603 191.786 143.35 191.748C143.097 191.711 142.875 191.631 142.685 191.509C142.495 191.397 142.365 191.261 142.296 191.1C142.227 190.94 142.224 190.777 142.288 190.61C142.352 190.444 142.475 190.297 142.659 190.169C142.835 190.047 143.046 189.961 143.292 189.912C143.543 189.86 143.794 189.85 144.047 189.883C144.303 189.913 144.527 189.984 144.717 190.096C144.907 190.218 145.037 190.362 145.107 190.527C145.172 190.69 145.175 190.856 145.115 191.025C145.051 191.191 144.931 191.336 144.755 191.458Z" fill="#B6C5E6"/>
<rect x="5.85513" y="-0.165029" width="25" height="25" rx="12.5" transform="matrix(0.82102 -0.570899 0.851873 0.523748 147.051 170.361)" fill="white" stroke="#BCCBEA" stroke-width="7"/>
<path d="M173.068 168.032C172.614 167.753 172.283 167.502 172.074 167.281C171.866 167.055 171.747 166.842 171.719 166.643C171.69 166.444 171.716 166.215 171.797 165.956C171.895 165.639 171.929 165.376 171.9 165.167C171.875 164.955 171.744 164.777 171.508 164.631C171.255 164.476 170.969 164.41 170.649 164.434C170.326 164.456 170.04 164.553 169.794 164.724C169.633 164.836 169.522 164.964 169.461 165.108C169.396 165.25 169.393 165.395 169.45 165.543C169.504 165.689 169.622 165.82 169.805 165.937L168.02 167.178C167.476 166.834 167.14 166.465 167.01 166.072C166.881 165.674 166.931 165.278 167.16 164.885C167.385 164.489 167.751 164.115 168.256 163.764C168.802 163.384 169.376 163.102 169.977 162.918C170.582 162.731 171.176 162.662 171.757 162.711C172.342 162.757 172.875 162.927 173.356 163.223C173.818 163.508 174.104 163.825 174.213 164.177C174.322 164.528 174.301 164.922 174.149 165.358C174.068 165.587 174.028 165.788 174.029 165.96C174.03 166.128 174.084 166.286 174.191 166.435C174.298 166.584 174.474 166.734 174.718 166.885L174.882 166.985L173.231 168.132L173.068 168.032ZM176.775 169.193C176.592 169.321 176.375 169.41 176.124 169.462C175.874 169.514 175.623 169.521 175.37 169.484C175.117 169.446 174.895 169.366 174.705 169.244C174.515 169.132 174.385 168.996 174.316 168.836C174.246 168.675 174.244 168.512 174.308 168.345C174.372 168.179 174.495 168.032 174.679 167.904C174.854 167.782 175.066 167.696 175.312 167.647C175.563 167.595 175.814 167.585 176.067 167.618C176.323 167.648 176.546 167.719 176.737 167.831C176.927 167.953 177.057 168.097 177.126 168.262C177.192 168.425 177.195 168.591 177.135 168.76C177.071 168.926 176.951 169.071 176.775 169.193Z" fill="#B6C5E6"/>
<rect x="5.85513" y="-0.165029" width="25" height="25" rx="12.5" transform="matrix(0.82102 -0.570899 0.851873 0.523748 179.071 148.096)" fill="white" stroke="#BCCBEA" stroke-width="7"/>
<path d="M205.088 145.767C204.634 145.488 204.303 145.237 204.094 145.016C203.886 144.79 203.767 144.577 203.739 144.378C203.71 144.179 203.736 143.95 203.817 143.691C203.915 143.374 203.949 143.11 203.92 142.902C203.895 142.69 203.764 142.512 203.528 142.366C203.275 142.211 202.989 142.145 202.669 142.169C202.346 142.191 202.06 142.287 201.813 142.459C201.653 142.571 201.542 142.699 201.481 142.843C201.416 142.985 201.413 143.129 201.47 143.278C201.524 143.423 201.642 143.555 201.825 143.672L200.04 144.913C199.496 144.569 199.16 144.2 199.03 143.807C198.901 143.409 198.951 143.013 199.18 142.62C199.405 142.224 199.77 141.85 200.276 141.499C200.822 141.119 201.396 140.837 201.997 140.653C202.602 140.466 203.195 140.397 203.777 140.445C204.362 140.491 204.895 140.662 205.376 140.958C205.838 141.242 206.124 141.56 206.233 141.911C206.342 142.263 206.321 142.657 206.169 143.093C206.088 143.322 206.047 143.523 206.049 143.695C206.049 143.863 206.103 144.021 206.211 144.17C206.318 144.319 206.494 144.469 206.738 144.619L206.901 144.72L205.251 145.867L205.088 145.767ZM208.795 146.928C208.611 147.055 208.395 147.145 208.144 147.197C207.894 147.249 207.642 147.256 207.39 147.218C207.137 147.181 206.915 147.101 206.725 146.979C206.535 146.867 206.405 146.731 206.336 146.57C206.266 146.41 206.263 146.247 206.327 146.08C206.391 145.914 206.515 145.767 206.698 145.639C206.874 145.517 207.086 145.431 207.332 145.382C207.582 145.33 207.834 145.32 208.087 145.353C208.343 145.383 208.566 145.454 208.756 145.566C208.947 145.688 209.077 145.832 209.146 145.997C209.212 146.16 209.215 146.326 209.155 146.495C209.091 146.661 208.971 146.806 208.795 146.928Z" fill="#B6C5E6"/>
<rect x="5.85513" y="-0.165029" width="25" height="25" rx="12.5" transform="matrix(0.82102 -0.570899 0.851873 0.523748 211.091 125.831)" fill="white" stroke="#BCCBEA" stroke-width="7"/>
<path d="M237.108 123.502C236.654 123.222 236.323 122.972 236.114 122.751C235.906 122.525 235.787 122.312 235.759 122.113C235.73 121.914 235.756 121.685 235.836 121.426C235.934 121.108 235.969 120.845 235.94 120.636C235.915 120.425 235.784 120.246 235.547 120.101C235.295 119.946 235.009 119.88 234.689 119.904C234.365 119.926 234.08 120.022 233.833 120.194C233.672 120.306 233.561 120.434 233.501 120.578C233.436 120.719 233.432 120.864 233.49 121.013C233.544 121.158 233.662 121.29 233.844 121.407L232.06 122.648C231.516 122.304 231.179 121.935 231.05 121.542C230.921 121.144 230.97 120.748 231.2 120.354C231.425 119.959 231.79 119.585 232.295 119.234C232.842 118.854 233.415 118.572 234.017 118.388C234.622 118.201 235.215 118.132 235.796 118.18C236.381 118.226 236.915 118.397 237.396 118.693C237.858 118.977 238.144 119.295 238.253 119.646C238.362 119.998 238.34 120.392 238.189 120.828C238.107 121.057 238.067 121.258 238.068 121.43C238.069 121.597 238.123 121.756 238.23 121.905C238.338 122.054 238.514 122.204 238.758 122.354L238.921 122.455L237.271 123.602L237.108 123.502ZM240.815 124.663C240.631 124.79 240.414 124.88 240.164 124.932C239.914 124.984 239.662 124.991 239.409 124.953C239.157 124.916 238.935 124.836 238.745 124.714C238.554 124.602 238.425 124.466 238.355 124.305C238.286 124.145 238.283 123.982 238.347 123.815C238.411 123.648 238.535 123.501 238.718 123.374C238.894 123.252 239.105 123.166 239.352 123.116C239.602 123.064 239.854 123.055 240.106 123.088C240.363 123.118 240.586 123.189 240.776 123.301C240.967 123.423 241.097 123.566 241.166 123.732C241.232 123.895 241.234 124.061 241.174 124.23C241.11 124.396 240.99 124.541 240.815 124.663Z" fill="#B6C5E6"/>
<rect x="5.85513" y="-0.165029" width="25" height="25" rx="12.5" transform="matrix(0.82102 -0.570899 0.851873 0.523748 243.111 103.566)" fill="white" stroke="#BCCBEA" stroke-width="7"/>
<path d="M269.128 101.237C268.674 100.958 268.342 100.707 268.134 100.486C267.925 100.26 267.807 100.047 267.778 99.8482C267.75 99.6493 267.776 99.4201 267.856 99.1608C267.954 98.8435 267.989 98.5804 267.96 98.3715C267.935 98.16 267.804 97.9815 267.567 97.8359C267.315 97.6807 267.029 97.6152 266.709 97.6392C266.385 97.6608 266.1 97.7574 265.853 97.9291C265.692 98.041 265.581 98.169 265.52 98.313C265.456 98.4546 265.452 98.5995 265.51 98.7476C265.563 98.8934 265.682 99.0248 265.864 99.142L264.079 100.383C263.536 100.039 263.199 99.6702 263.07 99.2769C262.94 98.8787 262.99 98.4829 263.219 98.0895C263.445 97.6937 263.81 97.3202 264.315 96.969C264.861 96.5891 265.435 96.3071 266.037 96.1229C266.642 95.9361 267.235 95.8669 267.816 95.9155C268.401 95.9614 268.934 96.1323 269.416 96.4283C269.878 96.7123 270.163 97.0301 270.272 97.3815C270.381 97.7329 270.36 98.1266 270.208 98.5628C270.127 98.7922 270.087 98.993 270.088 99.1653C270.089 99.3325 270.143 99.4907 270.25 99.64C270.357 99.7892 270.533 99.939 270.778 100.089L270.941 100.19L269.291 101.337L269.128 101.237ZM272.834 102.398C272.651 102.525 272.434 102.615 272.184 102.667C271.934 102.719 271.682 102.726 271.429 102.688C271.176 102.651 270.955 102.571 270.764 102.449C270.574 102.337 270.444 102.201 270.375 102.04C270.306 101.88 270.303 101.717 270.367 101.55C270.431 101.384 270.555 101.237 270.738 101.109C270.914 100.987 271.125 100.901 271.372 100.852C271.622 100.8 271.873 100.79 272.126 100.823C272.383 100.853 272.606 100.924 272.796 101.036C272.986 101.158 273.116 101.302 273.186 101.467C273.251 101.63 273.254 101.796 273.194 101.965C273.13 102.131 273.01 102.276 272.834 102.398Z" fill="#B6C5E6"/>
<rect width="83" height="16" rx="5" transform="matrix(0.82102 -0.570899 0.851873 0.523748 174.124 100.57)" fill="white" fill-opacity="0.2"/>
<rect width="251" height="16" rx="5" transform="matrix(0.82102 -0.570899 0.851873 0.523748 111.157 242.57)" fill="white" fill-opacity="0.2"/>
</g>
<rect x="0.836447" y="-0.0235756" width="288.511" height="139.752" rx="15.5" transform="matrix(0.82102 -0.570899 0.851873 0.523748 1.16979 195.748)" stroke="white" stroke-opacity="0.96"/>
<rect x="0.836447" y="-0.0235756" width="288.511" height="139.752" rx="15.5" transform="matrix(0.82102 -0.570899 0.851873 0.523748 1.16979 195.748)" stroke="#434EC6" stroke-opacity="0.39"/>
<g clip-path="url(#clip4_28_1161)">
<rect width="289.511" height="140.752" rx="16" transform="matrix(0.893673 -0.448719 0.769005 0.639243 49 169.909)" fill="url(#paint3_linear_28_1161)"/>
<rect x="5.81937" y="0.666835" width="25" height="25" rx="12.5" transform="matrix(0.893673 -0.448719 0.769005 0.639243 126.795 200.402)" fill="white" stroke="#BCCBEA" stroke-width="7"/>
<path d="M153.487 202.333C153.077 201.992 152.785 201.697 152.61 201.448C152.435 201.195 152.348 200.968 152.348 200.767C152.348 200.566 152.406 200.343 152.523 200.097C152.665 199.797 152.736 199.542 152.737 199.331C152.743 199.118 152.638 198.922 152.424 198.745C152.197 198.555 151.923 198.45 151.603 198.428C151.279 198.404 150.983 198.459 150.714 198.594C150.539 198.682 150.411 198.793 150.331 198.927C150.247 199.058 150.223 199.201 150.259 199.356C150.291 199.507 150.39 199.654 150.554 199.796L148.611 200.772C148.121 200.354 147.841 199.941 147.768 199.534C147.697 199.121 147.802 198.736 148.085 198.379C148.364 198.02 148.779 197.702 149.328 197.426C149.923 197.127 150.531 196.929 151.152 196.832C151.778 196.733 152.375 196.749 152.943 196.879C153.516 197.007 154.02 197.252 154.454 197.614C154.871 197.96 155.109 198.315 155.167 198.679C155.225 199.042 155.148 199.429 154.936 199.839C154.823 200.054 154.755 200.248 154.732 200.418C154.709 200.584 154.74 200.748 154.825 200.911C154.91 201.074 155.063 201.247 155.283 201.431L155.431 201.553L153.634 202.455L153.487 202.333ZM156.992 204.008C156.792 204.108 156.565 204.166 156.31 204.182C156.054 204.198 155.804 204.169 155.559 204.096C155.315 204.023 155.107 203.912 154.935 203.764C154.763 203.627 154.654 203.473 154.608 203.305C154.562 203.136 154.583 202.974 154.67 202.818C154.756 202.663 154.9 202.535 155.099 202.434C155.291 202.338 155.512 202.283 155.763 202.269C156.018 202.253 156.269 202.28 156.514 202.348C156.764 202.414 156.975 202.516 157.147 202.654C157.318 202.802 157.426 202.962 157.472 203.136C157.514 203.306 157.493 203.471 157.409 203.63C157.322 203.785 157.183 203.911 156.992 204.008Z" fill="#B6C5E6"/>
<rect x="5.81937" y="0.666835" width="25" height="25" rx="12.5" transform="matrix(0.893673 -0.448719 0.769005 0.639243 161.648 182.902)" fill="white" stroke="#BCCBEA" stroke-width="7"/>
<path d="M188.341 184.833C187.931 184.492 187.638 184.197 187.463 183.948C187.289 183.695 187.202 183.468 187.202 183.267C187.202 183.066 187.26 182.843 187.376 182.597C187.518 182.297 187.589 182.042 187.591 181.831C187.596 181.618 187.492 181.422 187.278 181.245C187.05 181.055 186.776 180.95 186.456 180.928C186.133 180.904 185.837 180.959 185.568 181.094C185.393 181.182 185.265 181.293 185.184 181.427C185.1 181.558 185.076 181.701 185.112 181.856C185.144 182.007 185.243 182.154 185.407 182.296L183.464 183.272C182.975 182.854 182.694 182.441 182.622 182.034C182.55 181.621 182.655 181.236 182.938 180.879C183.217 180.52 183.632 180.202 184.182 179.926C184.776 179.627 185.384 179.429 186.006 179.332C186.631 179.233 187.228 179.249 187.797 179.379C188.369 179.507 188.873 179.752 189.307 180.114C189.724 180.46 189.962 180.815 190.02 181.179C190.078 181.542 190.001 181.929 189.789 182.339C189.676 182.554 189.608 182.748 189.585 182.918C189.562 183.084 189.593 183.248 189.678 183.411C189.763 183.574 189.916 183.747 190.137 183.931L190.284 184.053L188.488 184.955L188.341 184.833ZM191.845 186.508C191.645 186.608 191.418 186.666 191.163 186.682C190.908 186.698 190.658 186.669 190.413 186.596C190.168 186.523 189.96 186.412 189.789 186.264C189.616 186.127 189.507 185.973 189.461 185.805C189.415 185.636 189.436 185.474 189.523 185.318C189.61 185.163 189.753 185.035 189.953 184.934C190.144 184.838 190.365 184.783 190.616 184.769C190.871 184.753 191.122 184.78 191.367 184.848C191.617 184.914 191.828 185.016 192 185.154C192.171 185.302 192.28 185.462 192.325 185.636C192.367 185.806 192.346 185.971 192.263 186.13C192.176 186.285 192.036 186.411 191.845 186.508Z" fill="#B6C5E6"/>
<rect x="5.81937" y="0.666835" width="25" height="25" rx="12.5" transform="matrix(0.893673 -0.448719 0.769005 0.639243 196.502 165.402)" fill="white" stroke="#BCCBEA" stroke-width="7"/>
<path d="M223.194 167.333C222.784 166.992 222.491 166.697 222.316 166.448C222.142 166.195 222.055 165.968 222.055 165.767C222.055 165.566 222.113 165.343 222.229 165.097C222.371 164.797 222.443 164.542 222.444 164.331C222.449 164.118 222.345 163.922 222.131 163.745C221.903 163.555 221.629 163.45 221.309 163.428C220.986 163.404 220.69 163.459 220.421 163.594C220.246 163.682 220.118 163.793 220.037 163.927C219.953 164.058 219.929 164.201 219.965 164.356C219.998 164.507 220.096 164.654 220.26 164.796L218.318 165.772C217.828 165.354 217.547 164.941 217.475 164.534C217.403 164.121 217.509 163.736 217.791 163.379C218.071 163.02 218.485 162.702 219.035 162.426C219.63 162.127 220.238 161.929 220.859 161.832C221.484 161.733 222.081 161.749 222.65 161.879C223.223 162.007 223.726 162.252 224.161 162.614C224.578 162.96 224.815 163.315 224.873 163.679C224.932 164.042 224.855 164.429 224.643 164.839C224.53 165.054 224.461 165.248 224.438 165.418C224.415 165.584 224.446 165.748 224.531 165.911C224.616 166.074 224.769 166.247 224.99 166.431L225.137 166.553L223.341 167.455L223.194 167.333ZM226.698 169.008C226.499 169.108 226.271 169.166 226.016 169.182C225.761 169.198 225.511 169.169 225.266 169.096C225.021 169.023 224.813 168.912 224.642 168.764C224.47 168.627 224.36 168.473 224.315 168.305C224.269 168.136 224.289 167.974 224.376 167.818C224.463 167.663 224.606 167.535 224.806 167.434C224.997 167.338 225.218 167.283 225.47 167.269C225.725 167.253 225.975 167.28 226.221 167.348C226.47 167.414 226.681 167.516 226.853 167.654C227.025 167.802 227.133 167.962 227.178 168.136C227.22 168.306 227.199 168.471 227.116 168.63C227.029 168.785 226.89 168.911 226.698 169.008Z" fill="#B6C5E6"/>
<rect x="5.81937" y="0.666835" width="25" height="25" rx="12.5" transform="matrix(0.893673 -0.448719 0.769005 0.639243 231.355 147.902)" fill="white" stroke="#BCCBEA" stroke-width="7"/>
<path d="M258.047 149.833C257.637 149.492 257.344 149.197 257.17 148.948C256.995 148.695 256.908 148.468 256.908 148.267C256.908 148.066 256.966 147.843 257.083 147.597C257.224 147.297 257.296 147.042 257.297 146.831C257.302 146.618 257.198 146.422 256.984 146.245C256.756 146.055 256.482 145.95 256.163 145.928C255.839 145.904 255.543 145.959 255.274 146.094C255.099 146.182 254.971 146.293 254.891 146.427C254.806 146.558 254.782 146.701 254.818 146.856C254.851 147.007 254.949 147.154 255.113 147.296L253.171 148.272C252.681 147.854 252.4 147.441 252.328 147.034C252.256 146.621 252.362 146.236 252.645 145.879C252.924 145.52 253.338 145.202 253.888 144.926C254.483 144.627 255.091 144.429 255.712 144.332C256.338 144.233 256.935 144.249 257.503 144.379C258.076 144.507 258.579 144.752 259.014 145.114C259.431 145.46 259.668 145.815 259.727 146.179C259.785 146.542 259.708 146.929 259.496 147.339C259.383 147.554 259.315 147.748 259.291 147.918C259.268 148.084 259.299 148.248 259.384 148.411C259.469 148.574 259.622 148.747 259.843 148.931L259.99 149.053L258.194 149.955L258.047 149.833ZM261.551 151.508C261.352 151.608 261.125 151.666 260.869 151.682C260.614 151.698 260.364 151.669 260.119 151.596C259.874 151.523 259.666 151.412 259.495 151.264C259.323 151.127 259.214 150.973 259.168 150.805C259.122 150.636 259.142 150.474 259.229 150.318C259.316 150.163 259.459 150.035 259.659 149.934C259.85 149.838 260.072 149.783 260.323 149.769C260.578 149.753 260.828 149.78 261.074 149.848C261.323 149.914 261.534 150.016 261.707 150.154C261.878 150.302 261.986 150.462 262.031 150.636C262.073 150.806 262.052 150.971 261.969 151.13C261.882 151.285 261.743 151.411 261.551 151.508Z" fill="#B6C5E6"/>
<rect x="5.81937" y="0.666835" width="25" height="25" rx="12.5" transform="matrix(0.893673 -0.448719 0.769005 0.639243 266.208 130.401)" fill="white" stroke="#BCCBEA" stroke-width="7"/>
<path d="M292.9 132.332C292.49 131.992 292.198 131.697 292.023 131.448C291.849 131.195 291.761 130.967 291.761 130.766C291.761 130.566 291.82 130.342 291.936 130.097C292.078 129.797 292.149 129.541 292.15 129.33C292.156 129.118 292.051 128.922 291.838 128.745C291.61 128.555 291.336 128.45 291.016 128.428C290.692 128.404 290.396 128.459 290.128 128.594C289.952 128.682 289.825 128.793 289.744 128.927C289.66 129.058 289.636 129.201 289.672 129.355C289.704 129.507 289.803 129.654 289.967 129.796L288.024 130.771C287.535 130.354 287.254 129.941 287.181 129.533C287.11 129.121 287.215 128.736 287.498 128.379C287.777 128.019 288.192 127.701 288.741 127.425C289.336 127.127 289.944 126.929 290.566 126.832C291.191 126.733 291.788 126.748 292.357 126.879C292.929 127.007 293.433 127.252 293.867 127.613C294.284 127.96 294.522 128.315 294.58 128.678C294.638 129.042 294.561 129.428 294.349 129.839C294.236 130.054 294.168 130.247 294.145 130.418C294.122 130.584 294.153 130.748 294.238 130.911C294.323 131.074 294.476 131.247 294.696 131.431L294.844 131.553L293.048 132.455L292.9 132.332ZM296.405 134.007C296.205 134.108 295.978 134.166 295.723 134.182C295.468 134.198 295.218 134.169 294.973 134.096C294.728 134.022 294.52 133.912 294.348 133.764C294.176 133.626 294.067 133.473 294.021 133.305C293.975 133.136 293.996 132.974 294.083 132.818C294.17 132.662 294.313 132.534 294.512 132.434C294.704 132.338 294.925 132.283 295.176 132.269C295.431 132.253 295.682 132.279 295.927 132.348C296.177 132.414 296.388 132.516 296.56 132.654C296.731 132.801 296.839 132.962 296.885 133.136C296.927 133.306 296.906 133.471 296.822 133.629C296.735 133.785 296.596 133.911 296.405 134.007Z" fill="#B6C5E6"/>
<rect x="5.81937" y="0.666835" width="25" height="25" rx="12.5" transform="matrix(0.893673 -0.448719 0.769005 0.639243 301.062 112.901)" fill="white" stroke="#BCCBEA" stroke-width="7"/>
<path d="M327.754 114.832C327.344 114.492 327.051 114.197 326.876 113.948C326.702 113.695 326.615 113.467 326.615 113.266C326.615 113.066 326.673 112.842 326.789 112.597C326.931 112.297 327.003 112.041 327.004 111.83C327.009 111.618 326.905 111.422 326.691 111.245C326.463 111.055 326.189 110.95 325.869 110.928C325.546 110.904 325.25 110.959 324.981 111.094C324.806 111.182 324.678 111.293 324.597 111.427C324.513 111.558 324.489 111.701 324.525 111.855C324.558 112.007 324.656 112.154 324.82 112.296L322.877 113.271C322.388 112.854 322.107 112.441 322.035 112.033C321.963 111.621 322.068 111.236 322.351 110.879C322.63 110.519 323.045 110.201 323.595 109.925C324.189 109.627 324.797 109.429 325.419 109.332C326.044 109.233 326.641 109.248 327.21 109.379C327.782 109.507 328.286 109.752 328.72 110.113C329.138 110.46 329.375 110.815 329.433 111.178C329.491 111.542 329.415 111.928 329.202 112.339C329.089 112.554 329.021 112.747 328.998 112.918C328.975 113.084 329.006 113.248 329.091 113.411C329.176 113.574 329.329 113.747 329.55 113.931L329.697 114.053L327.901 114.955L327.754 114.832ZM331.258 116.507C331.059 116.608 330.831 116.666 330.576 116.682C330.321 116.698 330.071 116.669 329.826 116.596C329.581 116.522 329.373 116.412 329.202 116.264C329.029 116.126 328.92 115.973 328.874 115.805C328.828 115.636 328.849 115.474 328.936 115.318C329.023 115.162 329.166 115.034 329.366 114.934C329.557 114.838 329.778 114.783 330.029 114.769C330.285 114.753 330.535 114.779 330.78 114.848C331.03 114.914 331.241 115.016 331.413 115.154C331.584 115.301 331.693 115.462 331.738 115.636C331.78 115.806 331.759 115.971 331.676 116.129C331.589 116.285 331.45 116.411 331.258 116.507Z" fill="#B6C5E6"/>
<rect width="83" height="16" rx="5" transform="matrix(0.893673 -0.448719 0.769005 0.639243 233.804 100.701)" fill="white" fill-opacity="0.2"/>
<rect width="251" height="16" rx="5" transform="matrix(0.893673 -0.448719 0.769005 0.639243 151.339 232.34)" fill="white" fill-opacity="0.2"/>
<path d="M100.168 167.833L105.991 172.674L102.286 174.535L96.8577 170.023C95.8899 169.219 95.0065 169.035 94.2186 169.431C93.1998 169.942 93.2822 170.708 94.4517 171.68L99.5424 175.911L95.9327 177.724L90.5048 173.212C89.5645 172.43 88.6565 172.223 87.8807 172.612C86.876 173.117 86.9457 173.909 88.0998 174.868L93.1905 179.1L89.4845 180.96L80.2015 173.244L82.8074 171.935L84.3332 172.5C84.3241 171.977 84.4869 171.47 84.8103 171.015C85.1337 170.56 85.6101 170.167 86.2064 169.863C86.7993 169.548 87.5173 169.346 88.295 169.274C89.0726 169.202 89.885 169.263 90.6579 169.451C90.6243 168.896 90.7811 168.356 91.1166 167.872C91.4522 167.388 91.9576 166.972 92.5949 166.655C94.8998 165.498 97.9764 166.019 100.163 167.837" fill="#1540F2"/>
<path d="M102.43 168.272C99.5511 165.879 100.007 162.893 103.516 161.131C107.024 159.37 111.618 159.822 114.495 162.214C117.373 164.606 116.907 167.599 113.409 169.355C109.911 171.111 105.298 170.657 102.43 168.272ZM110.536 166.967C110.858 166.816 111.121 166.618 111.309 166.386C111.497 166.155 111.606 165.895 111.63 165.624C111.653 165.352 111.59 165.074 111.444 164.808C111.298 164.542 111.073 164.294 110.783 164.078C110.524 163.851 110.204 163.657 109.842 163.506C109.48 163.355 109.083 163.251 108.674 163.2C108.266 163.149 107.854 163.152 107.464 163.209C107.074 163.266 106.713 163.375 106.402 163.531C106.092 163.687 105.838 163.886 105.657 164.116C105.475 164.346 105.369 164.603 105.345 164.872C105.32 165.14 105.378 165.414 105.515 165.678C105.652 165.942 105.865 166.191 106.142 166.409C106.393 166.644 106.71 166.846 107.074 167.003C107.437 167.16 107.838 167.268 108.251 167.32C108.664 167.373 109.081 167.368 109.474 167.308C109.868 167.247 110.229 167.131 110.536 166.967Z" fill="#1540F2"/>
<path d="M124.799 159.49L127.6 161.818L125.05 163.098C124.573 163.388 123.994 163.599 123.355 163.715C122.716 163.831 122.032 163.849 121.351 163.77C120.67 163.69 120.009 163.513 119.414 163.252C118.819 162.992 118.304 162.653 117.906 162.26L114.407 159.351L112.437 160.34L111.69 159.719L112.084 153.615L112.846 153.232L115.561 155.489L118.264 154.132L120.726 156.179L118.116 157.489L121.071 159.945C121.201 160.072 121.368 160.182 121.562 160.266C121.755 160.35 121.97 160.406 122.19 160.431C122.411 160.456 122.633 160.448 122.839 160.409C123.045 160.37 123.232 160.301 123.384 160.205L124.799 159.49Z" fill="#1540F2"/>
<path d="M133.092 155.326L135.893 157.654L133.343 158.935C132.866 159.225 132.287 159.435 131.648 159.551C131.009 159.667 130.325 159.686 129.644 159.606C128.963 159.526 128.302 159.349 127.706 159.089C127.111 158.828 126.597 158.489 126.199 158.097L122.699 155.188L120.73 156.176L119.983 155.556L120.373 149.453L121.135 149.07L123.849 151.327L126.552 149.97L129.015 152.017L126.405 153.327L129.36 155.783C129.49 155.91 129.657 156.018 129.851 156.102C130.044 156.185 130.258 156.241 130.478 156.266C130.699 156.29 130.92 156.283 131.125 156.244C131.331 156.205 131.517 156.135 131.669 156.04L133.092 155.326Z" fill="#1540F2"/>
<path d="M131.66 153.595C128.782 151.202 129.238 148.216 132.746 146.454C136.255 144.693 140.848 145.145 143.726 147.537C146.604 149.929 146.138 152.922 142.64 154.678C139.142 156.434 134.529 155.98 131.66 153.595ZM139.767 152.29C140.088 152.139 140.352 151.941 140.54 151.709C140.728 151.478 140.837 151.218 140.861 150.947C140.884 150.675 140.821 150.397 140.675 150.131C140.529 149.865 140.304 149.617 140.014 149.401C139.755 149.174 139.435 148.98 139.073 148.829C138.711 148.678 138.314 148.574 137.905 148.523C137.497 148.472 137.085 148.475 136.695 148.532C136.305 148.589 135.944 148.698 135.633 148.854C135.323 149.01 135.069 149.209 134.888 149.439C134.706 149.669 134.6 149.926 134.576 150.195C134.551 150.463 134.609 150.737 134.746 151.001C134.883 151.265 135.096 151.514 135.373 151.732C135.624 151.967 135.941 152.169 136.305 152.326C136.668 152.483 137.069 152.591 137.482 152.643C137.895 152.696 138.312 152.691 138.705 152.631C139.099 152.57 139.46 152.454 139.767 152.29Z" fill="#1540F2"/>
</g>
<rect x="0.831339" y="0.0952621" width="288.511" height="139.752" rx="15.5" transform="matrix(0.893673 -0.448719 0.769005 0.639243 49.0151 170.317)" stroke="white" stroke-opacity="0.96"/>
<rect x="0.831339" y="0.0952621" width="288.511" height="139.752" rx="15.5" transform="matrix(0.893673 -0.448719 0.769005 0.639243 49.0151 170.317)" stroke="#434EC6" stroke-opacity="0.39"/>
<g clip-path="url(#clip5_28_1161)">
<rect width="289.423" height="140.803" rx="16" transform="matrix(0.938764 -0.344561 0.691712 0.722173 44.9048 141.716)" fill="url(#paint4_linear_28_1161)"/>
<rect x="5.70667" y="1.32164" width="25" height="25" rx="12.5" transform="matrix(0.938764 -0.344561 0.691712 0.722173 118.403 180.309)" fill="white" stroke="#BCCBEA" stroke-width="7"/>
<path d="M145.053 185.762C144.684 185.377 144.427 185.051 144.281 184.785C144.137 184.513 144.076 184.277 144.099 184.078C144.121 183.878 144.204 183.663 144.348 183.432C144.523 183.15 144.623 182.904 144.648 182.695C144.677 182.484 144.596 182.278 144.403 182.078C144.198 181.864 143.938 181.728 143.623 181.67C143.304 181.609 143.004 181.63 142.721 181.734C142.537 181.802 142.398 181.897 142.302 182.021C142.204 182.142 142.164 182.281 142.182 182.439C142.197 182.594 142.278 182.751 142.425 182.91L140.385 183.659C139.946 183.189 139.713 182.747 139.687 182.334C139.663 181.916 139.811 181.546 140.133 181.223C140.451 180.897 140.899 180.628 141.476 180.416C142.101 180.187 142.727 180.059 143.356 180.033C143.989 180.006 144.58 180.089 145.13 180.283C145.684 180.475 146.157 180.775 146.548 181.184C146.923 181.575 147.119 181.955 147.136 182.322C147.152 182.69 147.032 183.065 146.775 183.449C146.638 183.65 146.549 183.834 146.506 184.001C146.465 184.163 146.477 184.33 146.543 184.502C146.609 184.673 146.741 184.863 146.94 185.07L147.072 185.208L145.185 185.901L145.053 185.762ZM148.345 187.823C148.136 187.9 147.903 187.932 147.648 187.919C147.393 187.906 147.147 187.849 146.912 187.749C146.677 187.648 146.483 187.515 146.33 187.349C146.174 187.192 146.083 187.028 146.056 186.855C146.03 186.683 146.069 186.524 146.173 186.379C146.277 186.234 146.434 186.123 146.643 186.046C146.844 185.972 147.07 185.943 147.321 185.957C147.577 185.97 147.822 186.025 148.059 186.12C148.299 186.214 148.497 186.34 148.653 186.496C148.806 186.662 148.896 186.834 148.921 187.012C148.943 187.186 148.904 187.347 148.803 187.495C148.699 187.64 148.546 187.75 148.345 187.823Z" fill="#B6C5E6"/>
<rect x="5.70667" y="1.32164" width="25" height="25" rx="12.5" transform="matrix(0.938764 -0.344561 0.691712 0.722173 155.015 166.871)" fill="white" stroke="#BCCBEA" stroke-width="7"/>
<path d="M181.665 172.324C181.296 171.939 181.039 171.613 180.893 171.347C180.749 171.075 180.688 170.839 180.71 170.64C180.733 170.44 180.816 170.225 180.96 169.994C181.135 169.712 181.235 169.466 181.26 169.257C181.289 169.046 181.207 168.84 181.015 168.64C180.81 168.426 180.55 168.29 180.234 168.232C179.916 168.171 179.615 168.192 179.333 168.296C179.149 168.364 179.009 168.459 178.914 168.583C178.816 168.704 178.776 168.843 178.794 169.001C178.809 169.156 178.89 169.313 179.037 169.472L176.996 170.221C176.557 169.751 176.325 169.309 176.299 168.896C176.275 168.478 176.423 168.108 176.744 167.785C177.063 167.459 177.511 167.19 178.088 166.978C178.713 166.749 179.339 166.621 179.968 166.595C180.6 166.568 181.192 166.651 181.742 166.845C182.296 167.037 182.769 167.338 183.16 167.746C183.535 168.137 183.731 168.517 183.747 168.884C183.764 169.252 183.644 169.627 183.387 170.011C183.25 170.212 183.16 170.396 183.118 170.563C183.076 170.725 183.089 170.892 183.155 171.064C183.221 171.235 183.353 171.425 183.552 171.632L183.684 171.77L181.797 172.463L181.665 172.324ZM184.957 174.385C184.748 174.462 184.515 174.494 184.26 174.481C184.004 174.468 183.759 174.411 183.524 174.311C183.289 174.21 183.095 174.077 182.942 173.911C182.786 173.754 182.695 173.59 182.668 173.417C182.642 173.245 182.68 173.086 182.784 172.941C182.889 172.796 183.045 172.685 183.255 172.608C183.456 172.534 183.682 172.505 183.933 172.519C184.189 172.532 184.434 172.587 184.67 172.682C184.911 172.776 185.109 172.902 185.265 173.058C185.418 173.224 185.507 173.396 185.533 173.574C185.555 173.748 185.516 173.909 185.415 174.057C185.311 174.202 185.158 174.312 184.957 174.385Z" fill="#B6C5E6"/>
<rect x="5.70667" y="1.32164" width="25" height="25" rx="12.5" transform="matrix(0.938764 -0.344561 0.691712 0.722173 191.627 153.433)" fill="white" stroke="#BCCBEA" stroke-width="7"/>
<path d="M218.277 158.887C217.908 158.502 217.651 158.176 217.505 157.909C217.36 157.637 217.299 157.402 217.322 157.202C217.345 157.002 217.428 156.787 217.571 156.557C217.746 156.274 217.846 156.029 217.871 155.819C217.901 155.608 217.819 155.403 217.627 155.202C217.422 154.988 217.162 154.852 216.846 154.794C216.528 154.733 216.227 154.755 215.945 154.858C215.761 154.926 215.621 155.022 215.526 155.146C215.428 155.266 215.388 155.405 215.406 155.563C215.421 155.718 215.502 155.875 215.649 156.035L213.608 156.784C213.169 156.313 212.937 155.871 212.911 155.458C212.887 155.04 213.035 154.67 213.356 154.347C213.674 154.021 214.122 153.752 214.7 153.54C215.325 153.311 215.951 153.184 216.579 153.158C217.212 153.13 217.804 153.213 218.354 153.407C218.908 153.599 219.381 153.9 219.772 154.308C220.147 154.7 220.343 155.079 220.359 155.447C220.376 155.814 220.256 156.19 219.999 156.573C219.862 156.775 219.772 156.959 219.73 157.126C219.688 157.288 219.701 157.454 219.766 157.626C219.832 157.797 219.965 157.987 220.163 158.194L220.296 158.332L218.409 159.025L218.277 158.887ZM221.569 160.948C221.359 161.025 221.127 161.056 220.872 161.043C220.616 161.03 220.371 160.974 220.136 160.873C219.901 160.773 219.707 160.639 219.553 160.473C219.398 160.317 219.307 160.152 219.28 159.98C219.254 159.807 219.292 159.648 219.396 159.503C219.5 159.358 219.657 159.247 219.867 159.17C220.068 159.097 220.294 159.067 220.545 159.082C220.8 159.095 221.046 159.149 221.282 159.245C221.523 159.339 221.721 159.464 221.876 159.62C222.03 159.787 222.119 159.958 222.145 160.136C222.167 160.31 222.128 160.471 222.027 160.619C221.923 160.764 221.77 160.874 221.569 160.948Z" fill="#B6C5E6"/>
<rect x="5.70667" y="1.32164" width="25" height="25" rx="12.5" transform="matrix(0.938764 -0.344561 0.691712 0.722173 228.238 139.995)" fill="white" stroke="#BCCBEA" stroke-width="7"/>
<path d="M254.888 145.449C254.52 145.064 254.262 144.738 254.117 144.471C253.972 144.199 253.911 143.964 253.934 143.764C253.957 143.564 254.04 143.349 254.183 143.119C254.358 142.836 254.458 142.591 254.483 142.381C254.512 142.17 254.431 141.965 254.239 141.764C254.034 141.55 253.774 141.414 253.458 141.356C253.139 141.295 252.839 141.317 252.557 141.42C252.373 141.488 252.233 141.584 252.138 141.708C252.039 141.828 251.999 141.967 252.018 142.125C252.033 142.28 252.114 142.437 252.261 142.597L250.22 143.346C249.781 142.875 249.549 142.433 249.523 142.02C249.498 141.602 249.647 141.232 249.968 140.909C250.286 140.583 250.734 140.314 251.312 140.102C251.936 139.873 252.563 139.746 253.191 139.72C253.824 139.692 254.415 139.775 254.966 139.969C255.52 140.162 255.993 140.462 256.383 140.87C256.759 141.262 256.954 141.641 256.971 142.009C256.988 142.376 256.867 142.752 256.61 143.135C256.474 143.337 256.384 143.521 256.341 143.688C256.3 143.85 256.312 144.016 256.378 144.188C256.444 144.359 256.577 144.549 256.775 144.756L256.908 144.894L255.021 145.587L254.888 145.449ZM258.181 147.51C257.971 147.587 257.739 147.618 257.483 147.605C257.228 147.592 256.983 147.536 256.748 147.435C256.513 147.335 256.318 147.201 256.165 147.035C256.01 146.879 255.918 146.714 255.892 146.542C255.865 146.369 255.904 146.21 256.008 146.065C256.112 145.92 256.269 145.809 256.479 145.732C256.68 145.659 256.906 145.629 257.157 145.644C257.412 145.657 257.658 145.711 257.894 145.807C258.135 145.901 258.333 146.026 258.488 146.182C258.642 146.349 258.731 146.52 258.756 146.698C258.779 146.872 258.739 147.033 258.639 147.181C258.534 147.326 258.382 147.436 258.181 147.51Z" fill="#B6C5E6"/>
<rect x="5.70667" y="1.32164" width="25" height="25" rx="12.5" transform="matrix(0.938764 -0.344561 0.691712 0.722173 264.85 126.557)" fill="white" stroke="#BCCBEA" stroke-width="7"/>
<path d="M291.5 132.011C291.131 131.626 290.874 131.3 290.729 131.033C290.584 130.761 290.523 130.526 290.546 130.326C290.569 130.127 290.652 129.911 290.795 129.681C290.97 129.399 291.07 129.153 291.095 128.944C291.124 128.733 291.043 128.527 290.85 128.326C290.646 128.112 290.385 127.976 290.07 127.919C289.751 127.858 289.451 127.879 289.168 127.983C288.985 128.05 288.845 128.146 288.75 128.27C288.651 128.39 288.611 128.53 288.629 128.688C288.644 128.842 288.726 128.999 288.873 129.159L286.832 129.908C286.393 129.437 286.16 128.996 286.135 128.582C286.11 128.164 286.259 127.794 286.58 127.471C286.898 127.146 287.346 126.877 287.924 126.665C288.548 126.435 289.175 126.308 289.803 126.282C290.436 126.254 291.027 126.337 291.577 126.531C292.132 126.724 292.604 127.024 292.995 127.432C293.37 127.824 293.566 128.203 293.583 128.571C293.6 128.938 293.479 129.314 293.222 129.697C293.085 129.899 292.996 130.083 292.953 130.25C292.912 130.412 292.924 130.579 292.99 130.75C293.056 130.922 293.188 131.111 293.387 131.318L293.519 131.457L291.633 132.149L291.5 132.011ZM294.793 134.072C294.583 134.149 294.351 134.181 294.095 134.168C293.84 134.155 293.595 134.098 293.36 133.997C293.125 133.897 292.93 133.763 292.777 133.597C292.621 133.441 292.53 133.276 292.504 133.104C292.477 132.931 292.516 132.772 292.62 132.627C292.724 132.483 292.881 132.372 293.09 132.295C293.291 132.221 293.518 132.191 293.769 132.206C294.024 132.219 294.27 132.273 294.506 132.369C294.746 132.463 294.944 132.588 295.1 132.745C295.253 132.911 295.343 133.083 295.368 133.26C295.391 133.434 295.351 133.596 295.25 133.744C295.146 133.889 294.994 133.998 294.793 134.072Z" fill="#B6C5E6"/>
<rect x="5.70667" y="1.32164" width="25" height="25" rx="12.5" transform="matrix(0.938764 -0.344561 0.691712 0.722173 301.462 113.119)" fill="white" stroke="#BCCBEA" stroke-width="7"/>
<path d="M328.112 118.573C327.743 118.188 327.486 117.862 327.34 117.595C327.196 117.323 327.135 117.088 327.158 116.888C327.18 116.689 327.263 116.473 327.407 116.243C327.582 115.961 327.682 115.715 327.707 115.506C327.736 115.295 327.655 115.089 327.462 114.888C327.257 114.674 326.997 114.538 326.682 114.481C326.363 114.42 326.063 114.441 325.78 114.545C325.596 114.612 325.457 114.708 325.361 114.832C325.263 114.952 325.223 115.092 325.241 115.25C325.256 115.404 325.337 115.561 325.484 115.721L323.444 116.47C323.005 115.999 322.772 115.558 322.747 115.144C322.722 114.726 322.87 114.356 323.192 114.034C323.51 113.708 323.958 113.439 324.535 113.227C325.16 112.998 325.786 112.87 326.415 112.844C327.048 112.816 327.639 112.899 328.189 113.093C328.744 113.286 329.216 113.586 329.607 113.994C329.982 114.386 330.178 114.765 330.195 115.133C330.211 115.5 330.091 115.876 329.834 116.259C329.697 116.461 329.608 116.645 329.565 116.812C329.524 116.974 329.536 117.141 329.602 117.312C329.668 117.484 329.8 117.673 329.999 117.88L330.131 118.019L328.244 118.711L328.112 118.573ZM331.404 120.634C331.195 120.711 330.962 120.743 330.707 120.73C330.452 120.717 330.206 120.66 329.971 120.559C329.736 120.459 329.542 120.325 329.389 120.159C329.233 120.003 329.142 119.838 329.116 119.666C329.089 119.493 329.128 119.334 329.232 119.189C329.336 119.045 329.493 118.934 329.702 118.857C329.903 118.783 330.129 118.753 330.38 118.768C330.636 118.781 330.882 118.835 331.118 118.931C331.358 119.025 331.556 119.15 331.712 119.307C331.865 119.473 331.955 119.645 331.98 119.822C332.002 119.996 331.963 120.158 331.862 120.306C331.758 120.451 331.606 120.56 331.404 120.634Z" fill="#B6C5E6"/>
<rect width="83" height="16" rx="5" transform="matrix(0.938764 -0.344561 0.691712 0.722173 236.363 93.8928)" fill="white" fill-opacity="0.2"/>
<rect width="251" height="16" rx="5" transform="matrix(0.938764 -0.344561 0.691712 0.722173 139.521 215.33)" fill="white" fill-opacity="0.2"/>
</g>
<rect x="0.815238" y="0.188806" width="288.423" height="139.803" rx="15.5" transform="matrix(0.938764 -0.344561 0.691712 0.722173 44.8241 142.049)" stroke="white" stroke-opacity="0.96"/>
<rect x="0.815238" y="0.188806" width="288.423" height="139.803" rx="15.5" transform="matrix(0.938764 -0.344561 0.691712 0.722173 44.8241 142.049)" stroke="#434EC6" stroke-opacity="0.39"/>
<path d="M200.496 123.719L394.7 208.262L418.221 112.785L295.898 89.0678L200.496 123.719Z" fill="url(#paint5_linear_28_1161)"/>
<rect x="195" y="31" width="157.645" height="97" rx="15" fill="white"/>
<rect x="195.5" y="31.5" width="156.645" height="96" rx="14.5" stroke="black" stroke-opacity="0.15"/>
<rect x="205" y="43" width="73" height="73" rx="36.5" fill="#D3E1F7"/>
<path fill-rule="evenodd" clip-rule="evenodd" d="M226.466 68.3885C225.209 69.0621 225 69.7818 225 73.4284V76.578L225.664 76.7045C226.051 76.7782 226.599 77.1058 226.977 77.4898C228.108 78.6381 228.108 80.3551 226.977 81.5034C226.599 81.8874 226.051 82.2151 225.664 82.2887L225 82.4152V85.5648C225 89.249 225.206 89.9409 226.506 90.6141C227.234 90.9912 227.592 91 242 91C256.408 91 256.766 90.9912 257.494 90.6141C258.794 89.9409 259 89.249 259 85.5648V82.4152L258.336 82.2887C257.949 82.2151 257.401 81.8874 257.023 81.5034C255.892 80.3551 255.892 78.6381 257.023 77.4898C257.401 77.1058 257.949 76.7782 258.336 76.7045L259 76.578V73.4284C259 69.7442 258.794 69.0523 257.494 68.3792C256.765 68.0018 256.417 67.9934 241.96 68.0016C227.61 68.0099 227.151 68.0214 226.466 68.3885ZM231.13 72.2984L230.667 72.7688V79.4966V86.2244L231.13 86.6949L231.594 87.1655H242H252.406L252.87 86.6949L253.333 86.2244V79.4966V72.7688L252.87 72.2984L252.406 71.8277H242H231.594L231.13 72.2984ZM232.556 79.4966V85.2483H242H251.444V79.4966V73.7449H242H232.556V79.4966Z" fill="#0252C8"/>
<path d="M301.26 79.111L311.563 91.9338L329.645 68.3256" stroke="#04C88D" stroke-width="10" stroke-linecap="round"/>
</g>
<defs>
<linearGradient id="paint0_linear_28_1161" x1="6.16359" y1="5.45861" x2="283.134" y2="152.478" gradientUnits="userSpaceOnUse">
<stop stop-color="#DAEBFF"/>
<stop offset="1" stop-color="#B3C1E3"/>
</linearGradient>
<linearGradient id="paint1_linear_28_1161" x1="6.16359" y1="5.45861" x2="283.134" y2="152.478" gradientUnits="userSpaceOnUse">
<stop stop-color="#DAEBFF"/>
<stop offset="1" stop-color="#B3C1E3"/>
</linearGradient>
<linearGradient id="paint2_linear_28_1161" x1="6.16359" y1="5.45861" x2="283.134" y2="152.478" gradientUnits="userSpaceOnUse">
<stop stop-color="#DAEBFF"/>
<stop offset="1" stop-color="#B3C1E3"/>
</linearGradient>
<linearGradient id="paint3_linear_28_1161" x1="6.16359" y1="5.45861" x2="283.134" y2="152.478" gradientUnits="userSpaceOnUse">
<stop stop-color="#DAEBFF"/>
<stop offset="1" stop-color="#B3C1E3"/>
</linearGradient>
<linearGradient id="paint4_linear_28_1161" x1="6.16171" y1="5.46059" x2="283.129" y2="152.381" gradientUnits="userSpaceOnUse">
<stop stop-color="#DAEBFF"/>
<stop offset="1" stop-color="#B3C1E3"/>
</linearGradient>
<linearGradient id="paint5_linear_28_1161" x1="201.005" y1="126.036" x2="364.242" y2="134.372" gradientUnits="userSpaceOnUse">
<stop stop-opacity="0.33"/>
<stop offset="1" stop-opacity="0"/>
</linearGradient>
<clipPath id="clip0_28_1161">
<rect width="416" height="299" fill="white"/>
</clipPath>
<clipPath id="clip1_28_1161">
<rect width="289.511" height="140.752" rx="16" transform="matrix(0.964923 -0.262534 0.626924 0.77908 12 127.007)" fill="white"/>
</clipPath>
<clipPath id="clip2_28_1161">
<rect width="289.511" height="140.752" rx="16" transform="matrix(0.964923 -0.262534 0.626924 0.77908 39 145.007)" fill="white"/>
</clipPath>
<clipPath id="clip3_28_1161">
<rect width="289.511" height="140.752" rx="16" transform="matrix(0.82102 -0.570899 0.851873 0.523748 1 195.281)" fill="white"/>
</clipPath>
<clipPath id="clip4_28_1161">
<rect width="289.511" height="140.752" rx="16" transform="matrix(0.893673 -0.448719 0.769005 0.639243 49 169.909)" fill="white"/>
</clipPath>
<clipPath id="clip5_28_1161">
<rect width="289.423" height="140.803" rx="16" transform="matrix(0.938764 -0.344561 0.691712 0.722173 44.9048 141.716)" fill="white"/>
</clipPath>
</defs>
</svg>
