<svg width="416" height="299" viewBox="0 0 416 299" fill="none" xmlns="http://www.w3.org/2000/svg">
<rect x="63" y="79" width="290" height="141" rx="16" fill="url(#paint0_linear_36_1570)"/>
<rect x="63.5" y="79.5" width="289" height="140" rx="15.5" stroke="white" stroke-opacity="0.96"/>
<rect x="63.5" y="79.5" width="289" height="140" rx="15.5" stroke="#434EC6" stroke-opacity="0.39"/>
<rect x="94" y="144" width="12" height="12" rx="6" fill="#FDE985"/>
<rect x="136" y="144" width="12" height="12" rx="6" fill="white"/>
<rect x="178" y="144" width="12" height="12" rx="6" fill="#9AB5FF"/>
<rect x="220" y="144" width="12" height="12" rx="6" fill="#8EEB86"/>
<rect x="262" y="144" width="12" height="12" rx="6" fill="#FD838F"/>
<rect x="304" y="144" width="12" height="12" rx="6" fill="white"/>
<rect x="250" y="102" width="83" height="16" rx="5" fill="white" fill-opacity="0.2"/>
<rect x="82" y="190" width="251" height="16" rx="5" fill="white" fill-opacity="0.2"/>
<path d="M100.5 102.533V110.58H96.3464V103.08C96.3464 101.743 95.8834 101.094 95.0002 101.094C93.8583 101.094 93.2726 101.929 93.2726 103.545V110.579H89.2266V103.079C89.2266 101.78 88.7667 101.092 87.8972 101.092C86.771 101.092 86.1539 101.949 86.1539 103.544V110.578H82V97.7517H84.9208L85.5128 99.1302C85.946 98.5836 86.4855 98.1435 87.0941 97.8401C87.7027 97.5368 88.366 97.3773 89.0381 97.3729C89.7168 97.3553 90.3889 97.5189 90.9929 97.8489C91.5968 98.1788 92.1134 98.6646 92.4953 99.2616C92.9381 98.6694 93.5014 98.1917 94.1429 97.8645C94.7844 97.5374 95.4873 97.3692 96.1987 97.3729C98.7822 97.3729 100.494 99.5135 100.494 102.534" fill="#1540F2"/>
<path d="M101.712 104.165C101.712 100.188 104.541 97.3306 108.473 97.3306C112.406 97.3306 115.236 100.189 115.236 104.165C115.236 108.141 112.394 111 108.473 111C104.553 111 101.712 108.128 101.712 104.165ZM108.473 107.031C108.825 107.041 109.176 106.973 109.502 106.831C109.828 106.689 110.122 106.477 110.367 106.207C110.612 105.938 110.801 105.617 110.923 105.266C111.045 104.914 111.096 104.54 111.075 104.166C111.085 103.796 111.025 103.428 110.898 103.083C110.772 102.738 110.582 102.423 110.339 102.158C110.097 101.893 109.807 101.682 109.486 101.538C109.166 101.394 108.821 101.319 108.473 101.319C108.125 101.319 107.781 101.394 107.46 101.538C107.14 101.682 106.85 101.893 106.607 102.158C106.365 102.423 106.175 102.738 106.048 103.083C105.922 103.428 105.862 103.796 105.872 104.166C105.85 104.54 105.902 104.914 106.024 105.266C106.146 105.617 106.335 105.938 106.58 106.207C106.824 106.477 107.119 106.689 107.445 106.831C107.771 106.973 108.121 107.041 108.473 107.031Z" fill="#1540F2"/>
<path d="M124.726 106.703V110.573H121.868C121.291 110.625 120.709 110.542 120.165 110.33C119.621 110.118 119.128 109.781 118.719 109.344C118.31 108.907 117.996 108.38 117.8 107.8C117.603 107.22 117.528 106.602 117.58 105.988V101.153H115.373V100.121L120.78 94H121.633V97.7508H124.663V101.153H121.738V105.236C121.722 105.435 121.747 105.635 121.811 105.823C121.876 106.01 121.979 106.18 122.112 106.321C122.246 106.462 122.406 106.569 122.583 106.636C122.76 106.703 122.949 106.728 123.136 106.709L124.726 106.703Z" fill="#1540F2"/>
<path d="M134.021 106.703V110.573H131.163C130.585 110.625 130.004 110.542 129.46 110.33C128.916 110.118 128.422 109.781 128.014 109.344C127.605 108.907 127.291 108.38 127.094 107.8C126.898 107.22 126.823 106.602 126.875 105.988V101.153H124.667V100.121L130.07 94H130.924V97.7508H133.954V101.153H131.029V105.236C131.013 105.434 131.039 105.634 131.104 105.821C131.169 106.008 131.271 106.177 131.405 106.317C131.538 106.457 131.699 106.564 131.875 106.631C132.052 106.698 132.24 106.722 132.426 106.703H134.021Z" fill="#1540F2"/>
<path d="M134.476 104.165C134.476 100.188 137.305 97.3306 141.238 97.3306C145.17 97.3306 148 100.189 148 104.165C148 108.141 145.158 111 141.238 111C137.317 111 134.476 108.128 134.476 104.165ZM141.238 107.031C141.59 107.041 141.94 106.973 142.266 106.831C142.592 106.689 142.886 106.477 143.131 106.207C143.376 105.938 143.565 105.617 143.687 105.266C143.809 104.914 143.86 104.54 143.839 104.166C143.849 103.796 143.789 103.428 143.662 103.083C143.536 102.738 143.346 102.423 143.104 102.158C142.861 101.893 142.571 101.682 142.25 101.538C141.93 101.394 141.585 101.319 141.238 101.319C140.89 101.319 140.545 101.394 140.225 101.538C139.904 101.682 139.614 101.893 139.371 102.158C139.129 102.423 138.939 102.738 138.813 103.083C138.686 103.428 138.626 103.796 138.636 104.166C138.615 104.54 138.666 104.914 138.788 105.266C138.91 105.617 139.099 105.938 139.344 106.207C139.589 106.477 139.883 106.689 140.209 106.831C140.535 106.973 140.885 107.041 141.238 107.031Z" fill="#1540F2"/>
<defs>
<linearGradient id="paint0_linear_36_1570" x1="69.174" y1="84.4682" x2="346.621" y2="231.73" gradientUnits="userSpaceOnUse">
<stop stop-color="#DAEBFF"/>
<stop offset="1" stop-color="#B3C1E3"/>
</linearGradient>
</defs>
</svg>
