<svg width="600" height="309" viewBox="0 0 600 309" fill="none" xmlns="http://www.w3.org/2000/svg">
<g clip-path="url(#clip0_37_1836)">
<path d="M165 224L526.5 301L579 162.5L251.898 190.068L165 224Z" fill="url(#paint0_linear_37_1836)"/>
<rect x="155" y="84" width="290" height="141" rx="16" fill="url(#paint1_linear_37_1836)"/>
<rect x="155.5" y="84.5" width="289" height="140" rx="15.5" stroke="white" stroke-opacity="0.96"/>
<rect x="155.5" y="84.5" width="289" height="140" rx="15.5" stroke="#434EC6" stroke-opacity="0.39"/>
<rect x="186" y="149" width="12" height="12" rx="6" fill="#FDE985"/>
<rect x="228" y="149" width="12" height="12" rx="6" fill="white"/>
<rect x="270" y="149" width="12" height="12" rx="6" fill="#9AB5FF"/>
<rect x="312" y="149" width="12" height="12" rx="6" fill="#8EEB86"/>
<rect x="354" y="149" width="12" height="12" rx="6" fill="#FD838F"/>
<rect x="396" y="149" width="12" height="12" rx="6" fill="white"/>
<rect x="342" y="107" width="83" height="16" rx="5" fill="white" fill-opacity="0.2"/>
<rect x="174" y="195" width="251" height="16" rx="5" fill="white" fill-opacity="0.2"/>
<path d="M192.5 107.533V115.58H188.346V108.08C188.346 106.743 187.883 106.094 187 106.094C185.858 106.094 185.273 106.929 185.273 108.545V115.579H181.227V108.079C181.227 106.78 180.767 106.092 179.897 106.092C178.771 106.092 178.154 106.949 178.154 108.544V115.578H174V102.752H176.921L177.513 104.13C177.946 103.584 178.486 103.144 179.094 102.84C179.703 102.537 180.366 102.377 181.038 102.373C181.717 102.355 182.389 102.519 182.993 102.849C183.597 103.179 184.113 103.665 184.495 104.262C184.938 103.669 185.501 103.192 186.143 102.865C186.784 102.537 187.487 102.369 188.199 102.373C190.782 102.373 192.494 104.513 192.494 107.534" fill="#1540F2"/>
<path d="M193.712 109.165C193.712 105.188 196.541 102.331 200.473 102.331C204.406 102.331 207.236 105.189 207.236 109.165C207.236 113.141 204.394 116 200.473 116C196.553 116 193.712 113.128 193.712 109.165ZM200.473 112.031C200.826 112.041 201.176 111.973 201.502 111.831C201.828 111.689 202.122 111.477 202.367 111.207C202.612 110.938 202.801 110.617 202.923 110.266C203.045 109.914 203.096 109.54 203.075 109.166C203.085 108.796 203.025 108.428 202.898 108.083C202.772 107.738 202.582 107.423 202.34 107.158C202.097 106.893 201.807 106.682 201.486 106.538C201.166 106.394 200.821 106.319 200.473 106.319C200.126 106.319 199.781 106.394 199.461 106.538C199.14 106.682 198.85 106.893 198.607 107.158C198.365 107.423 198.175 107.738 198.049 108.083C197.922 108.428 197.862 108.796 197.872 109.166C197.851 109.54 197.902 109.914 198.024 110.266C198.146 110.617 198.335 110.938 198.58 111.207C198.825 111.477 199.119 111.689 199.445 111.831C199.771 111.973 200.121 112.041 200.473 112.031Z" fill="#1540F2"/>
<path d="M216.726 111.703V115.573H213.868C213.291 115.625 212.709 115.542 212.165 115.33C211.621 115.118 211.128 114.781 210.719 114.344C210.31 113.907 209.996 113.38 209.8 112.8C209.603 112.22 209.528 111.602 209.58 110.988V106.153H207.373V105.121L212.78 99H213.633V102.751H216.663V106.153H213.738V110.236C213.722 110.435 213.747 110.635 213.811 110.823C213.876 111.01 213.979 111.18 214.112 111.321C214.245 111.462 214.406 111.569 214.583 111.636C214.76 111.703 214.949 111.728 215.136 111.709L216.726 111.703Z" fill="#1540F2"/>
<path d="M226.021 111.703V115.573H223.163C222.585 115.625 222.004 115.542 221.46 115.33C220.916 115.118 220.422 114.781 220.014 114.344C219.605 113.907 219.291 113.38 219.095 112.8C218.898 112.22 218.823 111.602 218.875 110.988V106.153H216.668V105.121L222.07 99H222.924V102.751H225.954V106.153H223.029V110.236C223.013 110.434 223.039 110.634 223.104 110.821C223.169 111.008 223.272 111.177 223.405 111.317C223.538 111.457 223.699 111.564 223.875 111.631C224.052 111.698 224.24 111.722 224.426 111.703H226.021Z" fill="#1540F2"/>
<path d="M226.476 109.165C226.476 105.188 229.305 102.331 233.238 102.331C237.17 102.331 240 105.189 240 109.165C240 113.141 237.158 116 233.238 116C229.317 116 226.476 113.128 226.476 109.165ZM233.238 112.031C233.59 112.041 233.94 111.973 234.266 111.831C234.592 111.689 234.886 111.477 235.131 111.207C235.376 110.938 235.565 110.617 235.687 110.266C235.809 109.914 235.86 109.54 235.839 109.166C235.849 108.796 235.789 108.428 235.662 108.083C235.536 107.738 235.346 107.423 235.104 107.158C234.861 106.893 234.571 106.682 234.25 106.538C233.93 106.394 233.585 106.319 233.238 106.319C232.89 106.319 232.545 106.394 232.225 106.538C231.904 106.682 231.614 106.893 231.371 107.158C231.129 107.423 230.939 107.738 230.813 108.083C230.686 108.428 230.626 108.796 230.636 109.166C230.615 109.54 230.666 109.914 230.788 110.266C230.91 110.617 231.099 110.938 231.344 111.207C231.589 111.477 231.883 111.689 232.209 111.831C232.535 111.973 232.885 112.041 233.238 112.031Z" fill="#1540F2"/>
</g>
<defs>
<linearGradient id="paint0_linear_37_1836" x1="157.005" y1="227.036" x2="500.997" y2="241.068" gradientUnits="userSpaceOnUse">
<stop stop-opacity="0.33"/>
<stop offset="1" stop-opacity="0"/>
</linearGradient>
<linearGradient id="paint1_linear_37_1836" x1="161.174" y1="89.4682" x2="438.621" y2="236.73" gradientUnits="userSpaceOnUse">
<stop stop-color="#DAEBFF"/>
<stop offset="1" stop-color="#B3C1E3"/>
</linearGradient>
<clipPath id="clip0_37_1836">
<rect width="600" height="309" fill="white"/>
</clipPath>
</defs>
</svg>
