<svg width="290" height="141" viewBox="0 0 290 141" fill="none" xmlns="http://www.w3.org/2000/svg">
<rect width="290" height="141" rx="16" fill="url(#paint0_linear_18_443)"/>
<rect x="0.5" y="0.5" width="289" height="140" rx="15.5" stroke="white" stroke-opacity="0.96"/>
<rect x="0.5" y="0.5" width="289" height="140" rx="15.5" stroke="#434EC6" stroke-opacity="0.39"/>
<rect x="31" y="65" width="12" height="12" rx="6" fill="#FDE985"/>
<rect x="73" y="65" width="12" height="12" rx="6" fill="white"/>
<rect x="115" y="65" width="12" height="12" rx="6" fill="#9AB5FF"/>
<rect x="157" y="65" width="12" height="12" rx="6" fill="#8EEB86"/>
<rect x="199" y="65" width="12" height="12" rx="6" fill="#FD838F"/>
<rect x="241" y="65" width="12" height="12" rx="6" fill="white"/>
<rect x="187" y="23" width="83" height="16" rx="5" fill="white" fill-opacity="0.2"/>
<rect x="19" y="111" width="251" height="16" rx="5" fill="white" fill-opacity="0.2"/>
<path d="M37.5003 23.5332V31.5797H33.3464V24.0803C33.3464 22.7431 32.8834 22.0935 32.0002 22.0935C30.8583 22.0935 30.2726 22.9292 30.2726 24.545V31.5786H26.2266V24.0792C26.2266 22.7799 25.7667 22.0924 24.8972 22.0924C23.771 22.0924 23.1539 22.9493 23.1539 24.5439V31.5775H19V18.7516H21.9208L22.5128 20.13C22.946 19.5835 23.4855 19.1434 24.0941 18.84C24.7027 18.5366 25.366 18.3772 26.0381 18.3727C26.7168 18.3551 27.3889 18.5188 27.9929 18.8487C28.5968 19.1787 29.1134 19.6644 29.4953 20.2615C29.9381 19.6693 30.5014 19.1916 31.1429 18.8644C31.7844 18.5372 32.4873 18.3691 33.1987 18.3727C35.7822 18.3727 37.494 20.5134 37.494 23.5343" fill="#1540F2"/>
<path d="M38.712 25.1647C38.712 21.1877 41.5406 18.3306 45.4735 18.3306C49.4063 18.3306 52.236 21.1888 52.236 25.1647C52.236 29.1406 49.3938 32 45.4735 32C41.5532 32 38.712 29.1284 38.712 25.1647ZM45.4735 28.0308C45.8256 28.0407 46.1757 27.9727 46.5017 27.8309C46.8277 27.6892 47.1224 27.4768 47.3671 27.2074C47.6117 26.9379 47.801 26.6173 47.9229 26.2658C48.0447 25.9143 48.0964 25.5397 48.0748 25.1658C48.0847 24.7959 48.0247 24.4276 47.8984 24.0827C47.7721 23.7378 47.5821 23.4234 47.3396 23.158C47.097 22.8926 46.8069 22.6817 46.4864 22.5376C46.1659 22.3935 45.8214 22.3193 45.4735 22.3193C45.1255 22.3193 44.7811 22.3935 44.4606 22.5376C44.1401 22.6817 43.85 22.8926 43.6074 23.158C43.3649 23.4234 43.1749 23.7378 43.0486 24.0827C42.9223 24.4276 42.8623 24.7959 42.8722 25.1658C42.8506 25.5397 42.9023 25.9143 43.0242 26.2658C43.146 26.6173 43.3353 26.9379 43.5799 27.2074C43.8246 27.4768 44.1193 27.6892 44.4453 27.8309C44.7713 27.9727 45.1214 28.0407 45.4735 28.0308Z" fill="#1540F2"/>
<path d="M61.7261 27.7033V31.5734H58.8682C58.2907 31.6255 57.7095 31.5424 57.1654 31.3301C56.6214 31.1177 56.1276 30.7812 55.7189 30.3441C55.3102 29.9071 54.9965 29.3801 54.7998 28.8003C54.603 28.2205 54.5281 27.6018 54.5802 26.9879V22.1529H52.3728V21.121L57.7797 15H58.6335V18.7508H61.6633V22.1529H58.7383V26.2357C58.7218 26.4347 58.7468 26.6351 58.8114 26.8227C58.8761 27.0103 58.9787 27.1804 59.1121 27.321C59.2455 27.4617 59.4064 27.5693 59.5833 27.6363C59.7603 27.7034 59.9489 27.7281 60.1358 27.7089L61.7261 27.7033Z" fill="#1540F2"/>
<path d="M71.0209 27.7033V31.5734H68.163C67.5855 31.6255 67.0043 31.5424 66.4602 31.3301C65.9162 31.1177 65.4224 30.7812 65.0137 30.3441C64.605 29.9071 64.2913 29.3801 64.0946 28.8003C63.8978 28.2205 63.8229 27.6018 63.875 26.9879V22.1529H61.6676V21.121L67.0703 15H67.9241V18.7508H70.9539V22.1529H68.0289V26.2357C68.0133 26.4343 68.0389 26.6341 68.1038 26.821C68.1688 27.0078 68.2716 27.1772 68.4049 27.3172C68.5382 27.4572 68.6988 27.5643 68.8753 27.6311C69.0518 27.6978 69.24 27.7224 69.4264 27.7033H71.0209Z" fill="#1540F2"/>
<path d="M71.4761 25.1647C71.4761 21.1877 74.3047 18.3306 78.2375 18.3306C82.1704 18.3306 85.0001 21.1888 85.0001 25.1647C85.0001 29.1406 82.1578 32 78.2375 32C74.3173 32 71.4761 29.1284 71.4761 25.1647ZM78.2375 28.0308C78.5896 28.0407 78.9398 27.9727 79.2658 27.8309C79.5918 27.6892 79.8864 27.4768 80.1311 27.2074C80.3758 26.9379 80.5651 26.6173 80.6869 26.2658C80.8087 25.9143 80.8605 25.5397 80.8388 25.1658C80.8487 24.7959 80.7887 24.4276 80.6624 24.0827C80.5362 23.7378 80.3461 23.4234 80.1036 23.158C79.8611 22.8926 79.571 22.6817 79.2504 22.5376C78.9299 22.3935 78.5855 22.3193 78.2375 22.3193C77.8896 22.3193 77.5452 22.3935 77.2246 22.5376C76.9041 22.6817 76.614 22.8926 76.3715 23.158C76.129 23.4234 75.9389 23.7378 75.8127 24.0827C75.6864 24.4276 75.6264 24.7959 75.6362 25.1658C75.6146 25.5397 75.6664 25.9143 75.7882 26.2658C75.91 26.6173 76.0993 26.9379 76.344 27.2074C76.5886 27.4768 76.8833 27.6892 77.2093 27.8309C77.5353 27.9727 77.8855 28.0407 78.2375 28.0308Z" fill="#1540F2"/>
<circle cx="230.5" cy="59" r="27" fill="black" fill-opacity="0.08"/>
<path d="M208.328 43.3501L227.374 67.0518L260.795 23.4143" stroke="white" stroke-width="10" stroke-linecap="round"/>
<defs>
<linearGradient id="paint0_linear_18_443" x1="6.17399" y1="5.46824" x2="283.621" y2="152.73" gradientUnits="userSpaceOnUse">
<stop stop-color="#DAEBFF"/>
<stop offset="1" stop-color="#B3C1E3"/>
</linearGradient>
</defs>
</svg>
