<svg width="416" height="300" viewBox="0 0 416 300" fill="none" xmlns="http://www.w3.org/2000/svg">
<g id="img_single" clip-path="url(#clip0_73_648)">
<g id="Clip path group">
<mask id="mask0_73_648" style="mask-type:luminance" maskUnits="userSpaceOnUse" x="0" y="0" width="416" height="300">
<g id="clip0_28_1104">
<path id="Vector" d="M416 0.5H0V299.5H416V0.5Z" fill="white"/>
</g>
</mask>
<g mask="url(#mask0_73_648)">
<g id="Group">
<g id="Clip path group_2">
<mask id="mask1_73_648" style="mask-type:luminance" maskUnits="userSpaceOnUse" x="30" y="44" width="355" height="194">
<g id="clip1_28_1104">
<path id="Vector_2" d="M279.68 46.0132L38.0202 134.711C29.7248 137.756 27.955 145.397 34.0674 151.779L109.328 230.353C115.44 236.735 127.12 239.44 135.415 236.395L377.075 147.697C385.37 144.653 387.14 137.011 381.028 130.63L305.767 52.055C299.655 45.6735 287.975 42.9685 279.68 46.0132Z" fill="white"/>
</g>
</mask>
<g mask="url(#mask1_73_648)">
<g id="Group_2">
<path id="Vector_3" d="M279.68 46.0132L38.0202 134.711C29.7248 137.756 27.955 145.397 34.0674 151.779L109.328 230.353C115.44 236.735 127.12 239.44 135.415 236.395L377.075 147.697C385.37 144.653 387.14 137.011 381.028 130.63L305.767 52.055C299.655 45.6735 287.975 42.9685 279.68 46.0132Z" fill="url(#paint0_linear_73_648)"/>
<path id="Vector_4" d="M134.885 178.218C130.11 173.233 120.985 171.119 114.504 173.498C108.023 175.877 106.641 181.847 111.416 186.832C116.191 191.818 125.316 193.931 131.797 191.552C138.278 189.174 139.66 183.204 134.885 178.218Z" fill="white" stroke="#BCCBEA" stroke-width="7"/>
<path id="Vector_5" d="M123.148 184.271C122.779 183.886 122.522 183.56 122.376 183.293C122.232 183.021 122.171 182.786 122.194 182.586C122.216 182.386 122.3 182.171 122.443 181.941C122.618 181.658 122.718 181.413 122.743 181.203C122.772 180.992 122.691 180.787 122.498 180.586C122.294 180.372 122.033 180.236 121.718 180.178C121.399 180.117 121.099 180.139 120.816 180.242C120.632 180.31 120.493 180.406 120.398 180.53C120.299 180.65 120.259 180.789 120.277 180.947C120.292 181.102 120.373 181.259 120.521 181.419L118.48 182.168C118.041 181.697 117.808 181.255 117.783 180.842C117.758 180.424 117.907 180.054 118.228 179.731C118.546 179.405 118.994 179.137 119.571 178.925C120.196 178.695 120.823 178.568 121.451 178.542C122.084 178.514 122.675 178.597 123.225 178.791C123.78 178.984 124.252 179.284 124.643 179.692C125.018 180.084 125.214 180.463 125.231 180.831C125.248 181.198 125.127 181.574 124.87 181.957C124.733 182.159 124.644 182.343 124.601 182.51C124.56 182.672 124.572 182.838 124.638 183.01C124.704 183.181 124.836 183.371 125.035 183.578L125.167 183.716L123.281 184.409L123.148 184.271ZM126.441 186.332C126.231 186.409 125.999 186.441 125.743 186.427C125.488 186.414 125.243 186.358 125.008 186.257C124.772 186.157 124.578 186.023 124.425 185.857C124.269 185.701 124.178 185.536 124.152 185.364C124.125 185.191 124.164 185.032 124.268 184.887C124.372 184.742 124.529 184.631 124.738 184.554C124.939 184.481 125.166 184.451 125.417 184.466C125.672 184.479 125.918 184.533 126.154 184.629C126.394 184.723 126.592 184.848 126.748 185.004C126.901 185.171 126.991 185.342 127.016 185.52C127.038 185.694 126.999 185.855 126.898 186.004C126.794 186.148 126.642 186.258 126.441 186.332Z" fill="#B6C5E6"/>
<path id="Vector_6" d="M171.497 164.78C166.722 159.795 157.597 157.681 151.116 160.06C144.635 162.439 143.252 168.409 148.028 173.394C152.803 178.38 161.928 180.493 168.409 178.114C174.89 175.736 176.272 169.766 171.497 164.78Z" fill="white" stroke="#BCCBEA" stroke-width="7"/>
<path id="Vector_7" d="M159.76 170.833C159.391 170.448 159.134 170.122 158.988 169.855C158.844 169.583 158.783 169.348 158.806 169.148C158.828 168.948 158.911 168.733 159.055 168.503C159.23 168.22 159.33 167.975 159.355 167.765C159.384 167.554 159.303 167.349 159.11 167.148C158.905 166.934 158.645 166.798 158.33 166.74C158.011 166.679 157.711 166.701 157.428 166.804C157.244 166.872 157.105 166.968 157.009 167.092C156.911 167.212 156.871 167.351 156.889 167.509C156.904 167.664 156.985 167.821 157.132 167.981L155.092 168.73C154.653 168.259 154.42 167.817 154.395 167.404C154.37 166.986 154.518 166.616 154.84 166.293C155.158 165.967 155.606 165.699 156.183 165.487C156.808 165.257 157.434 165.13 158.063 165.104C158.696 165.076 159.287 165.159 159.837 165.353C160.391 165.546 160.864 165.846 161.255 166.254C161.63 166.646 161.826 167.025 161.843 167.393C161.859 167.76 161.739 168.136 161.482 168.519C161.345 168.721 161.256 168.905 161.213 169.072C161.172 169.234 161.184 169.4 161.25 169.572C161.316 169.743 161.448 169.933 161.647 170.14L161.779 170.278L159.892 170.971L159.76 170.833ZM163.052 172.894C162.843 172.971 162.61 173.003 162.355 172.989C162.1 172.976 161.854 172.92 161.619 172.819C161.384 172.719 161.19 172.585 161.037 172.419C160.881 172.263 160.79 172.098 160.763 171.926C160.737 171.753 160.776 171.594 160.88 171.449C160.984 171.304 161.141 171.193 161.35 171.116C161.551 171.043 161.777 171.013 162.028 171.028C162.284 171.041 162.53 171.095 162.766 171.191C163.006 171.285 163.204 171.41 163.36 171.566C163.513 171.733 163.603 171.904 163.628 172.082C163.65 172.256 163.611 172.417 163.51 172.566C163.406 172.71 163.254 172.82 163.052 172.894Z" fill="#B6C5E6"/>
<path id="Vector_8" d="M208.109 151.342C203.334 146.357 194.209 144.243 187.728 146.622C181.247 149.001 179.865 154.971 184.64 159.956C189.415 164.942 198.54 167.055 205.021 164.677C211.502 162.298 212.884 156.328 208.109 151.342Z" fill="white" stroke="#BCCBEA" stroke-width="7"/>
<path id="Vector_9" d="M196.372 157.395C196.003 157.01 195.746 156.684 195.6 156.417C195.456 156.145 195.395 155.91 195.417 155.71C195.44 155.511 195.523 155.295 195.667 155.065C195.842 154.783 195.942 154.537 195.967 154.328C195.996 154.117 195.914 153.911 195.722 153.71C195.517 153.496 195.257 153.36 194.942 153.303C194.623 153.242 194.322 153.263 194.04 153.367C193.856 153.434 193.716 153.53 193.621 153.654C193.523 153.774 193.483 153.914 193.501 154.072C193.516 154.226 193.597 154.383 193.744 154.543L191.703 155.292C191.264 154.821 191.032 154.38 191.006 153.966C190.982 153.548 191.13 153.178 191.452 152.856C191.77 152.53 192.218 152.261 192.795 152.049C193.42 151.82 194.046 151.692 194.675 151.666C195.307 151.638 195.899 151.721 196.449 151.915C197.003 152.108 197.476 152.408 197.867 152.816C198.242 153.208 198.438 153.587 198.454 153.955C198.471 154.322 198.351 154.698 198.094 155.081C197.957 155.283 197.867 155.467 197.825 155.634C197.783 155.796 197.796 155.963 197.862 156.134C197.928 156.306 198.06 156.495 198.259 156.702L198.391 156.841L196.504 157.533L196.372 157.395ZM199.664 159.456C199.455 159.533 199.222 159.565 198.967 159.552C198.711 159.539 198.466 159.482 198.231 159.381C197.996 159.281 197.802 159.147 197.649 158.981C197.493 158.825 197.402 158.66 197.375 158.488C197.349 158.315 197.387 158.156 197.492 158.011C197.596 157.867 197.752 157.756 197.962 157.679C198.163 157.605 198.389 157.575 198.64 157.59C198.896 157.603 199.141 157.657 199.378 157.753C199.618 157.847 199.816 157.972 199.972 158.129C200.125 158.295 200.214 158.467 200.24 158.644C200.262 158.818 200.223 158.98 200.122 159.128C200.018 159.273 199.865 159.382 199.664 159.456Z" fill="#B6C5E6"/>
<path id="Vector_10" d="M244.721 137.904C239.946 132.919 230.821 130.806 224.34 133.184C217.859 135.563 216.477 141.533 221.252 146.518C226.027 151.504 235.152 153.617 241.633 151.239C248.114 148.86 249.496 142.89 244.721 137.904Z" fill="white" stroke="#BCCBEA" stroke-width="7"/>
<path id="Vector_11" d="M232.984 143.957C232.615 143.572 232.358 143.246 232.212 142.979C232.067 142.707 232.006 142.472 232.029 142.272C232.052 142.073 232.135 141.857 232.278 141.627C232.453 141.345 232.553 141.099 232.578 140.89C232.608 140.679 232.526 140.473 232.334 140.272C232.129 140.058 231.869 139.922 231.553 139.865C231.235 139.804 230.934 139.825 230.652 139.929C230.468 139.996 230.328 140.092 230.233 140.216C230.135 140.336 230.095 140.476 230.113 140.634C230.128 140.788 230.209 140.945 230.356 141.105L228.315 141.854C227.876 141.383 227.644 140.942 227.618 140.528C227.594 140.11 227.742 139.74 228.063 139.418C228.381 139.092 228.829 138.823 229.407 138.611C230.032 138.382 230.658 138.254 231.287 138.228C231.919 138.2 232.511 138.283 233.061 138.477C233.615 138.67 234.088 138.97 234.479 139.378C234.854 139.77 235.05 140.149 235.066 140.517C235.083 140.884 234.963 141.26 234.706 141.644C234.569 141.845 234.479 142.029 234.437 142.196C234.395 142.358 234.408 142.525 234.474 142.696C234.539 142.868 234.672 143.057 234.87 143.264L235.003 143.403L233.116 144.095L232.984 143.957ZM236.276 146.018C236.066 146.095 235.834 146.127 235.579 146.114C235.323 146.101 235.078 146.044 234.843 145.943C234.608 145.843 234.414 145.71 234.26 145.543C234.105 145.387 234.014 145.222 233.987 145.05C233.961 144.877 233.999 144.718 234.103 144.573C234.207 144.429 234.364 144.318 234.574 144.241C234.775 144.167 235.001 144.137 235.252 144.152C235.507 144.165 235.753 144.219 235.989 144.315C236.23 144.409 236.428 144.534 236.583 144.691C236.737 144.857 236.826 145.029 236.852 145.206C236.874 145.38 236.835 145.542 236.734 145.69C236.63 145.835 236.477 145.944 236.276 146.018Z" fill="#B6C5E6"/>
<path id="Vector_12" d="M281.332 124.467C276.557 119.482 267.432 117.368 260.951 119.747C254.47 122.126 253.087 128.096 257.863 133.081C262.638 138.067 271.763 140.18 278.244 137.802C284.724 135.423 286.107 129.453 281.332 124.467Z" fill="white" stroke="#BCCBEA" stroke-width="7"/>
<path id="Vector_13" d="M269.595 130.519C269.227 130.134 268.969 129.808 268.824 129.541C268.679 129.27 268.618 129.034 268.641 128.834C268.664 128.635 268.747 128.42 268.89 128.189C269.065 127.907 269.165 127.661 269.19 127.452C269.219 127.241 269.138 127.035 268.946 126.834C268.741 126.62 268.48 126.485 268.165 126.427C267.846 126.366 267.546 126.387 267.264 126.491C267.08 126.558 266.94 126.654 266.845 126.778C266.746 126.899 266.706 127.038 266.724 127.196C266.74 127.35 266.821 127.508 266.968 127.667L264.927 128.416C264.488 127.946 264.256 127.504 264.23 127.091C264.205 126.673 264.354 126.302 264.675 125.98C264.993 125.654 265.441 125.385 266.019 125.173C266.643 124.944 267.27 124.816 267.898 124.79C268.531 124.762 269.122 124.846 269.672 125.04C270.227 125.232 270.699 125.532 271.09 125.94C271.465 126.332 271.661 126.712 271.678 127.079C271.695 127.447 271.574 127.822 271.317 128.206C271.181 128.407 271.091 128.591 271.048 128.758C271.007 128.92 271.019 129.087 271.085 129.258C271.151 129.43 271.283 129.619 271.482 129.827L271.614 129.965L269.728 130.657L269.595 130.519ZM272.888 132.58C272.678 132.657 272.446 132.689 272.19 132.676C271.935 132.663 271.69 132.606 271.455 132.506C271.22 132.405 271.025 132.272 270.872 132.106C270.716 131.949 270.625 131.785 270.599 131.612C270.572 131.439 270.611 131.281 270.715 131.136C270.819 130.991 270.976 130.88 271.186 130.803C271.387 130.729 271.613 130.7 271.864 130.714C272.119 130.727 272.365 130.782 272.601 130.877C272.842 130.971 273.04 131.097 273.195 131.253C273.348 131.419 273.438 131.591 273.463 131.768C273.486 131.943 273.446 132.104 273.345 132.252C273.241 132.397 273.089 132.506 272.888 132.58Z" fill="#B6C5E6"/>
<path id="Vector_14" d="M317.944 111.029C313.169 106.044 304.044 103.931 297.563 106.309C291.082 108.688 289.699 114.658 294.475 119.643C299.25 124.629 308.375 126.742 314.856 124.364C321.337 121.985 322.719 116.015 317.944 111.029Z" fill="white" stroke="#BCCBEA" stroke-width="7"/>
<path id="Vector_15" d="M306.207 117.081C305.838 116.696 305.581 116.37 305.435 116.103C305.291 115.832 305.23 115.596 305.253 115.396C305.275 115.197 305.359 114.982 305.502 114.751C305.677 114.469 305.777 114.223 305.802 114.014C305.831 113.803 305.75 113.597 305.557 113.396C305.352 113.182 305.092 113.047 304.777 112.989C304.458 112.928 304.158 112.949 303.875 113.053C303.691 113.12 303.552 113.216 303.457 113.34C303.358 113.461 303.318 113.6 303.336 113.758C303.351 113.912 303.432 114.07 303.579 114.229L301.539 114.978C301.1 114.508 300.867 114.066 300.842 113.653C300.817 113.235 300.966 112.864 301.287 112.542C301.605 112.216 302.053 111.947 302.63 111.735C303.255 111.506 303.882 111.378 304.51 111.352C305.143 111.324 305.734 111.408 306.284 111.602C306.839 111.794 307.311 112.094 307.702 112.502C308.077 112.894 308.273 113.274 308.29 113.641C308.306 114.009 308.186 114.384 307.929 114.768C307.792 114.969 307.703 115.153 307.66 115.32C307.619 115.482 307.631 115.649 307.697 115.82C307.763 115.992 307.895 116.181 308.094 116.389L308.226 116.527L306.34 117.219L306.207 117.081ZM309.5 119.142C309.29 119.219 309.057 119.251 308.802 119.238C308.547 119.225 308.302 119.168 308.067 119.068C307.831 118.967 307.637 118.834 307.484 118.668C307.328 118.511 307.237 118.347 307.211 118.174C307.184 118.001 307.223 117.843 307.327 117.698C307.431 117.553 307.588 117.442 307.797 117.365C307.998 117.291 308.224 117.262 308.476 117.276C308.731 117.289 308.977 117.344 309.213 117.439C309.453 117.533 309.651 117.659 309.807 117.815C309.96 117.981 310.05 118.153 310.075 118.33C310.097 118.505 310.058 118.666 309.957 118.814C309.853 118.959 309.701 119.068 309.5 119.142Z" fill="#B6C5E6"/>
<path id="Vector_16" d="M287.682 65.5251L219.152 90.6781C216.56 91.6296 216.006 94.0175 217.917 96.0117L222.067 100.345C223.977 102.339 227.627 103.184 230.219 102.233L298.749 77.0799C301.341 76.1284 301.894 73.7404 299.984 71.7462L295.834 67.4132C293.924 65.419 290.274 64.5736 287.682 65.5251Z" fill="white" fill-opacity="0.2"/>
<path id="Vector_17" d="M348.553 129.076L122.311 212.115C119.718 213.067 119.165 215.455 121.076 217.449L125.226 221.782C127.136 223.776 130.786 224.621 133.378 223.67L359.62 140.631C362.213 139.679 362.766 137.291 360.856 135.297L356.705 130.964C354.795 128.97 351.145 128.124 348.553 129.076Z" fill="white" fill-opacity="0.2"/>
</g>
</g>
</g>
<path id="Vector_18" d="M280.025 46.374L38.366 135.072C30.3298 138.021 28.6154 145.424 34.5367 151.606L109.797 230.181C115.718 236.363 127.033 238.983 135.069 236.034L376.729 147.336C384.765 144.386 386.48 136.984 380.558 130.802L305.298 52.227C299.377 46.0449 288.062 43.4244 280.025 46.374Z" stroke="white" stroke-opacity="0.96"/>
<path id="Vector_19" d="M280.025 46.374L38.366 135.072C30.3298 138.021 28.6154 145.424 34.5367 151.606L109.797 230.181C115.718 236.363 127.033 238.983 135.069 236.034L376.729 147.336C384.765 144.386 386.48 136.984 380.558 130.802L305.298 52.227C299.377 46.0449 288.062 43.4244 280.025 46.374Z" stroke="#434EC6" stroke-opacity="0.39"/>
<path id="Vector_20" d="M200.496 124.219L394.7 208.762L418.221 113.285L295.898 89.5679L200.496 124.219Z" fill="url(#paint1_linear_73_648)"/>
<path id="Vector_21" d="M337.645 31.5H210C201.716 31.5 195 38.2157 195 46.5V113.5C195 121.784 201.716 128.5 210 128.5H337.645C345.929 128.5 352.645 121.784 352.645 113.5V46.5C352.645 38.2157 345.929 31.5 337.645 31.5Z" fill="white"/>
<path id="Vector_22" d="M337.645 32H210C201.992 32 195.5 38.4919 195.5 46.5V113.5C195.5 121.508 201.992 128 210 128H337.645C345.653 128 352.145 121.508 352.145 113.5V46.5C352.145 38.4919 345.653 32 337.645 32Z" stroke="black" stroke-opacity="0.15"/>
<path id="Vector_23" d="M278 80C278 59.8416 261.658 43.5 241.5 43.5C221.342 43.5 205 59.8416 205 80C205 100.158 221.342 116.5 241.5 116.5C261.658 116.5 278 100.158 278 80Z" fill="#F3F3F3"/>
<path id="main-color" fill-rule="evenodd" clip-rule="evenodd" d="M226.466 68.8885C225.209 69.5621 225 70.2818 225 73.9284V77.078L225.664 77.2045C226.051 77.2782 226.599 77.6058 226.977 77.9898C228.108 79.1381 228.108 80.8551 226.977 82.0034C226.599 82.3874 226.051 82.7151 225.664 82.7887L225 82.9152V86.0648C225 89.749 225.206 90.4409 226.506 91.1141C227.234 91.4912 227.592 91.5 242 91.5C256.408 91.5 256.766 91.4912 257.494 91.1141C258.794 90.4409 259 89.749 259 86.0648V82.9152L258.336 82.7887C257.949 82.7151 257.401 82.3874 257.023 82.0034C255.892 80.8551 255.892 79.1381 257.023 77.9898C257.401 77.6058 257.949 77.2782 258.336 77.2045L259 77.078V73.9284C259 70.2442 258.794 69.5523 257.494 68.8792C256.765 68.5018 256.417 68.4934 241.96 68.5016C227.61 68.5099 227.151 68.5214 226.466 68.8885ZM231.13 72.7984L230.667 73.2688V79.9966V86.7244L231.13 87.1949L231.594 87.6655H242H252.406L252.87 87.1949L253.333 86.7244V79.9966V73.2688L252.87 72.7984L252.406 72.3277H242H231.594L231.13 72.7984ZM232.556 79.9966V85.7483H242H251.444V79.9966V74.2449H242H232.556V79.9966Z" fill="#0252C8"/>
<path id="Vector_24" d="M301.26 79.6111L311.563 92.4339L329.645 68.8257" stroke="#04C88D" stroke-width="10" stroke-linecap="round"/>
</g>
</g>
</g>
</g>
<defs>
<linearGradient id="paint0_linear_73_648" x1="32.5615" y1="142.045" x2="376.163" y2="68.4853" gradientUnits="userSpaceOnUse">
<stop stop-color="#DAEBFF"/>
<stop offset="1" stop-color="#B3C1E3"/>
</linearGradient>
<linearGradient id="paint1_linear_73_648" x1="201.005" y1="126.536" x2="364.242" y2="134.872" gradientUnits="userSpaceOnUse">
<stop stop-opacity="0.33"/>
<stop offset="1" stop-opacity="0"/>
</linearGradient>
<clipPath id="clip0_73_648">
<rect width="416" height="299" fill="white" transform="translate(0 0.5)"/>
</clipPath>
</defs>
</svg>
