<svg width="1000" height="433" viewBox="0 0 1000 433" fill="none" xmlns="http://www.w3.org/2000/svg">
<g id="theme-img03">
<g id="Group 329">
<g id="Group">
<path id="Vector" d="M332.036 32.5078H332.036C311.029 32.5078 294 49.5369 294 70.5434V70.5436C294 91.5501 311.029 108.579 332.036 108.579H332.036C353.042 108.579 370.071 91.5501 370.071 70.5436V70.5434C370.071 49.5369 353.042 32.5078 332.036 32.5078Z" fill="#F7C510"/>
<path id="Vector_2" d="M335.006 83.597H329.449V65.266H329.318L324.021 68.5167V63.706L329.838 60.0659H335.006V83.597Z" fill="black"/>
</g>
<g id="Group_2">
<path id="Vector_3" d="M619.815 45.9297L619.815 45.9296C603.055 33.2659 579.202 36.5868 566.538 53.3471L566.538 53.3472C553.874 70.1074 557.195 93.9602 573.956 106.624L573.956 106.624C590.716 119.288 614.569 115.967 627.232 99.2064L627.232 99.2063C639.896 82.4461 636.575 58.5933 619.815 45.9297Z" fill="#F7C510"/>
<path id="Vector_4" d="M589.791 87.6841C588.443 86.6647 587.411 85.5056 586.696 84.2044C585.996 82.9021 585.665 81.5791 585.703 80.2356C585.749 78.8989 586.178 77.6756 586.99 76.5646L591.295 79.8175C590.966 80.2883 590.793 80.7957 590.776 81.3398C590.774 81.8815 590.912 82.4073 591.193 82.917C591.472 83.4278 591.867 83.8757 592.377 84.2605C592.957 84.6981 593.573 84.9604 594.227 85.0474C594.89 85.1402 595.519 85.0531 596.117 84.784C596.728 84.5137 597.255 84.0761 597.697 83.4737C598.163 82.8746 598.443 82.2446 598.536 81.5814C598.63 80.9194 598.54 80.2814 598.27 79.6698C597.999 79.0581 597.566 78.5267 596.969 78.0754C596.304 77.5725 595.644 77.2782 594.99 77.1911C594.351 77.1018 593.709 77.2152 593.064 77.529L589.097 74.5315L598.338 64.2412L610.344 73.3128L607.64 76.8922L599.264 70.5627L595.434 74.7159L595.564 74.8144C596.29 74.5349 597.12 74.4971 598.054 74.6999C598.993 74.8935 599.896 75.3172 600.759 75.9701C601.892 76.8257 602.709 77.8566 603.209 79.0639C603.717 80.2608 603.872 81.5196 603.676 82.8379C603.497 84.1551 602.962 85.4013 602.074 86.5765C601.107 87.8559 599.938 88.7654 598.567 89.3037C597.204 89.8501 595.757 89.9852 594.227 89.7115C592.705 89.4435 591.226 88.7677 589.791 87.6841Z" fill="black"/>
</g>
<g id="Group_3">
<path id="Vector_5" d="M543.608 160.879H543.608C522.602 160.879 505.573 177.908 505.573 198.915V198.915C505.573 219.921 522.602 236.95 543.608 236.95H543.608C564.615 236.95 581.644 219.921 581.644 198.915V198.915C581.644 177.908 564.615 160.879 543.608 160.879Z" fill="#63B9DF"/>
<path id="Vector_6" d="M540.163 211.277H534.605V192.947H534.476L529.177 196.196V191.387L534.996 187.747H540.163V211.277ZM556.088 211.277H550.531V192.947H550.401L545.103 196.196V191.387L550.921 187.747H556.088V211.277Z" fill="black"/>
</g>
<g id="Group_4">
<path id="Vector_7" d="M346.891 114.772L346.89 114.772C329.304 126.261 324.362 149.832 335.851 167.418L335.851 167.418C347.34 185.004 370.91 189.947 388.497 178.457L388.497 178.457C406.083 166.968 411.025 143.398 399.536 125.812L399.536 125.812C388.047 108.226 364.477 103.283 346.891 114.772Z" fill="#63B9DF"/>
<path id="Vector_8" d="M370.102 159.809L365.449 162.849L355.423 147.503L355.315 147.574L352.657 153.192L350.026 149.165L352.906 142.936L357.232 140.109L370.102 159.809ZM372.971 135.379L372.882 135.242L363.467 141.393L361.014 137.639L375.245 128.341L377.715 132.123L380.033 153.32L375.245 156.449L372.971 135.379Z" fill="black"/>
</g>
<g id="Group_5">
<path id="Vector_9" d="M667.225 51.5269H667.225C646.218 51.5269 629.189 68.556 629.189 89.5625V89.5626C629.189 110.569 646.218 127.598 667.225 127.598H667.225C688.231 127.598 705.261 110.569 705.261 89.5626V89.5625C705.261 68.556 688.231 51.5269 667.225 51.5269Z" fill="#F57F8B"/>
<path id="Vector_10" d="M650.699 97.9267L659.279 90.3865C660.037 89.6935 660.627 89.1082 661.05 88.6318C661.484 88.1553 661.819 87.673 662.058 87.1851C662.296 86.6869 662.421 86.1508 662.431 85.5758C662.421 84.9367 662.264 84.3789 661.96 83.9024C661.667 83.4145 661.261 83.041 660.741 82.781C660.232 82.521 659.646 82.3916 658.986 82.3916C657.967 82.3916 657.155 82.694 656.548 83.3011C655.942 83.9081 655.639 84.742 655.639 85.8038H650.373C650.373 84.2437 650.731 82.8784 651.445 81.7089C652.172 80.5383 653.184 79.6392 654.484 79.0115C655.796 78.3827 657.306 78.0688 659.019 78.0688C660.763 78.0688 662.296 78.3667 663.618 78.9623C664.95 79.5476 665.979 80.3757 666.704 81.4489C667.431 82.521 667.794 83.7558 667.794 85.1543C667.794 86.0855 667.605 86.9847 667.224 87.8517C666.857 88.7177 666.206 89.6821 665.275 90.7439C664.354 91.7953 663.048 93.0622 661.359 94.5466L658.401 97.2772V97.4387H668.086V101.924H650.699V97.9267ZM682.029 101.924H676.471V83.5943H676.342L671.044 86.8438V82.0342L676.862 78.393H682.029V101.924Z" fill="black"/>
</g>
<g id="Group_6">
<path id="Vector_11" d="M462.782 158.502H462.782C441.776 158.502 424.746 175.531 424.746 196.538V196.538C424.746 217.544 441.776 234.573 462.782 234.573H462.782C483.789 234.573 500.818 217.544 500.818 196.538V196.538C500.818 175.531 483.789 158.502 462.782 158.502Z" fill="#F57F8B"/>
<path id="Vector_12" d="M443.607 204.902L452.187 197.362C452.945 196.668 453.536 196.084 453.959 195.606C454.392 195.13 454.727 194.648 454.965 194.161C455.205 193.663 455.329 193.125 455.34 192.552C455.329 191.912 455.172 191.355 454.868 190.878C454.576 190.39 454.169 190.017 453.649 189.757C453.141 189.497 452.556 189.366 451.895 189.366C450.876 189.366 450.064 189.67 449.457 190.277C448.85 190.883 448.547 191.718 448.547 192.779H443.282C443.282 191.219 443.64 189.854 444.354 188.684C445.081 187.514 446.093 186.615 447.393 185.986C448.704 185.358 450.215 185.043 451.927 185.043C453.671 185.043 455.205 185.341 456.526 185.938C457.859 186.522 458.887 187.351 459.613 188.424C460.34 189.497 460.703 190.732 460.703 192.129C460.703 193.061 460.513 193.96 460.134 194.826C459.766 195.693 459.115 196.658 458.184 197.72C457.263 198.77 455.957 200.038 454.267 201.522L451.309 204.252V204.414H460.995V208.9H443.607V204.902ZM473.183 209.225C471.492 209.225 469.97 208.922 468.616 208.315C467.273 207.697 466.211 206.842 465.431 205.747C464.662 204.653 464.267 203.418 464.246 202.042H469.64C469.662 202.616 469.829 203.126 470.144 203.569C470.47 204.003 470.897 204.339 471.428 204.577C471.959 204.815 472.544 204.934 473.183 204.934C473.909 204.934 474.559 204.772 475.133 204.447C475.718 204.122 476.168 203.672 476.482 203.098C476.807 202.513 476.964 201.846 476.953 201.1C476.964 200.341 476.807 199.669 476.482 199.085C476.157 198.5 475.702 198.045 475.116 197.72C474.531 197.394 473.866 197.232 473.118 197.232C472.284 197.232 471.58 197.394 471.006 197.72C470.442 198.033 469.998 198.51 469.672 199.149H464.7L465.87 185.369H480.918V189.854H470.42L469.868 195.477H470.03C470.442 194.816 471.081 194.285 471.948 193.884C472.814 193.472 473.79 193.266 474.873 193.266C476.292 193.266 477.565 193.597 478.692 194.258C479.818 194.908 480.701 195.818 481.341 196.988C481.991 198.147 482.315 199.464 482.315 200.937C482.315 202.541 481.932 203.97 481.162 205.227C480.404 206.484 479.332 207.465 477.944 208.168C476.569 208.872 474.981 209.225 473.183 209.225Z" fill="black"/>
</g>
<g id="Group_7">
<path id="Vector_13" d="M612.548 134.729H612.548C591.541 134.729 574.512 151.758 574.512 172.765V172.765C574.512 193.771 591.541 210.8 612.548 210.8H612.548C633.554 210.8 650.584 193.771 650.584 172.765V172.765C650.584 151.758 633.554 134.729 612.548 134.729Z" fill="#B4D852"/>
<path id="Vector_14" d="M595.03 176.84L604.781 161.596H611.769V176.807H614.629V181.161H611.769V185.127H606.47V181.161H595.03V176.84ZM606.568 176.807V167.478H606.373L600.555 176.612V176.807H606.568ZM628.018 185.127H622.461V166.797H622.331L617.033 170.046V165.236L622.851 161.596H628.018V185.127Z" fill="black"/>
</g>
<g id="Group_8">
<path id="Vector_15" d="M405.206 101.754L405.206 101.754C385.801 109.801 376.594 132.054 384.64 151.458L384.64 151.459C392.687 170.863 414.94 180.07 434.344 172.024L434.344 172.024C453.749 163.978 462.956 141.724 454.91 122.32L454.91 122.32C446.863 102.916 424.61 93.7081 405.206 101.754Z" fill="#B4D852"/>
<path id="Vector_16" d="M402.857 148.315L406.025 130.5L412.479 127.824L418.306 141.873L420.947 140.778L422.616 144.801L419.974 145.897L421.493 149.559L416.599 151.589L415.081 147.926L404.513 152.308L402.857 148.315ZM413.502 143.865L409.93 135.25L409.749 135.324L407.874 145.989L407.948 146.169L413.502 143.865ZM425.335 143.639L430.373 133.387C430.808 132.456 431.13 131.69 431.337 131.087C431.555 130.48 431.681 129.906 431.714 129.365C431.743 128.814 431.653 128.271 431.443 127.736C431.188 127.149 430.83 126.695 430.366 126.37C429.91 126.031 429.391 125.842 428.812 125.801C428.241 125.757 427.651 125.86 427.041 126.113C426.099 126.503 425.466 127.094 425.137 127.887C424.81 128.681 424.849 129.567 425.255 130.548L420.392 132.565C419.794 131.124 419.601 129.725 419.813 128.371C420.037 127.012 420.628 125.793 421.588 124.715C422.558 123.633 423.834 122.764 425.414 122.107C427.026 121.439 428.556 121.128 430.005 121.171C431.46 121.201 432.729 121.574 433.81 122.286C434.891 122.998 435.699 124.001 436.235 125.292C436.591 126.152 436.761 127.055 436.742 128.002C436.734 128.943 436.503 130.083 436.049 131.421C435.602 132.743 434.881 134.415 433.888 136.433L432.202 140.088L432.264 140.238L441.211 136.528L442.929 140.671L426.867 147.331L425.335 143.639Z" fill="black"/>
</g>
<g id="Group_9">
<path id="Vector_17" d="M524.59 82.4307H524.59C503.584 82.4307 486.555 99.4598 486.555 120.466V120.466C486.555 141.473 503.584 158.502 524.59 158.502H524.59C545.597 158.502 562.626 141.473 562.626 120.466V120.466C562.626 99.4598 545.597 82.4307 524.59 82.4307Z" fill="#B1B1B1"/>
<path id="Vector_18" d="M516.531 133.154C514.765 133.154 513.183 132.85 511.785 132.243C510.398 131.637 509.309 130.786 508.519 129.692C507.728 128.598 507.322 127.358 507.3 125.971H512.891C512.901 126.479 513.064 126.94 513.378 127.352C513.703 127.753 514.142 128.067 514.694 128.295C515.257 128.522 515.88 128.636 516.563 128.636C517.246 128.636 517.857 128.511 518.399 128.262C518.941 128.013 519.363 127.672 519.667 127.239C519.97 126.794 520.116 126.296 520.106 125.743C520.116 125.179 519.953 124.677 519.618 124.232C519.292 123.788 518.822 123.441 518.204 123.192C517.597 122.942 516.888 122.818 516.075 122.818H513.8V118.853H516.075C516.779 118.853 517.408 118.734 517.96 118.496C518.512 118.257 518.941 117.927 519.244 117.504C519.558 117.071 519.715 116.577 519.715 116.025C519.715 115.495 519.58 115.023 519.31 114.612C519.05 114.2 518.681 113.88 518.204 113.653C517.728 113.415 517.18 113.295 516.563 113.295C515.924 113.295 515.338 113.415 514.808 113.653C514.288 113.88 513.871 114.205 513.556 114.628C513.253 115.039 513.096 115.516 513.085 116.057H507.755C507.777 114.693 508.167 113.475 508.925 112.401C509.694 111.318 510.745 110.478 512.078 109.883C513.421 109.276 514.927 108.973 516.595 108.973C518.242 108.973 519.71 109.265 520.999 109.851C522.289 110.435 523.285 111.242 523.99 112.272C524.704 113.29 525.056 114.433 525.046 115.7C525.056 116.556 524.867 117.331 524.476 118.024C524.087 118.717 523.54 119.286 522.835 119.731C522.132 120.164 521.33 120.445 520.431 120.576V120.738C522.207 120.944 523.573 121.529 524.526 122.493C525.479 123.458 525.945 124.681 525.923 126.166C525.935 127.499 525.538 128.696 524.737 129.758C523.935 130.819 522.819 131.653 521.39 132.26C519.959 132.856 518.339 133.154 516.531 133.154ZM539.866 132.828H534.309V114.497H534.178L528.881 117.748V112.937L534.698 109.297H539.866V132.828Z" fill="black"/>
</g>
<g id="Group_10">
<path id="Vector_19" d="M582.366 84.8484L582.366 84.8485C570.152 101.939 574.104 125.695 591.194 137.91L591.194 137.91C608.284 150.125 632.041 146.172 644.255 129.082L644.256 129.082C656.47 111.992 652.518 88.2355 635.428 76.0208L635.428 76.0207C618.338 63.8059 594.581 67.7582 582.366 84.8484Z" fill="#B1B1B1"/>
<path id="Vector_20" d="M617.594 122.791C616.568 124.227 615.401 125.337 614.095 126.122C612.795 126.897 611.47 127.289 610.119 127.296C608.77 127.303 607.524 126.912 606.383 126.123L609.634 121.576C610.054 121.863 610.523 121.999 611.041 121.983C611.557 121.95 612.066 121.776 612.574 121.459C613.086 121.134 613.54 120.693 613.938 120.137C614.334 119.582 614.588 119.011 614.701 118.426C614.813 117.841 614.781 117.298 614.606 116.8C614.42 116.294 614.099 115.886 613.645 115.573C613.192 115.237 612.688 115.076 612.132 115.091C611.581 115.098 611.025 115.28 610.463 115.637C609.907 115.985 609.393 116.49 608.921 117.151L607.598 119.002L604.373 116.696L605.694 114.845C606.105 114.273 606.373 113.692 606.501 113.105C606.628 112.516 606.607 111.975 606.44 111.484C606.271 110.975 605.96 110.562 605.511 110.24C605.079 109.932 604.617 109.767 604.125 109.748C603.638 109.721 603.164 109.834 602.703 110.09C602.231 110.34 601.816 110.715 601.456 111.217C601.085 111.737 600.843 112.282 600.727 112.853C600.61 113.408 600.632 113.937 600.793 114.438C600.951 114.925 601.248 115.329 601.682 115.653L598.583 119.989C597.485 119.179 596.72 118.152 596.288 116.912C595.854 115.655 595.782 114.313 596.073 112.882C596.361 111.436 596.989 110.035 597.96 108.678C598.917 107.337 600.009 106.313 601.234 105.604C602.46 104.897 603.696 104.554 604.942 104.58C606.187 104.591 607.321 104.969 608.346 105.714C609.049 106.203 609.568 106.808 609.906 107.529C610.243 108.249 610.388 109.025 610.34 109.856C610.283 110.681 610.046 111.496 609.629 112.304L609.761 112.399C610.962 111.073 612.231 110.303 613.57 110.088C614.909 109.872 616.176 110.206 617.371 111.086C618.461 111.851 619.206 112.87 619.603 114.139C620.001 115.409 620.03 116.802 619.692 118.318C619.345 119.828 618.646 121.319 617.594 122.791ZM621.391 110.044L620.246 98.6793C620.123 97.6588 619.99 96.8387 619.848 96.2178C619.712 95.5879 619.515 95.0347 619.257 94.557C618.99 94.0737 618.626 93.6602 618.166 93.3177C617.639 92.9546 617.094 92.7576 616.53 92.7278C615.963 92.682 615.422 92.7954 614.909 93.0669C614.401 93.3303 613.955 93.73 613.571 94.2684C612.979 95.0965 612.754 95.9338 612.894 96.7802C613.034 97.6267 613.537 98.3586 614.401 98.976L611.339 103.26C610.07 102.353 609.167 101.268 608.631 100.006C608.101 98.7343 607.959 97.3873 608.204 95.9647C608.455 94.533 609.078 93.1207 610.073 91.7279C611.087 90.3087 612.221 89.2355 613.474 88.5059C614.725 87.7625 615.997 87.4074 617.293 87.4395C618.587 87.4727 619.804 87.8965 620.94 88.7086C621.698 89.2504 622.319 89.9273 622.804 90.7406C623.295 91.5435 623.701 92.6328 624.023 94.0084C624.343 95.3691 624.615 97.1674 624.84 99.4055L625.342 103.4L625.473 103.495L631.105 95.6142L634.754 98.2223L624.643 112.369L621.391 110.044Z" fill="black"/>
</g>
</g>
<g id="Frame 26">
<g id="Frame 25">
<path id="&#235;&#161;&#156;&#235;&#152;&#144;6/45" d="M261.078 286.026H223.628V279.757H238.404V274.873H246.301V279.757H261.078V286.026ZM225.175 258.875H251.023V256.229H224.972V250.042H259.083V264.696H233.194V267.424H259.653V273.489H225.175V258.875ZM301.784 286.026H264.334V279.757H279.11V273.652H287.007V279.757H301.784V286.026ZM299.83 256.311H288.92V265.673H300.44V271.82H265.596V250.124H299.83V256.311ZM281.39 265.673V256.311H273.289V265.673H281.39ZM317.048 286.84C314.932 286.84 312.964 286.447 311.146 285.66C309.328 284.873 307.849 283.665 306.709 282.037C305.596 280.409 305.04 278.401 305.04 276.013V271.169C305.04 269.432 305.311 267.668 305.854 265.877C306.397 264.086 307.13 262.444 308.052 260.951L314.728 250.449H323.765L316.641 261.318C316.37 261.752 316.085 262.227 315.786 262.742C316.736 262.417 317.767 262.254 318.88 262.254C320.725 262.254 322.408 262.607 323.928 263.312C325.474 263.991 326.709 265.09 327.632 266.609C328.582 268.102 329.056 270.029 329.056 272.39V276.013C329.056 278.401 328.487 280.409 327.347 282.037C326.234 283.665 324.769 284.873 322.951 285.66C321.132 286.447 319.165 286.84 317.048 286.84ZM317.008 280.327C318.337 280.327 319.382 279.988 320.142 279.31C320.902 278.604 321.282 277.654 321.282 276.46V272.268C321.282 271.074 320.902 270.137 320.142 269.459C319.382 268.753 318.337 268.401 317.008 268.401C315.678 268.401 314.633 268.753 313.873 269.459C313.14 270.137 312.774 271.074 312.774 272.268V276.46C312.774 277.654 313.14 278.604 313.873 279.31C314.633 279.988 315.678 280.327 317.008 280.327ZM346.811 248.984H354.463L338.425 287.532H330.691L346.811 248.984ZM355.868 274.791L369.912 250.449H377.89V273.611H381.554V280.124H377.89V286.148H370.767V280.124H355.868V274.791ZM370.767 273.611V261.684L364.05 273.611H370.767ZM395.114 286.8C393.052 286.8 391.152 286.42 389.415 285.66C387.679 284.927 386.24 283.869 385.101 282.485C383.988 281.101 383.282 279.486 382.984 277.641L389.945 276.216C390.189 277.41 390.786 278.333 391.736 278.984C392.713 279.635 393.839 279.961 395.114 279.961C396.525 279.961 397.665 279.527 398.533 278.658C399.402 277.763 399.836 276.515 399.836 274.913V274.14C399.836 272.539 399.375 271.291 398.452 270.395C397.529 269.5 396.281 269.052 394.707 269.052C393.893 269.052 393.12 269.215 392.387 269.54C391.681 269.839 391.071 270.287 390.555 270.884H383.798L385.915 250.449H405.494V257.247H392.59L391.898 263.76C393.038 263.082 394.504 262.742 396.295 262.742C398.194 262.742 399.985 263.177 401.668 264.045C403.377 264.886 404.761 266.162 405.82 267.871C406.878 269.581 407.407 271.671 407.407 274.14V274.913C407.407 277.492 406.865 279.676 405.779 281.467C404.694 283.231 403.228 284.561 401.383 285.456C399.538 286.352 397.448 286.8 395.114 286.8Z" fill="black"/>
<path id="&#235;&#139;&#185;&#236;&#178;&#168;&#235;&#178;&#136;&#237;&#152;&#184;&#236;&#153;&#128; &#235;&#143;&#153;&#236;&#157;&#188;&#236;&#139;&#156;" d="M479.218 249.065H486.952V255.945H490.615V262.62H486.952V269.947H479.218V249.065ZM453.492 279.188C453.492 276.827 454.251 274.913 455.771 273.448C457.318 271.956 459.516 271.209 462.365 271.209H478.729C481.551 271.209 483.736 271.942 485.283 273.407C486.83 274.846 487.603 276.772 487.603 279.188C487.603 281.603 486.83 283.53 485.283 284.968C483.736 286.433 481.551 287.166 478.729 287.166H462.365C459.516 287.166 457.318 286.42 455.771 284.927C454.251 283.462 453.492 281.549 453.492 279.188ZM461.348 279.188C461.348 280.029 461.592 280.694 462.08 281.182C462.596 281.671 463.329 281.915 464.279 281.915H476.816C477.766 281.915 478.485 281.671 478.973 281.182C479.489 280.694 479.747 280.029 479.747 279.188C479.747 278.346 479.489 277.681 478.973 277.193C478.485 276.677 477.766 276.42 476.816 276.42H464.279C463.329 276.42 462.596 276.677 462.08 277.193C461.592 277.681 461.348 278.346 461.348 279.188ZM452.27 250.042H474.211V256.026H459.76V263.027H475.88V268.93H452.27V250.042ZM520.941 264.452H515.487V258.509H520.941V249.065H528.675V271.169H520.941V264.452ZM494.442 272.593H528.716V287.044H494.442V272.593ZM521.104 281.874V277.722H502.054V281.874H521.104ZM492.488 265.429C494.089 265.266 495.514 264.846 496.762 264.167C498.01 263.489 498.974 262.634 499.652 261.603C500.358 260.544 500.71 259.405 500.71 258.183V258.061H492.691V252.118H500.548V248.902H507.956V252.118H515.568V258.061H507.875V258.183C507.875 258.943 507.78 259.798 507.59 260.748C510.385 260.856 512.624 261.779 514.306 263.516C515.989 265.225 516.816 267.614 516.789 270.68H509.706C509.679 269.16 509.204 267.98 508.282 267.139C507.359 266.297 506.165 265.945 504.7 266.08C503.261 267.627 501.47 268.862 499.326 269.785C497.21 270.68 494.93 271.141 492.488 271.169V265.429ZM561.647 263.434H555.989V271.046H533.601V249.676H540.724V254.235H548.947V249.676H555.989V257.491H561.647V249.065H569.381V277.681H561.647V263.434ZM535.595 273.448H543.452V281.06H570.155V287.044H535.595V273.448ZM548.947 265.225V259.771H540.724V265.225H548.947ZM610.901 286.026H573.452V279.757H588.228V274.466H596.125V279.757H610.901V286.026ZM573.492 253.38H587.902V248.821H596.451V253.38H610.82V259.282H607.523C608.255 260.612 608.622 261.955 608.622 263.312C608.622 265.185 608.228 266.867 607.441 268.36C606.654 269.825 605.501 270.979 603.981 271.82C602.489 272.661 600.684 273.082 598.567 273.082H585.745C583.628 273.082 581.81 272.661 580.29 271.82C578.798 270.979 577.658 269.825 576.871 268.36C576.084 266.867 575.691 265.185 575.691 263.312C575.691 261.955 576.057 260.612 576.79 259.282H573.492V253.38ZM587.78 259.079C586.369 259.079 585.284 259.472 584.524 260.259C583.791 261.019 583.425 261.983 583.425 263.149C583.425 264.316 583.777 265.293 584.483 266.08C585.216 266.84 586.288 267.22 587.699 267.22H596.613C598.025 267.22 599.083 266.84 599.788 266.08C600.521 265.293 600.888 264.316 600.888 263.149C600.888 261.983 600.508 261.019 599.748 260.259C599.015 259.472 597.943 259.079 596.532 259.079H587.78ZM614.158 285.497V279.228H623.032V273.855H630.521V279.228H631.458C634.904 279.228 637.699 279.065 639.843 278.74V285.009C637.699 285.334 634.904 285.497 631.458 285.497H614.158ZM641.838 249.065H649.572V263.272H653.439V269.947H649.572V287.044H641.838V249.065ZM614.85 259.649C614.85 256.338 615.935 253.828 618.106 252.118C620.304 250.381 623.154 249.513 626.654 249.513C630.155 249.513 632.977 250.381 635.121 252.118C637.292 253.828 638.378 256.338 638.378 259.649V262.661C638.378 265.972 637.292 268.496 635.121 270.232C632.977 271.942 630.155 272.797 626.654 272.797C623.154 272.797 620.304 271.942 618.106 270.232C615.935 268.496 614.85 265.972 614.85 262.661V259.649ZM622.38 263.434C622.38 264.601 622.787 265.483 623.601 266.08C624.443 266.65 625.46 266.935 626.654 266.935C627.821 266.935 628.812 266.65 629.626 266.08C630.467 265.483 630.888 264.601 630.888 263.434V258.875C630.888 257.708 630.467 256.84 629.626 256.27C628.812 255.673 627.821 255.375 626.654 255.375C625.46 255.375 624.443 255.673 623.601 256.27C622.787 256.84 622.38 257.708 622.38 258.875V263.434ZM703.722 271.169H666.272V265.51H681.049V262.865H667.778V249.309H701.849V254.561H675.35V257.613H701.971V262.865H688.945V265.51H703.722V271.169ZM695.336 273.326C697.833 273.326 699.719 273.95 700.994 275.198C702.27 276.447 702.908 278.129 702.908 280.246C702.908 282.363 702.27 284.045 700.994 285.293C699.719 286.542 697.833 287.166 695.336 287.166H674.658C672.161 287.166 670.275 286.542 669 285.293C667.724 284.045 667.086 282.363 667.086 280.246C667.086 278.129 667.724 276.447 669 275.198C670.275 273.95 672.161 273.326 674.658 273.326H695.336ZM692.528 282.118C693.369 282.118 693.993 281.983 694.4 281.711C694.834 281.413 695.051 280.924 695.051 280.246C695.051 279.568 694.834 279.093 694.4 278.821C693.993 278.523 693.369 278.373 692.528 278.373H677.466C676.625 278.373 675.987 278.523 675.553 278.821C675.146 279.093 674.943 279.568 674.943 280.246C674.943 280.924 675.146 281.413 675.553 281.711C675.987 281.983 676.625 282.118 677.466 282.118H692.528ZM735.879 249.065H743.613V268.523H735.879V249.065ZM709.705 276.257H735.92V274.344H709.705V269.744H743.573V280.409H717.684V282.363H744.224V287.044H709.705V276.257ZM707.711 257.98C707.711 255.13 708.769 252.932 710.886 251.385C713.03 249.839 715.825 249.065 719.271 249.065C722.745 249.065 725.54 249.839 727.657 251.385C729.801 252.905 730.873 255.103 730.873 257.98V259.445C730.873 262.295 729.801 264.493 727.657 266.04C725.54 267.586 722.758 268.36 719.312 268.36C715.838 268.36 713.03 267.586 710.886 266.04C708.769 264.493 707.711 262.295 707.711 259.445V257.98ZM715.241 259.445C715.241 260.422 715.594 261.223 716.3 261.847C717.033 262.471 718.023 262.783 719.271 262.783C720.52 262.783 721.51 262.471 722.243 261.847C722.976 261.223 723.342 260.422 723.342 259.445V257.98C723.342 257.03 722.976 256.243 722.243 255.619C721.537 254.968 720.588 254.642 719.393 254.642C718.118 254.642 717.1 254.954 716.341 255.578C715.608 256.175 715.241 256.976 715.241 257.98V259.445ZM776.585 249.065H784.319V287.044H776.585V249.065ZM747.358 277.844C752.976 275.103 755.785 268.97 755.785 259.445V250.449H763.478V258.305C763.478 260.395 763.383 262.254 763.193 263.882C766.612 265.565 769.136 268.129 770.764 271.576C772.42 275.022 773.193 279.405 773.085 284.724H765.595C765.622 284.317 765.635 283.706 765.635 282.892C765.635 280.395 765.31 278.17 764.658 276.216C764.007 274.262 763.017 272.675 761.687 271.453C760.52 274.954 758.756 277.871 756.395 280.205C754.061 282.512 751.049 284.222 747.358 285.334V277.844Z" fill="black"/>
</g>
<g id="&#236;&#181;&#156;&#235;&#140;&#128; 1,000&#235;&#167;&#140;&#236;&#155;&#144;">
<mask id="path-23-outside-1_77_820" maskUnits="userSpaceOnUse" x="224" y="307.95" width="558" height="88" fill="black">
<rect fill="white" x="224" y="307.95" width="558" height="88"/>
<path d="M281.605 309.841H296.705V383.99H281.605V309.841ZM225.179 380.97V368.731H243.299V355.459H257.922V368.731H261.021C267.962 368.731 273.525 368.413 277.711 367.778V380.017C273.525 380.652 267.962 380.97 261.021 380.97H225.179ZM226.212 344.651C231.51 343.856 235.643 342.134 238.61 339.485C241.63 336.783 243.299 333.366 243.617 329.233H226.927V317.471H243.378V309.921H258.001V317.471H275.088V329.233H257.843C257.684 331.352 257.392 333.154 256.968 334.637C263.061 334.849 267.83 336.783 271.274 340.439C274.77 344.042 276.492 348.969 276.439 355.221H262.452C262.505 353.26 262.081 351.459 261.18 349.817C260.28 348.174 258.982 346.903 257.286 346.002C255.644 345.101 253.763 344.677 251.644 344.73C248.73 348.068 245.047 350.691 240.597 352.598C236.199 354.506 231.378 355.565 226.133 355.777L226.212 344.651ZM364.257 351.009H359.489V383.99H346.376V309.841H359.489V338.611H364.257V309.841H377.37V383.99H364.257V351.009ZM305.685 312.146H340.177V324.465H320.547V368.652H341.846V380.811H305.685V312.146ZM416.652 334.16H405.605V322.319C409.632 322.16 412.731 321.339 414.904 319.855C417.129 318.372 418.559 315.934 419.195 312.544H431.752V382.242H416.652V334.16ZM441.663 388.679C443.941 388.255 445.584 387.434 446.591 386.215C447.65 385.05 448.18 383.778 448.18 382.401H441.266V367.142H456.684V379.222C456.684 383.619 455.359 387.116 452.71 389.712C450.061 392.308 446.379 393.739 441.663 394.004V388.679ZM488.071 383.513C483.568 383.513 479.541 382.639 475.991 380.891C472.442 379.195 469.66 376.679 467.647 373.341C465.633 369.95 464.627 365.844 464.627 361.022V333.763C464.627 328.995 465.633 324.915 467.647 321.524C469.66 318.133 472.442 315.59 475.991 313.895C479.541 312.146 483.568 311.272 488.071 311.272C492.575 311.272 496.601 312.146 500.151 313.895C503.701 315.59 506.483 318.133 508.496 321.524C510.509 324.915 511.516 328.995 511.516 333.763V361.022C511.516 365.844 510.509 369.95 508.496 373.341C506.483 376.679 503.701 379.195 500.151 380.891C496.601 382.639 492.575 383.513 488.071 383.513ZM488.071 370.162C490.456 370.162 492.416 369.5 493.952 368.175C495.542 366.797 496.337 364.784 496.337 362.135V332.65C496.337 330.054 495.542 328.067 493.952 326.69C492.363 325.312 490.403 324.624 488.071 324.624C485.74 324.624 483.78 325.312 482.19 326.69C480.601 328.067 479.806 330.054 479.806 332.65V362.135C479.806 364.784 480.574 366.797 482.111 368.175C483.7 369.5 485.687 370.162 488.071 370.162ZM542.942 383.513C538.439 383.513 534.412 382.639 530.862 380.891C527.312 379.195 524.531 376.679 522.517 373.341C520.504 369.95 519.497 365.844 519.497 361.022V333.763C519.497 328.995 520.504 324.915 522.517 321.524C524.531 318.133 527.312 315.59 530.862 313.895C534.412 312.146 538.439 311.272 542.942 311.272C547.446 311.272 551.472 312.146 555.022 313.895C558.572 315.59 561.353 318.133 563.367 321.524C565.38 324.915 566.387 328.995 566.387 333.763V361.022C566.387 365.844 565.38 369.95 563.367 373.341C561.353 376.679 558.572 379.195 555.022 380.891C551.472 382.639 547.446 383.513 542.942 383.513ZM542.942 370.162C545.326 370.162 547.287 369.5 548.823 368.175C550.413 366.797 551.207 364.784 551.207 362.135V332.65C551.207 330.054 550.413 328.067 548.823 326.69C547.234 325.312 545.273 324.624 542.942 324.624C540.611 324.624 538.651 325.312 537.061 326.69C535.472 328.067 534.677 330.054 534.677 332.65V362.135C534.677 364.784 535.445 366.797 536.982 368.175C538.571 369.5 540.558 370.162 542.942 370.162ZM597.813 383.513C593.309 383.513 589.283 382.639 585.733 380.891C582.183 379.195 579.402 376.679 577.388 373.341C575.375 369.95 574.368 365.844 574.368 361.022V333.763C574.368 328.995 575.375 324.915 577.388 321.524C579.402 318.133 582.183 315.59 585.733 313.895C589.283 312.146 593.309 311.272 597.813 311.272C602.316 311.272 606.343 312.146 609.893 313.895C613.443 315.59 616.224 318.133 618.238 321.524C620.251 324.915 621.258 328.995 621.258 333.763V361.022C621.258 365.844 620.251 369.95 618.238 373.341C616.224 376.679 613.443 379.195 609.893 380.891C606.343 382.639 602.316 383.513 597.813 383.513ZM597.813 370.162C600.197 370.162 602.157 369.5 603.694 368.175C605.283 366.797 606.078 364.784 606.078 362.135V332.65C606.078 330.054 605.283 328.067 603.694 326.69C602.104 325.312 600.144 324.624 597.813 324.624C595.482 324.624 593.521 325.312 591.932 326.69C590.342 328.067 589.548 330.054 589.548 332.65V362.135C589.548 364.784 590.316 366.797 591.852 368.175C593.442 369.5 595.429 370.162 597.813 370.162ZM630.113 312.067H673.983V351.962H630.113V312.067ZM659.757 340.757V323.193H644.259V340.757H659.757ZM682.884 309.841H697.984V329.63H705.136V342.664H697.984V365.711H682.884V309.841ZM634.007 357.049H649.346V372.228H699.891V383.99H634.007V357.049ZM764.344 365.95H746.144V355.539H764.344V309.841H779.444V368.89H764.344V365.95ZM739.866 352.201V365.314H728.422V372.705H780.954V383.99H713.083V361.022H725.243V352.201H707.918V341.154H743.76C750.701 341.154 756.264 340.836 760.45 340.2V351.247C756.264 351.883 750.701 352.201 743.76 352.201H739.866ZM724.21 337.18C719.653 337.18 716.103 336.015 713.56 333.684C711.017 331.299 709.746 328.147 709.746 324.226V323.988C709.746 320.067 711.017 316.941 713.56 314.61C716.103 312.279 719.653 311.113 724.21 311.113H742.171C746.78 311.113 750.33 312.279 752.82 314.61C755.363 316.941 756.635 320.067 756.635 323.988V324.226C756.635 328.147 755.363 331.299 752.82 333.684C750.33 336.015 746.78 337.18 742.171 337.18H724.21ZM724.051 324.306C724.051 325.259 724.395 326.054 725.084 326.69C725.773 327.273 726.726 327.564 727.945 327.564H738.515C739.734 327.564 740.661 327.273 741.296 326.69C741.985 326.054 742.33 325.259 742.33 324.306V324.067C742.33 323.061 741.985 322.239 741.296 321.604C740.661 320.968 739.734 320.65 738.515 320.65H727.945C726.726 320.65 725.773 320.968 725.084 321.604C724.395 322.239 724.051 323.061 724.051 324.067V324.306Z"/>
</mask>
<path d="M281.605 309.841H296.705V383.99H281.605V309.841ZM225.179 380.97V368.731H243.299V355.459H257.922V368.731H261.021C267.962 368.731 273.525 368.413 277.711 367.778V380.017C273.525 380.652 267.962 380.97 261.021 380.97H225.179ZM226.212 344.651C231.51 343.856 235.643 342.134 238.61 339.485C241.63 336.783 243.299 333.366 243.617 329.233H226.927V317.471H243.378V309.921H258.001V317.471H275.088V329.233H257.843C257.684 331.352 257.392 333.154 256.968 334.637C263.061 334.849 267.83 336.783 271.274 340.439C274.77 344.042 276.492 348.969 276.439 355.221H262.452C262.505 353.26 262.081 351.459 261.18 349.817C260.28 348.174 258.982 346.903 257.286 346.002C255.644 345.101 253.763 344.677 251.644 344.73C248.73 348.068 245.047 350.691 240.597 352.598C236.199 354.506 231.378 355.565 226.133 355.777L226.212 344.651ZM364.257 351.009H359.489V383.99H346.376V309.841H359.489V338.611H364.257V309.841H377.37V383.99H364.257V351.009ZM305.685 312.146H340.177V324.465H320.547V368.652H341.846V380.811H305.685V312.146ZM416.652 334.16H405.605V322.319C409.632 322.16 412.731 321.339 414.904 319.855C417.129 318.372 418.559 315.934 419.195 312.544H431.752V382.242H416.652V334.16ZM441.663 388.679C443.941 388.255 445.584 387.434 446.591 386.215C447.65 385.05 448.18 383.778 448.18 382.401H441.266V367.142H456.684V379.222C456.684 383.619 455.359 387.116 452.71 389.712C450.061 392.308 446.379 393.739 441.663 394.004V388.679ZM488.071 383.513C483.568 383.513 479.541 382.639 475.991 380.891C472.442 379.195 469.66 376.679 467.647 373.341C465.633 369.95 464.627 365.844 464.627 361.022V333.763C464.627 328.995 465.633 324.915 467.647 321.524C469.66 318.133 472.442 315.59 475.991 313.895C479.541 312.146 483.568 311.272 488.071 311.272C492.575 311.272 496.601 312.146 500.151 313.895C503.701 315.59 506.483 318.133 508.496 321.524C510.509 324.915 511.516 328.995 511.516 333.763V361.022C511.516 365.844 510.509 369.95 508.496 373.341C506.483 376.679 503.701 379.195 500.151 380.891C496.601 382.639 492.575 383.513 488.071 383.513ZM488.071 370.162C490.456 370.162 492.416 369.5 493.952 368.175C495.542 366.797 496.337 364.784 496.337 362.135V332.65C496.337 330.054 495.542 328.067 493.952 326.69C492.363 325.312 490.403 324.624 488.071 324.624C485.74 324.624 483.78 325.312 482.19 326.69C480.601 328.067 479.806 330.054 479.806 332.65V362.135C479.806 364.784 480.574 366.797 482.111 368.175C483.7 369.5 485.687 370.162 488.071 370.162ZM542.942 383.513C538.439 383.513 534.412 382.639 530.862 380.891C527.312 379.195 524.531 376.679 522.517 373.341C520.504 369.95 519.497 365.844 519.497 361.022V333.763C519.497 328.995 520.504 324.915 522.517 321.524C524.531 318.133 527.312 315.59 530.862 313.895C534.412 312.146 538.439 311.272 542.942 311.272C547.446 311.272 551.472 312.146 555.022 313.895C558.572 315.59 561.353 318.133 563.367 321.524C565.38 324.915 566.387 328.995 566.387 333.763V361.022C566.387 365.844 565.38 369.95 563.367 373.341C561.353 376.679 558.572 379.195 555.022 380.891C551.472 382.639 547.446 383.513 542.942 383.513ZM542.942 370.162C545.326 370.162 547.287 369.5 548.823 368.175C550.413 366.797 551.207 364.784 551.207 362.135V332.65C551.207 330.054 550.413 328.067 548.823 326.69C547.234 325.312 545.273 324.624 542.942 324.624C540.611 324.624 538.651 325.312 537.061 326.69C535.472 328.067 534.677 330.054 534.677 332.65V362.135C534.677 364.784 535.445 366.797 536.982 368.175C538.571 369.5 540.558 370.162 542.942 370.162ZM597.813 383.513C593.309 383.513 589.283 382.639 585.733 380.891C582.183 379.195 579.402 376.679 577.388 373.341C575.375 369.95 574.368 365.844 574.368 361.022V333.763C574.368 328.995 575.375 324.915 577.388 321.524C579.402 318.133 582.183 315.59 585.733 313.895C589.283 312.146 593.309 311.272 597.813 311.272C602.316 311.272 606.343 312.146 609.893 313.895C613.443 315.59 616.224 318.133 618.238 321.524C620.251 324.915 621.258 328.995 621.258 333.763V361.022C621.258 365.844 620.251 369.95 618.238 373.341C616.224 376.679 613.443 379.195 609.893 380.891C606.343 382.639 602.316 383.513 597.813 383.513ZM597.813 370.162C600.197 370.162 602.157 369.5 603.694 368.175C605.283 366.797 606.078 364.784 606.078 362.135V332.65C606.078 330.054 605.283 328.067 603.694 326.69C602.104 325.312 600.144 324.624 597.813 324.624C595.482 324.624 593.521 325.312 591.932 326.69C590.342 328.067 589.548 330.054 589.548 332.65V362.135C589.548 364.784 590.316 366.797 591.852 368.175C593.442 369.5 595.429 370.162 597.813 370.162ZM630.113 312.067H673.983V351.962H630.113V312.067ZM659.757 340.757V323.193H644.259V340.757H659.757ZM682.884 309.841H697.984V329.63H705.136V342.664H697.984V365.711H682.884V309.841ZM634.007 357.049H649.346V372.228H699.891V383.99H634.007V357.049ZM764.344 365.95H746.144V355.539H764.344V309.841H779.444V368.89H764.344V365.95ZM739.866 352.201V365.314H728.422V372.705H780.954V383.99H713.083V361.022H725.243V352.201H707.918V341.154H743.76C750.701 341.154 756.264 340.836 760.45 340.2V351.247C756.264 351.883 750.701 352.201 743.76 352.201H739.866ZM724.21 337.18C719.653 337.18 716.103 336.015 713.56 333.684C711.017 331.299 709.746 328.147 709.746 324.226V323.988C709.746 320.067 711.017 316.941 713.56 314.61C716.103 312.279 719.653 311.113 724.21 311.113H742.171C746.78 311.113 750.33 312.279 752.82 314.61C755.363 316.941 756.635 320.067 756.635 323.988V324.226C756.635 328.147 755.363 331.299 752.82 333.684C750.33 336.015 746.78 337.18 742.171 337.18H724.21ZM724.051 324.306C724.051 325.259 724.395 326.054 725.084 326.69C725.773 327.273 726.726 327.564 727.945 327.564H738.515C739.734 327.564 740.661 327.273 741.296 326.69C741.985 326.054 742.33 325.259 742.33 324.306V324.067C742.33 323.061 741.985 322.239 741.296 321.604C740.661 320.968 739.734 320.65 738.515 320.65H727.945C726.726 320.65 725.773 320.968 725.084 321.604C724.395 322.239 724.051 323.061 724.051 324.067V324.306Z" fill="black"/>
<path d="M281.605 309.841V308.841H280.605V309.841H281.605ZM296.705 309.841H297.705V308.841H296.705V309.841ZM296.705 383.99V384.99H297.705V383.99H296.705ZM281.605 383.99H280.605V384.99H281.605V383.99ZM225.179 380.97H224.179V381.97H225.179V380.97ZM225.179 368.731V367.731H224.179V368.731H225.179ZM243.299 368.731V369.731H244.299V368.731H243.299ZM243.299 355.459V354.459H242.299V355.459H243.299ZM257.922 355.459H258.922V354.459H257.922V355.459ZM257.922 368.731H256.922V369.731H257.922V368.731ZM277.711 367.778H278.711V366.614L277.561 366.789L277.711 367.778ZM277.711 380.017L277.861 381.005L278.711 380.876V380.017H277.711ZM226.212 344.651L226.064 343.662L225.218 343.789L225.212 344.644L226.212 344.651ZM238.61 339.485L239.276 340.231L239.277 340.23L238.61 339.485ZM243.617 329.233L244.614 329.31L244.697 328.233H243.617V329.233ZM226.927 329.233H225.927V330.233H226.927V329.233ZM226.927 317.471V316.471H225.927V317.471H226.927ZM243.378 317.471V318.471H244.378V317.471H243.378ZM243.378 309.921V308.921H242.378V309.921H243.378ZM258.001 309.921H259.001V308.921H258.001V309.921ZM258.001 317.471H257.001V318.471H258.001V317.471ZM275.088 317.471H276.088V316.471H275.088V317.471ZM275.088 329.233V330.233H276.088V329.233H275.088ZM257.843 329.233V328.233H256.915L256.845 329.158L257.843 329.233ZM256.968 334.637L256.007 334.362L255.655 335.592L256.934 335.637L256.968 334.637ZM271.274 340.439L270.546 341.124L270.551 341.13L270.556 341.135L271.274 340.439ZM276.439 355.221V356.221H277.431L277.439 355.229L276.439 355.221ZM262.452 355.221L261.452 355.194L261.425 356.221H262.452V355.221ZM261.18 349.817L260.304 350.297L260.304 350.297L261.18 349.817ZM257.286 346.002L256.805 346.879L256.817 346.885L257.286 346.002ZM251.644 344.73L251.619 343.731L251.179 343.742L250.89 344.073L251.644 344.73ZM240.597 352.598L240.203 351.679L240.199 351.681L240.597 352.598ZM226.133 355.777L225.133 355.77L225.125 356.819L226.173 356.776L226.133 355.777ZM281.605 309.841V310.841H296.705V309.841V308.841H281.605V309.841ZM296.705 309.841H295.705V383.99H296.705H297.705V309.841H296.705ZM296.705 383.99V382.99H281.605V383.99V384.99H296.705V383.99ZM281.605 383.99H282.605V309.841H281.605H280.605V383.99H281.605ZM225.179 380.97H226.179V368.731H225.179H224.179V380.97H225.179ZM225.179 368.731V369.731H243.299V368.731V367.731H225.179V368.731ZM243.299 368.731H244.299V355.459H243.299H242.299V368.731H243.299ZM243.299 355.459V356.459H257.922V355.459V354.459H243.299V355.459ZM257.922 355.459H256.922V368.731H257.922H258.922V355.459H257.922ZM257.922 368.731V369.731H261.021V368.731V367.731H257.922V368.731ZM261.021 368.731V369.731C267.985 369.731 273.604 369.413 277.861 368.766L277.711 367.778L277.561 366.789C273.446 367.414 267.939 367.731 261.021 367.731V368.731ZM277.711 367.778H276.711V380.017H277.711H278.711V367.778H277.711ZM277.711 380.017L277.561 379.028C273.446 379.653 267.939 379.97 261.021 379.97V380.97V381.97C267.985 381.97 273.604 381.652 277.861 381.005L277.711 380.017ZM261.021 380.97V379.97H225.179V380.97V381.97H261.021V380.97ZM226.212 344.651L226.36 345.64C231.786 344.826 236.121 343.048 239.276 340.231L238.61 339.485L237.944 338.739C235.165 341.221 231.235 342.886 226.064 343.662L226.212 344.651ZM238.61 339.485L239.277 340.23C242.494 337.352 244.277 333.693 244.614 329.31L243.617 329.233L242.62 329.156C242.321 333.038 240.766 336.214 237.943 338.74L238.61 339.485ZM243.617 329.233V328.233H226.927V329.233V330.233H243.617V329.233ZM226.927 329.233H227.927V317.471H226.927H225.927V329.233H226.927ZM226.927 317.471V318.471H243.378V317.471V316.471H226.927V317.471ZM243.378 317.471H244.378V309.921H243.378H242.378V317.471H243.378ZM243.378 309.921V310.921H258.001V309.921V308.921H243.378V309.921ZM258.001 309.921H257.001V317.471H258.001H259.001V309.921H258.001ZM258.001 317.471V318.471H275.088V317.471V316.471H258.001V317.471ZM275.088 317.471H274.088V329.233H275.088H276.088V317.471H275.088ZM275.088 329.233V328.233H257.843V329.233V330.233H275.088V329.233ZM257.843 329.233L256.845 329.158C256.69 331.233 256.406 332.963 256.007 334.362L256.968 334.637L257.93 334.912C258.378 333.344 258.677 331.471 258.84 329.308L257.843 329.233ZM256.968 334.637L256.934 335.637C262.823 335.841 267.32 337.7 270.546 341.124L271.274 340.439L272.001 339.753C268.339 335.866 263.299 333.857 257.003 333.638L256.968 334.637ZM271.274 340.439L270.556 341.135C273.827 344.506 275.491 349.155 275.439 355.212L276.439 355.221L277.439 355.229C277.494 348.782 275.714 343.578 271.991 339.742L271.274 340.439ZM276.439 355.221V354.221H262.452V355.221V356.221H276.439V355.221ZM262.452 355.221L263.452 355.248C263.509 353.119 263.047 351.141 262.057 349.336L261.18 349.817L260.304 350.297C261.115 351.777 261.501 353.402 261.452 355.194L262.452 355.221ZM261.18 349.817L262.057 349.336C261.06 347.518 259.618 346.109 257.755 345.119L257.286 346.002L256.817 346.885C258.345 347.697 259.499 348.83 260.304 350.297L261.18 349.817ZM257.286 346.002L257.767 345.125C255.95 344.129 253.891 343.674 251.619 343.731L251.644 344.73L251.669 345.73C253.635 345.681 255.337 346.074 256.805 346.879L257.286 346.002ZM251.644 344.73L250.89 344.073C248.084 347.287 244.528 349.825 240.203 351.679L240.597 352.598L240.991 353.517C245.566 351.556 249.375 348.849 252.397 345.388L251.644 344.73ZM240.597 352.598L240.199 351.681C235.925 353.535 231.226 354.571 226.092 354.778L226.133 355.777L226.173 356.776C231.53 356.56 236.474 355.476 240.995 353.516L240.597 352.598ZM226.133 355.777L227.133 355.784L227.212 344.658L226.212 344.651L225.212 344.644L225.133 355.77L226.133 355.777ZM364.257 351.009H365.257V350.009H364.257V351.009ZM359.489 351.009V350.009H358.489V351.009H359.489ZM359.489 383.99V384.99H360.489V383.99H359.489ZM346.376 383.99H345.376V384.99H346.376V383.99ZM346.376 309.841V308.841H345.376V309.841H346.376ZM359.489 309.841H360.489V308.841H359.489V309.841ZM359.489 338.611H358.489V339.611H359.489V338.611ZM364.257 338.611V339.611H365.257V338.611H364.257ZM364.257 309.841V308.841H363.257V309.841H364.257ZM377.37 309.841H378.37V308.841H377.37V309.841ZM377.37 383.99V384.99H378.37V383.99H377.37ZM364.257 383.99H363.257V384.99H364.257V383.99ZM305.685 312.146V311.146H304.685V312.146H305.685ZM340.177 312.146H341.177V311.146H340.177V312.146ZM340.177 324.465V325.465H341.177V324.465H340.177ZM320.547 324.465V323.465H319.547V324.465H320.547ZM320.547 368.652H319.547V369.652H320.547V368.652ZM341.846 368.652H342.846V367.652H341.846V368.652ZM341.846 380.811V381.811H342.846V380.811H341.846ZM305.685 380.811H304.685V381.811H305.685V380.811ZM364.257 351.009V350.009H359.489V351.009V352.009H364.257V351.009ZM359.489 351.009H358.489V383.99H359.489H360.489V351.009H359.489ZM359.489 383.99V382.99H346.376V383.99V384.99H359.489V383.99ZM346.376 383.99H347.376V309.841H346.376H345.376V383.99H346.376ZM346.376 309.841V310.841H359.489V309.841V308.841H346.376V309.841ZM359.489 309.841H358.489V338.611H359.489H360.489V309.841H359.489ZM359.489 338.611V339.611H364.257V338.611V337.611H359.489V338.611ZM364.257 338.611H365.257V309.841H364.257H363.257V338.611H364.257ZM364.257 309.841V310.841H377.37V309.841V308.841H364.257V309.841ZM377.37 309.841H376.37V383.99H377.37H378.37V309.841H377.37ZM377.37 383.99V382.99H364.257V383.99V384.99H377.37V383.99ZM364.257 383.99H365.257V351.009H364.257H363.257V383.99H364.257ZM305.685 312.146V313.146H340.177V312.146V311.146H305.685V312.146ZM340.177 312.146H339.177V324.465H340.177H341.177V312.146H340.177ZM340.177 324.465V323.465H320.547V324.465V325.465H340.177V324.465ZM320.547 324.465H319.547V368.652H320.547H321.547V324.465H320.547ZM320.547 368.652V369.652H341.846V368.652V367.652H320.547V368.652ZM341.846 368.652H340.846V380.811H341.846H342.846V368.652H341.846ZM341.846 380.811V379.811H305.685V380.811V381.811H341.846V380.811ZM305.685 380.811H306.685V312.146H305.685H304.685V380.811H305.685ZM416.652 334.16H417.652V333.16H416.652V334.16ZM405.605 334.16H404.605V335.16H405.605V334.16ZM405.605 322.319L405.566 321.32L404.605 321.358V322.319H405.605ZM414.904 319.855L414.349 319.023L414.34 319.029L414.904 319.855ZM419.195 312.544V311.544H418.365L418.212 312.359L419.195 312.544ZM431.752 312.544H432.752V311.544H431.752V312.544ZM431.752 382.242V383.242H432.752V382.242H431.752ZM416.652 382.242H415.652V383.242H416.652V382.242ZM416.652 334.16V333.16H405.605V334.16V335.16H416.652V334.16ZM405.605 334.16H406.605V322.319H405.605H404.605V334.16H405.605ZM405.605 322.319L405.645 323.318C409.767 323.155 413.078 322.313 415.468 320.681L414.904 319.855L414.34 319.029C412.384 320.365 409.497 321.164 405.566 321.32L405.605 322.319ZM414.904 319.855L415.458 320.687C417.968 319.014 419.508 316.303 420.178 312.728L419.195 312.544L418.212 312.359C417.611 315.566 416.29 317.729 414.349 319.023L414.904 319.855ZM419.195 312.544V313.544H431.752V312.544V311.544H419.195V312.544ZM431.752 312.544H430.752V382.242H431.752H432.752V312.544H431.752ZM431.752 382.242V381.242H416.652V382.242V383.242H431.752V382.242ZM416.652 382.242H417.652V334.16H416.652H415.652V382.242H416.652ZM441.663 388.679L441.48 387.696L440.663 387.848V388.679H441.663ZM446.591 386.215L445.851 385.543L445.835 385.56L445.82 385.579L446.591 386.215ZM448.18 382.401H449.18V381.401H448.18V382.401ZM441.266 382.401H440.266V383.401H441.266V382.401ZM441.266 367.142V366.142H440.266V367.142H441.266ZM456.684 367.142H457.684V366.142H456.684V367.142ZM452.71 389.712L452.01 388.998L452.01 388.998L452.71 389.712ZM441.663 394.004H440.663V395.062L441.719 395.002L441.663 394.004ZM441.663 388.679L441.846 389.662C444.25 389.215 446.15 388.319 447.362 386.852L446.591 386.215L445.82 385.579C445.018 386.549 443.632 387.296 441.48 387.696L441.663 388.679ZM446.591 386.215L447.331 386.888C448.532 385.567 449.18 384.063 449.18 382.401H448.18H447.18C447.18 383.494 446.769 384.533 445.851 385.543L446.591 386.215ZM448.18 382.401V381.401H441.266V382.401V383.401H448.18V382.401ZM441.266 382.401H442.266V367.142H441.266H440.266V382.401H441.266ZM441.266 367.142V368.142H456.684V367.142V366.142H441.266V367.142ZM456.684 367.142H455.684V379.222H456.684H457.684V367.142H456.684ZM456.684 379.222H455.684C455.684 383.404 454.432 386.625 452.01 388.998L452.71 389.712L453.41 390.426C456.286 387.608 457.684 383.834 457.684 379.222H456.684ZM452.71 389.712L452.01 388.998C449.577 391.382 446.149 392.75 441.607 393.005L441.663 394.004L441.719 395.002C446.609 394.728 450.545 393.235 453.41 390.426L452.71 389.712ZM441.663 394.004H442.663V388.679H441.663H440.663V394.004H441.663ZM475.991 380.891L476.433 379.994L476.422 379.988L475.991 380.891ZM467.647 373.341L466.787 373.851L466.79 373.857L467.647 373.341ZM467.647 321.524L468.507 322.035L468.507 322.035L467.647 321.524ZM475.991 313.895L476.422 314.797L476.433 314.792L475.991 313.895ZM500.151 313.895L499.709 314.792L499.72 314.797L500.151 313.895ZM508.496 321.524L509.356 321.014L509.356 321.014L508.496 321.524ZM508.496 373.341L509.352 373.857L509.356 373.851L508.496 373.341ZM500.151 380.891L499.72 379.988L499.709 379.994L500.151 380.891ZM493.952 368.175L494.605 368.932L494.607 368.931L493.952 368.175ZM493.952 326.69L494.607 325.934L494.607 325.934L493.952 326.69ZM482.19 326.69L481.535 325.934L481.535 325.934L482.19 326.69ZM482.111 368.175L481.443 368.92L481.457 368.932L481.471 368.943L482.111 368.175ZM488.071 383.513V382.513C483.7 382.513 479.828 381.666 476.433 379.994L475.991 380.891L475.55 381.788C479.255 383.613 483.436 384.513 488.071 384.513V383.513ZM475.991 380.891L476.422 379.988C473.047 378.376 470.414 375.993 468.503 372.824L467.647 373.341L466.79 373.857C468.906 377.364 471.836 380.014 475.56 381.793L475.991 380.891ZM467.647 373.341L468.507 372.83C466.603 369.625 465.627 365.704 465.627 361.022H464.627H463.627C463.627 365.984 464.663 370.275 466.787 373.851L467.647 373.341ZM464.627 361.022H465.627V333.763H464.627H463.627V361.022H464.627ZM464.627 333.763H465.627C465.627 329.137 466.602 325.242 468.507 322.035L467.647 321.524L466.787 321.014C464.664 324.588 463.627 328.853 463.627 333.763H464.627ZM467.647 321.524L468.507 322.035C470.419 318.813 473.052 316.407 476.422 314.797L475.991 313.895L475.56 312.992C471.832 314.773 468.901 317.453 466.787 321.014L467.647 321.524ZM475.991 313.895L476.433 314.792C479.828 313.12 483.7 312.272 488.071 312.272V311.272V310.272C483.436 310.272 479.255 311.173 475.55 312.998L475.991 313.895ZM488.071 311.272V312.272C492.443 312.272 496.315 313.12 499.709 314.792L500.151 313.895L500.593 312.998C496.888 311.173 492.707 310.272 488.071 310.272V311.272ZM500.151 313.895L499.72 314.797C503.091 316.407 505.724 318.813 507.636 322.035L508.496 321.524L509.356 321.014C507.242 317.453 504.311 314.773 500.582 312.992L500.151 313.895ZM508.496 321.524L507.636 322.035C509.54 325.242 510.516 329.137 510.516 333.763H511.516H512.516C512.516 328.853 511.478 324.588 509.356 321.014L508.496 321.524ZM511.516 333.763H510.516V361.022H511.516H512.516V333.763H511.516ZM511.516 361.022H510.516C510.516 365.704 509.539 369.625 507.636 372.83L508.496 373.341L509.356 373.851C511.479 370.275 512.516 365.984 512.516 361.022H511.516ZM508.496 373.341L507.64 372.824C505.728 375.993 503.095 378.376 499.72 379.988L500.151 380.891L500.582 381.793C504.307 380.014 507.237 377.364 509.352 373.857L508.496 373.341ZM500.151 380.891L499.709 379.994C496.315 381.666 492.443 382.513 488.071 382.513V383.513V384.513C492.707 384.513 496.888 383.613 500.593 381.788L500.151 380.891ZM488.071 370.162V371.162C490.651 371.162 492.856 370.44 494.605 368.932L493.952 368.175L493.299 367.418C491.975 368.559 490.26 369.162 488.071 369.162V370.162ZM493.952 368.175L494.607 368.931C496.471 367.316 497.337 364.993 497.337 362.135H496.337H495.337C495.337 364.575 494.613 366.279 493.297 367.419L493.952 368.175ZM496.337 362.135H497.337V332.65H496.337H495.337V362.135H496.337ZM496.337 332.65H497.337C497.337 329.838 496.466 327.545 494.607 325.934L493.952 326.69L493.297 327.446C494.618 328.59 495.337 330.27 495.337 332.65H496.337ZM493.952 326.69L494.607 325.934C492.816 324.382 490.615 323.624 488.071 323.624V324.624V325.624C490.19 325.624 491.91 326.243 493.297 327.446L493.952 326.69ZM488.071 324.624V323.624C485.527 323.624 483.327 324.382 481.535 325.934L482.19 326.69L482.845 327.446C484.233 326.243 485.953 325.624 488.071 325.624V324.624ZM482.19 326.69L481.535 325.934C479.677 327.545 478.806 329.838 478.806 332.65H479.806H480.806C480.806 330.27 481.525 328.59 482.845 327.446L482.19 326.69ZM479.806 332.65H478.806V362.135H479.806H480.806V332.65H479.806ZM479.806 362.135H478.806C478.806 364.982 479.639 367.302 481.443 368.92L482.111 368.175L482.778 367.43C481.51 366.293 480.806 364.586 480.806 362.135H479.806ZM482.111 368.175L481.471 368.943C483.267 370.44 485.491 371.162 488.071 371.162V370.162V369.162C485.883 369.162 484.134 368.559 482.751 367.407L482.111 368.175ZM530.862 380.891L531.304 379.994L531.293 379.988L530.862 380.891ZM522.517 373.341L521.658 373.851L521.661 373.857L522.517 373.341ZM522.517 321.524L523.377 322.035L523.377 322.035L522.517 321.524ZM530.862 313.895L531.293 314.797L531.304 314.792L530.862 313.895ZM555.022 313.895L554.58 314.792L554.591 314.797L555.022 313.895ZM563.367 321.524L564.227 321.014L564.227 321.014L563.367 321.524ZM563.367 373.341L564.223 373.857L564.227 373.851L563.367 373.341ZM555.022 380.891L554.591 379.988L554.58 379.994L555.022 380.891ZM548.823 368.175L549.476 368.932L549.478 368.931L548.823 368.175ZM548.823 326.69L549.478 325.934L549.478 325.934L548.823 326.69ZM537.061 326.69L536.406 325.934L536.406 325.934L537.061 326.69ZM536.982 368.175L536.314 368.92L536.328 368.932L536.341 368.943L536.982 368.175ZM542.942 383.513V382.513C538.571 382.513 534.698 381.666 531.304 379.994L530.862 380.891L530.42 381.788C534.125 383.613 538.307 384.513 542.942 384.513V383.513ZM530.862 380.891L531.293 379.988C527.918 378.376 525.285 375.993 523.374 372.824L522.517 373.341L521.661 373.857C523.776 377.364 526.707 380.014 530.431 381.793L530.862 380.891ZM522.517 373.341L523.377 372.83C521.474 369.625 520.497 365.704 520.497 361.022H519.497H518.497C518.497 365.984 519.534 370.275 521.658 373.851L522.517 373.341ZM519.497 361.022H520.497V333.763H519.497H518.497V361.022H519.497ZM519.497 333.763H520.497C520.497 329.137 521.473 325.242 523.377 322.035L522.517 321.524L521.658 321.014C519.535 324.588 518.497 328.853 518.497 333.763H519.497ZM522.517 321.524L523.377 322.035C525.29 318.813 527.922 316.407 531.293 314.797L530.862 313.895L530.431 312.992C526.702 314.773 523.772 317.453 521.658 321.014L522.517 321.524ZM530.862 313.895L531.304 314.792C534.698 313.12 538.571 312.272 542.942 312.272V311.272V310.272C538.307 310.272 534.125 311.173 530.42 312.998L530.862 313.895ZM542.942 311.272V312.272C547.314 312.272 551.186 313.12 554.58 314.792L555.022 313.895L555.464 312.998C551.759 311.173 547.578 310.272 542.942 310.272V311.272ZM555.022 313.895L554.591 314.797C557.962 316.407 560.594 318.813 562.507 322.035L563.367 321.524L564.227 321.014C562.113 317.453 559.182 314.773 555.453 312.992L555.022 313.895ZM563.367 321.524L562.507 322.035C564.411 325.242 565.387 329.137 565.387 333.763H566.387H567.387C567.387 328.853 566.349 324.588 564.227 321.014L563.367 321.524ZM566.387 333.763H565.387V361.022H566.387H567.387V333.763H566.387ZM566.387 361.022H565.387C565.387 365.704 564.41 369.625 562.507 372.83L563.367 373.341L564.227 373.851C566.35 370.275 567.387 365.984 567.387 361.022H566.387ZM563.367 373.341L562.51 372.824C560.599 375.993 557.966 378.376 554.591 379.988L555.022 380.891L555.453 381.793C559.178 380.014 562.108 377.364 564.223 373.857L563.367 373.341ZM555.022 380.891L554.58 379.994C551.186 381.666 547.314 382.513 542.942 382.513V383.513V384.513C547.578 384.513 551.759 383.613 555.464 381.788L555.022 380.891ZM542.942 370.162V371.162C545.522 371.162 547.727 370.44 549.476 368.932L548.823 368.175L548.17 367.418C546.846 368.559 545.131 369.162 542.942 369.162V370.162ZM548.823 368.175L549.478 368.931C551.341 367.316 552.207 364.993 552.207 362.135H551.207H550.207C550.207 364.575 549.484 366.279 548.168 367.419L548.823 368.175ZM551.207 362.135H552.207V332.65H551.207H550.207V362.135H551.207ZM551.207 332.65H552.207C552.207 329.838 551.337 327.545 549.478 325.934L548.823 326.69L548.168 327.446C549.488 328.59 550.207 330.27 550.207 332.65H551.207ZM548.823 326.69L549.478 325.934C547.687 324.382 545.486 323.624 542.942 323.624V324.624V325.624C545.061 325.624 546.781 326.243 548.168 327.446L548.823 326.69ZM542.942 324.624V323.624C540.398 323.624 538.197 324.382 536.406 325.934L537.061 326.69L537.716 327.446C539.104 326.243 540.823 325.624 542.942 325.624V324.624ZM537.061 326.69L536.406 325.934C534.547 327.545 533.677 329.838 533.677 332.65H534.677H535.677C535.677 330.27 536.396 328.59 537.716 327.446L537.061 326.69ZM534.677 332.65H533.677V362.135H534.677H535.677V332.65H534.677ZM534.677 362.135H533.677C533.677 364.982 534.51 367.302 536.314 368.92L536.982 368.175L537.649 367.43C536.381 366.293 535.677 364.586 535.677 362.135H534.677ZM536.982 368.175L536.341 368.943C538.138 370.44 540.362 371.162 542.942 371.162V370.162V369.162C540.754 369.162 539.005 368.559 537.622 367.407L536.982 368.175ZM585.733 380.891L586.175 379.994L586.164 379.988L585.733 380.891ZM577.388 373.341L576.528 373.851L576.532 373.857L577.388 373.341ZM577.388 321.524L578.248 322.035L578.248 322.035L577.388 321.524ZM585.733 313.895L586.164 314.797L586.175 314.792L585.733 313.895ZM609.893 313.895L609.451 314.792L609.462 314.797L609.893 313.895ZM618.238 321.524L619.097 321.014L619.097 321.014L618.238 321.524ZM618.238 373.341L619.094 373.857L619.097 373.851L618.238 373.341ZM609.893 380.891L609.462 379.988L609.451 379.994L609.893 380.891ZM603.694 368.175L604.347 368.932L604.349 368.931L603.694 368.175ZM603.694 326.69L604.349 325.934L604.349 325.934L603.694 326.69ZM591.932 326.69L591.277 325.934L591.277 325.934L591.932 326.69ZM591.852 368.175L591.185 368.92L591.198 368.932L591.212 368.943L591.852 368.175ZM597.813 383.513V382.513C593.441 382.513 589.569 381.666 586.175 379.994L585.733 380.891L585.291 381.788C588.996 383.613 593.177 384.513 597.813 384.513V383.513ZM585.733 380.891L586.164 379.988C582.789 378.376 580.156 375.993 578.245 372.824L577.388 373.341L576.532 373.857C578.647 377.364 581.577 380.014 585.302 381.793L585.733 380.891ZM577.388 373.341L578.248 372.83C576.345 369.625 575.368 365.704 575.368 361.022H574.368H573.368C573.368 365.984 574.405 370.275 576.528 373.851L577.388 373.341ZM574.368 361.022H575.368V333.763H574.368H573.368V361.022H574.368ZM574.368 333.763H575.368C575.368 329.137 576.344 325.242 578.248 322.035L577.388 321.524L576.528 321.014C574.406 324.588 573.368 328.853 573.368 333.763H574.368ZM577.388 321.524L578.248 322.035C580.161 318.813 582.793 316.407 586.164 314.797L585.733 313.895L585.302 312.992C581.573 314.773 578.642 317.453 576.528 321.014L577.388 321.524ZM585.733 313.895L586.175 314.792C589.569 313.12 593.441 312.272 597.813 312.272V311.272V310.272C593.177 310.272 588.996 311.173 585.291 312.998L585.733 313.895ZM597.813 311.272V312.272C602.184 312.272 606.057 313.12 609.451 314.792L609.893 313.895L610.335 312.998C606.63 311.173 602.448 310.272 597.813 310.272V311.272ZM609.893 313.895L609.462 314.797C612.833 316.407 615.465 318.813 617.378 322.035L618.238 321.524L619.097 321.014C616.983 317.453 614.053 314.773 610.324 312.992L609.893 313.895ZM618.238 321.524L617.378 322.035C619.282 325.242 620.258 329.137 620.258 333.763H621.258H622.258C622.258 328.853 621.22 324.588 619.097 321.014L618.238 321.524ZM621.258 333.763H620.258V361.022H621.258H622.258V333.763H621.258ZM621.258 361.022H620.258C620.258 365.704 619.281 369.625 617.378 372.83L618.238 373.341L619.097 373.851C621.221 370.275 622.258 365.984 622.258 361.022H621.258ZM618.238 373.341L617.381 372.824C615.47 375.993 612.837 378.376 609.462 379.988L609.893 380.891L610.324 381.793C614.048 380.014 616.979 377.364 619.094 373.857L618.238 373.341ZM609.893 380.891L609.451 379.994C606.057 381.666 602.184 382.513 597.813 382.513V383.513V384.513C602.448 384.513 606.63 383.613 610.335 381.788L609.893 380.891ZM597.813 370.162V371.162C600.392 371.162 602.598 370.44 604.347 368.932L603.694 368.175L603.041 367.418C601.717 368.559 600.002 369.162 597.813 369.162V370.162ZM603.694 368.175L604.349 368.931C606.212 367.316 607.078 364.993 607.078 362.135H606.078H605.078C605.078 364.575 604.355 366.279 603.039 367.419L603.694 368.175ZM606.078 362.135H607.078V332.65H606.078H605.078V362.135H606.078ZM606.078 332.65H607.078C607.078 329.838 606.208 327.545 604.349 325.934L603.694 326.69L603.039 327.446C604.359 328.59 605.078 330.27 605.078 332.65H606.078ZM603.694 326.69L604.349 325.934C602.557 324.382 600.357 323.624 597.813 323.624V324.624V325.624C599.931 325.624 601.651 326.243 603.039 327.446L603.694 326.69ZM597.813 324.624V323.624C595.269 323.624 593.068 324.382 591.277 325.934L591.932 326.69L592.587 327.446C593.974 326.243 595.694 325.624 597.813 325.624V324.624ZM591.932 326.69L591.277 325.934C589.418 327.545 588.548 329.838 588.548 332.65H589.548H590.548C590.548 330.27 591.267 328.59 592.587 327.446L591.932 326.69ZM589.548 332.65H588.548V362.135H589.548H590.548V332.65H589.548ZM589.548 362.135H588.548C588.548 364.982 589.38 367.302 591.185 368.92L591.852 368.175L592.52 367.43C591.251 366.293 590.548 364.586 590.548 362.135H589.548ZM591.852 368.175L591.212 368.943C593.008 370.44 595.232 371.162 597.813 371.162V370.162V369.162C595.625 369.162 593.875 368.559 592.493 367.407L591.852 368.175ZM630.113 312.067V311.067H629.113V312.067H630.113ZM673.983 312.067H674.983V311.067H673.983V312.067ZM673.983 351.962V352.962H674.983V351.962H673.983ZM630.113 351.962H629.113V352.962H630.113V351.962ZM659.757 340.757V341.757H660.757V340.757H659.757ZM659.757 323.193H660.757V322.193H659.757V323.193ZM644.259 323.193V322.193H643.259V323.193H644.259ZM644.259 340.757H643.259V341.757H644.259V340.757ZM682.884 309.841V308.841H681.884V309.841H682.884ZM697.984 309.841H698.984V308.841H697.984V309.841ZM697.984 329.63H696.984V330.63H697.984V329.63ZM705.136 329.63H706.136V328.63H705.136V329.63ZM705.136 342.664V343.664H706.136V342.664H705.136ZM697.984 342.664V341.664H696.984V342.664H697.984ZM697.984 365.711V366.711H698.984V365.711H697.984ZM682.884 365.711H681.884V366.711H682.884V365.711ZM634.007 357.049V356.049H633.007V357.049H634.007ZM649.346 357.049H650.346V356.049H649.346V357.049ZM649.346 372.228H648.346V373.228H649.346V372.228ZM699.891 372.228H700.891V371.228H699.891V372.228ZM699.891 383.99V384.99H700.891V383.99H699.891ZM634.007 383.99H633.007V384.99H634.007V383.99ZM630.113 312.067V313.067H673.983V312.067V311.067H630.113V312.067ZM673.983 312.067H672.983V351.962H673.983H674.983V312.067H673.983ZM673.983 351.962V350.962H630.113V351.962V352.962H673.983V351.962ZM630.113 351.962H631.113V312.067H630.113H629.113V351.962H630.113ZM659.757 340.757H660.757V323.193H659.757H658.757V340.757H659.757ZM659.757 323.193V322.193H644.259V323.193V324.193H659.757V323.193ZM644.259 323.193H643.259V340.757H644.259H645.259V323.193H644.259ZM644.259 340.757V341.757H659.757V340.757V339.757H644.259V340.757ZM682.884 309.841V310.841H697.984V309.841V308.841H682.884V309.841ZM697.984 309.841H696.984V329.63H697.984H698.984V309.841H697.984ZM697.984 329.63V330.63H705.136V329.63V328.63H697.984V329.63ZM705.136 329.63H704.136V342.664H705.136H706.136V329.63H705.136ZM705.136 342.664V341.664H697.984V342.664V343.664H705.136V342.664ZM697.984 342.664H696.984V365.711H697.984H698.984V342.664H697.984ZM697.984 365.711V364.711H682.884V365.711V366.711H697.984V365.711ZM682.884 365.711H683.884V309.841H682.884H681.884V365.711H682.884ZM634.007 357.049V358.049H649.346V357.049V356.049H634.007V357.049ZM649.346 357.049H648.346V372.228H649.346H650.346V357.049H649.346ZM649.346 372.228V373.228H699.891V372.228V371.228H649.346V372.228ZM699.891 372.228H698.891V383.99H699.891H700.891V372.228H699.891ZM699.891 383.99V382.99H634.007V383.99V384.99H699.891V383.99ZM634.007 383.99H635.007V357.049H634.007H633.007V383.99H634.007ZM764.344 365.95H765.344V364.95H764.344V365.95ZM746.144 365.95H745.144V366.95H746.144V365.95ZM746.144 355.539V354.539H745.144V355.539H746.144ZM764.344 355.539V356.539H765.344V355.539H764.344ZM764.344 309.841V308.841H763.344V309.841H764.344ZM779.444 309.841H780.444V308.841H779.444V309.841ZM779.444 368.89V369.89H780.444V368.89H779.444ZM764.344 368.89H763.344V369.89H764.344V368.89ZM739.866 352.201V351.201H738.866V352.201H739.866ZM739.866 365.314V366.314H740.866V365.314H739.866ZM728.422 365.314V364.314H727.422V365.314H728.422ZM728.422 372.705H727.422V373.705H728.422V372.705ZM780.954 372.705H781.954V371.705H780.954V372.705ZM780.954 383.99V384.99H781.954V383.99H780.954ZM713.083 383.99H712.083V384.99H713.083V383.99ZM713.083 361.022V360.022H712.083V361.022H713.083ZM725.243 361.022V362.022H726.243V361.022H725.243ZM725.243 352.201H726.243V351.201H725.243V352.201ZM707.918 352.201H706.918V353.201H707.918V352.201ZM707.918 341.154V340.154H706.918V341.154H707.918ZM760.45 340.2H761.45V339.037L760.299 339.212L760.45 340.2ZM760.45 351.247L760.6 352.236L761.45 352.107V351.247H760.45ZM713.56 333.684L712.876 334.413L712.885 334.421L713.56 333.684ZM713.56 314.61L712.885 313.873L712.885 313.873L713.56 314.61ZM752.82 314.61L752.137 315.34L752.144 315.347L752.82 314.61ZM752.82 333.684L753.504 334.414L753.504 334.413L752.82 333.684ZM725.084 326.69L724.406 327.425L724.422 327.439L724.438 327.453L725.084 326.69ZM741.296 326.69L741.972 327.427L741.975 327.425L741.296 326.69ZM741.296 321.604L740.589 322.311L740.604 322.325L740.618 322.338L741.296 321.604ZM725.084 321.604L724.406 320.869L724.406 320.869L725.084 321.604ZM764.344 365.95V364.95H746.144V365.95V366.95H764.344V365.95ZM746.144 365.95H747.144V355.539H746.144H745.144V365.95H746.144ZM746.144 355.539V356.539H764.344V355.539V354.539H746.144V355.539ZM764.344 355.539H765.344V309.841H764.344H763.344V355.539H764.344ZM764.344 309.841V310.841H779.444V309.841V308.841H764.344V309.841ZM779.444 309.841H778.444V368.89H779.444H780.444V309.841H779.444ZM779.444 368.89V367.89H764.344V368.89V369.89H779.444V368.89ZM764.344 368.89H765.344V365.95H764.344H763.344V368.89H764.344ZM739.866 352.201H738.866V365.314H739.866H740.866V352.201H739.866ZM739.866 365.314V364.314H728.422V365.314V366.314H739.866V365.314ZM728.422 365.314H727.422V372.705H728.422H729.422V365.314H728.422ZM728.422 372.705V373.705H780.954V372.705V371.705H728.422V372.705ZM780.954 372.705H779.954V383.99H780.954H781.954V372.705H780.954ZM780.954 383.99V382.99H713.083V383.99V384.99H780.954V383.99ZM713.083 383.99H714.083V361.022H713.083H712.083V383.99H713.083ZM713.083 361.022V362.022H725.243V361.022V360.022H713.083V361.022ZM725.243 361.022H726.243V352.201H725.243H724.243V361.022H725.243ZM725.243 352.201V351.201H707.918V352.201V353.201H725.243V352.201ZM707.918 352.201H708.918V341.154H707.918H706.918V352.201H707.918ZM707.918 341.154V342.154H743.76V341.154V340.154H707.918V341.154ZM743.76 341.154V342.154C750.724 342.154 756.343 341.836 760.6 341.189L760.45 340.2L760.299 339.212C756.185 339.837 750.678 340.154 743.76 340.154V341.154ZM760.45 340.2H759.45V351.247H760.45H761.45V340.2H760.45ZM760.45 351.247L760.299 350.258C756.185 350.883 750.678 351.201 743.76 351.201V352.201V353.201C750.724 353.201 756.343 352.882 760.6 352.236L760.45 351.247ZM743.76 352.201V351.201H739.866V352.201V353.201H743.76V352.201ZM724.21 337.18V336.18C719.821 336.18 716.542 335.06 714.236 332.946L713.56 333.684L712.885 334.421C715.665 336.969 719.485 338.18 724.21 338.18V337.18ZM713.56 333.684L714.244 332.954C711.929 330.783 710.746 327.908 710.746 324.226H709.746H708.746C708.746 328.385 710.105 331.815 712.876 334.413L713.56 333.684ZM709.746 324.226H710.746V323.988H709.746H708.746V324.226H709.746ZM709.746 323.988H710.746C710.746 320.305 711.929 317.462 714.236 315.347L713.56 314.61L712.885 313.873C710.106 316.42 708.746 319.829 708.746 323.988H709.746ZM713.56 314.61L714.236 315.347C716.542 313.233 719.821 312.113 724.21 312.113V311.113V310.113C719.485 310.113 715.665 311.324 712.885 313.873L713.56 314.61ZM724.21 311.113V312.113H742.171V311.113V310.113H724.21V311.113ZM742.171 311.113V312.113C746.617 312.113 749.889 313.236 752.137 315.34L752.82 314.61L753.504 313.88C750.771 311.322 746.943 310.113 742.171 310.113V311.113ZM752.82 314.61L752.144 315.347C754.452 317.462 755.635 320.305 755.635 323.988H756.635H757.635C757.635 319.829 756.275 316.42 753.496 313.873L752.82 314.61ZM756.635 323.988H755.635V324.226H756.635H757.635V323.988H756.635ZM756.635 324.226H755.635C755.635 327.908 754.452 330.783 752.136 332.954L752.82 333.684L753.504 334.413C756.275 331.815 757.635 328.385 757.635 324.226H756.635ZM752.82 333.684L752.137 332.953C749.889 335.058 746.617 336.18 742.171 336.18V337.18V338.18C746.943 338.18 750.771 336.972 753.504 334.414L752.82 333.684ZM742.171 337.18V336.18H724.21V337.18V338.18H742.171V337.18ZM724.051 324.306H723.051C723.051 325.533 723.508 326.596 724.406 327.425L725.084 326.69L725.762 325.955C725.283 325.512 725.051 324.986 725.051 324.306H724.051ZM725.084 326.69L724.438 327.453C725.362 328.235 726.573 328.564 727.945 328.564V327.564V326.564C726.88 326.564 726.183 326.31 725.73 325.926L725.084 326.69ZM727.945 327.564V328.564H738.515V327.564V326.564H727.945V327.564ZM738.515 327.564V328.564C739.881 328.564 741.088 328.238 741.972 327.427L741.296 326.69L740.621 325.953C740.233 326.308 739.586 326.564 738.515 326.564V327.564ZM741.296 326.69L741.975 327.425C742.873 326.596 743.33 325.533 743.33 324.306H742.33H741.33C741.33 324.986 741.098 325.512 740.618 325.955L741.296 326.69ZM742.33 324.306H743.33V324.067H742.33H741.33V324.306H742.33ZM742.33 324.067H743.33C743.33 322.805 742.885 321.709 741.975 320.869L741.296 321.604L740.618 322.338C741.086 322.77 741.33 323.317 741.33 324.067H742.33ZM741.296 321.604L742.004 320.896C741.121 320.014 739.902 319.65 738.515 319.65V320.65V321.65C739.565 321.65 740.2 321.921 740.589 322.311L741.296 321.604ZM738.515 320.65V319.65H727.945V320.65V321.65H738.515V320.65ZM727.945 320.65V319.65C726.553 319.65 725.329 320.016 724.406 320.869L725.084 321.604L725.762 322.338C726.216 321.919 726.9 321.65 727.945 321.65V320.65ZM725.084 321.604L724.406 320.869C723.495 321.709 723.051 322.805 723.051 324.067H724.051H725.051C725.051 323.317 725.295 322.77 725.762 322.338L725.084 321.604ZM724.051 324.067H723.051V324.306H724.051H725.051V324.067H724.051Z" fill="white" mask="url(#path-23-outside-1_77_820)"/>
</g>
</g>
</g>
</svg>
