<?xml version="1.0" standalone="no"?>
<!DOCTYPE svg PUBLIC "-//W3C//DTD SVG 1.1//EN" "http://www.w3.org/Graphics/SVG/1.1/DTD/svg11.dtd">
<svg xmlns="http://www.w3.org/2000/svg">
<metadata>Copyright (C) 2025 by original authors @ fontello.com</metadata>
<defs>
<font id="motto" horiz-adv-x="1000" >
<font-face font-family="motto" font-weight="400" font-stretch="normal" units-per-em="1000" ascent="850" descent="-150" />
<missing-glyph horiz-adv-x="1000" />
<glyph glyph-name="close" unicode="&#xe800;" d="M399 350l-399 399 102 101 398-399 399 399 101-101-399-399 399-399-101-101-399 399-398-399-102 101 399 399z" horiz-adv-x="1000" />

<glyph glyph-name="arrow-right" unicode="&#xe801;" d="M569 319l-319 384 110 85 390-469-390-469-110 85 319 384z" horiz-adv-x="1000" />

<glyph glyph-name="motto" unicode="&#xe802;" d="M556 114c-12-7-26-11-39-13-14-2-28-1-42 2-13 4-26 10-37 18-11 8-20 18-27 30l-179 297c-14 23-18 50-11 76 7 26 25 49 49 62 24 14 53 18 80 11 28-7 51-24 65-47l0-1 179-297c7-11 12-24 14-37 2-13 1-27-3-40-3-13-10-25-18-35-9-11-19-20-31-26z m385 0c-13-7-28-11-43-13-16-2-31-1-46 2-15 4-29 10-41 18-13 8-23 18-31 30l-199 297c-7 11-13 24-15 37-2 13-1 27 3 39 4 13 11 25 20 36 10 11 21 20 35 26 13 7 28 11 43 13 15 2 31 1 46-2 15-4 29-10 41-18 13-8 23-18 31-29l0-1 199-297c8-11 13-24 15-37 2-13 1-27-3-40-4-13-11-25-20-35-10-11-21-20-35-26z m-724 101c0-22-6-45-18-64-12-19-29-33-49-42-20-9-41-11-62-7-22 5-41 16-56 32-15 16-26 37-30 59-4 22-2 46 6 67 9 21 22 39 40 51 18 13 39 20 61 20 29 0 56-12 77-34 20-22 31-51 31-82z" horiz-adv-x="1000" />

<glyph glyph-name="question" unicode="&#xe803;" d="M372 140c0 53 5 95 14 126 10 32 23 57 40 76 17 19 40 38 69 58 31 20 53 40 69 61 16 22 24 48 24 79 0 23-6 43-16 60-11 17-26 31-45 40-18 11-39 16-61 16-21 0-41-5-59-15-19-9-34-22-46-42-11-19-18-41-19-68h-154c1 54 14 101 39 139 25 39 59 68 100 88 44 20 91 30 141 30 56 0 105-11 147-31 43-20 76-49 99-86 24-37 36-80 36-129 0-48-11-90-34-127-22-34-54-65-97-92-27-17-46-32-59-47-14-15-25-34-33-57-7-22-10-48-10-79v-11h-145v11z m76-290c-17 0-33 5-48 14-15 9-27 21-35 35-9 16-13 32-13 49 0 17 4 33 13 49 9 15 21 27 35 35 15 9 30 13 47 13 17 0 33-4 47-12 15-8 27-20 36-36 9-16 14-32 14-49 0-17-5-33-14-49-8-14-20-26-36-36-14-9-29-13-46-13z" horiz-adv-x="1000" />

<glyph glyph-name="bubble-kakao" unicode="&#xe804;" d="M500 788c-276 0-500-174-500-388 0-134 87-251 218-321l-55-204c-5-18 16-32 31-22l243 162c21-2 42-3 63-3 276 0 500 173 500 388 0 214-224 388-500 388" horiz-adv-x="1000" />

<glyph glyph-name="logo" unicode="&#xe805;" d="M143 145c0 80 62 144 140 144 77 0 139-64 139-144 0-79-62-144-139-144-78 0-140 65-140 144z m251 302c-35 62-14 142 46 178 61 36 138 14 173-48l218-389c35-62 14-142-46-178-61-36-138-14-173 48l-218 389z m401 0c-35 62-14 142 46 178 61 36 138 14 173-48l218-389c35-62 15-142-46-178-60-36-138-14-173 48l-218 389z m1447-95v-335h-179v312c0 56-20 83-58 83-49 0-74-35-74-102v-293h-174v312c0 54-20 83-57 83-49 0-75-36-75-102v-293h-179v534h126l25-57c19 22 42 41 68 53 26 13 55 20 84 20 29 0 58-6 84-20 26-14 48-34 64-59 20 25 44 45 71 58 28 14 58 21 89 21 111 0 185-89 185-215m52-68c0 165 122 284 291 284 169 0 291-119 291-284 0-166-122-285-291-285-169 0-291 120-291 285z m291-120c15 0 30 3 44 9 14 6 27 14 37 26 11 11 19 24 24 39 6 15 8 30 7 46 0 15-2 30-8 45-5 14-13 27-24 38-10 11-23 20-36 26-14 6-29 9-44 9-15 0-30-3-44-9-13-6-26-15-36-26-11-11-19-24-24-38-6-15-8-30-8-45-1-16 1-31 7-46 5-15 13-28 24-39 10-12 23-20 37-26 14-6 29-9 44-9z m699 14v-161h-123c-24-2-49 1-73 10-23 9-45 23-62 41-18 18-31 40-40 64-8 25-11 50-9 76v201h-95v43l233 255h36v-156h131v-142h-126v-170c-1-8 0-16 3-24 3-8 7-15 13-21 6-6 13-10 20-13 8-3 16-4 24-3l68 0z m400 0v-161h-123c-25-2-50 1-73 10-23 9-45 23-62 41-18 18-31 40-40 64-8 25-11 50-9 76v201h-95v43l232 255h37v-156h130v-142h-125v-170c-1-8 0-16 3-24 3-8 7-15 13-21 5-6 12-10 20-13 8-3 16-4 24-3h68z m20 106c0 165 122 284 291 284 169 0 291-119 291-284 0-166-123-285-291-285-169 0-291 120-291 285z m291-120c15 0 30 3 44 9 14 6 27 14 37 26 11 11 19 24 24 39 5 15 8 30 7 46 0 15-2 30-8 45-5 14-13 27-24 38-10 11-23 20-37 26-13 6-28 9-43 9-15 0-30-3-44-9-14-6-26-15-37-26-10-11-18-24-24-38-5-15-8-30-7-45-1-16 1-31 6-46 6-15 14-28 24-39 11-12 24-20 38-26 14-6 29-9 44-9z" horiz-adv-x="4429" />

<glyph glyph-name="pen" unicode="&#xe806;" d="M568 668l250-250-543-543-223-25c-30-3-55 22-52 52l25 223 543 543z m405 37l-118 118c-36 36-96 36-132 0l-111-111 250-250 111 111c36 36 36 96 0 132z" horiz-adv-x="1000" />

<glyph glyph-name="box" unicode="&#xe807;" d="M558 839c-37 15-79 15-116 0l-375-153c-20-8-37-22-49-40-12-18-18-39-18-61v-470c0-22 6-43 18-61 12-18 29-31 49-40l375-153c37-15 79-15 116 0l375 153c20 9 37 22 49 40 12 18 18 39 18 61v470c0 22-6 43-18 61-12 18-29 32-49 40l-375 153z m-93-60c23 10 48 10 70 0l350-142-151-61-384 156 115 47z m-199-81l384-157-150-61-385 157 151 61z m-203-108l406-166v-505l-4 1-375 154c-8 3-15 9-20 16-5 7-7 16-7 25v470c0 2 0 3 0 5m468-671v505l406 166c0-2 1-3 1-5v-470c0-9-3-18-8-25-5-7-12-13-20-16l-375-154-4-1z" horiz-adv-x="1000" />

<glyph glyph-name="point" unicode="&#xe808;" d="M500 850c-276 0-500-224-500-500 0-276 224-500 500-500 276 0 500 224 500 500 0 276-224 500-500 500z m-187-257h196c37 0 69-7 96-21 27-14 47-34 61-60 14-25 22-54 22-87 0-34-8-63-22-89-14-25-35-45-63-59-27-14-59-21-97-21h-90v-163h-103z m103-85v-168h73c30 0 53 7 68 23 16 15 23 36 23 62 0 25-7 46-23 61-15 15-38 22-68 22z" horiz-adv-x="1000" />

<glyph glyph-name="link" unicode="&#xe809;" d="M644 723c-61-8-114-39-142-76-21-27-61-32-88-11-27 21-32 60-11 88 51 65 135 111 225 123 92 12 194-11 275-90 82-80 106-180 94-274-12-91-59-178-120-239-25-25-64-25-89 0-24 24-24 64 0 88 45 44 77 106 85 167 8 60-7 119-57 168-50 49-112 64-172 56z m70-179c24-25 24-65-1-89l-326-318c-24-24-64-24-88 1-24 25-24 64 1 89l326 318c25 24 64 23 88-1z m-515-107c24-25 23-65-2-88-46-44-70-96-72-148-2-50 18-107 72-160 109-106 253-67 320 0 24 24 64 24 88-1 25-24 24-64 0-88-101-101-324-168-495-1-77 76-113 165-110 255 3 88 45 170 111 233 25 24 64 23 88-2z" horiz-adv-x="1000" />

<glyph glyph-name="coupon" unicode="&#xe80a;" d="M107 725c-59 0-107-46-107-102v-139c0-7 3-14 7-20 5-6 12-11 20-13 23-5 44-19 59-37 15-18 23-41 23-64 0-23-8-46-23-64-15-18-36-32-59-37-8-2-15-7-20-12-4-6-7-14-7-21v-139c0-56 48-102 107-102h786c59 0 107 46 107 102v139c0 8-3 15-7 21-5 6-12 10-19 12-24 6-44 19-59 37-14 19-22 41-22 64 0 23 8 45 22 64 15 18 35 31 59 37 7 2 14 6 19 12 4 6 7 14 7 21v139c0 56-48 102-107 102z m573-163c11 0 23-4 31-12 8-8 13-19 13-30 0-11-4-22-12-30l-358-341c-4-4-9-7-14-9-5-3-11-4-17-4-6 0-12 1-18 3-5 2-10 6-15 10-4 4-7 8-9 14-3 5-4 11-4 16 0 6 2 12 4 17 3 5 6 10 10 14l358 341c8 7 19 11 31 11z m-321-7c19 0 37-8 50-20 14-13 21-31 21-49 0-18-7-35-21-48-13-13-31-20-50-20-19 0-37 7-51 20-13 13-21 30-21 48 0 18 8 36 21 49 14 12 32 20 51 20z m285-273c19 0 37-7 51-20 13-13 21-30 21-48 0-18-8-36-21-49-14-12-32-20-51-20-18 0-37 8-50 20-13 13-21 31-21 49 0 18 8 35 21 48 13 13 32 20 50 20z" horiz-adv-x="1000" />

<glyph glyph-name="ticket-fill" unicode="&#xe80b;" d="M550 725c12 0 24-5 33-13 9-8 15-19 17-32l0-6c0-13 5-25 14-35 8-9 20-15 33-15 13-1 25 3 35 11 10 9 16 20 18 33l0 6c0 14 5 27 15 36 9 10 22 15 35 15h100c40 0 78-16 106-45 28-28 44-67 44-107v-508c0-41-16-79-44-108-28-29-66-45-106-45h-100c-12 0-24 5-33 13-9 9-15 20-17 32l0 6c0 13-5 26-14 35-8 10-20 15-33 16-13 1-25-3-35-12-10-8-16-20-18-33l0-6c0-13-5-26-15-36-9-9-22-15-35-15h-400c-40 0-78 16-106 45-28 29-44 67-44 108v508c0 40 16 79 44 107 28 29 66 45 106 45h400z m100-457c-13 0-26-5-35-15-10-9-15-22-15-36v-51c0-13 5-26 15-35 9-10 22-15 35-15 13 0 26 5 35 15 10 9 15 22 15 35v51c0 14-5 27-15 36-9 10-22 15-35 15z m0 254c-12 0-24-5-33-13-9-8-15-20-17-32l0-6v-51c0-13 5-25 14-34 8-10 20-16 33-16 13-1 25 3 35 11 10 9 16 21 18 33l0 6v51c0 14-5 27-15 36-9 10-22 15-35 15z" horiz-adv-x="1000" />

<glyph glyph-name="truck" unicode="&#xe80c;" d="M858 586c-9 15-22 28-37 37-15 9-32 13-49 13h-122v101c0 14-5 26-15 36-9 9-22 15-35 15h-500c-26 0-52-11-71-30-18-19-29-44-29-71v-504c0-18 5-35 13-50 9-16 22-28 37-37-2-47 15-93 47-127 31-34 75-55 121-56 47-2 92 15 126 46 34 32 54 76 56 123h155c6-42 26-81 58-109 32-28 72-43 115-43 42 0 83 15 114 43 32 28 53 67 58 109 27 0 52 11 71 30 19 19 29 44 29 71v151c0 9-3 18-7 26l-135 226z m-208-50h122l90-151h-212v151z m-425-504c-15 0-29 4-42 13-12 8-22 20-27 33-6 14-7 29-5 44 3 15 11 28 21 39 11 10 24 18 38 21 15 2 30 1 44-5 13-5 25-15 33-28 9-12 13-27 13-42 0-20-8-39-22-53-14-14-33-22-53-22z m500 0c-15 0-29 4-42 13-12 8-22 20-27 33-6 14-7 29-5 44 3 15 11 28 21 39 11 10 24 18 38 21 15 2 30 1 44-5 13-5 25-15 33-28 9-12 13-27 13-42 0-20-8-39-22-53-14-14-33-22-53-22z" horiz-adv-x="1000" />

<glyph glyph-name="arrow-left" unicode="&#xe80d;" d="M432 319l318 384-110 85-390-469 390-469 110 85-318 384z" horiz-adv-x="1000" />

<glyph glyph-name="arrow-down" unicode="&#xe80e;" d="M469 282l384 318 85-110-469-390-469 390 85 110 384-318z" horiz-adv-x="1000" />

<glyph glyph-name="arrow-up" unicode="&#xe80f;" d="M469 419l384-319 85 110-469 390-469-390 85-110 384 319z" horiz-adv-x="1000" />

<glyph glyph-name="box-fill" unicode="&#xe810;" d="M779 728l-100 53c-88 46-132 69-179 69-47 0-91-23-179-69l-16-9 446-256 201 101c-32 37-84 64-173 111m208-178l-199-100v-153c0-10-4-19-11-26-7-7-17-11-27-11-10 0-19 4-26 11-7 7-11 16-11 26v115l-175-88v-474c35 9 76 30 141 65l100 52c107 57 161 85 191 136 30 51 30 115 30 242v6c0 95 0 154-13 199z m-524-700v474l-450 226c-13-45-13-104-13-199v-6c0-127 0-191 30-242 30-51 84-79 191-136l100-52c65-35 106-56 142-65z m-415 767l452-227 171 85-445 256-5-3c-88-47-141-74-173-111" horiz-adv-x="1000" />

<glyph glyph-name="check-line" unicode="&#xe811;" d="M963 603l-552-595-374 403 91 85 283-304 461 496 91-85z" horiz-adv-x="1000" />

<glyph glyph-name="check-circle-fill" unicode="&#xe812;" d="M500 850a500 500 0 0 1-500-500 500 500 0 0 1 500-500 500 500 0 0 1 500 500 500 500 0 0 1-500 500z m184-287l92-85-43-45-278-300-188 203-43 46 92 85 42-46 97-104 187 201 42 45z" horiz-adv-x="1000" />

<glyph glyph-name="line-scan" unicode="&#xe813;" d="M750-150v100h150v150h100v-175c0-20-10-35-25-50-15-15-35-25-50-25h-175z m-500 0h-175c-20 0-35 10-50 25-15 15-25 35-25 50v175h100v-150h150v-100z m500 1000h175c20 0 35-10 50-25 15-15 25-30 25-50v-175h-100v150h-150v100z m-500 0v-100h-150v-150h-100v175c0 20 10 35 25 50 15 15 30 25 50 25h175z m600-450h-700v-100h700v100z" horiz-adv-x="1000" />

<glyph glyph-name="photo" unicode="&#xe814;" d="M133-88h734c89 0 133 46 133 137v539c0 91-44 137-133 137h-734c-88 0-133-45-133-137v-539c0-91 45-137 133-137z m571 408c-19 18-41 27-63 27-24 0-45-9-64-27l-192-178-78 74c-18 17-37 25-58 25-18 0-37-8-54-24l-127-119v487c0 46 24 69 66 69h732c42 0 66-23 66-69v-488l-228 223z m-388-5c55 0 99 47 99 104 0 57-44 104-99 104-55 0-100-47-100-104 0-27 10-54 29-73 19-20 44-31 71-31z" horiz-adv-x="1000" />

<glyph glyph-name="qr-scan" unicode="&#xe815;" d="M100 750h201v100h-301v-300h100v200z m0-600h-100v-300h301v100h-201v200z m800-200h-200v-100h300v300h-100v-200z m-200 800h200v-200h100v300h-300v-100z m-550-350h300v300h-300v-300z m100 200h100v-100h-100v100z m-100-600h300v300h-300v-300z m100 200h100v-100h-100v100z m600 500h-300v-300h300v300z m-100-200h-100v100h100v-100z m-199-200h100v-100h-100v100z m100-100h100v-100h-100v100z m100-100h100v-100h-100v100z m0 200h100v-100h-100v100z" horiz-adv-x="1000" />

<glyph glyph-name="camera" unicode="&#xe816;" d="M279 723c13 20 32 36 54 47 22 12 46 18 71 18h193c24 0 49-6 70-18 22-11 41-27 54-47l41-60c5-6 11-12 18-16 7-3 15-5 24-5h46c40 0 78-16 106-43 28-27 44-64 44-103v-438c0-38-16-75-44-103-28-27-66-43-106-43h-700c-40 0-78 16-106 43-28 28-44 65-44 103v438c0 39 16 76 44 103 28 27 66 43 106 43h47c8 0 16 2 23 5 7 4 14 10 18 16l41 60z m121-422c0 26 11 51 29 69 19 18 45 29 71 29 27 0 52-11 71-29 19-18 29-43 29-69 0-25-10-50-29-68-19-19-44-29-71-29-26 0-52 10-71 29-18 18-29 43-29 68z m100 195c-53 0-104-21-141-57-38-37-59-86-59-138 0-51 21-101 59-137 37-37 88-57 141-57 53 0 104 20 141 57 38 36 59 86 59 137 0 52-21 101-59 138-37 36-88 57-141 57z" horiz-adv-x="1000" />

<glyph glyph-name="question-circle-fill" unicode="&#xe817;" d="M500 850a500 500 0 0 1-500-500 500 500 0 0 1 500-500 500 500 0 0 1 500 500 500 500 0 0 1-500 500z m0-312c24 0 46-5 65-15 19-9 34-22 44-40 11-17 16-37 16-60 0-23-5-42-15-59-10-16-24-31-43-43-12-8-21-15-26-22-7-7-12-16-15-27-3-10-5-22-5-36l0-6-64 0 0 6c0 24 2 44 6 58 5 15 11 27 18 36 7 8 18 18 31 27 13 9 23 18 30 28 7 11 11 23 11 37 0 11-2 20-7 28-5 8-12 14-20 19-8 5-17 7-27 7-9 0-18-2-27-7-8-4-15-10-20-19-5-9-8-20-8-32l-69 0c1 25 6 47 18 65 11 18 26 32 44 41 19 9 40 14 63 14z m-10-347c8 0 15-2 21-6 7-3 12-9 16-16 4-8 6-15 6-23 0-8-2-16-6-23-3-7-9-12-16-17-6-4-13-6-20-6-8 0-15 2-22 7-6 4-11 9-15 16-4 7-6 15-6 23 0 8 2 15 6 23 4 7 9 12 15 16 7 4 14 6 21 6z" horiz-adv-x="1000" />

<glyph glyph-name="question-circle-line" unicode="&#xe818;" d="M500 850c-276 0-500-224-500-500 0-276 224-500 500-500 276 0 500 224 500 500 0 276-224 500-500 500z m0-75c235 0 425-190 425-425 0-235-190-425-425-425-235 0-425 190-425 425 0 235 190 425 425 425z m0-237c-23 0-44-5-63-14-18-9-33-23-44-41-12-18-17-40-18-65l69 0c0 12 3 23 8 32 5 9 12 15 20 19 9 5 18 7 27 7 10 0 19-2 27-7 8-5 15-11 20-19 5-8 7-17 7-28 0-14-4-26-11-37-7-10-17-19-30-28-13-9-24-19-31-27-7-9-13-21-18-36-4-14-6-34-6-58l0-6 64 0 0 6c0 14 2 26 5 36 3 11 8 20 15 27 5 7 14 14 26 22 19 12 33 27 43 43 10 17 15 36 15 59 0 23-5 43-16 60-10 18-25 31-44 40-19 10-41 15-65 15z m-10-347c-7 0-14-2-21-6-6-4-11-9-15-16-4-8-6-15-6-23 0-8 2-16 6-23 4-7 9-12 15-16 7-5 14-7 22-7 7 0 14 2 20 6 7 5 13 10 16 17 4 7 6 15 6 23 0 8-2 15-6 23-4 7-9 13-16 16-6 4-13 6-21 6z" horiz-adv-x="1000" />

<glyph glyph-name="apple-fill" unicode="&#xe819;" d="M616 691c18 21 33 47 42 74 9 27 13 56 10 85-57-5-111-32-149-76-18-21-32-46-41-72-8-27-12-55-9-82 28-1 56 6 82 18 25 12 47 30 65 53z m125-372c1 38 11 75 30 109 18 33 45 61 78 81-20 30-48 54-79 72-32 17-67 27-104 28-77 8-149-45-191-45-41 0-99 44-164 43-43-1-84-14-120-36-36-22-66-53-87-90-88-153-22-381 66-504 39-61 89-129 155-127 66 3 88 41 164 41 76 0 100-41 165-39 64 1 110 62 152 122 30 44 53 92 69 143-39 16-73 45-97 81-24 35-37 78-37 121z" horiz-adv-x="1000" />

<glyph glyph-name="bell-fill" unicode="&#xe81a;" d="M938 41v-48h-875v48l97 95v285c0 148 98 278 243 320v14c0 25 10 49 28 67 19 18 43 28 69 28 26 0 51-10 69-28 18-18 28-42 28-67v-14c145-42 243-172 243-320v-285l98-95z m-341-96c0-25-10-49-28-67-18-18-43-28-69-28-26 0-50 10-69 28-18 18-28 42-28 67" horiz-adv-x="1000" />

<glyph glyph-name="bubble-line" unicode="&#xe81b;" d="M0 350c0 276 224 500 500 500 276 0 500-224 500-500 0-276-224-500-500-500-80 0-156 19-224 53l-186-50c-12-4-25-4-37 0-12 3-23 9-32 18-9 9-15 20-18 32-4 12-4 25 0 37l50 187c-35 69-53 146-53 223z m145-195c-33 60-50 127-50 195 0 80 24 158 69 225 44 66 107 118 181 149 74 31 155 39 234 23 79-16 151-54 207-111 57-56 95-128 111-207 16-79 8-160-23-234-31-74-83-137-149-182-67-44-145-68-225-68-68 0-135 17-195 50-11 6-23 8-35 4l-165-44 44 165c4 12 2 25-4 35z" horiz-adv-x="1000" />

<glyph glyph-name="bubble-multi-fill" unicode="&#xe81c;" d="M0 409c0 209 168 379 375 379 207 0 375-170 375-379 0-209-168-379-375-379-60 0-117 15-168 40l-139-38c-10-2-19-2-28 0-9 3-18 8-24 14-7 7-12 15-14 25-3 9-3 18 0 28l37 141c-26 52-39 110-39 169z m375-433c24 0 47 2 70 6 52-39 115-60 180-60 53 0 103 14 146 38 8 4 18 6 27 3l123-33-33 125c-2 9-1 18 3 26 25 45 38 96 38 148 0 49-12 98-35 142-23 44-56 82-96 110-6 33-15 66-28 97 68-29 126-77 167-139 41-63 63-136 63-210 0-59-13-117-39-169l37-142c3-9 3-19 0-28-2-9-7-17-14-24-6-7-15-12-24-14-9-2-18-2-27 0l-140 38c-52-26-110-40-168-40-112 0-212 49-280 127 10 0 20-1 30-1z" horiz-adv-x="1000" />

<glyph glyph-name="bubble-multi-line" unicode="&#xe81d;" d="M0 409c0 209 168 379 375 379 207 0 375-170 375-379 0-209-168-379-375-379-60 0-117 15-168 40l-139-38c-10-2-19-2-28 0-9 3-18 8-24 14-7 7-12 15-14 25-3 9-3 18 0 28l37 141c-26 52-39 110-39 169z m71 0c0-52 13-102 38-147 4-9 5-18 3-27l-33-125 123 34c9 2 19 1 27-4 45-25 95-38 146-38 60 0 119 18 169 52 50 34 89 82 112 138 22 56 29 117 17 177-12 59-41 114-83 157-43 43-97 72-156 84-59 11-120 5-175-18-56-23-103-62-136-113-34-50-52-109-52-170z m304-433c24 0 47 2 70 6 52-39 115-60 180-60 53 0 103 14 146 38 8 4 18 6 27 3l123-33-33 125c-2 9-1 18 3 26 25 45 38 96 38 148 0 49-12 98-35 142-23 44-56 82-96 110-6 33-15 66-28 97 68-29 126-77 167-139 41-63 63-136 63-210 0-59-13-117-39-169l37-142c3-9 3-19 0-28-2-9-7-17-14-24-6-7-15-12-24-14-9-2-18-2-27 0l-140 38c-52-26-110-40-168-40-112 0-212 49-280 127 10 0 20-1 30-1z" horiz-adv-x="1000" />

<glyph glyph-name="card-random-fill" unicode="&#xe81e;" d="M775-147l-251 112c-16 7-24 26-16 42l178 367c7 16 27 23 44 15l251-112c16-7 24-26 16-42l-178-367c-7-16-27-22-44-15z m-606 40l-166 371c-8 16 0 35 17 42l83 34 103-372c10-35 48-56 85-47l82 21-160-66c-17-7-36 1-44 17l0 0z m72 84l-109 391c-4 17 6 35 24 39l72 18-9-61c-5-36 21-70 60-75l168-22-69-221c-7-23-1-46 15-63l-112-28c-17-5-36 5-40 22z m228 10l-34 10c-17 5-27 23-22 39l120 388c5 17 24 26 41 21l103-29 0 0 1 0-1 0c-10-7-19-16-24-28l-178-366c-5-11-7-23-6-35l0 0z m-12 314l-174 22c-18 3-31 19-28 36l56 401c3 17 19 30 37 27l275-35c18-3 31-19 28-36l-34-247-33 10c-36 10-75-10-86-45l-41-133z m-11 64c10 6 16 15 18 26 2 11-1 22-8 30-8 9-18 15-31 17-14 2-25 0-35-6-11-6-17-15-19-26-1-11 1-21 9-31 7-9 18-14 31-16 13-3 25-1 35 6z m55 164c10 5 18 11 26 16 8 5 15 11 21 18 5 6 10 13 14 20 3 8 6 17 8 26 3 16 2 29-2 41-3 12-10 22-18 31-9 9-20 16-33 21-12 5-26 9-42 12-16 2-32 3-48 2-16-1-31-5-45-10l-12-72c14 8 29 14 43 17 15 3 29 3 42 1 46-8 41-50 19-68-12-9-24-18-34-23-22-12-58-47-47-91l66-11c-15 36 24 60 42 70h0z" horiz-adv-x="1000" />

<glyph glyph-name="clock-fill" unicode="&#xe81f;" d="M500 850c-66 0-131-13-191-38-61-25-116-62-163-108-93-94-146-221-146-354 0-133 53-260 146-354 47-46 102-83 163-108 60-25 125-38 191-38 133 0 260 53 354 146 93 94 146 221 146 354 0 66-13 131-38 191-25 61-62 116-108 163-47 46-102 83-163 108-60 25-125 38-191 38z m210-710l-260 160v300h75v-260l225-135-40-65z" horiz-adv-x="1000" />

<glyph glyph-name="clock-line" unicode="&#xe820;" d="M500-50c106 0 208 42 283 117 75 75 117 177 117 283 0 106-42 208-117 283-75 75-177 117-283 117-106 0-208-42-283-117-75-75-117-177-117-283 0-106 42-208 117-283 75-75 177-117 283-117z m0 900c66 0 131-13 191-38 61-25 116-62 163-108 46-47 83-102 108-163 25-60 38-125 38-191 0-133-53-260-146-354-94-93-221-146-354-146-276 0-500 225-500 500 0 133 53 260 146 354 94 93 221 146 354 146z m25-250v-262l225-134-37-61-263 157v300h75z" horiz-adv-x="1000" />

<glyph glyph-name="clover-fill" unicode="&#xe821;" d="M939 411c0-99-27-161-79-183-15-7-32-10-48-10-13 1-25 2-37 5-5 0-9 3-11 7-62 87-132 168-210 242-6 7-15 10-25 10-9-1-18-4-24-11-7-7-10-16-10-25 0-10 4-18 11-25 65-61 281-278 344-527 2-9 1-19-4-27-5-8-13-14-22-16-3-1-5-1-8-1-8 0-16 3-22 7-6 5-10 12-12 20-18 72-51 142-90 206-1-11-4-21-8-31-23-53-85-79-184-79-99 0-161 26-184 79-24 55-1 135 66 237 3 5 6 9 9 13l-13-8c-76-50-140-76-190-76-16 0-33 3-48 10-52 22-79 84-79 183 0 100 27 162 79 184 55 24 135 2 238-66l13-8-9 13c-67 102-89 182-66 238 23 52 85 78 184 78 99 0 161-26 184-79 24-55 1-135-66-237-3-5-6-9-9-14l13 9c103 68 183 90 238 66 52-22 79-84 79-184z" horiz-adv-x="1000" />

<glyph glyph-name="clover-line" unicode="&#xe822;" d="M851 200c54 24 82 87 82 188 0 101-28 164-82 187-62 27-146-6-219-50 44 72 78 156 51 218-24 55-87 82-188 82-100 0-164-27-187-82-27-62 6-146 50-219-72 45-156 78-218 51-55-23-82-86-82-187 0-101 27-164 82-188 16-6 33-10 50-10 53 0 114 28 168 61-44-73-77-157-50-219 23-54 87-82 187-82 101 0 164 28 188 82 13 30 12 64 3 99 54-78 104-169 127-264 2-6 5-11 10-14 4-4 10-6 15-6 3 0 5 0 7 1 3 1 6 2 9 4 2 2 5 5 7 8 1 3 2 6 3 9 0 4 0 7-1 10-32 130-108 251-181 344 40-19 81-32 119-32 17-1 34 3 50 9z m-496 523c15 34 62 51 140 51 79 0 126-17 141-51 16-39-5-107-61-192-24-36-51-71-80-105-28 34-55 69-79 105-56 85-78 153-61 192z m-195-476c-34 15-51 62-51 141 0 78 17 125 51 140 10 4 20 6 30 6 40 0 96-23 162-67 36-24 71-51 105-79-34-29-69-56-105-80-85-56-153-77-192-61z m476-194c-15-34-62-51-141-51-78 0-125 17-140 51-17 38 5 106 61 191 24 37 51 72 79 105 29-33 56-68 80-105 56-85 77-153 61-191z m3 255c-37 24-72 51-105 80 33 28 68 55 105 79 85 56 153 78 191 61 34-15 51-62 51-140 0-79-17-126-51-141-38-16-106 5-191 61z" horiz-adv-x="1000" />

<glyph glyph-name="dice-fill" unicode="&#xe823;" d="M833 850c43 0 84-16 115-45 31-30 49-69 52-112l0-10v-666c0-43-16-84-45-115-30-31-69-49-112-52l-10 0h-666c-43 0-84 16-115 45-31 30-49 69-52 112l0 10v666c0 43 16 84 45 115 30 31 70 49 112 52l10 0h666z m-527-611c-21 0-41-8-56-22-16-14-25-33-27-53l-1-8 1-9c2-21 11-40 27-54 15-14 35-21 56-21 20 0 40 7 56 21 15 14 25 33 27 54l0 8 0 9c-2 20-12 39-27 53-16 14-36 22-56 22z m388 0c-20 0-40-8-56-22-15-14-24-33-26-53l-1-9c0-21 8-42 23-57 15-16 35-25 56-26 22-1 43 6 59 20 16 14 26 34 28 55l1 9c0 22-9 43-25 59-15 15-36 24-59 24z m-194 194c-21 0-41-7-56-21-15-14-25-33-27-54l0-9c0-21 8-41 23-57 15-15 35-25 56-26 21-1 42 7 59 21 16 14 26 33 28 54l0 9c0 22-8 43-24 59-16 16-37 24-59 24z m-194 195c-21 0-41-8-56-22-16-14-25-33-27-54l-1-8 1-8c2-21 11-40 27-54 15-14 35-21 56-21 20 0 40 7 56 21 15 14 25 33 27 54l0 8 0 8c-2 21-12 40-27 54-16 14-36 22-56 22z m388 0c-20 0-40-8-56-22-15-14-24-33-26-54l-1-8c0-21 8-42 23-58 15-15 35-24 56-25 22-1 43 6 59 20 16 14 26 34 28 55l1 8c0 23-9 44-25 59-15 16-36 25-59 25z" horiz-adv-x="1000" />

<glyph glyph-name="dice-line" unicode="&#xe824;" d="M833 850c45 0 87-18 118-49 31-31 49-73 49-118v-666c0-45-18-87-49-118-31-31-73-49-118-49h-666c-44 0-87 18-118 49-31 31-49 73-49 118v666c0 45 18 87 49 118 31 31 74 49 118 49h666z m0-111h-666c-15 0-29-6-40-16-10-11-16-25-16-40v-666c0-15 6-29 16-40 11-10 25-16 40-16h666c15 0 29 6 40 16 10 11 16 25 16 40v666c0 15-6 29-16 40-11 10-25 16-40 16z m-527-500c20 0 40-8 56-22 15-14 25-33 27-53l0-9c0-21-8-42-23-57-15-16-35-25-56-26-22-1-43 6-59 20-16 14-26 34-28 55l-1 9c0 22 9 43 25 59 15 15 37 24 59 24z m388 0c21 0 41-8 57-22 15-14 24-33 26-53l1-9c0-21-8-42-23-57-15-16-35-25-56-26-22-1-43 6-59 20-16 14-26 34-28 55l-1 9c0 22 9 43 25 59 15 15 36 24 58 24z m-194 194c21 0 41-7 56-21 15-14 25-33 27-54l0-9c0-21-8-41-23-57-14-15-35-25-56-26-21-1-42 7-58 21-17 14-27 33-29 54l0 9c0 22 8 43 24 59 16 16 37 24 59 24z m-194 195c20 0 40-8 56-22 15-14 25-33 27-54l0-8c0-21-8-42-23-58-15-15-35-24-56-25-22-1-43 6-59 20-16 14-26 34-28 55l-1 8c0 23 9 44 25 59 15 16 37 25 59 25z m388 0c21 0 41-8 57-22 15-14 24-33 26-54l1-8c0-21-8-42-23-58-15-15-35-24-56-25-22-1-43 6-59 20-16 14-26 34-28 55l-1 8c0 23 9 44 25 59 15 16 36 25 58 25z" horiz-adv-x="1000" />

<glyph glyph-name="door-fill" unicode="&#xe825;" d="M778 850c28 0 55-11 75-30 21-19 34-45 36-73l0-8v-778h56c14 0 27-5 38-15 10-10 16-23 17-37 1-14-4-28-13-39-9-11-22-18-36-20l-6 0h-889c-15 0-28 5-39 15-10 10-16 23-17 37-1 14 4 28 13 39 9 11 22 18 36 20l7 0h55v778c0 28 11 55 30 76 19 20 45 33 73 35l8 0h556z m-139-444c-11 0-22-3-32-7-10-4-19-10-27-18-8-8-14-17-18-27-4-10-6-21-6-32 0-11 2-22 6-32 4-10 10-19 18-27 8-7 17-14 27-18 10-4 21-6 32-6 22 0 43 9 59 24 16 16 24 37 24 59 0 22-8 44-24 59-16 16-37 25-59 25z" horiz-adv-x="1000" />

<glyph glyph-name="door-line" unicode="&#xe826;" d="M778 850c29 0 58-12 78-32 21-21 33-50 33-79v-778h55c15 0 29-6 40-16 10-11 16-25 16-39 0-15-6-29-16-40-11-10-25-16-40-16h-888c-15 0-29 6-40 16-10 11-16 25-16 40 0 14 6 28 16 39 11 10 25 16 40 16h55v778c0 29 12 58 33 79 21 20 49 32 78 32h556z m0-111h-556v-778h556v778z m-139-333c11 0 22-3 32-7 10-4 19-10 27-18 8-8 14-17 18-27 4-10 6-21 6-32 0-11-2-22-6-32-4-10-10-19-18-27-8-7-17-14-27-18-10-4-21-6-32-6-22 0-43 9-59 24-16 16-24 37-24 59 0 22 8 44 24 59 16 16 37 25 59 25z" horiz-adv-x="1000" />

<glyph glyph-name="geo-line-1" unicode="&#xe827;" d="M500 850c116 0 227-47 309-131 82-83 129-197 129-315 0-153-82-277-168-367-43-44-89-84-140-120l-20-14-10-7-18-12-17-10-20-12c-14-8-29-12-45-12-16 0-31 4-45 12l-20 12-26 16-9 6-20 14c-54 37-104 80-150 127-86 90-167 214-167 367 0 118 46 232 128 315 82 84 193 131 309 131z m150-297l-207-210-86 88c-9 9-21 14-34 14-13 0-25-5-34-14-9-10-15-22-15-35 0-14 6-26 15-36l117-119c5-5 10-9 17-12 6-2 13-4 20-4 7 0 14 2 21 4 6 3 12 7 17 12l237 242c9 10 14 22 14 35 0 13-5 26-14 35-9 9-21 14-34 14-13 0-25-5-34-14z" horiz-adv-x="1000" />

<glyph glyph-name="geo-line" unicode="&#xe828;" d="M160 404c0 92 36 180 99 245 64 65 151 102 241 102 90 0 177-37 241-102 63-65 99-153 99-245 0-115-62-216-139-298-76-78-161-133-201-156-40 23-125 78-201 156-77 82-139 183-139 298z m340 446c-116 0-227-47-309-131-82-83-128-197-128-315 0-153 81-277 167-367 86-90 183-150 225-175 28-16 62-16 90 0 43 25 139 85 225 175 86 90 168 214 168 367 0 118-47 232-129 315-82 84-193 131-309 131z m219-367c4 5 8 10 10 16 2 6 4 13 4 19 0 7-2 13-4 19-2 6-6 12-11 16-4 5-9 9-15 11-6 3-13 4-19 4-6 0-13-1-19-4-5-2-11-6-15-11l-207-210-86 88c-9 9-21 14-34 14-13 0-25-5-34-14-9-10-15-22-15-36 0-13 6-25 15-35l117-119c5-5 10-9 17-12 6-2 13-4 20-4 7 0 14 2 21 4 6 3 12 7 17 12l238 242z" horiz-adv-x="1000" />

<glyph glyph-name="gift-fill" unicode="&#xe829;" d="M885 271v-263c0-42-16-82-45-112-30-29-69-46-111-46h-208v421h364z m-468 0v-421h-209c-41 0-81 17-110 46-29 30-46 70-46 112v263h365z m-104 579c29 0 58-6 85-19 27-12 51-30 71-52 19 22 43 40 70 52 27 13 56 19 86 19h26c21 0 41-8 55-23 15-15 23-35 23-56v-26c0-39-10-75-28-105h132c28 0 55-12 74-31 20-20 31-47 31-75v-105c0-19-5-37-14-53h-403v158c0 14-6 28-15 37-10 10-23 16-37 16-14 0-27-6-37-16-10-9-15-23-15-37v-158h-403c-9 16-14 35-14 53v105c0 28 11 55 31 75 19 19 46 31 73 31h132c-18 32-28 68-28 105v26c0 21 9 41 23 56 15 15 35 23 56 23h26z m0-105c0-28 11-55 30-75 20-19 46-30 74-30 0 27-11 54-31 74-19 20-46 31-73 31z m312 0c-28 0-54-11-74-31-19-20-30-47-30-74 28 0 54 11 74 30 19 20 30 47 30 75z" horiz-adv-x="1000" />

<glyph glyph-name="gift-line" unicode="&#xe82a;" d="M313 850c29 0 58-6 85-19 27-12 51-30 71-52 19 22 43 40 70 52 27 13 56 19 86 19h26c21 0 41-8 55-23 15-15 23-35 23-56v-26c0-39-10-75-28-105h132c28 0 55-12 74-31 20-20 31-47 31-75v-158c0-18-5-36-14-52-10-16-23-30-39-39v-277c0-42-16-82-45-112-30-29-69-46-111-46h-521c-41 0-81 17-110 46-29 30-46 70-46 112v277c-16 9-29 23-38 39-9 16-14 34-14 52v158c0 28 11 55 31 75 19 19 46 31 73 31h132c-18 32-28 68-28 105v26c0 21 9 41 23 56 15 15 35 23 56 23h26z m468-579h-260v-316h208l6 1c12 1 23 6 31 15 8 8 14 19 15 31l0 6v263z m-364 0h-261v-263c0-13 5-25 13-35 9-10 21-16 33-17l6-1h209v316z m416 263h-312v-158h312v158z m-416 0h-313v-158h313v158z m-104 211c0-28 11-55 30-75 20-19 46-30 74-30 0 27-11 54-31 74-19 20-46 31-73 31z m312 0c-28 0-54-11-74-31-19-20-30-47-30-74 28 0 54 11 74 30 19 20 30 47 30 75z" horiz-adv-x="1000" />

<glyph glyph-name="heart-fill" unicode="&#xe82b;" d="M500-150l-72 67c-258 239-428 397-428 590 0 157 121 281 275 281 87 0 171-42 225-107 55 65 138 107 225 107 154 0 275-124 275-281 0-193-170-351-427-590l-73-67z" horiz-adv-x="1000" />

<glyph glyph-name="heart-line" unicode="&#xe82c;" d="M505-7l-5-5-5 5c-238 220-395 366-395 514 0 102 75 178 175 178 77 0 152-51 179-120h93c26 69 101 120 178 120 100 0 175-76 175-178 0-148-157-294-395-514z m220 795c-87 0-170-42-225-107-54 65-138 107-225 107-154 0-275-124-275-281 0-193 170-351 428-590l72-67 73 67c257 239 427 397 427 590 0 157-121 281-275 281z" horiz-adv-x="1000" />

<glyph glyph-name="more-h" unicode="&#xe82d;" d="M313 288c-17 0-33 6-45 18-11 12-18 27-18 44 0 17 7 33 18 44 12 12 28 19 45 19 16 0 32-7 44-19 11-11 18-27 18-44 0-17-7-32-18-44-12-12-28-18-44-18z m187 0c-17 0-32 6-44 18-12 12-18 27-18 44 0 17 6 33 18 44 12 12 27 19 44 19 17 0 33-7 44-19 12-11 19-27 19-44 0-17-7-32-19-44-11-12-27-18-44-18z m125 62c0-17 7-32 18-44 12-12 28-18 45-18 16 0 32 6 44 18 11 12 18 27 18 44 0 17-7 33-18 44-12 12-28 19-44 19-17 0-33-7-45-19-11-11-18-27-18-44z" horiz-adv-x="1000" />

<glyph glyph-name="more-v" unicode="&#xe82e;" d="M563 163c0-17-7-33-19-45-11-11-27-18-44-18-17 0-32 7-44 18-12 12-18 28-18 45 0 16 6 32 18 44 12 11 27 18 44 18 17 0 33-7 44-18 12-12 19-28 19-44z m0 187c0-17-7-32-19-44-11-12-27-18-44-18-17 0-32 6-44 18-12 12-18 27-18 44 0 17 6 33 18 44 12 12 27 19 44 19 17 0 33-7 44-19 12-11 19-27 19-44z m-63 125c17 0 33 7 44 18 12 12 19 28 19 45 0 16-7 32-19 44-11 11-27 18-44 18-17 0-32-7-44-18-12-12-18-28-18-44 0-17 6-33 18-45 12-11 27-18 44-18z" horiz-adv-x="1000" />

<glyph glyph-name="shoe-fill" unicode="&#xe82f;" d="M804 762c-4 7-10 13-16 17-6 4-14 7-22 9-21 0-44-17-69-35-6-5-12-9-18-14-28-19-61-37-89-43-43-9-92 4-132 21-46 21-72-27-92-64-4-7-7-13-11-19-15-24-34-54-56-83-8 0-17-1-25-4-8-4-15-9-20-16-5-7-9-15-11-23-1-9 0-17 2-25-16-20-31-39-45-57-10 3-21 3-31-1-10-3-18-9-25-17-6-8-10-18-10-29-1-10 1-20 7-29-56-75-95-135-117-189-19-46-27-88-23-132 3-43 18-83 38-123 27-55 94-70 142-42l767 441c24 14 41 37 48 63 8 27 4 55-10 79l-26 45-316-182c-12-6-26-8-39-4-13 3-25 12-31 24-7 12-9 26-6 39 4 13 12 25 24 31l316 182-104 180z" horiz-adv-x="1000" />

<glyph glyph-name="shoe-line" unicode="&#xe830;" d="M804 762c-8 14-24 26-38 26-24 0-57-25-76-40-29-23-63-45-100-52-27-5-59-1-87 6-5 1-45 15-45 15-56 26-81-47-103-83-15-25-34-54-56-83-8 0-17-1-25-4-8-4-15-9-20-16-6-7-9-15-11-23-1-9 0-17 2-26-16-19-31-38-45-56-10 3-21 3-31-1-10-3-18-9-25-17-6-8-10-18-10-29-1-10 1-20 7-29-56-75-95-135-117-189-19-46-27-88-23-132 3-43 18-83 38-124 27-54 94-69 142-41l767 441c24 14 41 37 48 63 8 27 4 55-10 79l-182 315z m14-232l-74 128c-40-29-84-54-133-64-49-10-100-2-134 8-22 5-21-3-33-22-13-22-29-47-48-73l6-3c6-3 12-7 16-12 5-5 8-11 10-18 3-6 4-13 3-20 0-7-2-14-5-20-3-6-7-11-13-16-5-4-11-8-17-10-7-2-14-3-21-3-6 1-13 3-19 6l-25 12c-12-15-24-30-35-44 11-6 20-18 23-30 4-13 2-27-4-39-7-11-17-20-30-24-13-5-26-4-38 2l-17 8c-56-75-91-129-110-174-13-34-17-60-15-85 2-24 10-50 26-82l765 440-26 45-226-130c-12-6-26-8-39-5-13 4-25 13-32 25-6 11-8 26-5 39 4 13 12 24 24 31l226 130z" horiz-adv-x="1000" />

<glyph glyph-name="shoppingbag-fill" unicode="&#xe831;" d="M900 600h-170v20c0 127-103 230-230 230-127 0-230-103-230-230v-20h-170c-22 0-40-18-40-40v-670c0-22 18-40 40-40h800c22 0 40 18 40 40v670c0 22-18 40-40 40z m-260 0h-280v20c0 77 63 140 140 140 77 0 140-63 140-140v-20z" horiz-adv-x="1000" />

<glyph glyph-name="shoppingbag-line" unicode="&#xe832;" d="M900 600h-170v20c0 127-103 230-230 230-127 0-230-103-230-230v-20h-170c-22 0-40-18-40-40v-670c0-22 18-40 40-40h800c22 0 40 18 40 40v670c0 22-18 40-40 40z m-540 20c0 77 63 140 140 140 77 0 140-63 140-140v-20h-280v20z m490-680h-700v570h120v-110c0-5 5-10 10-10h70c6 0 10 5 10 10v110h280v-110c0-5 5-10 10-10h70c6 0 10 5 10 10v110h120v-570z" horiz-adv-x="1000" />

<glyph glyph-name="user-fill" unicode="&#xe833;" d="M500 300c117 0 222-35 300-83 39-25 73-54 97-85 23-31 41-68 41-107 0-42-20-76-49-99-27-23-63-38-102-48-76-21-179-28-287-28-108 0-211 7-287 28-39 10-74 25-102 48-29 23-48 57-48 99 0 39 17 76 41 107 24 31 57 60 96 85 78 48 184 83 300 83z m0 550c187 0 304-208 211-375-22-38-52-70-89-91-37-22-79-34-122-34-187 0-304 208-210 375 21 38 52 70 89 92 36 21 78 33 121 33z" horiz-adv-x="1000" />

<glyph glyph-name="user-line" unicode="&#xe834;" d="M469 742c-89 0-161-73-161-163 0-90 72-163 161-163 89 0 161 73 161 163 0 90-72 163-161 163z m-269-163c0 150 120 271 269 271 148 0 268-121 268-271 0-150-120-271-268-271-149 0-269 121-269 271z m-20-454c84 49 186 75 289 75 103 0 204-26 288-75 84-49 148-119 177-203 10-28-4-59-32-69-28-10-59 5-69 33-19 55-63 107-129 145-67 39-149 60-235 60-86 0-169-21-235-60-66-38-110-90-130-145-10-28-40-43-68-33-28 10-43 41-33 69 30 84 94 154 177 203z" horiz-adv-x="1000" />

<glyph glyph-name="video-circle-fill" unicode="&#xe835;" d="M500-150c66 0 131 13 191 38 61 25 116 62 163 108 46 47 83 102 108 163 25 60 38 125 38 191 0 66-13 131-38 191-25 61-62 116-108 163-47 46-102 83-163 108-60 25-125 38-191 38-133 0-260-53-354-146-93-94-146-221-146-354 0-133 53-260 146-354 94-93 221-146 354-146z m-68 723l314-174c9-5 16-12 21-21 5-8 8-18 8-28 0-10-3-20-8-28-5-9-12-16-21-21l-314-174c-10-5-21-8-33-8-11 0-23 3-33 9-10 6-18 14-24 24-6 11-9 22-9 34v328c0 12 3 24 9 34 6 10 14 18 24 24 10 6 22 9 33 9 12 0 23-3 33-8z" horiz-adv-x="1000" />

<glyph glyph-name="bell-line" unicode="&#xe836;" d="M160 443c0 190 153 345 340 345 187 0 340-155 340-345v-260c20-8 39-21 54-36 24-25 44-61 44-101 0-26-21-47-46-47h-784c-25 0-45 21-45 47 0 40 19 76 44 101 14 15 33 28 53 36v260z m340 252c-137 0-248-113-248-252v-298c0-26-20-47-46-47-5 0-13-1-20-6h628c-7 5-14 6-20 6-26 0-46 21-46 47v298c0 139-111 252-248 252z m0 155c25 0 46-21 46-47v-32c0-26-21-47-46-47-25 0-46 21-46 47v32c0 26 21 47 46 47z m-98-807c25 0 46-21 46-47 0-29 24-53 52-53 29 0 52 24 52 53 0 26 21 47 46 47 25 0 46-21 46-47 0-80-65-146-144-146-79 0-144 66-144 146 0 26 21 47 46 47z" horiz-adv-x="1000" />

<glyph glyph-name="megaphone-fill" unicode="&#xe837;" d="M923 478v319c0 14-5 28-15 38-10 10-23 15-36 15h-52c-101-104-292-162-410-190v-567c118-28 309-86 410-190h52c13 0 26 5 36 15 10 10 15 23 15 37v319c22 6 42 19 56 38 13 18 21 41 21 64 0 24-8 46-21 65-14 18-34 31-56 37z m-820 162c-28 0-54-12-73-31-19-20-30-47-30-75v-316c0-27 11-54 30-74 19-20 45-31 73-31h51l51-263h103v790h-205z" horiz-adv-x="1000" />

<glyph glyph-name="megaphone-line" unicode="&#xe838;" d="M308 113c0 0 359-52 512-210h52c13 0 26 5 36 15 10 10 15 23 15 37v319c22 6 42 19 56 38 13 18 21 41 21 64 0 24-8 46-21 65-14 18-34 31-56 37v319c0 14-5 28-15 38-10 10-23 15-36 15h-52c-153-158-512-210-512-210h-205c-28 0-54-12-73-31-19-20-30-47-30-75v-316c0-27 11-54 30-74 19-20 45-31 73-31h51l51-263h103v263z m102 439c35 8 79 19 125 33 86 26 196 66 285 130v-677c-89 63-199 104-285 130-41 13-83 23-125 33v351z m-307-18h205v-316h-205v316z" horiz-adv-x="1000" />

<glyph glyph-name="_history-line" unicode="&#xe839;" d="M457 841c103 21 210 5 303-46 92-51 165-134 205-234 41-100 46-212 16-316-31-103-95-193-183-254-87-60-192-87-297-76-105 10-203 58-277 135-18 18-18 48 0 66 18 18 47 18 64 0 60-61 138-99 222-108 84-8 168 13 238 62 70 48 121 119 145 203 25 83 21 172-12 252-32 80-90 146-164 187-74 41-160 54-243 37-82-17-156-63-210-130-53-67-82-151-82-238v-93c0-26-20-47-46-47-25 0-45 21-45 47v93c0 109 36 214 103 298 67 83 160 141 263 162z m43-225c25 0 46-21 46-47v-188h181c25 0 46-21 46-47 0-25-21-46-46-46h-227c-25 0-45 21-45 46v235c0 26 20 47 45 47z m-487-202c18 19 47 19 65 0l58-60 59 60c18 19 47 19 64 0 18-18 18-48 0-66l-90-94c-18-18-47-18-65 0l-91 94c-17 18-17 48 0 66z" horiz-adv-x="1000" />

<glyph glyph-name="refresh-line" unicode="&#xe83a;" d="M500 694c-195 0-344-141-344-297 0-26-21-47-47-47-25 0-46 21-46 47 0 219 201 391 437 391 132 0 240-62 313-120 11-9 21-18 31-27v100c0 26 21 47 47 47 26 0 47-21 47-47v-219c0-26-21-47-47-47h-188c-26 0-47 21-47 47 0 26 21 47 47 47h81c-9 8-19 17-30 26-64 51-152 99-254 99z m391-344c26 0 47-21 47-47 0-218-202-391-438-391-132 0-240 62-312 120-12 9-22 18-32 27v-100c0-26-21-47-47-47-25 0-46 21-46 47v219c0 26 21 47 46 47h188c26 0 47-21 47-47 0-26-21-47-47-47h-81c9-8 19-17 30-26 64-51 152-99 254-99 196 0 344 141 344 297 0 26 21 47 47 47z" horiz-adv-x="1000" />

<glyph glyph-name="quizze-fill" unicode="&#xe83b;" d="M125 850c-69 0-125-56-125-125l0-750c0-69 56-125 125-125l750 0c69 0 125 56 125 125l0 750c0 69-56 125-125 125l-750 0z m172-102c35 0 65-8 93-24 27-16 48-39 64-70 15-30 23-66 23-108 0-34-5-66-17-93-11-27-26-49-47-67l55-70-69 0-33 41c-21-8-44-12-69-12-34 0-65 8-93 24-27 16-48 39-64 70-15 30-23 66-23 107 0 42 8 78 23 108 16 31 37 54 64 70 28 16 59 24 93 24z m0-63c-21 0-41-6-57-16-16-11-29-27-38-48-9-20-14-45-14-75 0-29 5-54 14-75 9-20 22-36 38-47 16-11 36-16 57-16 10 0 20 1 29 4l-53 70 64 0 34-44c11 12 20 27 26 45 6 18 9 40 9 63 0 30-5 55-14 75-9 21-21 37-38 48-16 10-35 16-57 16z m328-272l250 0 0-63-250 0 0 63z m-437-188l687 0 0-62-687 0 0 62z m0-187l687 0 0-63-687 0 0 63z" horiz-adv-x="1000" />

<glyph glyph-name="calendar-fill" unicode="&#xe83c;" d="M938 600c0 33-14 65-37 88-24 24-55 37-88 37h-32v30c0 17-13 32-29 33-5 0-9-1-13-2-4-2-7-4-11-7-3-3-5-7-7-10-1-4-2-8-2-13v-31h-438v30c0 17-13 32-29 33-5 0-9-1-13-2-4-2-7-4-11-7-3-3-5-7-7-10-1-4-2-8-2-13v-31h-31c-34 0-65-13-89-37-23-23-36-55-36-88v-23c0-2 0-4 2-6 1-1 3-2 5-2h860c2 0 4 1 5 2 2 2 3 4 3 6v23z m-875-562c0-34 13-65 36-89 24-23 55-37 89-37h625c33 0 64 14 88 37 23 24 37 55 37 89v462c0 2-1 3-2 5-1 1-3 1-4 1h-864c-1 0-3 0-4-1-1-2-1-3-1-5v-462z m671 406c10 0 19-3 26-8 8-5 14-13 18-21 3-9 4-18 2-27-1-9-6-18-12-24-7-7-15-11-24-13-10-2-19-1-28 3-8 3-15 9-21 17-5 8-7 17-7 26 0 12 4 24 13 33 9 9 21 14 33 14z m0-156c10 0 19-3 26-8 8-5 14-13 18-21 3-9 4-18 2-27-1-10-6-18-12-24-7-7-15-11-24-13-10-2-19-1-28 2-8 4-15 10-21 18-5 7-7 16-7 26 0 12 4 24 13 33 9 9 21 14 33 14z m-156 156c9 0 19-3 26-8 8-5 14-13 17-21 4-9 5-18 3-27-2-9-6-18-13-24-6-7-15-11-24-13-9-2-18-1-27 3-8 3-16 9-21 17-5 8-8 17-8 26 0 12 5 24 14 33 9 9 21 14 33 14z m0-156c9 0 19-3 26-8 8-5 14-13 17-21 4-9 5-18 3-27-2-10-6-18-13-24-6-7-15-11-24-13-9-2-18-1-27 2-8 4-16 10-21 18-5 7-8 16-8 26 0 12 5 24 14 33 9 9 21 14 33 14z m0-157c9 0 19-2 26-8 8-5 14-12 17-21 4-8 5-18 3-27-2-9-6-17-13-24-6-6-15-11-24-13-9-1-18 0-27 3-8 4-16 10-21 17-5 8-8 17-8 26 0 13 5 25 14 34 9 8 21 13 33 13z m-156 157c9 0 18-3 26-8 8-5 14-13 17-21 4-9 5-18 3-27-2-10-6-18-13-24-6-7-15-11-24-13-9-2-18-1-27 2-9 4-16 10-21 18-5 7-8 16-8 26 0 12 5 24 14 33 9 9 20 14 33 14z m0-157c9 0 18-2 26-8 8-5 14-12 17-21 4-8 5-18 3-27-2-9-6-17-13-24-6-6-15-11-24-13-9-1-18 0-27 3-9 4-16 10-21 17-5 8-8 17-8 26 0 13 5 25 14 34 9 8 20 13 33 13z m-156 157c9 0 18-3 26-8 7-5 13-13 17-21 4-9 4-18 3-27-2-10-7-18-13-24-7-7-15-11-24-13-9-2-19-1-27 2-9 4-16 10-21 18-5 7-8 16-8 26 0 12 5 24 14 33 8 9 20 14 33 14z m0-157c9 0 18-2 26-8 7-5 13-12 17-21 4-8 4-18 3-27-2-9-7-17-13-24-7-6-15-11-24-13-9-1-19 0-27 3-9 4-16 10-21 17-5 8-8 17-8 26 0 13 5 25 14 34 8 8 20 13 33 13z" horiz-adv-x="1000" />

<glyph glyph-name="calendar-line" unicode="&#xe83d;" d="M250 788a31 31 0 0 1-31-32l0-31-31 0c-69 0-125-56-125-125l0-562c0-69 56-126 125-126l625 0c68 0 125 57 125 126l0 562c0 69-57 125-125 125l-32 0 0 31a31 31 0 0 1-31 32 31 31 0 0 1-31-32l0-31-438 0 0 31a31 31 0 0 1-31 32z m-62-125l62 0 500 0 63 0c34 0 62-28 62-63l0-31-750 0 0 31c0 35 28 63 63 63z m-63-157l750 0 0-468c0-35-28-63-62-63l-625 0c-35 0-63 28-63 63l0 468z m451-62c-25-1-45-22-45-47 0-26 21-47 47-47 26 0 47 21 47 47 0 26-21 47-47 47-1 0-1 0-2 0z m156 0c-25-1-44-22-44-47 0-26 21-47 46-47 26 0 47 21 47 47 0 26-21 47-47 47 0 0-1 0-2 0z m-469-156c-25-2-44-22-44-47 0-26 21-47 47-47 26 0 47 21 47 47 0 26-21 47-47 47-1 0-2 0-3 0z m156 0c-24-2-44-22-44-47 0-26 21-47 47-47 26 0 47 21 47 47 0 26-21 47-47 47-1 0-2 0-3 0z m157 0c-25-2-45-22-45-47 0-26 21-47 47-47 26 0 47 21 47 47 0 26-21 47-47 47-1 0-1 0-2 0z m156 0c-25-2-44-22-44-47 0-26 21-47 46-47 26 0 47 21 47 47 0 26-21 47-47 47 0 0-1 0-2 0z m-469-157c-25-1-44-21-44-47 0-25 21-46 47-46 26 0 47 21 47 46 0 26-21 47-47 47-1 0-2 0-3 0z m156 0c-24-1-44-21-44-47 0-25 21-46 47-46 26 0 47 21 47 46 0 26-21 47-47 47-1 0-2 0-3 0z m157 0c-25-1-45-21-45-47 0-25 21-46 47-46 26 0 47 21 47 46 0 26-21 47-47 47-1 0-1 0-2 0z" horiz-adv-x="1000" />

<glyph glyph-name="incall-fill" unicode="&#xe83e;" d="M842 119c67-60 87-101 99-124 3-5 4-11 3-17-1-6-4-12-8-16-60-60-99-104-156-110-128-16-318 85-505 273-188 187-289 377-273 505 6 57 50 96 111 156 4 5 9 7 15 8 6 1 12 0 17-3 23-12 64-32 124-99 62-68 82-119 86-148 0-5-1-10-3-15-2-5-5-10-9-14-23-22-75-70-82-94-9-30 8-67 38-111 19-27 45-58 74-87 29-29 60-55 87-74 44-30 81-47 111-38 24 7 72 59 95 82 3 4 8 7 13 9 5 2 10 3 15 3 29-4 80-24 148-86z m-237 660c28 0 50-23 50-50l1-154 259 260c5 5 10 9 16 11 6 3 13 4 19 4 7 0 13-1 19-4 6-2 12-6 16-11 10-9 15-22 15-35 0-13-5-26-15-35l-259-260h151c28 0 50-22 50-50 0-6-1-13-3-19-3-6-7-11-11-16-5-4-10-8-16-11-6-2-13-3-19-3h-265c-16 0-30 6-41 16-10 11-16 26-16 41l0 266c0 27 22 50 49 50z" horiz-adv-x="1000" />

<glyph glyph-name="map-fill" unicode="&#xe83f;" d="M469 850c-224 0-406-179-406-400-2-322 390-589 406-600 0 0 408 278 406 600 0 221-182 400-406 400z m0-600c-112 0-203 90-203 200 0 111 91 200 203 200 112 0 203-89 203-200 0-110-91-200-203-200z" horiz-adv-x="1000" />

<glyph glyph-name="map-line" unicode="&#xe840;" d="M439-141c9-6 19-9 30-9 10 0 21 3 29 9 16 11 379 269 377 591 0 221-182 400-406 400-224 0-406-179-406-400-2-322 361-580 376-591z m30 891c168 0 304-135 304-300 2-222-222-421-304-487-82 66-306 265-305 487 0 165 137 300 305 300z m0-500c112 0 203 90 203 200 0 110-91 200-203 200-112 0-203-90-203-200 0-110 91-200 203-200z m0 300c56 0 101-45 101-100 0-55-45-100-101-100-56 0-102 45-102 100 0 55 46 100 102 100z" horiz-adv-x="1000" />

<glyph glyph-name="mobile-fill" unicode="&#xe841;" d="M125 719c0 71 55 131 126 131h436c71 0 126-60 126-131v-738c0-71-55-131-126-131h-436c-72 0-126 60-126 131v738z m267-23c-10 0-19-4-27-11-7-7-11-17-11-27 0-10 4-20 11-27 8-8 17-12 27-12h153c10 0 20 4 27 12 7 7 11 17 11 27 0 10-4 20-11 27-7 7-17 11-27 11h-153z" horiz-adv-x="1000" />

<glyph glyph-name="mobile-line" unicode="&#xe842;" d="M125 719c0 71 55 131 126 131h436c71 0 126-60 126-131v-738c0-71-55-131-126-131h-436c-71 0-126 60-126 131v738z m126 54c-26 0-50-22-50-54v-738c0-32 24-54 50-54h436c25 0 49 22 49 54v738c0 32-24 54-49 54h-436z m103-115c0 21 17 38 38 38h153c21 0 38-17 38-38 0-21-17-39-38-39h-153c-21 0-38 18-38 39z" horiz-adv-x="1000" />

<glyph glyph-name="ticket-use" unicode="&#xe843;" d="M550 725c12 0 24-5 33-13 9-8 15-19 17-32l0-6c0-13 5-25 14-35 8-9 20-15 33-15 13-1 25 3 35 11 10 9 16 20 18 33l0 6c0 14 5 27 15 36 9 10 22 15 35 15h100c40 0 78-16 106-45 28-28 44-67 44-107v-508c0-41-16-79-44-108-28-29-66-45-106-45h-100c-12 0-24 5-33 13-9 9-15 20-17 32l0 6c0 13-5 26-14 35-8 10-20 15-33 16-13 1-25-3-35-12-10-8-16-20-18-33l0-6c0-13-5-26-15-36-9-9-22-15-35-15h-400c-40 0-78 16-106 45-28 29-44 67-44 108v508c0 40 16 79 44 107 28 29 66 45 106 45h400z m-112-335l-122-138-86 98-42-41 128-146 184 208-42 42-20-23z m250-102c-17 0-33-7-45-19-11-11-18-27-18-44 0-17 7-32 18-44 12-12 28-18 45-18 16 0 32 6 44 18 11 12 18 27 18 44 0 17-7 33-18 44-12 12-28 19-44 19z m0 187c-17 0-33-7-45-18-11-12-18-28-18-44 0-17 7-33 18-45 12-11 28-18 45-18 16 0 32 7 44 18 11 12 18 28 18 45 0 16-7 32-18 44-12 11-28 18-44 18z" horiz-adv-x="1000" />

<glyph glyph-name="ticket-line" unicode="&#xe844;" d="M550 725c12 0 24-5 33-13 9-8 15-19 17-32l0-6c0-13 5-25 14-35 8-9 20-15 33-15 13-1 25 3 35 11 10 9 16 20 18 33l0 6c0 14 5 27 15 36 9 10 22 15 35 15h100c40 0 78-16 106-45 28-28 44-67 44-107v-508c0-41-16-79-44-108-28-29-66-45-106-45h-100c-12 0-24 5-33 13-9 9-15 20-17 32l0 6c0 13-5 26-14 35-8 10-20 15-33 16-13 1-25-3-35-12-10-8-16-20-18-33l0-6c0-13-5-26-15-36-9-9-22-15-35-15h-400c-40 0-78 16-106 45-28 29-44 67-44 108v508c0 40 16 79 44 107 28 29 66 45 106 45h400z m-400-94c-14 0-29-6-39-16-11-11-17-26-17-42v-508l0-6c1-14 7-27 17-36 10-11 25-17 39-17h363c8 26 23 50 44 68l11 8c23 16 49 25 77 26l14 0 13-2c28-4 53-16 73-34l10-10 9-10c10-14 18-29 23-46h63l5 1c13 1 25 6 34 16 10 9 16 22 17 36l0 6v508c0 16-6 31-17 42-10 10-25 16-39 16h-63c-8-26-23-49-44-67-28-24-64-36-101-34-37 2-72 19-97 46-15 16-26 35-32 55h-363z m431-174c-12-12-18-28-18-44 0-17 6-33 18-45 12-11 27-18 44-18 17 0 33 7 44 18 12 12 19 28 19 45 0 16-7 32-19 44-11 11-27 18-44 18-17 0-32-7-44-18z m0-188c-12-11-18-27-18-44 0-17 6-32 18-44 12-12 27-18 44-18 17 0 33 6 44 18 12 12 19 27 19 44 0 17-7 33-19 44-11 12-27 19-44 19-17 0-32-7-44-19z" horiz-adv-x="1000" />

<glyph glyph-name="arrow-classic-down" unicode="&#xe845;" d="M547 663l0-579 233 220c19 18 49 17 67-2 17-19 17-49-2-66l-313-295-7-6c-18-11-41-9-57 6l-313 295c-18 17-19 47-2 66 18 19 48 20 67 2l233-220 0 579c0 25 21 46 47 46 26 0 47-21 47-46z" horiz-adv-x="1000" />

<glyph glyph-name="arrow-classic-left" unicode="&#xe846;" d="M844 272l-579 0 220-234c18-18 17-48-2-66-19-18-48-17-66 2l-295 313-5 7c-12 18-10 41 5 57l295 312c18 19 47 20 66 2 19-17 20-47 2-66l-220-233 579 0c26 0 47-21 47-47 0-26-21-47-47-47z" horiz-adv-x="1000" />

<glyph glyph-name="arrow-classic-right" unicode="&#xe847;" d="M156 366l579 0-220 233c-18 19-17 49 2 66 19 18 48 17 66-2l295-312 5-7c12-18 10-42-5-57l-295-313c-18-19-47-20-66-2-19 18-20 48-2 66l220 234-579 0c-26 0-47 21-47 47 0 26 21 47 47 47z" horiz-adv-x="1000" />

<glyph glyph-name="arrow-classic-up" unicode="&#xe848;" d="M453-25v579l-233-220c-19-18-49-17-67 2-17 19-16 48 2 66l313 295 7 5c18 11 41 10 57-5l313-295c19-18 19-47 2-66-18-19-48-20-67-2l-233 220v-579c0-26-21-47-47-47-26 0-47 21-47 47z" horiz-adv-x="1000" />
</font>
</defs>
</svg>
